<svg xmlns="http://www.w3.org/2000/svg" width="29.673" height="19.093" viewBox="0 0 29.673 19.093">
  <path id="Path_49663" data-name="Path 49663" d="M303.421,38.816c.152.409-.084.922.281,1.274.628.607.889.856.866,1.071-.052.451-.485.669-1.5.745a9.4,9.4,0,0,1-2.88.28,5.22,5.22,0,0,0-2.483-.273c-.156.529.415.98.132,1.523a3.05,3.05,0,0,1-1.446.991c.548.36,1.572,1.031.076,1.625-.036.556-.4.925-2.1,1.047.11.782-.526,1.4-.395,2.187.1.589.953.367.937,1.074-.006.238-.056.433-.636.793a2.822,2.822,0,0,1,1.009,1.4c1.328.429,2.7.64,4.03,1.078l.034.064.209-.009c1.609.033,2.293.689,1.809,1.234-.507.565-1.282.807-1.576,1.629a1.907,1.907,0,0,0-.156.693c.269.264,1.657.069,1.913,0,1.883-.5,6.431.649,6.467.662,4.318-.144,4.318-.144,4.373-.173a10.29,10.29,0,0,1,4.5-.38l.213.058c-.411-.865-.066-1.338,1.189-1.64.568-.158,1.055-.553,1.625-.707-.911-.393-1.751-.725-2.3-.931-.879-.356-.879-.356-2.263-2.192-.718-.651-1.338-1.216-.548-1.6l7.538-1.78a4.783,4.783,0,0,1,1.2.071l.088-.142a.849.849,0,0,0-.048-.173,22.724,22.724,0,0,1-1.284-2.189c-.371-.878-1.2-1.222-1.755-1.894-.1-.122-.289-.451.128-.869.644-.649.038-1.758.032-1.769-.664-1.311-2.69.178-2.981-1.511-.13-.071-1.344-.662-4.036.738-2.728,1.42-4.364.093-4.244-.636-3.6-.287-3.6-.3-3.7-1.2-.78.029-1.548-.136-2.323-.18" transform="translate(-293.962 -38.816)" fill="#fff" />
</svg>
