<svg xmlns="http://www.w3.org/2000/svg" width="212.201" height="64.235" fill="#fff" viewBox="0 0 212.201 64.235">
  <path id="Path_49772" data-name="Path 49772" d="M169.164,54.14l-.219.318-.287.511c-28.905,3.314-67.478,7.419-96.34,11.187-1.661,3.272-2.76,5.432-5.943,4.736.586-1.345.586-1.345,1.635-1.765l-.784-.814c-1.7.262-1.847.276-3.257.4-.174.331-.4.773-.576,1.1a5.315,5.315,0,0,1,.283,2.32c.259.224.606.525.868.749-.959,1.089-.959,1.089-1.978,1.242l-.016,0c-.032.051-5.58,7.508-7.65,9.64.018,2.576.018,2.576-3.191,9.2,3.428,4.4,3.428,4.4,3.512,4.47a5.376,5.376,0,0,1-.584,2.238,23.252,23.252,0,0,0,1.96,1.418,15.914,15.914,0,0,1,1.5,1.934c1.484.144,2.9.74,4.385.838,2.792-.347,3.757.453,3.969,3.292l8.522-1.665c1.46.545,1.46.545,11.858,1.918l10.009-1.194,1.741-1.142,6.663-.742c1.657,1.165,3.628,1.774,4.984,3.474-.034.365-.08.851-.114,1.216a18.3,18.3,0,0,0,3.378,1.142c4.066-3.507,4.066-3.507,12.773,2.267a20.639,20.639,0,0,1,.237,2.654,11.33,11.33,0,0,0,4.485.918c-.144-.338-.337-.787-.481-1.125,3.985-6.452,16.213-9.506,16.792-9.5a4.288,4.288,0,0,1,2.21-1.158c.343.029.8.04,1.141.1,1.488-.611,2.9.365,4.365.251l.219-.02c.433-.338.433-.338,5.225.293.345-.031.806-.078,1.151-.1l.317-.018c1.053-.9,1.591-1.229,2.7-.891.05-.38.118-.885.167-1.265a9.653,9.653,0,0,1,4.427-1.347c.491-.024,1.147-.053,1.637-.058h.229l11.32.822,1.085-.222c3.879-2.056,3.879-2.056,8.18,1.431-.612,4.583-.612,4.583.2,5.372-.062.356-.144.831-.205,1.189,1.749,1.214,1.749,1.214,2.252,2.547.319.009.744.018,1.063.024,3.865-4.341-2.052-10.222,1.845-14.558.078-.087,11.543-9.342,21.409-11.3l.351-.067c-.162-.311-.379-.722-.54-1.031,1.314-1.747,3.275-.918,4.878-1.518l-1-.453c.116-.347.267-.807.383-1.151l.724-.3a16.39,16.39,0,0,0-2.086-.689,5.647,5.647,0,0,0,.281-2.3l-1.007-.458c.13-.331.3-.771.433-1.1,2.333-.851,3.251-4.512,6.3-3.934a8.978,8.978,0,0,1-1.426,1.914,10.492,10.492,0,0,1,.718,2.316,11.759,11.759,0,0,0,1.4-1.869c-.191-.3-.445-.711-.634-1.016.066-.082,8.882-8.288,20.379-8.357-.158-.325-.369-.758-.528-1.082.211-.378.459-.969.814-1.174.032-.053.032-.053,16.237-7.07-1.173-2.167-1.657-3.065-.616-5.283-5.995-.816-9.682,4.652-14.634,6.675l-.239.093c-4.136.316-8.27.653-12.4.971-8.869,2.925-17.262,7.321-26.075,10.415-6.322,2.194-8.2,1.414-9.457.511.227-1.136.536-2.692,4.216-2.483.662-3.1.662-3.1.662-3.223-1.284.227-2.475.84-3.749,1.114l-.536.009c.124-1.082.124-1.082,2.954-3.663-.044-.365-.1-.853-.146-1.218-9.09-4.183-9.377,13.627-18.587,10.564-.768-2.3.2-3.512,3.7-7.361-.066-.38-.152-.887-.217-1.267,3.366-2.443,3.366-2.443,14.616-4.488l-.371-.142-12.371.051a7.248,7.248,0,0,1-2.122-.713c-6.591,2.732-6.591,2.732-12.666,2.323-.044-.36-.1-.838-.146-1.2.724-.491,2.926-1.991,7.977-3.15a10.285,10.285,0,0,0-1.282.062c-2.363,1.1-2.965.785-4.29.1l-.162-.011a76.194,76.194,0,0,1-8.7-.538l-.1-1.136" transform="translate(-51.709 -51.764)" fill="#fff"/>
</svg>
