<svg fill="#FFFFFF" xmlns="http://www.w3.org/2000/svg"  viewBox="0 0 64 64" width="48px" height="48px"><path d="M32,10c12.15,0,22,9.85,22,22s-9.85,22-22,22s-22-9.85-22-22S19.85,10,32,10z M36.95,39.778	c0.781,0.781,2.047,0.781,2.828,0c0.781-0.781,0.781-2.047,0-2.828c-0.175-0.175-2.767-2.767-4.95-4.95	c2.183-2.183,4.774-4.774,4.95-4.95c0.781-0.781,0.781-2.047,0-2.828c-0.781-0.781-2.047-0.781-2.828,0	c-0.175,0.175-2.767,2.767-4.95,4.95c-2.183-2.183-4.775-4.775-4.95-4.95c-0.781-0.781-2.047-0.781-2.828,0	c-0.781,0.781-0.781,2.047,0,2.828c0.175,0.175,2.767,2.767,4.95,4.95c-2.183,2.183-4.774,4.774-4.95,4.95	c-0.781,0.781-0.781,2.047,0,2.828c0.781,0.781,2.047,0.781,2.828,0c0.175-0.175,2.767-2.767,4.95-4.95	C34.183,37.011,36.775,39.603,36.95,39.778z"/></svg>