<svg xmlns="http://www.w3.org/2000/svg" xmlns:xlink="http://www.w3.org/1999/xlink" width="343.165" height="326.215" viewBox="0 0 343.165 326.215">
  <defs>
    <clipPath id="clip-path">
      <rect id="Rectangle_1438" data-name="Rectangle 1438" width="343.165" height="326.215" fill="#00b7e9"/>
    </clipPath>
  </defs>
  <g id="Group_4209" data-name="Group 4209" clip-path="url(#clip-path)">
    <path id="Path_48849" data-name="Path 48849" d="M11.1,113.142q-.376,1.037-.73,2.084a105.761,105.761,0,0,1,4.254-10.415,78.022,78.022,0,0,0-3.524,8.331M6.717,220.957l-2.393-9.319C1.414,195.924.633,191.7.072,173.205c.782-18.529.8-18.883,2.488-28.937,3.763-17.647,3.835-17.984,7.12-27.479,6.373-16.143,6.622-16.774,11.419-25.62C29.881,76.5,30.224,75.929,36.526,67.787,46.938,55.462,47.789,54.455,55.763,47.013c4.39-3.752,10.305-8.69,14.9-12.191l.038-.027c7.158-4.656,7.158-4.656,8.054-4.876-.44.749-.344.705-.247.661l.294-.132.3-.133c.1-.045.2-.091.308-.135l.317-.138c.109-.047.219-.095.329-.141l.341-.146.356-.148c-1.294,1.172-1.615,1.477-2.854,2.721l.41-.162L78.722,32l.425-.165.434-.166.443-.167.453-.168.462-.17.472-.171c-1.2,2.177-5.264,4.318-10.41,7.027,1.145.268,1.145.268,4.684-1.468a3.054,3.054,0,0,0,1.813.078c-.062.188-3.727,4.8-8.085,6.557l-.586-.85-1.02.144a9.4,9.4,0,0,1-1.475,2.843,11.834,11.834,0,0,0,2-.97c-.167.281-.389.657-.555.937a8.633,8.633,0,0,0,1.95-.417c-.029,1.138.4,2.216.441,3.345a10.55,10.55,0,0,1-2.931,2.246l.75.665c-.4.526-.974,1.206-1.432,1.686-.532.474-.646.511-.76.547l-.339.107-.333.107-.329.106-.324.105-.319.1-.315.1-.31.1c.131-.315.305-.734.436-1.049-1.4,1.671-2.012,3.771-3.052,5.637-1.439.029-2.717.826-4.153.865-.985.442-1.075.589-1.167.737l-.265.434-.259.43-.255.426L54.557,62c-.084.143-.168.286-.252.429l-.254.433c-.085.147-.17.293-.255.44,2.654,2.135,6.243,2.125,9.037,3.939.034.35.078.816.112,1.166-2.344,2.515-9.632,4.3-12.509-3.784l-1.174.008c.207-1.011.207-1.011,1.6-4.011l-.586-.8c.1-.292.1-.292,1.389-3.455-1.234.2-1.234.2-2.576,1.933L50,58.7c-.638,2.291-3.821,5.22-3.85,5.242-.721-2.121.446-3.852,1.683-5.684-3.223,2.824-3.223,2.824-4.875,4.949-.322.376-.379.412-.435.448l-.17.11-.171.111-.17.112-.17.113-.169.113-.169.114-.167.114-.19.131-.185.128-.178.125-.168.118-.157.112-.142.1-.126.091-.108.079c-9.416,10.593-9.416,10.593-18.947,26.4a9.791,9.791,0,0,0-.785,1.292q-.221.433-.439.867t-.424.85q-.206.416-.409.833t-.394.817q-.193.4-.382.8t-.37.789q-.18.387-.359.777C-2.79,138.028,2.4,195.707,3.65,206.871,2.137,201.84,1.459,192.476.964,185.639c-.143-3.715.285-7.452-.44-11.143a156.359,156.359,0,0,0,6.193,46.461M143.886,342.789c-.784-.055-.784-.055-7.071-1.261-7.344-1.652-7.784-1.751-12.012-2.944-2.886-.888-6.739-2.063-9.6-3.037l.208.073c.725.25,2.074.715,3.343,1.1-.4-.131-.795-.259-1.192-.389,20.911,6.53,40.661,4.707,53.547,2.027l-.159.064c-5.663,1.606-11.566,1.95-17.28,3.287.766-.025,1.533-.059,2.3-.106a28.065,28.065,0,0,1-6.106.547,1.761,1.761,0,0,1,.58.292c-1.31.5-1.31.5-8.053-.083a19.711,19.711,0,0,0,2.393.379,3.409,3.409,0,0,1-.9.055" transform="translate(-0.072 -16.588)" fill="#00b7e9"/>
    <path id="Path_48850" data-name="Path 48850" d="M282.406,334.693c-7.877,5.25-7.877,5.25-26.535,14.334.7-.012,6.822-2.974,6.882-3,4.771-2.518,11.069-6,15.7-8.766l5.54-3.64q-.79.542-1.588,1.075" transform="translate(-15.618 -35.064)" fill="#00b7e9"/>
    <path id="Path_48851" data-name="Path 48851" d="M287.25,332.539q-.361.252-.722.5l1.933-1.357q-.6.431-1.211.856" transform="translate(-17.481 -34.947)" fill="#00b7e9"/>
    <path id="Path_48854" data-name="Path 48854" d="M50.031,68.109c-1.058,2.025-.931,2.928-.667,3.544,2.6-2.325,2.605-2.368,2.867-4.652l-.16.069-.154.067-.147.063-.142.062-.136.059-.132.058-.129.056-.126.055-.123.054-.122.054-.121.054-.12.054-.121.054-.122.054-.123.055-.126.057c-.028.054-.068.127-.1.181" transform="translate(-3.057 -18.861)" fill="#00b7e9"/>
    <path id="Path_48856" data-name="Path 48856" d="M80.7,134.721h0a.1.1,0,0,0-.052,0l.054,0M139.219,342.3l.032.008.032.008.033.008.032.008.032.008.032.008.033.008.032.008.032.008.033.008.032.008.032.008.033.008.032.008.032.008.033.008.032.008.032.008.033.007.032.008.033.008.032.008.032.008.033.008.032.007.033.008.032.008.033.008.032.008.033.008.032.008-.022,0-.021,0-.022,0-.021,0-.021,0-.02,0-.021,0-.02,0-.033-.007-.033-.008-.032-.007-.033-.008-.032-.008-.033-.008-.033-.008-.032-.007-.033-.008-.032-.008-.033-.008-.033-.008-.032-.008-.033-.008-.032-.008-.033-.008-.032-.008-.033-.008-.032-.008-.033-.007-.032-.008-.033-.008-.032-.008-.033-.008-.032-.008-.033-.008-.032-.008-.033-.008-.032-.008-.033-.008-.032-.007-.033-.008.022,0,.021,0,.021,0,.022,0,.022,0,.022,0,.022,0,.023,0,.032.008M98.237,306.12h0m0,0h0m0,0h0m0,0h0m0,0h0m0,0h0m0,0h0m0,0h0m0,0h0m0,0h0m0,0h0m0,0h0m0,0h0m0,0h0m0,0h0m0,0h0m0,0h0m0,0h0m0,0h0m0,0h0m0,0h0m0,0h0m0,0h0m0,0h0m0,0h0m0,0h0m0,0h0m0,0h0m0,0h0m0,0h0m0,0h0m0,0h0m0,0h0m0,0h0m0,0h0m0,0h0m0,0h0m0,0h0m0,0h0m0,0h0m0,0h0m0,0h0m0,0h0m0,0h0m0,0h0m0,0h0m0,0h0m0,0h0m0,0h0m0,0h0m0,0h0m0,0h0m0,0h0m0,0h0m0,0h0m0,0h0m0,0h0m0,0h0m0,0h0m0,0h0m0,0h0m0,0h0m-.064-.121.011.023.011.021.01.02.009.018.008.016.007.013.006.01a.4.4,0,0,1-.2.356c-.087-.1-.183-.2-.27-.3-.023-.028-.073-.042-.06-.093.008-.036.008-.036.457-.1l.012.022m39.8,15.334a19.287,19.287,0,0,0-2.528-2.072c-.017-.483-.039-1.127-.054-1.61-23.354-10.645-23.354-10.645-29.509-11.573a6.091,6.091,0,0,1-2.975,1.2c.209-.429.49-1,.7-1.43-1.091-1.1-1.091-1.1-5.194-.634,2.177-8.636-15.931-17.251-16.13-17.274l-.98,1.343C67.5,277.04,67.5,277.04,67.589,274.675c-2.743-.434-2.743-.434-23.04-10.523-.086.539-.2,1.258-.287,1.8l-1.757.224a19.207,19.207,0,0,0,.24,6.552c-3.356-4-3.887-4.544-6.307-6.459C24.307,268.7,33.3,245.687,20.947,245.081c-2.109-6.06-1.33-12.968-5.428-18.442l-1.506.351a18.95,18.95,0,0,0,.133,4.114l-1.3.838c-.095-.1-9.236-11.945-6.456-34.978a10.19,10.19,0,0,1,1.535,2.952c.132-.512.31-1.195.442-1.707.587-.982.6-.815.6-.648s.017.329.026.493.018.32.026.48.018.308.028.462.018.293.026.44.018.276.027.413l.025.381c.008.116.016.231.023.346a19.373,19.373,0,0,0,1.685,2.851,6.9,6.9,0,0,0,.523-3.117c.424-.2.99-.465,1.414-.664,9.735,6.236,7.024,18.394,12.654,26.584,1.22-10.449-7.425-21.529,2.013-31.453l2.059.093c5.714-6.329,2.847-17.39,12.024-21.809a15.572,15.572,0,0,0,3.263.734l1.294-1.476c-.631-2.078-.668-2.6.219-5.266,5.728-2.363,10.1-7.33,16.432-8.539-.867,4.056-8.312,4.956-6.1,10.034L69.167,162.4c-.408-2.107-.415-2.146-3.228-4.015l-1.2-.486,0,0h-.019l0,0h0c-3.514-2.926,1.38-7.456-1.986-10.409-2.384.17-3.1.222-6.676,2.128,1.454-3.357,5.131-3.945,7.57-6.075.076.073,7.724,7.295,15.732.67.779-.426.99-.384,1.2-.342l.644.127.653.128.662.129.672.128.681.13.689.129.7.13c2.046-9.11,2.046-9.11-.131-11.059a11.643,11.643,0,0,1-4.473,1.025,21.443,21.443,0,0,0,4.7-3.522,8.291,8.291,0,0,1-1.507-3l-1.622.133c-.628-1.339-1.171-2.5.905-9.649l-1.072-1.324c.04-.11.08-.221.119-.331l.126-.348c.043-.121.087-.241.132-.363l.135-.374c.047-.128.094-.255.14-.383s.095-.258.143-.388.1-.261.145-.392l.145-.392-1.257-1.348c.122-1.79.619-3.527.765-5.314-11.656,6.978-11.656,6.978-10.621,2.1C74.6,97.662,74.6,97.662,70.178,94.653L69.99,93.1c-3.778-.231-3.778-.231-26.687,39.391a4.849,4.849,0,0,0-3.07-.251c-.691-1.35-.691-1.35,3.968-14a6.011,6.011,0,0,0-2.206-2.281,94.027,94.027,0,0,0-3.931-11.668c.159-2.759,2.462-5.086,1.624-8.047,5.5-8.972,17.594-8.654,23.673-16.809a5.613,5.613,0,0,1,.3-3.122,4.73,4.73,0,0,0,2.5,1.814,38.05,38.05,0,0,0,2.766-2.683,6.4,6.4,0,0,1,1.54,2.78c7.461-.555,11.73-11.547,11.737-11.655l-1.446-.789c-.637.276-7.776,4.959-10.052,7.813-.037-.553-.086-1.291-.123-1.845,3.625-3.7,3.625-3.7,4.291-5.987a21.678,21.678,0,0,0-3.234,1.816c2.4-4.042,9.5-5.465,7.643-11.848-6.069,2.243-8.541,9.229-14.8,11.223L65.18,65.4l-.737-1.38a21.028,21.028,0,0,1-3.157,1.443c-.751-.558-1.723-1.343-2.423-1.962a10.2,10.2,0,0,1,1.213-3.077c-2.453.365-2.816.755-3.955,2.349a6.8,6.8,0,0,1,.85-3.38l-1.585-.2c3.81-4.49,4.182-10.93,8.572-15.089-.91.466-2.1,1.131-2.983,1.652.775-.68,1.816-1.58,2.605-2.243-1.873.406-1.873.406-4.443,2.141,2.921-3.949,10.257-9.511,10.331-9.565-4.183,3.3-9.7,7.8-13.705,11.315-11.45,11.28-12.386,12.2-19.236,20.775C26.715,81.716,26.127,82.526,21.1,91.564c-7.73,15.487-8.031,16.091-11.419,25.62-5.162,16.843-5.364,17.5-7.12,27.478C.22,162.554.129,163.253.073,173.6c.638,16.607.79,20.554,4.251,38.432l2.4,9.358.143.489c4.63,15.169,25,43.456,25.171,43.615.774.751.816.834.858.917s.081.159.122.238l.117.229.115.221.111.214.11.209c.036.069.071.138.108.207s.071.137.108.206c1.438,1.414,3.048,2.631,4.569,3.95.059-.473.139-1.1.2-1.576,9.979,8.464,11.812,22.434,21.171,31.318l.1.054.1.052.095.051.089.047.083.044.073.038.063.032.049.025c25.1,22.338,48.943,32.456,64.523,37.009,7.818,2.071,7.818,2.071,12.012,2.945l4.829.928-.176-.033c-2.112-.649-2.112-.649-6.895-2.909.892-.609.892-.609,4.7-1.04-4.216-11.392-4.216-11.392-1.3-17.548" transform="translate(-0.072 -16.982)" fill="#00b7e9"/>
    <path id="Path_48857" data-name="Path 48857" d="M186.729,33.812c-.9,1.825-.9,1.825-6.66,4.6.571.369,1.145.734,1.725,1.088-.881,2.432-3.239,4.067-3.635,6.759,3.113-.034,3.113-.034,3.833.78.015.017.422,2.755-.2,3.318-1.511,1.36-1.511,1.36-1.473,3.5,1.019.722,1.549,1.091,3.072,2.119-2.577,4.471-2.577,4.471-3.731,4.765,0,.864,0,.864-2.348,2.425-.058.3-.137.7-.2.993-3.7-.185-3.7-.185-4.318.7.633,2.8,4.35,2.9,4.976,5.7.121.541-.346,3.984-3.2,2.239-5.931-3.622-5.931-3.622-5.612.294,5.494,1.053,5.494,1.053,6.084,1.622-.71,3.512-5.866,7.488-7.43,8.624a5.068,5.068,0,0,1-3.368,1.089c-1.587-.084-2.77-1.343-4.334-1.491-4.7-.446-3.422,5.871-6.581,7.542-1.8.953-1.8.953-10.991,1.532l-.311-.015h-.054a2.047,2.047,0,0,0-1.7,1.151c-1.233,1.928-1.051,4.465-2.674,6.227-2.939,3.189-2.939,3.189-4.734,6.863-4.159,8.514-6.459,7.183-6.555,7.122-.061-.039-6.415-7.24-6.57-8.984-.015-.176-1.251-17.957,3.632-24.186a5.982,5.982,0,0,1,3.129-1.874c2.443-.742,2.443-.742,4.486-5.542-3.255-.753-3.255-.753-2.772-2.888q1.3.02,2.591.036c.057-.124.114-.249.171-.374l.174-.379q.089-.194.179-.389t.187-.4l.2-.425q.1-.225.21-.451l.225-.481q.121-.258.243-.516-1.779.9-3.568,1.772c5.866-16.59,5.866-16.59,5.778-17.827-.032-.441-.032-.441-7.2-1.968l-.1-.021-.1-.021-.095-.021-.095-.021-.094-.021-.094-.021-.094-.021-.094-.021c-.36-.475-.481-.635-.257-3.154,1.646-1.251,4.819.157,5.479-2.632-1.085-.931-2.4.355-3.507-.368,0-.756,0-.756,6.769-3.885,1.784-.824,3.772-1.018,5.565-1.811.289-.129.477-.573.613-.858L151.59,29.79l3.133-.636c.177.37.177.37.321,1.942a11.611,11.611,0,0,0,1.384-1.487c.243-.239.288-.233.333-.227l.136.019.137.018.139.018.144.019.148.019.157.02.164.022c-.076.105-.153.21-.229.317l-.234.323-.237.33-.24.337-.244.346-.247.352-.252.361c-.085.123-.171.245-.255.369l.181.023.174.022.168.021.164.02.165.02.167.021.174.021.182.022.225-.348.226-.346c.076-.116.151-.231.227-.346l.228-.346.231-.346.233-.348.237-.35q.12-.178.24-.353l.323.038.315.036.306.035.3.033.289.031.282.03.274.028.268.028q-.21.9-.387,1.8c1.1-1.042.94-2.888,2.379-3.711.24-.138.24-.138,2.208,1.087,5.113-3.989,5.113-3.989,7.441-4.2l.5.084c.226.62.4,1.258.595,1.888-.774.95-2.044.963-2.991,1.583.149.261.352.608.507.866,1.469-.342,2.481-1.628,3.97-1.928a3.212,3.212,0,0,1,2.486.625c.115.137.113.193.111.248s0,.111-.007.166l-.006.167c0,.055,0,.111-.007.166l-.006.167c0,.055,0,.111-.007.166l-.006.167c0,.055,0,.112-.007.168-7.4,2.328-7.4,2.328-8.093,3.026,1.778-.354,3.478-1.012,5.261-1.352-.015.115-.029.229-.043.344l-.039.323c-.012.1-.025.2-.038.306s-.023.2-.036.293-.023.19-.035.286-.022.186-.033.28l-.034.282c-.011.095-.024.191-.035.286,1.532.671,1.84-1.659,3.223-1.482.154.575.154.575-1.405,4.063a1.349,1.349,0,0,0,1.052.037c1.3-.7,1.753-2.18,2.833-3.083,1.037-.867,2.552.047,3.554-.952a3.052,3.052,0,0,1,2.462,1.607l-.071.146" transform="translate(-7.336 -16.301)" fill="#00b7e9"/>
    <path id="Path_48858" data-name="Path 48858" d="M105.6,84.934c-1.421,2.09-3.737,3.381-5.005,5.608l-.268-.057-.271-.057-.272-.059-.276-.059-.28-.061-.285-.062-.291-.064-.3-.065c.158-3.834.084-5.071-.776-7.113-4.926,3.3-3.192,5.038-2.218,5.633,3.487,2.13-4.32,10.316-4.406,10.394-1.229-4.8-1.229-4.8-1.259-4.831a2.345,2.345,0,0,0-1.072.263c-.155.384-.348.862,0,2.711.374,1.964-.076,2.862-2.091,4.179-1.97-2.755-3.194-5.42-3.631-10.9-.1-1.243-.332-1.311-1.372-1.087-3.468.75-4.292.928-4.728-.44-.431-1.352,2.374-5.6,4.031-5.445a19.538,19.538,0,0,1,4.379.424c10.372-5.668,9.061-10.161,8.249-10.433-.725-.242-1.47-.416-2.2-.642,1.488-2.317,4.257-6.629,1.651-6.245-1.05.155-1.835,1.229-3.032.876-1.492-.44.687-3.027-.86-3.185-1.48-.15-2.957.924-4.439.014a1.676,1.676,0,0,1-.234-.228c.328-.619.328-.619,3.381-3.232-1.986-1.5,2.555-5.809,10.122-9.609.289-.077.36-.047.431-.017l.215.09.219.091.226.093.235.1.248.1.263.106.282.111c-5.52,3.523-5.52,3.523-6.251,5.187,3.242-.393,4.783-3.316,7.246-4.87l.342.13.346.129.35.129.355.13.361.129.367.131.373.131.381.131c-1.615,2.52-4.518,3.685-6.324,6,1.79-.37,2.764-2.2,4.568-2.549.112-.022,3.147.182,3.825.936-.136,2.005-2.358,3.144-2.19,5.275.208,2.65,3.751,3.757,3.141,6.786a8.4,8.4,0,0,1-4.372,4.907c-.707,2.841-1.135,4.556.138,5.146,1.735.806,4.963,2.3,2.969,5.237" transform="translate(-4.733 -17.896)" fill="#00b7e9"/>
    <path id="Path_48859" data-name="Path 48859" d="M150.046,29.112c-1.618,1.522-5.056.943-5.412.712-5.852,6.979-10.256,7.042-10.266,6.061-.013-1.419-1.632-.466-2.7.164-6.112,3.6-7.491,4.168-9.84,4.076-.825.789-1.069,1.992-1.955,2.737a27.062,27.062,0,0,1-4.52,2.706c-1.074.462-1.64-.673-2.525-.8a8.537,8.537,0,0,0-2.065.125c-.414-.966-1.871-1.483-1.32-2.863a4.687,4.687,0,0,1,3.674-3.031q-.393.648-.772,1.3c3.208-1.384,6.569-2.417,9.62-4.166,1.768-1.013,2.886-2.772,4.519-3.941-.164,1.675-.054,1.681,1,1.737.489-2.43,3.31-1.159,4.91-1.881a12.184,12.184,0,0,0,2.885-1.715c-2.233.326-4.323,1.409-6.646,1.269-.787-.047.181-1.1.24-1.656h-.006l-.2-.193c.424-1.222,2.19-3.435,9.264-4.529l.14.212a10.229,10.229,0,0,1-1.46,1.715c2-.281,3.467-2.013,5.562-2.028l.139.213c-.042.147-.1.343-.149.488.943.332,1.53-.571,2.347-.675.027.072.065.169.093.241a15.208,15.208,0,0,0-1.194,1.506c.353.125.353.125,4.058-1.7,1.584,1.1,1.584,1.1,4.18,1.547a6.836,6.836,0,0,1-1.6,2.376" transform="translate(-6.712 -16.316)" fill="#00b7e9"/>
    <path id="Path_48860" data-name="Path 48860" d="M74.324,56.057c-.4-.152-.793-.313-1.183-.482-1.178,1.1-1.862,2.605-3.045,3.7a2.65,2.65,0,0,1-1.841.827c-1.652-.038-4.567-4.7-4.594-4.743,1.321-1.762,2.062-3.909,3.657-5.489.012-.012,1.254-1.068,1.43,0,.039.236.091.558.719.337,1.146-.4,1.148-.614,1.152-1,0-.454-.525-.666-.507-1.125a2.3,2.3,0,0,1,.6-1.137c.538-.673,2.587-2.019,2.737-1.276.118.587.118.587,1.835-.527,1.135-.736,1.309-.85,4.613-1.54.359-.075.836-.178,1.195-.256q-1.523,1.212-3.021,2.452c.883.031,1.475-.761,2.324-.825-.049.159-.051.164-.717.9A29.1,29.1,0,0,0,77.42,48.7c1.957-1.154,3.485-3,5.772-3.624-1.284,2.511-1.284,2.511-2.377,3.065-1.889.956-5.544,4.669-5.12,5.475l0,0h0l0,0h0l0,0h0l0,0h0c.023.068.023.068-1.139,2.518l-.249-.094" transform="translate(-3.937 -17.424)" fill="#00b7e9"/>
    <path id="Path_48861" data-name="Path 48861" d="M287.381,331.132l-.338.242-1.933,1.356-.671.461-5.54,3.639c-4.648,2.739-10.917,6.275-15.7,8.767a127.461,127.461,0,0,0,15.249-8.746c.317-.2.734-.474,1.049-.679,1.962-1.276,3.971-2.48,5.9-3.812,2.591-1.794,4.927-3.93,7.578-5.644l.193-.121c-.237.305-3.241,2.71-5.781,4.537" transform="translate(-16.063 -34.637)" fill="#00b7e9"/>
    <path id="Path_48862" data-name="Path 48862" d="M234.68,147.97c.025.18.052.362.077.542l.079.553c.026.19.054.379.08.567l.082.583c.027.2.055.4.083.6s.057.416.085.624.059.432.088.647c-.458.209-.922.407-1.385.6-.054.857.934,2.024-.15,2.572-1.154.582-2.494.63-3.631,1.262a3.971,3.971,0,0,0-1.672,1.686l-.492.038c-1.874-1.115-2.94-.711-4.621.614-1.774,1.4-1.774,1.4-5.935,2.427,2.887-6.239,2.887-6.239,5.947-7.632-1.308-.057-2.617-.123-3.925-.18-.256-1.754,1.548-3.692-.374-5.291,1.356-1.493,3.467-2.133,4.509-3.981-.881-1.317-2.521-3.766-6.109-2.728-.646-2.247-.679-2.287-3.536-4.3,2.549-3.789,2.1-4.868-2.379-5.773-.191-2.181-.191-2.181.934-3.963q.586,1.939,1.182,3.874a27.081,27.081,0,0,0,1.734-2.206c.382-.624.349-1.424.849-2a2.383,2.383,0,0,1,1.781-.812,7.38,7.38,0,0,1,1.061.021q.3,1.392.582,2.786l.537-.037.538-.038.537-.038.533-.038.527-.039.518-.039.506-.038.492-.038c.62,1.167.828,1.56.513,2.434-.417,1.151-1.733,1.475-2.3,2.491,2.773,1.191,2.773,1.191,3.495,2.039,1,1.178.98,2.789,1.716,4.08.723,1.267,2,2.094,2.689,3.391.559,1.053.3,2.4,1.207,3.33.572.59,1.244.654,3.467.865.026.178.052.356.077.533" transform="translate(-12.916 -22.464)" fill="#00b7e9"/>
    <path id="Path_48863" data-name="Path 48863" d="M267.9,34.918c1.234.9,1.21,1.174,1.2,1.323-.069.79.093,1.536,1.18,3.425.045.078,5.742,8.863,6.023,9.1,1.717,1.438,3.129,3.229,5.091,4.381,1.016.6,2.183.882,3.178,1.522a11.329,11.329,0,0,1,2.155,1.908c-.236.269-.236.269-2.215,1.5l-.739-.461c-.907-.567-1.585-1.422-2.492-1.99-.795-.5-1.743-.659-2.537-1.16-.158-.1-.364-.242-.512-.358a46.551,46.551,0,0,1-4.2-4.276c.142-.434.142-.434-2.665-3.01.163-.193.318-.394.473-.593l-.418-.341-.422-.342q-.213-.172-.426-.343l-.431-.346q-.218-.175-.438-.348l-.443-.351L268.8,43.8l-.457-.358a4.29,4.29,0,0,1-.069-.452c.69-.34.4-.679-.583-1.805-.554-.639-.554-.639-.124-1.237-.2-.848-1.231-1.139-1.359-2.034-.1-.7.617-.86.879-1.321-.751-.749-1.254-1.233-2.151-2.072.1-.007.1-.007.469-.471.707-.311,2.473.856,2.49.868" transform="translate(-16.169 -16.855)" fill="#00b7e9"/>
    <path id="Path_48864" data-name="Path 48864" d="M80.267,42.068a8.14,8.14,0,0,1-2.769,1.09c-.851.211-1.731-.039-2.583.165-1.318.317-2.4,1.219-3.747,1.474-.575.109-.454-.31-.438-.358a14.6,14.6,0,0,1,4.028-4.073c.806-.53,10.158-5.347,10.714-5.615q-.637.6-1.262,1.219,1.041-.4,2.086-.793c-.622.835-1.554,1.357-2.192,2.175a.949.949,0,0,0-.29.7c0,.294-.2.594-.781,1.346-.292.374-.58.75-.893,1.108a8.523,8.523,0,0,1-1.873,1.562" transform="translate(-4.365 -16.901)" fill="#00b7e9"/>
    <path id="Path_48865" data-name="Path 48865" d="M232.124,42.379c.572,1.02,1.038,1.917,1.214,2.254-1.829-.344-2.559-.163-3.01.742-2.7-3-2.7-3-3.889-3.394.116.973.172,1.649.221,2.68.107.143.214.285.32.427l.323.434.324.439q.163.22.325.441c.108.147.215.295.323.442l.321.443q.159.22.317.441c.105.146.209.292.314.438-.888,1.8-6.782-3.84-6.833-3.914-.524-.759-.368-1.749-.859-2.519-.292-.457-.831-.518-1.245-.78.048,1.246.146,3.838-2.352,1.5-4.973-4.646-2.279-5.075-2.248-5.076.238-.011.238-.011,1.857,1.855.023-.578.027-.942.021-1.564q1.523.813,3.053,1.612c-.672-.753-1.63-1.254-2.012-2.264a1.327,1.327,0,0,1,.774-1.012,1.045,1.045,0,0,1,.569.133c2.25,1.125,3.874,3.225,6.315,4.055.894.3,1.86.288,2.748.619,2.822,1.052,2.871,1.14,3.109,1.565" transform="translate(-13.13 -16.977)" fill="#00b7e9"/>
    <path id="Path_48866" data-name="Path 48866" d="M192.754,101.121c-2.174,2.325-2.977,3.134-2.978,3.134a12.17,12.17,0,0,1-1.809-.054,1.982,1.982,0,0,0-2.244,1.715c-.141.753-.141.753-.384.815-1.39.356-1.637.162-2.677-.653-2.966-2.327-3.122-2.275-7.112-.929.568-1.871.568-1.871.705-2.017a3.323,3.323,0,0,0,1.228-2.7c-.014-.931-.954-1.265-2.012-.718-1.214.629-1.214.629-1.553.7-.459-.53-.913-1.064-1.368-1.6,1.955-4.2,1.955-4.2,2.224-4.54.242-.3.242-.3,2.3-1.147q.866,1.422,1.747,2.834c.3-.086.648-.044.911-.273.48-.417.585-1.116,1.12-1.492a1.849,1.849,0,0,1,2.1.267,4.031,4.031,0,0,0,2.357.672,2.094,2.094,0,0,0,.959-.27,6.465,6.465,0,0,1,3.617-.807,13.337,13.337,0,0,0,2.539-.14c.281.842.281.842.66,6.839l-.338.362" transform="translate(-10.554 -20.449)" fill="#00b7e9"/>
    <path id="Path_48867" data-name="Path 48867" d="M108.763,50.762q-.779.8-1.55,1.608a15.1,15.1,0,0,1-.429-1.6c-.075-.535.27-1.078-.026-1.611-.2-.353-.918-.221-1.4-.132-3.042.558-4.677.407-4.033-2.018,1.034-3.9,5.827-9.088,9.335-7.642.36.252.278.472-1.309,1.909-3.988,3.612-2.375,4.208-.814,4.783,2.949,1.089,2.949,1.089,2.975,1.345a1.054,1.054,0,0,1-.034.253c-.061.374-.95,1.285-2.718,3.1" transform="translate(-6.218 -17.167)" fill="#00b7e9"/>
    <path id="Path_48868" data-name="Path 48868" d="M124.219,32.731a35.141,35.141,0,0,1-6.52,3.957l-.237-.095-.238-.1-.24-.1-.239-.1-.24-.1-.239-.1-.24-.1-.238-.1c1.123-1.538,1.462-2,4.055-3.424-.3-.293-.809-.784,1.209-1.972a88.8,88.8,0,0,1,8.516-3.759c.027,0,.063.012.09.017s.038.043.054.061c-.008.1-2.843,4.073-2.871,4.1a14.943,14.943,0,0,1-2.621,1.822" transform="translate(-7.105 -16.413)" fill="#00b7e9"/>
    <path id="Path_48869" data-name="Path 48869" d="M92.113,41.743c-.282.181-.668.407-.954.58.613-1.754-.5-2.313-3.321-1.664-1.5.345-2.364-.118-.739-1.949.207-.234,3.946-2.657,4.947-2.794l.048.05c-.193.362-.8.452-.683,1.015.173.055.286.092,1.259-.335,1.491-.656,2.287-.9,2.225-.342l.4-.253.356-.224.322-.2.295-.184.277-.172.268-.166.267-.164.273-.168c.668-.076,1.337-.149,2-.227-3.3,2.626-3.3,2.626-3.256,2.813.089.412-.719,2.294-3.987,4.387" transform="translate(-5.308 -16.888)" fill="#00b7e9"/>
    <path id="Path_48870" data-name="Path 48870" d="M92.416,167.919c-.886,2.759-3.315,2.955-4.031,1.395a23.981,23.981,0,0,1-.8-2.446c-.365.671-.693,1.36-1.058,2.03-.06.11-.122.291-.235.342a2.034,2.034,0,0,1-1.72-1.041c-.171-.437-.171-.437-.4-3.369-2.518.065-3.858.086-6.239.1-.4-3.5,2.141-6.777,2.25-6.915.835-1.061,2.3-1.119,3.236-2.013.924-.88,1.424-2.126,2.482-2.892a2.059,2.059,0,0,1,1.688-.446,3.385,3.385,0,0,1,1.117.463q-.061.269-.119.54c-.041.186-.084.372-.124.558l-.126.578c-.044.2-.087.4-.13.595s-.088.407-.131.611-.089.419-.134.627-.091.429-.136.643-.092.439-.137.658l.569.105.546.1.524.1.506.092.488.088.477.085.463.083.456.08c.817,4.557.817,4.557-.655,5.988a2.2,2.2,0,0,0,.518,1.484c.7.389,1.205.671.849,1.781" transform="translate(-4.802 -24.065)" fill="#00b7e9"/>
    <path id="Path_48871" data-name="Path 48871" d="M215.785,144.591c-.04,1.217-.761,2.286-.765,3.511a47.385,47.385,0,0,0,.729,5.587c-4.621.264-4.621.264-4.985.363a2.992,2.992,0,0,0-.4.133c-.841.376-1.369,1.19-2.206,1.571a19.882,19.882,0,0,1-2.976.79c-1.149-3.012-.88-4.491,1.062-5.863.107-1.056-.158-1.31-1.266-1.761-.483-.2-1.488-.6-.905-1.941.778-1.788.778-1.788,4.74-2.2.023-.9.054-1.8.079-2.707q2.292-.6,4.58-1.214c.948.708,2.379,1.779,2.314,3.734" transform="translate(-12.459 -23.349)" fill="#00b7e9"/>
    <path id="Path_48872" data-name="Path 48872" d="M84.78,53.3a30.733,30.733,0,0,1-4.08,2.108,1.687,1.687,0,0,1-.128-1.567c.284-.834,1.021-1.368,1.408-2.134.2-.386.151-.842.354-1.228.026-.048.063-.113.093-.159a17.61,17.61,0,0,1,3.292-2.8c-.425.873-.692,1.467-1.144,2.545,2.353-1.837,2.353-1.837,2.662-2.112.41-.364.588-.935,1.086-1.222,1.337-.772,2.889-1.044,3.383-.774.089.133.326.489-.666,1.54-1.021,1.084-2.473,1.574-3.548,2.582-.8.752-1.16,1.846-1.969,2.6a8.723,8.723,0,0,1-.743.626" transform="translate(-4.956 -17.576)" fill="#00b7e9"/>
    <path id="Path_48873" data-name="Path 48873" d="M37.827,254.815c.24,2.112.24,2.112-5.989-.712.052-.8.105-1.59.177-2.384.008-.1.074-.243.029-.333a52.212,52.212,0,0,0-4.2-5.608c-2.433-2.8-4.66-4.112-6.617-3.891-.408-3.232.189-3.441,1.592-2.688a33.6,33.6,0,0,1,7.763,7.224c1.522,2.079,3.79,3.364,5.546,5.193a6.484,6.484,0,0,1,1.7,3.2" transform="translate(-1.35 -29.304)" fill="#00b7e9"/>
    <path id="Path_48874" data-name="Path 48874" d="M227.395,34.535a3.455,3.455,0,0,1,.982,3.154.6.6,0,0,1-.44.309l-2.727.514c-.536-.089-.875-.514-1.312-.772q-.424-.251-.849-.5c-.086-.1-.173-.2-.26-.292l-.273-.307-.289-.322-.308-.341-.33-.362q-.176-.193-.353-.385l-.378-.41-.409-.439a13.821,13.821,0,0,1,3.128-.011,3.329,3.329,0,0,0,1.371.129c.642-.131.481-.688.4-.955-.022-.074-.029-.146.114-.192.162-.053.335-.045.5-.1a13.415,13.415,0,0,1,1.434,1.286" transform="translate(-13.465 -16.81)" fill="#00b7e9"/>
    <path id="Path_48875" data-name="Path 48875" d="M100.57,30.6l-.659.364-.653.364-.651.367c-.22.124-.438.249-.657.374s-.445.255-.667.383l-.683.4q-.354.206-.7.413c-.23-.2-.45-.416-.67-.63-1.864.759-2.989,1.226-4.627,1.923-1.373-.807,3.242-3.6,4.91-3.887a.864.864,0,0,1,.459.028c.169.083.454.22,1.917-.014,1.01-.162,1.957-.6,2.987-.674.176-.013.248.146.369.224l-.672.368" transform="translate(-5.559 -16.613)" fill="#00b7e9"/>
    <path id="Path_48876" data-name="Path 48876" d="M99.983,41.345c-4.073,2.979-4.757,2.5-6,1.623a19.324,19.324,0,0,1,3.4-3.746c1.453-1.189,3.258-2.5,3.611-1.991-.07.215-.07.215-1.3,1.675,2.387-.614,2.817-.724,3.193-.539.157.2.42.549-2.9,2.978" transform="translate(-5.78 -17.045)" fill="#00b7e9"/>
    <path id="Path_48877" data-name="Path 48877" d="M96.074,50.345A10.245,10.245,0,0,1,92.3,52.62c-.1.04-.233.093-.333.131-.961.368-2,.387-2.977.7S87.3,54.621,86.3,54.915c-.237.069-.629.115-.608-.358a2.579,2.579,0,0,1,.6-1.25,1.13,1.13,0,0,1,.307-.129,8.54,8.54,0,0,0,1.958-1.438,14.662,14.662,0,0,1,2.27-1.869c1.631-1,3.837-2.1,5.077-1.6.543.32.526.528.414,1.878-.074.058-.173.136-.246.2" transform="translate(-5.276 -17.715)" fill="#00b7e9"/>
    <path id="Path_48878" data-name="Path 48878" d="M51.028,264.524c.063.313.123.626.2.936-2.619-.827-5.5-1.811-5.763-1.922a7.572,7.572,0,0,0-1.089-.44c-.64-.159-1.127.617-1.794.29-1.619-.795-2.71-2.251-4.132-3.293.668-1.22.668-1.22.736-1.263.178-.115.456.009,1.338.978.632.694.9.612,1.192.2.359-.5.376-.639-.184-1.418-.8-1.108-1.285-2.713,1.944-1.7.709.268.837.317,2.682,2.179,4.739,4.785,4.822,5.2,4.872,5.447" transform="translate(-2.404 -30.382)" fill="#00b7e9"/>
    <path id="Path_48879" data-name="Path 48879" d="M108.715,34.966c-2.48,1.448-2.552.156-2.545.139.295-.883,1.51-.826,1.773-1.74a5.021,5.021,0,0,1,.4-.98c.035-.041.08-.095.115-.134a8.649,8.649,0,0,1,.791-.732c1.693-1.335,3.333-1.949,3.763-1.8.089.095.147.219.27.281l.023.015h.007c1.331,1.176-4.533,4.911-4.594,4.947" transform="translate(-6.52 -16.594)" fill="#00b7e9"/>
    <path id="Path_48880" data-name="Path 48880" d="M247.749,16.738c3.7,1.273,4.756,2.1,4.988,2.576h0v.049c-.349.28-4.042-1.1-4.079-1.12s-4.958-2.417-5-2.468c.061-.073.934-.124,4.085.959" transform="translate(-14.876 -15.746)" fill="#00b7e9"/>
    <path id="Path_48881" data-name="Path 48881" d="M69.783,89.113c-1.361-1.077-2.467-.434-4.156,1.219-1.543,1.512-2.091.618-2.114-.053-.1-2.811,3.578-7.425,6.049-7.595a2.016,2.016,0,0,1,.606.086,3.763,3.763,0,0,1,1.789,2.661,4.428,4.428,0,0,1-.972,2,13.819,13.819,0,0,0-1.107,1.762l-.094-.077" transform="translate(-3.928 -19.814)" fill="#00b7e9"/>
    <path id="Path_48882" data-name="Path 48882" d="M255.935,18.837c2.221,1.064,2.221,1.064,2.33,1.351-.079.111-.277.129-1.3-.05a10.122,10.122,0,0,1-1.758-.261c-.074-.026-4.65-2.44-4.662-2.459l0-.043c.493-.2,4.875,1.215,5.39,1.462" transform="translate(-15.294 -15.844)" fill="#00b7e9"/>
    <path id="Path_48883" data-name="Path 48883" d="M257.357,18.325c1.5.691,3.2,1.475,3.144,1.97a4.742,4.742,0,0,1-1.541-.322c-2.258-.915-4.415-2.054-6.658-3a6.958,6.958,0,0,0,2.085.522c0-.059,0-.059-.192-.257a26.291,26.291,0,0,1,3.162,1.087" transform="translate(-15.401 -15.821)" fill="#00b7e9"/>
    <path id="Path_48884" data-name="Path 48884" d="M113.18,35.438a9.24,9.24,0,0,1-4.41,1.692,15.661,15.661,0,0,1,4.146-3.489c1.764-1.039,2.131-1.255,3.1-.779.105.055.209.115.309.177-1.055.791-2.041,1.672-3.144,2.4" transform="translate(-6.678 -16.772)" fill="#00b7e9"/>
    <path id="Path_48885" data-name="Path 48885" d="M74.3,62.62A4.96,4.96,0,0,1,72.83,63.66a1.886,1.886,0,0,1-.2.061c-.365.074-.736-.03-1.1.04-.334.065-.6.312-.941.354-.064.008-.214.026-.224-.154-.035-.6,1.075-1.842.25-1.744,3.933-2.978,4.537-3.436,5.053-3.2.074.066.226.2.021.75-.915,2.417-.915,2.417-1.383,2.851" transform="translate(-4.344 -18.373)" fill="#00b7e9"/>
    <path id="Path_48886" data-name="Path 48886" d="M104.768,31.653a13.5,13.5,0,0,1-2.64,1.38c-.332.087-2.417.335-2.433.336a3.768,3.768,0,0,1-1.013-.109c4.651-2.445,5.619-2.954,6.309-2.3.11.124.183.277.3.4l-.52.3" transform="translate(-6.065 -16.655)" fill="#00b7e9"/>
    <path id="Path_48887" data-name="Path 48887" d="M109.047,29.55c-1.339.5-1.339.5-1.469.5a11.113,11.113,0,0,1-2.316-.471,22.393,22.393,0,0,1,2.029-.961c1.093-.441,2.23-.764,3.325-1.2-.054.155-.022.228.17.379s.2.248,0,.518a6.588,6.588,0,0,1-1.741,1.235" transform="translate(-6.465 -16.455)" fill="#00b7e9"/>
    <path id="Path_48888" data-name="Path 48888" d="M100.318,44.868a7.605,7.605,0,0,1-2.277,1.468c-.485.149-1.246.016-1.2-.392a3.779,3.779,0,0,1,2.216-2.122,7.859,7.859,0,0,1,1.661-.619,7.263,7.263,0,0,1,1.382.234q-.895.711-1.78,1.43" transform="translate(-5.953 -17.414)" fill="#00b7e9"/>
    <path id="Path_48889" data-name="Path 48889" d="M120.181,30.192c-.919.505-2.778,1.38-2.66.859.1-.417.612-.611.579-1.1,1.1-.522,2.164-1.121,3.307-1.553a1.663,1.663,0,0,1,.533.106c.56.366-1.737,1.671-1.76,1.684" transform="translate(-7.21 -16.515)" fill="#00b7e9"/>
    <path id="Path_48890" data-name="Path 48890" d="M128.076,78.245a3.164,3.164,0,0,1-1.919,1.246,3.962,3.962,0,0,1-1.458-.134,5.083,5.083,0,0,0-2.084-.178q1.412-1.693,2.831-3.38a4.814,4.814,0,0,0,1.684.247,1.219,1.219,0,0,1,1.024.7,1.344,1.344,0,0,1-.078,1.5" transform="translate(-7.52 -19.396)" fill="#00b7e9"/>
    <path id="Path_48891" data-name="Path 48891" d="M265.114,198.3a3.587,3.587,0,0,1-1.941,3.493c-1.846-1.169-1.846-1.169-1.944-1.306a4.084,4.084,0,0,1-.612-2.195,3.793,3.793,0,0,1,2.325-3.255c.056-.014.133-.025.19-.036a2.663,2.663,0,0,1,1.743.454c-.024.957.2,1.894.24,2.845" transform="translate(-15.906 -26.639)" fill="#00b7e9"/>
    <path id="Path_48892" data-name="Path 48892" d="M203.5,75.6c.045.676-.531,1.514-1.637,3.059-.615-.5-1.224-1-1.831-1.511.3-.856.365-1.771.712-2.613a2.461,2.461,0,0,1,.86-1.2c1.273,1.115,1.853,1.623,1.9,2.269" transform="translate(-12.225 -19.245)" fill="#00b7e9"/>
    <path id="Path_48893" data-name="Path 48893" d="M88.354,79.1c-.626.819-1.914,1.348-3.808,2.06,1.7-2.906,2.331-3.994,4.447-4.966a4.875,4.875,0,0,1-.64,2.906" transform="translate(-5.206 -19.42)" fill="#00b7e9"/>
    <path id="Path_48894" data-name="Path 48894" d="M36.548,260.208c-.279.9-.986.674-2.038.023-.692-.428-.692-.428-2.419-2.782a3.3,3.3,0,0,1,2,.141,8.547,8.547,0,0,1,2.533,2.269c-.022.1-.041.246-.073.349" transform="translate(-2.018 -30.43)" fill="#00b7e9"/>
    <path id="Path_48895" data-name="Path 48895" d="M292.311,58.968a.926.926,0,0,0-.642.446c-.182.231-.432.547-1.242.216-.789-.322-.918-.494-1.042-.66-.411-.55-.757-1.1-.5-1.4a.642.642,0,0,1,.092-.083c.112-.073.7-.363.7-.365a.324.324,0,0,1,.184.022,17.416,17.416,0,0,1,2.513,1.821l-.064,0" transform="translate(-17.619 -18.26)" fill="#00b7e9"/>
    <path id="Path_48896" data-name="Path 48896" d="M281.483,202.977c.006.077.01.154.016.231s.01.156.015.235.01.16.016.24.01.164.016.246.01.168.016.252l.017.258c.006.088.01.177.016.266l.017.273c.006.094.012.188.017.282s.012.194.018.29.012.2.018.3.012.207.018.311.012.213.018.32.013.222.019.332.012.229.019.344a14.1,14.1,0,0,0-2.574-.876,3.31,3.31,0,0,0-.761.008c-.473.047-.937.155-1.41.207,0-.072-.008-.145-.012-.216s-.008-.14-.012-.209l-.011-.2-.011-.2-.011-.19c0-.062-.007-.124-.01-.185l-.011-.181c0-.059-.008-.118-.01-.178l-.011-.175c0-.058-.007-.116-.01-.174s-.008-.115-.01-.172l-.011-.171c0-.057-.008-.115-.01-.172l-.011-.173-.011-.174-.011-.178.158-.026.158-.026.157-.026.155-.025.155-.026.154-.026.154-.025.152-.026.151-.025.151-.026.15-.025.148-.025.148-.025.147-.025.147-.025.146-.025.145-.025.144-.024.144-.025.143-.024.142-.024.141-.025.14-.024.139-.024.138-.024.138-.024.136-.023.136-.024.135-.024.134-.023.132-.023.133-.024c0,.076.01.151.015.227" transform="translate(-16.891 -27.111)" fill="#00b7e9"/>
    <path id="Path_48897" data-name="Path 48897" d="M287.068,65.438a4.914,4.914,0,0,1,1.1,1.584c.135.6-.569.746-.577.745-.249-.01-.249-.01-2.856-2.826l.094-.045.091-.044.088-.042.085-.042.085-.04.082-.039c.026-.014.053-.026.08-.039l.078-.038.077-.039.075-.037.074-.038.073-.037.072-.036.071-.037.071-.036.07-.036c.361.368.719.738,1.064,1.121" transform="translate(-17.372 -18.698)" fill="#00b7e9"/>
    <path id="Path_48898" data-name="Path 48898" d="M86.6,46.3c-.749-.035-1.2-.056-1.291-.34-.132-.416.744-1.344.752-1.352s1.353-.881,1.862-.584a.429.429,0,0,1,.044.518,20.6,20.6,0,0,1-1.261,1.763L86.6,46.3" transform="translate(-5.252 -17.461)" fill="#00b7e9"/>
    <path id="Path_48899" data-name="Path 48899" d="M91.173,71.6q-1.657,1.344-3.31,2.693c.757-2.078,1.351-3.5,1.352-3.5.126-.163.33-.2.495-.3l.56-.334,1.475-.88c-.131.72-.2,1.452-.377,2.165-.018.073-.137.111-.2.159" transform="translate(-5.408 -18.999)" fill="#00b7e9"/>
    <path id="Path_48900" data-name="Path 48900" d="M248.3,76.5c.519,1.031.79,2.168,1.352,3.18a5.573,5.573,0,0,0-1.73-1.594c-1.7-1.207-2.448-1.979-1.945-3.832A4.434,4.434,0,0,1,248.3,76.5" transform="translate(-15.007 -19.302)" fill="#00b7e9"/>
    <path id="Path_48901" data-name="Path 48901" d="M324.237,201.727a4.737,4.737,0,0,1-1.038,2.735c-.846.862-2.107.847-3.073,1.455.848-2.093,1.314-2.547,4.168-4.754-.017.169-.036.4-.057.564" transform="translate(-19.523 -27.014)" fill="#00b7e9"/>
    <path id="Path_48902" data-name="Path 48902" d="M92.457,34.669l-.144.086-.143.087-.142.085-.141.086-.141.085-.14.086-.14.085-.14.086-.14.085-.14.086-.14.086-.14.087-.141.086-.141.088-.142.088-.143.089-.143.089-.144.09-.146.091-.147.092-.147.093-.148.095c-.051.031-.1.063-.15.095l-.152.1-.153.1-.156.1-.157.1-.159.1c-.054.034-.108.069-.162.1l-.163.105-.165.107c.66-.833,1.193-1.452,1.193-1.452.029-.019,3-1.745,3.5-1.479l-.145.087" transform="translate(-5.41 -16.889)" fill="#00b7e9"/>
    <path id="Path_48903" data-name="Path 48903" d="M306.547,200.486c-.624,4.2-.8,4.152-5.384,2.908a16.275,16.275,0,0,0,2.971-1.152A17.822,17.822,0,0,0,306.618,200c-.022.146-.05.341-.071.487" transform="translate(-18.371 -26.944)" fill="#00b7e9"/>
    <path id="Path_48904" data-name="Path 48904" d="M264.039,187.983c.008.077.015.153.023.23s.015.161.023.24.016.165.024.248l.025.257.025.264c.008.09.018.18.026.27l.026.276c.009.094.018.188.026.282s.019.191.027.286.018.193.027.289.018.194.027.292.018.2.027.294.018.2.026.295.018.2.027.295.017.2.026.295c-1.111.7-1.578.418-2.373-.191a3.291,3.291,0,0,0-1.814-.828c1.04-.9,2.408-2.088,3.776-3.315.007.073.014.147.022.22" transform="translate(-15.884 -26.2)" fill="#00b7e9"/>
    <path id="Path_48905" data-name="Path 48905" d="M56.037,265.629c.011.047.022.095.033.142s.022.094.033.141l.033.14c.01.047.022.093.032.14s.023.093.033.139.023.093.033.14l.034.14c.011.047.022.094.033.14l.034.142c.011.048.023.095.035.143s.023.1.035.145.023.1.035.146.024.1.036.148l.037.15c.013.051.025.1.038.153-.2.293-.245.28-.638.177a3.09,3.09,0,0,1-1.285-.686,6.169,6.169,0,0,1-1.584-2.666l.11.034.108.033.106.032.1.032.1.031.1.03.1.031.1.029.1.029.095.028.094.028.093.028.091.027.091.027.089.027.089.026.088.026.088.026.087.025.086.026.087.025.086.026c.028.007.057.016.085.025l.086.025.086.025.086.025.086.025.087.025.087.025.088.025.088.026.089.025c.011.048.022.1.033.144" transform="translate(-3.291 -30.87)" fill="#00b7e9"/>
    <path id="Path_48906" data-name="Path 48906" d="M225.232,119.069a2.7,2.7,0,0,1-1.075,2.281c-1.949-2.011-1.949-2.011.3-4.016a4.025,4.025,0,0,1,.772,1.735" transform="translate(-13.604 -21.92)" fill="#00b7e9"/>
    <path id="Path_48907" data-name="Path 48907" d="M245.257,77.968c0,.012.236,1.263-.233,1.594-.348.245-.9.206-1.835-.133.507-.987.919-1.815,1.223-2.458.832.938.832.938.845,1" transform="translate(-14.847 -19.467)" fill="#00b7e9"/>
    <path id="Path_48908" data-name="Path 48908" d="M250.51,75.316a2.416,2.416,0,0,1,.06.509c.012.231.028.462.053.692-.324-.262-.668-.5-.987-.764a2.084,2.084,0,0,1-.385-.382.421.421,0,0,1-.069-.235c0-.218.058-.429.071-.645,1.207.673,1.207.673,1.257.825" transform="translate(-15.212 -19.316)" fill="#00b7e9"/>
    <path id="Path_48909" data-name="Path 48909" d="M278.379,39.943q.71.679,1.406,1.373c-1.532-1.039-2.6-1.74-3.451-2.29,1.936.813,1.936.813,2.045.917" transform="translate(-16.862 -17.161)" fill="#00b7e9"/>
    <path id="Path_48910" data-name="Path 48910" d="M223.106,124.144c-.069.184-.117.375-.191.558-.053.131-.089.147-.093.147a1.825,1.825,0,0,1-.414-.03c-.29-.046-.575-.121-.864-.174a3.141,3.141,0,0,1,.178-.568c.043-.077.071-.079.188-.088a8.826,8.826,0,0,1,1.222.086c-.007.021-.019.048-.026.069" transform="translate(-13.532 -22.324)" fill="#00b7e9"/>
    <path id="Path_49049" data-name="Path 49049" d="M346.028,142.966c-.456.715-.456.715-.5.728-.361-.37-.41-1.031-1.061-1.128-.431-.064-.743.62-.845.845q-.106-.417-.213-.833c-.068-.26-.135-.52-.2-.78s-.13-.491-.2-.736-.126-.467-.19-.7-.122-.448-.184-.672-.121-.434-.182-.65l-.18-.638c-.061-.211-.121-.422-.182-.632.413-1.513.268-2.894-.537-5.1l.122-.144.119-.141.116-.139.113-.137.11-.137.109-.136.108-.138.107-.138c1.431,3.976,2.484,7.253,3.637,11.31-.019.027-.045.064-.063.092m-5.045,14.846c.053.409.09.958.129,1.368-.727-.527-1.243-.885-2.205-1.535,1.134,4.187,3.114,8.134,3.561,12.516.147,1.445.046,1.712-1.65,6.184-3.711-2.8-3.711-2.8-3.95-3.624a19.469,19.469,0,0,1-.041-6.886A5.263,5.263,0,0,0,336.9,163c-.283-1.045-.662-1.207-1.142-1.411a24.175,24.175,0,0,1-6.4-12.22,3.172,3.172,0,0,1,.183-1.02c.244-1.35.624-3.673,1.049-7.075l.517-.31.508-.31c.167-.1.334-.207.5-.311s.328-.208.489-.311.321-.208.479-.311.315-.208.47-.312.308-.207.459-.311.3-.207.45-.31c.4,1.931.626,3.095.967,4.981l-.142.1-.147.1-.149.1-.149.1-.147.1-.141.093-.131.086-.12.079c-.268,1.3,1.5,3.169-.192,3.935.018,1.413.286,5.867,2.98,3.892,1.628,4.347,1.628,4.347,1.843,4.452q-.183-1.689-.4-3.374c.836.311,1.98.736,2.451,4.382M324.9,164.2c.124.836.21,1.677.334,2.513-7.105,2.994-7.105,2.994-10.746-.652-.445-.446-.445-.446-.829-.419-2.17,2.582-2.17,2.582-2.875,3.115-1.039.784-2.412.876-3.449,1.663a6.863,6.863,0,0,1-3.561,1.646c-1.385.352-1.385.352-3.325,2.338a41.836,41.836,0,0,1-.314-13.636c.072-.521.36-.562.569-.591.591-.082,1.1.319,1.686.278.049-1.066.408-2.088.444-3.156.023-.678-.247-1.318-.267-1.99-.006-.176.1-3.255.106-3.264.144-.713.306-.727,1.575-.834,1.754,3.015,1.754,3.015,3.58,3.9.213,2.017-1.63,3.224-1.973,5.022,3.146,1.6,4.319.521,7.591-4.4a2.389,2.389,0,0,0-1.572-.518c-1.353-.09-1.583-.273-2.232-1.781.8-1.116,1.2-2.464,2.068-3.54a2.844,2.844,0,0,1,1.494-.878c.367-.225.367-.225,2.186-3.57.115.871.294,1.734.332,2.615-.116.086-2.8,2.188-1.1,8.105,1.8-.169,1.8-.169,2.21.154,1.395,1.091,2.409,2.613,3.972,3.513.8.462,1.729-.539,2.5.218a14.033,14.033,0,0,1,1.586,4.15M267.348,23.632l-.266-.15.025.014c2.932,1.744,6.746,4.242,7.481,4.724-13.383-7.99-13.383-7.99-16.722-8.8.969.6,2.283,1.375,3.285,1.922-3.331-1.175-3.331-1.175-4.535-1.332,6.906,4.195,12.046,10.87,19.69,14.026,1.291,6.786,8.265,6.338,12.283,9.651a23.322,23.322,0,0,0-5.111-2.18,10.436,10.436,0,0,0,2.712,2.983c-1.169-.223-1.169-.223-6.858-3.428C282,44.3,292.652,51.375,292.755,51.441l1.451-.831c1.54.8,2.893,1.9,4.417,2.732-.994-.323-2.32-.751-3.315-1.073,2.289,3.1,5.064,5.819,7.118,9.1l-1.84-.1c-3.825-9.009-25.84-21.222-26.056-21.331,4.746,8.04,13.793,11.08,20.1,17.3-6.666-2.674-6.666-2.674-8.735-1.784,1.113,2.063,3.167,3.268,4.6,5.039l-.084.066-.081.063-.079.061-.077.059-.076.057-.074.056-.073.055-.073.054c-.784-.718-1.833-1.674-2.622-2.388.533,1.628,0,3.322.317,4.963l-1.764-.74c-1.348,2.986.378,6.142-.508,9.153q-.187-.237-.376-.471l-.367-.459-.359-.445-.349-.432-.339-.416-.328-.4c-.105-.128-.21-.256-.317-.384l-.3-.367c-.993-.583-2.318-1.36-3.312-1.941-.464-.207-.528-.179-.591-.152l-.185.08-.18.078-.177.076-.177.074-.175.074-.176.073-.178.074c2.549,2.986,5.585,5.5,8.211,8.408a4.788,4.788,0,0,0-3.108.339c-.188,1.045-.407,2.445-.554,3.5,1.037,1.321,2.625,2.076,3.587,3.474.325.633.259.658.193.684l-.186.07-.18.068-.177.066-.178.067-.184.068-.192.071-.206.075c-.09-.139-.179-.278-.27-.417s-.178-.274-.268-.411l-.265-.407-.265-.4-.262-.4-.262-.394-.261-.392-.26-.389-1.653.646c-.08.512-.186,1.194-.267,1.706a17.6,17.6,0,0,0,3.016,2.519l-1.894.335a44.14,44.14,0,0,1-7.384-7.351c5.077-1.052,5.077-1.052,5.6-1.269-.425-2.218-.9-4.733-2.231-5.516-6.711-3.959-14.728-4.6-21.474-8.471l-.923,1.652a15.461,15.461,0,0,1-3.071-1.766c.209.473.486,1.1.693,1.577l-1.845-.014a6.836,6.836,0,0,0,1.659,2.992,17.516,17.516,0,0,1-3.082-.906l.6,1.659c-.663-.727-1.564-1.68-2.251-2.384-1.3,11.293-1.3,11.293-3.4,11.537-1.623,5.255-2.295,7.429-2.072,16.033l-1.491,1.059c-.674.93-.649,1.006-.624,1.083s.053.156.078.234.054.161.08.241.055.168.084.253.059.178.088.269l.095.287.1.31.11.338c-3.757,1.106-8.053,7.149-8.089,7.208l.211.84c.068.272.136.546.2.818s.131.533.2.8l.192.78q.092.382.185.764c.06.25.119.5.179.749s.117.489.176.734.114.482.171.723l1.646.106c4.506,9.352,4.506,9.352,10.554,5.112,3.455-2.421,10.279,6,10.3,10.063.878.634,2.05,1.478,2.93,2.11,3.775-7.173,4.014-8.356,2.566-12.662,2.811-3.925,3.974-5.549-2.055-10.742-1.338-1.182-1.428-1.419-1.517-1.655s-.177-.47-.267-.7l-.268-.7-.268-.7-.269-.691-.27-.688q-.134-.342-.27-.684c-.09-.227-.179-.454-.27-.68,2.406-7.475,2.406-7.475,2.379-13.341,4.221-1.143,4.7-.414,6.489,2.3l-1.591-.356c-2.128,26.006,9.961,17.977,10.089,17.829a7.431,7.431,0,0,1,2.391-2.033,21.256,21.256,0,0,1,2.358,2.294,8.181,8.181,0,0,1-3.594,1.045c-2.011,2.856-2.026,3.315-2.089,5.247.929.7,2.167,1.641,3.095,2.345.014.542.035,1.264.049,1.806l-1.643.371-3.191-2.951c-.585,4.395,2.556,8.4,1.336,12.862-1.2,4.381-3.961,2.946-5.446,2.175-1.931.736-1.931.736-5.761,4.639-2.913-.661-6.035,2.239-8.825-.519-3.8-3.761-.287-10.481-5.522-13.664l-1.13,1.24a6.007,6.007,0,0,1,2.3,2.489,6.773,6.773,0,0,1-3.252,1.63c-.585.37-.541.563-.5.755s.086.379.129.569l.127.562.124.556c.041.184.082.367.122.551l.121.549c.04.182.08.364.12.548s.08.364.119.548c.947.719,2.21,1.678,3.159,2.4l.124.569.121.561q.059.275.117.549t.115.535l.11.518.1.5c.034.159.067.317.1.477s.063.3.094.453c-4.431,2.465-5.423,3-9.649,5.2.145,1.3.332,3.028.471,4.326-.1,1.486-.342,1.513-.588,1.539l-.711.075-.689.072-.673.07-.662.068-.657.066-.659.066-.666.065c-.827,2.6-.827,2.6-6,7.675-1.007-.561-2.348-1.311-3.353-1.877-.6-.107-.573.139-.548.385l.068.674c.021.206.04.412.061.619l.056.571c.017.177.035.354.052.531l.048.5q.024.238.046.476c.014.153.029.306.044.459-4.335,1.257-4.787,1.431-6.576,3.492.206.506.481,1.181.688,1.687,3.691,1.277,5.852,4.55,8.822,6.768-.931,1.605-.931,1.605-1.628,9.6-.229-.119-20.765-.12-20,4.091,1.329,7.289,1.329,7.289-1.952,13.361.051.169,9.31,14.832,24.687,7.513,2.97-9.131,10.053-16.305,12.274-25.792,2.925-1.415,6.066-.358,9.077-.8a5.356,5.356,0,0,1,2.591-2.329c.285-.049.3-.052.321-.054l.054-.008.055-.007.055-.008.055-.007.055-.007.054-.008.055-.007a8.441,8.441,0,0,0,2.438-2.205l1.828-.091c4.827,5.922,12.162,9.045,16.853,15.116.012.147.024.295.037.443s.025.321.038.482.027.343.041.515.028.363.041.544.029.378.043.565.028.389.043.583.028.4.042.594l.042.6c1.759-.632,1.759-.632,3.911-3.7a10.057,10.057,0,0,1-1.559-3.135,20.635,20.635,0,0,1,3.581.041l.976-1.426c-17.363-11.742-20.976-14.186-16.817-19.636.751.419,18.457,10.44,23.8,27.031.483.9.678.858.873.813l.565-.127.548-.125.531-.122.517-.119.5-.117.492-.116.484-.115-.758-1.425a9.011,9.011,0,0,1,2.067-2.52,6.889,6.889,0,0,0-2.756-1.985c-.654-.316-.664-.424-.675-.533l-.031-.321c-.01-.107-.021-.213-.032-.319l-.031-.317c-.011-.105-.022-.21-.032-.316s-.022-.209-.032-.314-.022-.209-.033-.314-.021-.208-.033-.312l1.557-.728c.933-.563.92-.686.905-.809s-.026-.239-.04-.358l-.039-.349-.039-.347c-.013-.116-.027-.231-.04-.347s-.027-.234-.041-.351-.028-.24-.043-.36-.029-.249-.044-.373c6.367-2.053,6.367-2.053,7.548-3.018-1.712,10.709-2.172,13.587,5.256,17.013.73-.931,1.694-2.177,2.413-3.115l1.71-.128,1.321,1.36c1.445-.378,1.445-.378,4.417-2.543,1.822,2.318,3.544,4.507-.948,18.677-7.856,3.33-7.856,3.33-8.061,4.914a11.976,11.976,0,0,1-2.736-1.734c-1.01-.648-1.207-.594-1.4-.539l-.595.162-.6.162-.6.161-.6.16-.6.158-.606.158-.608.156c-.2-.6-.463-1.4-.662-2.006-3.7-1.046-8.163-2.251-8.168-2.252a31.3,31.3,0,0,0-3.569,4.6,2.063,2.063,0,0,0-.093.679c0,.035,0,.069,0,.1q0,.337,0,.673t0,.7l-.006.719c0,.248-.006.5-.009.745s-.007.516-.01.773l-.014.8q-.008.418-.018.837c-3.2-.038-3.2-.038-5.478-1.291-.725-.838-.871-.811-1.017-.782l-.46.087-.48.09-.5.092-.51.095-.522.1-.532.1-.537.1c-.083-.55-.193-1.285-.274-1.835-3.65-2.379-8.493-1.14-12-3.958-.292-11.54-.292-11.54-2.262-11.915-.183-.035-26.623,5.937-26.986,6.348-2.247,2.557-5.464,3.766-8.076,5.816-6.061-.83-6.061-.83-8.605-1.989l-12.3,15.116C206.274,233.986,194.924,235,194.809,235a6.894,6.894,0,0,1,.225,2.064c-1.352,5.632-6.2,9.241-8.335,14.419-2.529,6.136,1.772,12.378-.287,18.521-.345,1.028-1.368,2.353-4.287,2.832,3.392,3.716,3.392,3.716,3.579,4.1a8.167,8.167,0,0,0-.937,3.495,19.288,19.288,0,0,0,3.255,1.112c4.237,9.845,9.763,11.221,10.379,11.345a15.237,15.237,0,0,0,9.4,7.253c7.742-6.7,29.833-8.763,30.052-8.781a6.656,6.656,0,0,1,1.455,3.495c3.285,1.422,7.132.209,10.3,2.188-6.869,10.63-6.869,10.63-2.295,15.487-10.134,8.961-14.986,23.381-29.135,28.194a169.382,169.382,0,0,0,21.6-6.01l.189-.069c4.783-1.8,4.783-1.8,21.478-9.989.289-.152.387-.212.485-.272l.284-.174.276-.17.268-.167.262-.164.257-.162.253-.161.251-.16c27.563-14.444,64.337-62.744,65.56-69.126-7.775,6.858-7.775,6.858-9.381,6.366l-.764-1.506c.836-2.193.836-2.193,1.246-6.908l-1.134-1.163c2.4-13.869-6.812-26-5.933-39.636.884,2.45,1.212,3.416,1.923,5.553l1.9-.6,1.35.975c.046.66.1,1.541.152,2.2.54,7.05,3.322,13.552,4.959,20.335,1.508,6.252-3.888,11.735-2,18.028,6.29-8.507,13.826-16.087,18.924-25.48l.575-1.176h0c4.84-7.473,4.667-11.119,4.094-23.194-2.215,7.011-2.215,7.011-3.6,8.5l-1.363-.931a.9.9,0,0,1-.162-.7c.024-.17.049-.339.072-.509l.07-.5c.022-.16.044-.319.066-.478s.039-.3.06-.446.035-.268.053-.4c.015-.115.03-.231.044-.347.012-.093.024-.187.036-.28-3.132-6.664-3.535-7.519-2.986-11.047l1.624.147c.2-.459.478-1.072.684-1.53.639,6.078.72,6.219,2.1,8.572,2-.377,2-.377,4.293-4.759-.5,3.423-.5,3.423-.121,5.688.149-.145.295-.289.439-.435s.281-.286.418-.43.268-.284.4-.426.255-.28.378-.42.241-.277.359-.416.229-.273.34-.409.217-.27.323-.4.2-.266.3-.4l.369-1.67.307,1.6.814-1.678c.346,2.641.381,2.917-.811,8.4.522-2.5,1.219-5.831,1.741-8.33,2.469-17.47,2.67-18.9,2.8-30.685-.713-18.533-.726-18.887-2.38-28.941-3.7-17.668-3.771-18-7.014-27.49-6.322-16.181-6.569-16.813-11.316-25.639-8.75-14.73-9.092-15.3-15.323-23.41-10.643-12.683-11.281-13.442-19.138-20.818-9.652-8.306-17.277-14.866-31.783-23.222" transform="translate(-11.136 -15.969)" fill="#00b7e9"/>
  </g>
</svg>
