<svg xmlns="http://www.w3.org/2000/svg" width="153" height="44.025" viewBox="0 0 153 44.025">
  <g id="Group_4278" data-name="Group 4278" transform="translate(-626.054 -3551)">
    <path id="Path_49063" data-name="Path 49063" d="M109.789,130.674H101.75l3.006-8.034H112.8Z" transform="translate(545.427 3455.815)" fill="#fff"/>
    <path id="Subtraction_3" data-name="Subtraction 3" d="M107.984,24.1H0l3.011-8.034h8.039l3.015-8.034H6.022L8.146,2.369A3.67,3.67,0,0,1,11.565,0H122.559l-7.327,19.118a7.763,7.763,0,0,1-7.248,4.986ZM92.727,14.778a.5.5,0,0,0-.5.351l-1.209,2.834a.309.309,0,0,0-.011.276.241.241,0,0,0,.2.08h8.52a8.83,8.83,0,0,0,1.45-.1,2.933,2.933,0,0,0,1.041-.369,2.627,2.627,0,0,0,.764-.714,5.839,5.839,0,0,0,.6-1.115l1.326-3.1a3.168,3.168,0,0,0,.3-1.191c0-.858-.734-1.292-2.18-1.292H98.64c-.211,0-.318-.079-.318-.234a.88.88,0,0,1,.084-.3l.034-.067a.722.722,0,0,1,.671-.537h6.205a.5.5,0,0,0,.5-.351l1.191-2.8a.648.648,0,0,0,.051-.2c0-.1-.084-.153-.251-.153H99.031a9.885,9.885,0,0,0-1.585.11,3.228,3.228,0,0,0-1.114.385,2.577,2.577,0,0,0-.806.763A7.551,7.551,0,0,0,94.854,8.3l-1.274,3a2.868,2.868,0,0,0-.251,1.057,1.029,1.029,0,0,0,.562.965,3.81,3.81,0,0,0,1.768.311h4.229c.211,0,.318.073.318.217a.7.7,0,0,1-.067.285l-.033.067c-.159.385-.384.572-.688.572ZM29.593,11.386h0l-1.238,6.6a.3.3,0,0,0,.048.249.324.324,0,0,0,.255.087h2.686a.591.591,0,0,0,.311-.076.941.941,0,0,0,.259-.26l4.376-6.608c-.081.152-.163.324-.251.528s-.163.377-.251.562l-2.332,5.5a.3.3,0,0,0-.011.274.242.242,0,0,0,.212.079h3.3a.5.5,0,0,0,.5-.352L42.482,6.141a.63.63,0,0,0,.049-.2c0-.1-.084-.153-.251-.153H36.711a.573.573,0,0,0-.311.077.946.946,0,0,0-.26.259l-2.92,4.346c-.011.012-.049.061-.1.134s-.124.186-.183.284c-.043.072-.088.146-.133.22l-.026.043-.051.082a2.525,2.525,0,0,0-.176.326h-.034a2.432,2.432,0,0,0,.184-.629c.031-.2.061-.361.085-.461l.773-4.345a.289.289,0,0,0-.037-.246.329.329,0,0,0-.265-.09H28.323a.539.539,0,0,0-.5.352L22.8,17.963a.3.3,0,0,0-.011.274.246.246,0,0,0,.213.081h3.32a.5.5,0,0,0,.5-.352l2.4-5.652c.053-.115.109-.245.176-.41S29.531,11.569,29.593,11.386Zm43.141-5.6A7.662,7.662,0,0,0,71.1,5.94a3.063,3.063,0,0,0-1.2.544,4.058,4.058,0,0,0-.947,1.066,11.617,11.617,0,0,0-.864,1.71l-2.4,5.634a4.881,4.881,0,0,0-.47,1.845c0,1.044.741,1.575,2.2,1.578h5.82a7.614,7.614,0,0,0,1.634-.153,3.117,3.117,0,0,0,1.2-.537,3.859,3.859,0,0,0,.939-1.048,12.023,12.023,0,0,0,.855-1.686l2.4-5.634a5.057,5.057,0,0,0,.47-1.9c0-1.046-.734-1.576-2.18-1.576Zm-15.379,0a.538.538,0,0,0-.5.351l-1.191,2.8a.3.3,0,0,0-.011.274.245.245,0,0,0,.213.078H59.3l-3.674,8.671a.3.3,0,0,0-.011.273.245.245,0,0,0,.213.08h3.689a.5.5,0,0,0,.5-.351L63.7,9.3h3.271a.5.5,0,0,0,.5-.352l1.19-2.8a.621.621,0,0,0,.049-.2c0-.1-.084-.153-.25-.153Zm-10.349,0a7.654,7.654,0,0,0-1.634.153,3.076,3.076,0,0,0-1.2.544,4.1,4.1,0,0,0-.947,1.066,11.564,11.564,0,0,0-.864,1.71l-2.4,5.634a4.881,4.881,0,0,0-.47,1.845c0,1.044.739,1.575,2.2,1.578H47.51a7.629,7.629,0,0,0,1.636-.153,3.115,3.115,0,0,0,1.2-.537,3.842,3.842,0,0,0,.939-1.048,11.775,11.775,0,0,0,.855-1.686l2.4-5.634a5.053,5.053,0,0,0,.47-1.9c0-1.046-.733-1.576-2.18-1.576Zm36.509,8.335H85.68L85.764,18c0,.213.121.317.369.317h3.221c.226,0,.336-.1.336-.317l-.153-4.01a3.918,3.918,0,0,0,1.7-.779,3.877,3.877,0,0,0,1.081-1.517l1.393-3.3a3.116,3.116,0,0,0,.317-1.259c0-.89-.773-1.341-2.3-1.341H83.25a.539.539,0,0,0-.5.352L77.731,17.963a.3.3,0,0,0-.011.274.241.241,0,0,0,.211.077h3.454a.5.5,0,0,0,.5-.351l1.626-3.84Zm-10.244.654H70.386a.343.343,0,0,1-.249-.074.193.193,0,0,1-.051-.144,1,1,0,0,1,.083-.318l1.878-4.379c.145-.356.364-.537.654-.537h2.885c.2,0,.3.071.3.217a1.01,1.01,0,0,1-.085.318l-1.878,4.379C73.781,14.6,73.561,14.776,73.272,14.776Zm-25.728,0H44.658c-.2,0-.3-.071-.3-.218a1.006,1.006,0,0,1,.084-.318l1.878-4.379c.145-.356.365-.537.654-.537h2.885c.2,0,.3.071.3.217a1.018,1.018,0,0,1-.085.318L48.2,14.239C48.053,14.6,47.833,14.776,47.543,14.776ZM87.98,11.071H84.81l.754-1.778h3.17c.211,0,.318.079.318.235a.886.886,0,0,1-.083.3l-.3.721A.728.728,0,0,1,87.98,11.071Z" transform="translate(652.205 3570.421)" fill="#fff" stroke="rgba(0,0,0,0)" stroke-miterlimit="10" stroke-width="1"/>
    <path id="Path_49065" data-name="Path 49065" d="M37.969,130.674H29.93l3-8.034h8.043Z" transform="translate(601.17 3455.814)" fill="#fff"/>
    <path id="Path_49066" data-name="Path 49066" d="M60.464,166.564H52.43l3-8.034h8.039Z" transform="translate(583.707 3427.958)" fill="#fff"/>
    <path id="Path_49067" data-name="Path 49067" d="M87.293,94.784H79.25l2.115-5.661a3.651,3.651,0,0,1,3.418-2.373H90.3Z" transform="translate(562.89 3483.67)" fill="#fff"/>
    <path id="Path_49068" data-name="Path 49068" d="M15.433,94.784H7.39L9.5,89.125a3.651,3.651,0,0,1,3.421-2.375h5.514Z" transform="translate(618.664 3483.67)" fill="#fff"/>
    <path id="Path_49083" data-name="Path 49083" d="M27.527,14.74,33.594.435A.648.648,0,0,1,34.2.01h4.5c.271,0,.351.143.244.425l-4.423,10.45H41.3c.271,0,.351.141.244.425l-1.462,3.43a.6.6,0,0,1-.609.425H27.771c-.271,0-.354-.143-.244-.425" transform="translate(603.071 3550.992)" fill="#fff"/>
    <path id="Path_49084" data-name="Path 49084" d="M92.846,25.6l1.807-4.28a9.156,9.156,0,0,1,.842-1.563,3.98,3.98,0,0,1,.974-1.005,3.506,3.506,0,0,1,1.218-.537,6.742,6.742,0,0,1,1.551-.161h2.436a1.162,1.162,0,0,1,.649.161l1.218.71.224-.486a.538.538,0,0,1,.548-.385h3.875c.244,0,.318.128.224.385l-2.881,6.756h.345c.271,0,.345.13.224.385l-1.359,3.206a.538.538,0,0,1-.548.385H102.06a1.014,1.014,0,0,1-.629-.184l-1.462-1.117-2.4,1.117a2.116,2.116,0,0,1-.405.143,1.781,1.781,0,0,1-.385.04H94.512a2.787,2.787,0,0,1-1.663-.4A1.367,1.367,0,0,1,92.32,27.6a5.388,5.388,0,0,1,.526-2.008m5.01-.629c0,.15.094.224.284.224h2.74l1.339-3.165H99.481c-.3,0-.522.19-.669.569l-.873,2.028a.824.824,0,0,0-.083.345" transform="translate(552.746 3536.991)" fill="#fff"/>
    <path id="Path_49085" data-name="Path 49085" d="M189.65,13.069a5.783,5.783,0,0,1,.528-2.111l2.881-6.8a12.883,12.883,0,0,1,1.054-2.06A4.709,4.709,0,0,1,195.3.833a4.037,4.037,0,0,1,1.542-.649A10.792,10.792,0,0,1,198.983,0h9.028c.2,0,.3.06.3.184a.8.8,0,0,1-.06.244l-1.442,3.389a.6.6,0,0,1-.609.425h-7.528a.868.868,0,0,0-.81.649l-2.272,5.337a1.073,1.073,0,0,0-.1.365c0,.19.128.284.385.284h7.506c.271,0,.351.141.244.425l-1.46,3.43a.6.6,0,0,1-.609.425h-8.867q-3.042,0-3.042-2.089" transform="translate(477.205 3551)" fill="#fff"/>
    <path id="Path_49086" data-name="Path 49086" d="M255.27,27.2a4.069,4.069,0,0,1,.365-1.6l1.786-4.24a8.61,8.61,0,0,1,.81-1.563,3.986,3.986,0,0,1,.963-1.014,3.547,3.547,0,0,1,1.227-.557,6.684,6.684,0,0,1,1.6-.172h5.762a3.221,3.221,0,0,1,1.827.445,1.538,1.538,0,0,1,.649,1.359,3.893,3.893,0,0,1-.365,1.5l-1.786,4.24a8.43,8.43,0,0,1-.893,1.654,4.436,4.436,0,0,1-1.117,1.106,4.357,4.357,0,0,1-1.422.62,7.689,7.689,0,0,1-1.8.193h-5.538a2.012,2.012,0,0,1-1.563-.557,2.033,2.033,0,0,1-.5-1.413m5.639-2.01h2.272c.311,0,.542-.188.689-.569l.873-2.028a.855.855,0,0,0,.081-.345c0-.148-.1-.224-.3-.224h-2.272a.742.742,0,0,0-.689.569l-.873,2.028a.855.855,0,0,0-.081.345c0,.15.1.224.3.224" transform="translate(426.274 3536.991)" fill="#fff"/>
    <path id="Path_49087" data-name="Path 49087" d="M316.35,27.576a5.216,5.216,0,0,1,.486-1.948l3.065-7.2a.538.538,0,0,1,.548-.385h3.875c.244,0,.318.128.224.385l-2.637,6.188a.855.855,0,0,0-.081.345c0,.15.1.224.3.224h2.78l2.881-6.756a.538.538,0,0,1,.548-.385h3.875c.244,0,.318.128.224.385l-2.881,6.756h.528c.271,0,.345.13.224.385l-1.359,3.206a.538.538,0,0,1-.549.385h-2.292a1.009,1.009,0,0,1-.629-.184l-1.48-1.135-2.456,1.135a2.043,2.043,0,0,1-.792.184H318.3q-1.954,0-1.952-1.58" transform="translate(378.868 3536.999)" fill="#fff"/>
    <path id="Path_49088" data-name="Path 49088" d="M376.393,28.782l2.861-6.756h-.325c-.244,0-.318-.128-.224-.385l1.379-3.206a.538.538,0,0,1,.548-.385h4.524c.244,0,.318.128.224.385l-.244.548,1.744-.75a1.941,1.941,0,0,1,.792-.184h1.968a2.77,2.77,0,0,1,1.4.273.958.958,0,0,1,.448.882,4.156,4.156,0,0,1-.385,1.462l-1.764,4.159a.538.538,0,0,1-.548.385H385.1c-.271,0-.345-.128-.224-.385l.954-2.232a1.079,1.079,0,0,0,.1-.345c0-.148-.107-.224-.325-.224h-1.643L381.1,28.782a.538.538,0,0,1-.548.385h-3.935c-.244,0-.318-.128-.224-.385" transform="translate(332.297 3536.991)" fill="#fff"/>
    <path id="Path_49089" data-name="Path 49089" d="M436.08,27.2a4.069,4.069,0,0,1,.365-1.6l1.786-4.24a8.612,8.612,0,0,1,.81-1.563A3.988,3.988,0,0,1,440,18.78a3.547,3.547,0,0,1,1.227-.557,6.684,6.684,0,0,1,1.6-.172H448.6a3.221,3.221,0,0,1,1.827.445,1.538,1.538,0,0,1,.649,1.359,3.894,3.894,0,0,1-.365,1.5l-1.786,4.24a8.423,8.423,0,0,1-.893,1.654,4.436,4.436,0,0,1-1.117,1.106,4.358,4.358,0,0,1-1.422.62,7.689,7.689,0,0,1-1.8.193h-5.538a2.012,2.012,0,0,1-1.563-.557,2.033,2.033,0,0,1-.5-1.413m5.639-2.01h2.272a.739.739,0,0,0,.689-.569l.873-2.028a.855.855,0,0,0,.081-.345c0-.148-.1-.224-.3-.224h-2.272a.742.742,0,0,0-.69.569L441.5,24.62a.855.855,0,0,0-.081.345c0,.15.1.224.3.224" transform="translate(285.941 3536.991)" fill="#fff"/>
    <path id="Path_49090" data-name="Path 49090" d="M494.123,28.782l2.861-6.756h-.448c-.244,0-.318-.128-.224-.385l1.379-3.206a.538.538,0,0,1,.548-.385h4.6c.244,0,.318.128.224.385l-.244.548,2.657-.81a2.978,2.978,0,0,1,.81-.121h.893a4.217,4.217,0,0,1,2.212.445,1.571,1.571,0,0,1,.689,1.422,6.516,6.516,0,0,1-.629,2.373l-2.74,6.452a.624.624,0,0,1-.609.425h-3.835c-.284,0-.365-.143-.244-.425l2.617-6.147a.854.854,0,0,0,.081-.345c0-.148-.1-.224-.3-.224h-2.76L498.8,28.784a.538.538,0,0,1-.548.385h-3.915c-.235,0-.309-.13-.215-.387" transform="translate(240.922 3536.991)" fill="#fff"/>
    <path id="Path_49091" data-name="Path 49091" d="M557.569,28.782l2.861-6.756h-.445c-.244,0-.318-.128-.224-.385l1.379-3.206a.538.538,0,0,1,.548-.385h4.6c.244,0,.318.128.224.385l-.244.548,2.657-.81a2.98,2.98,0,0,1,.813-.121h.893a4.217,4.217,0,0,1,2.212.445,1.571,1.571,0,0,1,.69,1.422,6.517,6.517,0,0,1-.629,2.373l-2.738,6.452a.626.626,0,0,1-.609.425h-3.835c-.284,0-.365-.143-.244-.425L568.1,22.6a.855.855,0,0,0,.081-.345c0-.148-.1-.224-.3-.224h-2.758l-2.861,6.756a.538.538,0,0,1-.548.385h-3.915c-.246,0-.32-.13-.224-.387" transform="translate(191.68 3536.991)" fill="#fff"/>
    <path id="Path_49092" data-name="Path 49092" d="M623.5,27.524a4.409,4.409,0,0,1,.405-1.623l1.827-4.28a9.528,9.528,0,0,1,.965-1.8,4.007,4.007,0,0,1,1.126-1.095,3.933,3.933,0,0,1,1.442-.537,11.27,11.27,0,0,1,1.907-.143h4.708a3.744,3.744,0,0,1,2.048.437,1.454,1.454,0,0,1,.649,1.287,4.354,4.354,0,0,1-.425,1.7l-.81,1.887a1.9,1.9,0,0,1-.618.853,1.637,1.637,0,0,1-.965.264h-6.532l-.081.161a.693.693,0,0,0-.1.345c0,.134.1.2.3.2h5.7c.271,0,.345.13.224.385l-1.359,3.206a.538.538,0,0,1-.548.385H625.9a3.137,3.137,0,0,1-1.815-.416,1.4,1.4,0,0,1-.586-1.227m9.821-4.952.1-.224c.067-.15.078-.24.031-.273a.748.748,0,0,0-.356-.051h-2.413a.643.643,0,0,0-.4.092,1.369,1.369,0,0,0-.273.457Z" transform="translate(140.477 3536.991)" fill="#fff"/>
  </g>
</svg>
