<svg id="Group_4282" data-name="Group 4282" xmlns="http://www.w3.org/2000/svg" xmlns:xlink="http://www.w3.org/1999/xlink" width="195" height="63.18" viewBox="0 0 195 63.18">
  <defs>
    <clipPath id="clip-path">
      <rect id="Rectangle_1492" data-name="Rectangle 1492" width="195" height="63.18" fill="none"/>
    </clipPath>
  </defs>
  <g id="Group_4271" data-name="Group 4271" clip-path="url(#clip-path)">
    <path id="Path_49184" data-name="Path 49184" d="M7.9,26.444c3.781,0,6.133,2.016,6.217,4.957H10.922c-.084-1.344-1.344-2.184-3.025-2.184s-2.773.756-2.773,2.016c0,1.008.756,1.6,2.689,2.016l1.68.336c3.445.672,4.957,2.1,4.957,4.537,0,3.193-2.52,5.209-6.553,5.209-3.865,0-6.469-1.848-6.553-4.873H4.537c.252,1.344,1.6,2.184,3.445,2.184s3.025-.84,3.025-2.1c0-1.092-.756-1.68-2.773-2.1l-1.68-.336c-3.277-.672-4.789-2.184-4.789-4.621-.084-3.025,2.52-5.041,6.133-5.041m0-1.26C3.529,25.184.42,27.7.42,31.4c0,2.1,1.008,4.873,5.8,5.8l1.68.336c1.764.336,1.764.756,1.764.84,0,.42-.672.84-1.764.84-.924,0-2.1-.252-2.184-1.092a1.272,1.272,0,0,0-1.26-1.092H1.26A1.292,1.292,0,0,0,0,38.29c.084,3.7,3.193,6.133,7.813,6.133,4.7,0,7.813-2.52,7.813-6.469,0-3.445-2.52-4.789-4.453-5.377h2.857a1.292,1.292,0,0,0,1.26-1.26c0-3.613-3.025-6.133-7.393-6.133m2.184,7.225-.336-.084-1.68-.336c-.42-.084-1.68-.336-1.68-.756,0-.5.84-.756,1.512-.756.42,0,1.68.084,1.764,1.092a1.167,1.167,0,0,0,.42.84" transform="translate(0 -4.025)" fill="#fff"/>
    <path id="Path_49185" data-name="Path 49185" d="M22.917,28.444v2.773h2.268v2.436H22.917v5.8c0,.924.42,1.344,1.428,1.344a3.152,3.152,0,0,0,.84-.084v2.436a9.3,9.3,0,0,1-1.6.168c-2.857,0-3.949-.924-3.949-3.277v-6.3H17.96V31.3h1.68V28.528Zm0-1.26H19.641a1.292,1.292,0,0,0-1.26,1.26v1.512h-.42a1.292,1.292,0,0,0-1.26,1.26v2.436a1.292,1.292,0,0,0,1.26,1.26h.42v5.041c0,4.537,3.865,4.537,5.209,4.537a13.739,13.739,0,0,0,1.848-.168,1.338,1.338,0,0,0,1.008-1.26V40.627a1.292,1.292,0,0,0-1.26-1.26h-.924V34.745H25.27a1.292,1.292,0,0,0,1.26-1.26V31.049a1.292,1.292,0,0,0-1.26-1.26H24.261V28.276a1.451,1.451,0,0,0-1.344-1.092" transform="translate(-2.669 -4.345)" fill="#fff"/>
    <path id="Path_49186" data-name="Path 49186" d="M34.525,31.444c3.613,0,5.965,2.352,5.965,6.3s-2.352,6.3-5.965,6.3-5.965-2.352-5.965-6.3c0-3.865,2.352-6.3,5.965-6.3m0,10.082c1.6,0,2.6-1.344,2.6-3.781s-1.008-3.781-2.6-3.781-2.6,1.344-2.6,3.781c-.084,2.436.924,3.781,2.6,3.781m0-11.342c-4.369,0-7.225,2.941-7.225,7.561s2.857,7.561,7.225,7.561,7.225-2.941,7.225-7.561c0-4.537-2.857-7.561-7.225-7.561m0,10.082c-1.176,0-1.428-1.6-1.428-2.52,0-2.352,1.092-2.52,1.428-2.52,1.26,0,1.344,1.764,1.344,2.52,0,.924-.168,2.52-1.344,2.52" transform="translate(-4.364 -4.825)" fill="#fff"/>
    <path id="Path_49187" data-name="Path 49187" d="M50.341,31.444c3.277,0,5.293,2.016,5.461,4.7H52.778a2.373,2.373,0,0,0-2.352-2.184c-1.6,0-2.6,1.344-2.6,3.7s1.008,3.7,2.6,3.7a2.191,2.191,0,0,0,2.352-2.1H55.8c-.168,2.857-2.268,4.7-5.461,4.7-3.613,0-5.965-2.352-5.965-6.3.084-3.781,2.352-6.217,5.965-6.217m0-1.26c-4.369,0-7.141,2.941-7.141,7.561s2.857,7.561,7.225,7.561c3.781,0,6.469-2.352,6.721-5.881a1.358,1.358,0,0,0-1.176-1.344H52.862a1.263,1.263,0,0,0-1.26,1.092c-.168.924-.672,1.008-1.176,1.008S49,39.846,49,37.745c0-2.184.924-2.436,1.344-2.436.672,0,1.008.336,1.176,1.092a1.272,1.272,0,0,0,1.26,1.092H55.8a1.292,1.292,0,0,0,1.26-1.26v-.084c-.168-3.529-2.941-5.965-6.721-5.965" transform="translate(-6.905 -4.825)" fill="#fff"/>
    <path id="Path_49188" data-name="Path 49188" d="M63.237,26.844v8.99h.084l4.117-4.873h3.7L66.513,36.17,71.3,43.059H67.522l-3.445-4.873-.84.924v3.949H59.96V26.844Zm0-1.26H59.96a1.292,1.292,0,0,0-1.26,1.26V43.059a1.292,1.292,0,0,0,1.26,1.26h3.277a1.292,1.292,0,0,0,1.26-1.26V40.875l2.016,2.857a1.2,1.2,0,0,0,1.008.5H71.3a1.292,1.292,0,0,0,1.26-1.26,1.355,1.355,0,0,0-.252-.756L68.026,36.17l3.949-4.453a1.3,1.3,0,0,0-.084-1.764,1.493,1.493,0,0,0-.84-.336h-3.7a1.2,1.2,0,0,0-.924.42L64.5,32.305V26.844a1.237,1.237,0,0,0-1.26-1.26" transform="translate(-9.383 -4.089)" fill="#fff"/>
    <path id="Path_49189" data-name="Path 49189" d="M137.838,26.788V43h-2.773L127.5,32.417h-.084V43h-3.277V26.788H127l7.561,10.586h.084V26.788h3.193m0-1.26h-3.277a1.292,1.292,0,0,0-1.26,1.26v6.805l-5.377-7.561a1.2,1.2,0,0,0-1.008-.5h-2.857a1.292,1.292,0,0,0-1.26,1.26V43a1.292,1.292,0,0,0,1.26,1.26h3.277A1.292,1.292,0,0,0,128.6,43V36.114l5.461,7.561a1.2,1.2,0,0,0,1.008.5h2.773a1.292,1.292,0,0,0,1.26-1.26V26.7a1.28,1.28,0,0,0-1.26-1.176" transform="translate(-19.628 -4.08)" fill="#fff"/>
    <path id="Path_49190" data-name="Path 49190" d="M154.633,31.788V43.8h-3.193V41.618h-.084a3.635,3.635,0,0,1-3.613,2.436c-2.6,0-4.369-1.68-4.369-4.537V31.788h3.277v7.057a2.13,2.13,0,0,0,2.268,2.436,2.324,2.324,0,0,0,2.352-2.6V31.788Zm0-1.26h-3.277a1.292,1.292,0,0,0-1.26,1.26v6.889c0,.924-.336,1.428-1.092,1.428-.588,0-1.008-.084-1.008-1.176V31.872a1.292,1.292,0,0,0-1.26-1.26h-3.277a1.292,1.292,0,0,0-1.26,1.26V39.6a5.426,5.426,0,0,0,5.629,5.8,6.062,6.062,0,0,0,2.689-.672,1.391,1.391,0,0,0,1.008.42h3.193a1.292,1.292,0,0,0,1.26-1.26v-12.1a1.435,1.435,0,0,0-1.344-1.26" transform="translate(-22.729 -4.88)" fill="#fff"/>
    <path id="Path_49191" data-name="Path 49191" d="M163.116,28.488v2.773H165.3V33.7h-2.184v5.8c0,.924.42,1.344,1.428,1.344a3.152,3.152,0,0,0,.84-.084v2.436a9.306,9.306,0,0,1-1.6.168c-2.857,0-3.949-.924-3.949-3.277v-6.3h-1.68V31.345h1.68V28.572Zm0-1.26H159.84a1.292,1.292,0,0,0-1.26,1.26V30h-.42a1.292,1.292,0,0,0-1.26,1.26V33.7a1.292,1.292,0,0,0,1.26,1.26h.42V40c0,4.537,3.865,4.537,5.209,4.537a13.738,13.738,0,0,0,1.848-.168,1.338,1.338,0,0,0,1.008-1.26V40.839a1.292,1.292,0,0,0-1.26-1.26h-.924V34.957h1.008a1.292,1.292,0,0,0,1.26-1.26V31.261a1.292,1.292,0,0,0-1.26-1.26H164.46V28.488a1.435,1.435,0,0,0-1.344-1.26" transform="translate(-25.079 -4.352)" fill="#fff"/>
    <path id="Path_49192" data-name="Path 49192" d="M174.692,31.588a3.446,3.446,0,0,1,.924.084v2.857a2.86,2.86,0,0,0-1.176-.168,2.492,2.492,0,0,0-2.6,2.184v7.225h-3.277v-12.1h3.193v2.184h.084a2.744,2.744,0,0,1,2.857-2.268m0-1.26a4.555,4.555,0,0,0-2.1.5,1.079,1.079,0,0,0-.84-.336h-3.193a1.292,1.292,0,0,0-1.26,1.26V43.771a1.292,1.292,0,0,0,1.26,1.26h3.277a1.292,1.292,0,0,0,1.26-1.26V37.049c0-1.26.672-1.428,1.344-1.428a1.638,1.638,0,0,1,.672.084,1.176,1.176,0,0,0,1.6-.672,1.066,1.066,0,0,0,.084-.5V31.672a1.168,1.168,0,0,0-.924-1.176,2.67,2.67,0,0,0-1.176-.168" transform="translate(-26.741 -4.848)" fill="#fff"/>
    <path id="Path_49193" data-name="Path 49193" d="M180.04,25.788a1.68,1.68,0,1,1-1.68,1.68,1.685,1.685,0,0,1,1.68-1.68m1.68,17.139h-3.277v-12.1h3.277Zm-1.68-18.4a2.977,2.977,0,0,0-2.941,2.941,2.731,2.731,0,0,0,.924,2.1,1.264,1.264,0,0,0-.84,1.176V42.759a1.292,1.292,0,0,0,1.26,1.26h3.277a1.292,1.292,0,0,0,1.26-1.26v-12.1a1.264,1.264,0,0,0-.84-1.176,3.008,3.008,0,0,0,.924-2.1,3.1,3.1,0,0,0-3.025-2.857" transform="translate(-28.308 -3.921)" fill="#fff"/>
    <path id="Path_49194" data-name="Path 49194" d="M190.116,28.488v2.773h2.268V33.7h-2.268v5.8c0,.924.42,1.344,1.428,1.344a3.152,3.152,0,0,0,.84-.084v2.436a9.306,9.306,0,0,1-1.6.168c-2.857,0-3.949-.924-3.949-3.277v-6.3h-1.68V31.345h1.68V28.572Zm0-1.26H186.84a1.292,1.292,0,0,0-1.26,1.26V30h-.42a1.292,1.292,0,0,0-1.26,1.26V33.7a1.292,1.292,0,0,0,1.26,1.26h.42V40c0,4.537,3.865,4.537,5.209,4.537a13.738,13.738,0,0,0,1.848-.168,1.338,1.338,0,0,0,1.008-1.26V40.839a1.292,1.292,0,0,0-1.26-1.26h-.924V34.957h1.008a1.292,1.292,0,0,0,1.26-1.26V31.261a1.292,1.292,0,0,0-1.26-1.26H191.46V28.488a1.435,1.435,0,0,0-1.344-1.26" transform="translate(-29.395 -4.352)" fill="#fff"/>
    <path id="Path_49195" data-name="Path 49195" d="M197.24,25.788a1.68,1.68,0,1,1-1.68,1.68,1.586,1.586,0,0,1,1.68-1.68h0m1.6,17.139h-3.277v-12.1h3.277Zm-1.6-18.4a2.977,2.977,0,0,0-2.941,2.941,2.731,2.731,0,0,0,.924,2.1,1.264,1.264,0,0,0-.84,1.176V42.759a1.292,1.292,0,0,0,1.26,1.26h3.277a1.292,1.292,0,0,0,1.26-1.26v-12.1a1.264,1.264,0,0,0-.84-1.176,3.008,3.008,0,0,0,.924-2.1,3.1,3.1,0,0,0-3.025-2.857" transform="translate(-31.057 -3.921)" fill="#fff"/>
    <path id="Path_49196" data-name="Path 49196" d="M207.224,31.488c3.613,0,5.965,2.352,5.965,6.3s-2.352,6.3-5.965,6.3-5.965-2.352-5.965-6.3c-.084-3.949,2.352-6.3,5.965-6.3m0,10.082c1.6,0,2.6-1.344,2.6-3.781s-1.008-3.781-2.6-3.781-2.6,1.344-2.6,3.781c-.084,2.352.924,3.781,2.6,3.781m0-11.342c-4.369,0-7.225,2.941-7.225,7.561s2.857,7.561,7.225,7.561,7.225-2.941,7.225-7.561-2.857-7.561-7.225-7.561m0,10.082c-1.176,0-1.428-1.6-1.428-2.52,0-2.352,1.092-2.52,1.428-2.52,1.26,0,1.344,1.764,1.344,2.52,0,.924-.168,2.52-1.344,2.52" transform="translate(-31.968 -4.832)" fill="#fff"/>
    <path id="Path_49197" data-name="Path 49197" d="M224.117,31.488c2.689,0,4.2,1.68,4.2,4.537v7.729h-3.277V36.7c0-1.6-.756-2.436-2.184-2.436a2.368,2.368,0,0,0-2.436,2.352v7.141h-3.277V31.74h3.193v2.184h.084a3.571,3.571,0,0,1,3.7-2.436m0-1.26a6.5,6.5,0,0,0-2.857.672,1.2,1.2,0,0,0-1.008-.5h-3.193a1.292,1.292,0,0,0-1.26,1.26V43.671a1.292,1.292,0,0,0,1.26,1.26h3.277a1.292,1.292,0,0,0,1.26-1.26V36.781c0-.5.168-1.428,1.176-1.428.924,0,.924.672.924,1.26v7.057a1.292,1.292,0,0,0,1.26,1.26h3.277a1.292,1.292,0,0,0,1.26-1.26V35.941c0-3.445-2.1-5.713-5.377-5.713" transform="translate(-34.494 -4.832)" fill="#fff"/>
    <path id="Path_49198" data-name="Path 49198" d="M104.88,50.83h8.066l-12.77-18.82L126.892,0l-22.18,32.01,13.695,21.676H103.032l-6.889-9.662-8.57,10.334H82.7L96.479,38.311Z" transform="translate(-13.219)" fill="#fff"/>
    <path id="Path_49199" data-name="Path 49199" d="M84.384,14.061H76.319l11.51,18.82L61.7,64.89,83.88,32.88,70.858,11.2H86.821l6.3,9.83L101.44,10.7h5.209L92.87,26.747Z" transform="translate(-9.862 -1.71)" fill="#fff"/>
  </g>
</svg>
