<svg id="Group_4279" data-name="Group 4279" xmlns="http://www.w3.org/2000/svg" xmlns:xlink="http://www.w3.org/1999/xlink" width="92.095" height="64.633" viewBox="0 0 92.095 64.633">
  <defs>
    <clipPath id="clip-path">
      <rect id="Rectangle_1487" data-name="Rectangle 1487" width="92.095" height="64.633" fill="none"/>
    </clipPath>
  </defs>
  <g id="Group_4257" data-name="Group 4257" clip-path="url(#clip-path)">
    <path id="Path_49093" data-name="Path 49093" d="M37.532,62.853v-.005H1.785V1.785H62.848v21.5a.889.889,0,0,0,.889.889h.005a.889.889,0,0,0,.889-.889V0H0V64.633H63.744a.889.889,0,1,0,0-1.778H37.532Z" fill="#fff"/>
    <path id="Path_49094" data-name="Path 49094" d="M51.38,230.6l2.785-3.327a9.3,9.3,0,0,0,5.855,2.166c1.341,0,2.064-.464,2.064-1.238v-.052c0-.748-.593-1.161-3.043-1.728-3.843-.877-6.808-1.96-6.808-5.674V220.7c0-3.353,2.657-5.776,6.989-5.776a11.367,11.367,0,0,1,7.428,2.4l-2.5,3.534a9.049,9.049,0,0,0-5.055-1.78c-1.212,0-1.805.516-1.805,1.161v.052c0,.825.619,1.186,3.121,1.754,4.153.9,6.731,2.244,6.731,5.622v.052c0,3.687-2.914,5.88-7.3,5.88a12.622,12.622,0,0,1-8.46-2.993" transform="translate(-44.531 -186.269)" fill="#fff"/>
    <path id="Path_49095" data-name="Path 49095" d="M187.77,217.24h5v13.668h8.742v4.385H187.77Z" transform="translate(-162.738 -188.28)" fill="#fff"/>
    <path id="Path_49096" data-name="Path 49096" d="M294.56,223.97v-.052a9.274,9.274,0,0,1,9.517-9.388,8.84,8.84,0,0,1,7.66,3.765l-3.766,2.914a4.833,4.833,0,0,0-3.946-2.116c-2.528,0-4.307,2.141-4.307,4.771v.052c0,2.708,1.78,4.823,4.307,4.823a4.932,4.932,0,0,0,4.075-2.193l3.766,2.682a9.505,9.505,0,0,1-17.306-5.259" transform="translate(-255.292 -185.931)" fill="#fff"/>
    <path id="Path_49097" data-name="Path 49097" d="M54.56,383.95h2.858c2.646,0,4.181,1.524,4.181,3.662v.021c0,2.138-1.556,3.726-4.223,3.726H54.56Zm2.889,5.59a1.816,1.816,0,0,0,2.042-1.873v-.021a1.821,1.821,0,0,0-2.042-1.873h-.836v3.769h.836Z" transform="translate(-47.287 -332.765)" fill="#fff"/>
    <rect id="Rectangle_1484" data-name="Rectangle 1484" width="2.064" height="7.409" transform="translate(15.412 51.185)" fill="#fff"/>
    <path id="Path_49098" data-name="Path 49098" d="M137.05,389.436l1.144-1.365a3.814,3.814,0,0,0,2.4.889c.551,0,.847-.191.847-.508v-.021c0-.307-.243-.476-1.249-.709-1.577-.36-2.794-.805-2.794-2.329v-.021c0-1.376,1.09-2.372,2.869-2.372a4.668,4.668,0,0,1,3.049.984l-1.026,1.45a3.719,3.719,0,0,0-2.074-.731c-.5,0-.741.212-.741.476v.021c0,.339.255.487,1.281.72,1.7.371,2.762.921,2.762,2.308v.021c0,1.514-1.2,2.414-3,2.414a5.18,5.18,0,0,1-3.473-1.228" transform="translate(-118.78 -331.942)" fill="#fff"/>
    <path id="Path_49099" data-name="Path 49099" d="M190.562,385.75H188.34v-1.8h6.5v1.8h-2.222v5.61h-2.053v-5.61Z" transform="translate(-163.232 -332.765)" fill="#fff"/>
    <path id="Path_49100" data-name="Path 49100" d="M243.84,383.95h3.5a3.231,3.231,0,0,1,2.413.805,2.3,2.3,0,0,1,.656,1.725v.021a2.344,2.344,0,0,1-1.524,2.276l1.768,2.582h-2.372l-1.492-2.244h-.9v2.244H243.84Zm3.407,3.557c.7,0,1.1-.339,1.1-.879v-.021c0-.583-.423-.879-1.112-.879h-1.344v1.778Z" transform="translate(-211.334 -332.765)" fill="#fff"/>
    <rect id="Rectangle_1485" data-name="Rectangle 1485" width="2.064" height="7.409" transform="translate(40.158 51.185)" fill="#fff"/>
    <path id="Path_49101" data-name="Path 49101" d="M326.88,383.95h3.8a2.731,2.731,0,0,1,2.021.667,1.625,1.625,0,0,1,.476,1.2v.021a1.716,1.716,0,0,1-1.144,1.652,1.8,1.8,0,0,1,1.472,1.81v.021c0,1.27-1.037,2.042-2.8,2.042H326.88Zm3.293,2.954c.624,0,.974-.212.974-.645v-.021c0-.4-.317-.635-.932-.635h-1.333v1.3h1.29Zm.3,2.8c.624,0,.984-.243.984-.677v-.021c0-.4-.317-.667-1.005-.667h-1.566v1.365Z" transform="translate(-283.303 -332.765)" fill="#fff"/>
    <path id="Path_49102" data-name="Path 49102" d="M382.94,388.111V383.95h2.085v4.118c0,1.069.54,1.577,1.365,1.577s1.365-.487,1.365-1.524V383.95h2.085v4.107c0,2.393-1.365,3.441-3.471,3.441s-3.429-1.069-3.429-3.387" transform="translate(-331.89 -332.765)" fill="#fff"/>
    <path id="Path_49103" data-name="Path 49103" d="M439.63,389.436l1.144-1.365a3.814,3.814,0,0,0,2.4.889c.551,0,.846-.191.846-.508v-.021c0-.307-.243-.476-1.249-.709-1.577-.36-2.794-.805-2.794-2.329v-.021c0-1.376,1.09-2.372,2.869-2.372a4.668,4.668,0,0,1,3.049.984l-1.026,1.45a3.719,3.719,0,0,0-2.074-.731c-.5,0-.741.212-.741.476v.021c0,.339.255.487,1.281.72,1.7.371,2.762.921,2.762,2.308v.021c0,1.514-1.2,2.414-3,2.414a5.175,5.175,0,0,1-3.473-1.228" transform="translate(-381.023 -331.942)" fill="#fff"/>
    <path id="Path_49104" data-name="Path 49104" d="M493.142,385.75H490.92v-1.8h6.5v1.8H495.2v5.61h-2.053v-5.61Z" transform="translate(-425.475 -332.765)" fill="#fff"/>
    <rect id="Rectangle_1486" data-name="Rectangle 1486" width="2.064" height="7.409" transform="translate(72.885 51.185)" fill="#fff"/>
    <path id="Path_49105" data-name="Path 49105" d="M570.47,386.723v-.02a3.993,3.993,0,0,1,7.98-.021v.021a3.993,3.993,0,0,1-7.98.02m5.886,0v-.02a1.926,1.926,0,0,0-1.905-2,1.888,1.888,0,0,0-1.873,1.98v.021a1.924,1.924,0,0,0,1.894,2,1.893,1.893,0,0,0,1.884-1.981" transform="translate(-494.42 -331.812)" fill="#fff"/>
    <path id="Path_49106" data-name="Path 49106" d="M638.35,383.95h1.916l3.049,3.917V383.95h2.032v7.409h-1.8l-3.165-4.065v4.065H638.35Z" transform="translate(-553.251 -332.765)" fill="#fff"/>
    <path id="Path_49107" data-name="Path 49107" d="M448.88,316.52a2.59,2.59,0,1,1-2.59,2.59,2.59,2.59,0,0,1,2.59-2.59" transform="translate(-386.795 -274.325)" fill="#fff"/>
  </g>
</svg>
