<svg id="Group_4281" data-name="Group 4281" xmlns="http://www.w3.org/2000/svg" xmlns:xlink="http://www.w3.org/1999/xlink" width="124.397" height="124.623" viewBox="0 0 124.397 124.623">
  <defs>
    <clipPath id="clip-path">
      <rect id="Rectangle_1491" data-name="Rectangle 1491" width="124.397" height="124.623" fill="none"/>
    </clipPath>
    <clipPath id="clip-path-3">
      <rect id="Rectangle_1489" data-name="Rectangle 1489" width="121.006" height="120.646" fill="none"/>
    </clipPath>
    <clipPath id="clip-path-4">
      <path id="Path_49154" data-name="Path 49154" d="M159.425,107.657a51.751,51.751,0,1,0-51.9,51.868,51.658,51.658,0,0,0,51.9-51.868" transform="translate(-55.924 -56.018)" fill="none"/>
    </clipPath>
  </defs>
  <g id="Group_4269" data-name="Group 4269" clip-path="url(#clip-path)">
    <g id="Group_4268" data-name="Group 4268">
      <g id="Group_4267" data-name="Group 4267" clip-path="url(#clip-path)">
        <g id="Group_4266" data-name="Group 4266" transform="translate(3.391 3.977)" opacity="0.18">
          <g id="Group_4265" data-name="Group 4265">
            <g id="Group_4264" data-name="Group 4264" clip-path="url(#clip-path-3)">
              <g id="Group_4263" data-name="Group 4263" transform="translate(3.882 3.308)">
                <g id="Group_4262" data-name="Group 4262" transform="translate(0)" clip-path="url(#clip-path-4)">
                  <path id="Path_49153" data-name="Path 49153" d="M147.084,69.034v-13L136.14,49.718V37.08l-11.256-6.5L113.94,36.9,103,30.582,92.053,36.9,81.109,30.582,70.165,36.9,59.222,30.582,48.278,36.9,37.334,30.582l-11.256,6.5v13L37.022,56.4V68.61L26.078,74.928v13l10.944,6.318v12.213l-10.944,6.318v13l11.256,6.5,10.944-6.318,10.631,6.137v12.637l11.256,6.5,11.257-6.5v-13l-10.944-6.318V113.2l10.944-6.318V94.244l10.631-6.137L103,94.425l10.944-6.318,10.631,6.137v12.637l11.256,6.5,11.256-6.5v-13L136.14,87.565V75.352Zm-.626-.362-10.576,6.107L125.2,68.61V56.4l5.315-3.069,5.316-3.069,10.63,6.138ZM75.794,90.634l-5.316-3.069V75.352l10.631-6.138L91.74,75.352V87.565L81.11,93.7Zm-32.831.542,5.316-3.069,5.315,3.069,5.315,3.069v12.213l-10.631,6.137-10.631-6.137V94.245Zm0-37.848,5.316-3.069,5.315,3.069L58.909,56.4V68.61L48.278,74.747,37.647,68.61V56.4Zm27.2-3.069,5.316,3.069L80.8,56.4V68.61L70.165,74.747,59.535,68.61V56.4l5.315-3.069Zm21.888,0,5.316,3.069,5.316,3.069V68.61L92.053,74.747,81.422,68.61V56.4l5.315-3.069Zm21.887,0,5.316,3.069,5.315,3.069V68.61L113.94,74.747,103.309,68.61V56.4l5.316-3.069ZM59.222,93.7l-5.315-3.069-5.315-3.069V75.352l10.631-6.138,10.631,6.138V87.565l-5.315,3.069Zm76.293-56.261V49.717L130.2,52.786l-5.315,3.069-5.316-3.069-5.316-3.069V37.442L124.884,31.3Zm-21.887,0V49.717l-5.315,3.069L103,55.855l-5.316-3.069-5.316-3.069V37.442L103,31.3Zm-21.887,0V49.717l-5.316,3.069-5.315,3.069-5.315-3.069-5.316-3.069V37.442L81.109,31.3Zm-21.888,0V49.717l-5.315,3.069-5.315,3.069-5.315-3.069-5.315-3.069V37.442L59.222,31.3Zm-43.149,0L37.334,31.3l10.631,6.138V49.717L42.65,52.786l-5.316,3.069L26.7,49.717Zm0,37.848L37.28,69.183l10.685,6.169V87.565L42.65,90.634,37.334,93.7,26.7,87.565Zm0,50.122V113.137L37.28,107.03,47.965,113.2v12.213L37.334,131.55ZM48.591,113.2l10.631-6.137L69.853,113.2v12.213l-5.315,3.069-5.316,3.069-10.63-6.138ZM80.8,144.367l-10.631,6.138-10.631-6.138V132.092l5.315-3.069,5.316-3.069L80.8,132.092Zm0-37.847L70.22,112.626l-10.686-6.169V94.245l5.315-3.069,5.315-3.069,5.316,3.069L80.8,94.245ZM92.366,87.565V75.352L103,69.214l10.631,6.138V87.565L103,93.7Zm21.887-12.213,10.631-6.138,10.631,6.138V87.565L130.2,90.634,124.884,93.7l-10.631-6.138Zm32.205,31.168-10.631,6.138L125.2,106.52V94.245l5.315-3.069,5.316-3.069,10.63,6.138Z" transform="translate(-29.959 -33.89)" fill="#fff"/>
                </g>
              </g>
            </g>
          </g>
        </g>
        <path id="Path_49155" data-name="Path 49155" d="M27.546,10.279c2.073.111,2.2.024,3.026-1.986.646-1.582,1.115-1.835,2.8-1.512,2.368.455,2.37.454,3.537-1.594.865-1.519,1.3-1.684,2.955-1.12,2.163.738,2.323.687,3.728-1.177,1-1.332,1.5-1.46,3-.771,2.185,1.007,2.185,1.007,3.831-.658,1.283-1.3,1.713-1.34,3.24-.323,1.789,1.191,2,1.18,3.688-.2C58.885-.32,59.191-.317,60.774.972c1.657,1.349,1.828,1.359,3.585.2C65.965.109,66.37.149,67.687,1.5c1.579,1.622,1.646,1.635,3.634.693,1.682-.8,2.133-.681,3.262.835,1.25,1.679,1.547,1.768,3.568,1.063,1.715-.6,2.15-.435,3.044,1.14,1.127,1.986,1.186,2.013,3.445,1.558,1.749-.352,2.187-.115,2.874,1.552.8,1.955,1.083,2.123,3.181,1.924,1.789-.169,2.18.094,2.706,1.82.665,2.181.729,2.233,2.994,2.393,1.9.134,2.182.4,2.435,2.28s.608,2.227,2.5,2.481c1.873.251,2.186.591,2.255,2.455.078,2.107.252,2.33,2.3,2.951,1.868.567,2.049.827,1.912,2.751-.156,2.192-.062,2.345,1.947,3.161,1.636.665,1.884,1.133,1.53,2.888-.453,2.245-.428,2.3,1.575,3.434,1.561.884,1.707,1.28,1.123,3.049-.691,2.094-.631,2.278,1.183,3.631,1.357,1.012,1.485,1.534.759,3.1-.974,2.1-.974,2.1.675,3.739,1.317,1.308,1.36,1.691.36,3.237-1.237,1.913-1.237,1.929.242,3.766,1.169,1.453,1.169,1.783,0,3.255-1.489,1.876-1.489,1.876-.185,3.862.919,1.4.871,1.847-.33,3.058-1.711,1.727-1.711,1.727-.712,3.922.66,1.45.538,1.952-.712,2.923-1.963,1.525-1.963,1.525-1.2,3.918.48,1.5.295,1.962-1.1,2.781-2.109,1.237-2.109,1.237-1.662,3.615.313,1.669.067,2.107-1.553,2.766-1.979.805-2.1,1-1.943,3.168.143,1.956-.005,2.169-1.9,2.744-2.048.62-2.134.725-2.3,2.827s-.356,2.307-2.376,2.59c-1.8.252-2.127.591-2.387,2.459-.272,1.954-.564,2.216-2.544,2.285s-2.274.293-2.853,2.261c-.565,1.92-.812,2.09-2.827,1.947-2.079-.147-2.316,0-3.083,1.9-.684,1.694-1.1,1.926-2.849,1.589-2.319-.446-2.319-.446-3.521,1.631-.86,1.487-1.337,1.659-2.977,1.077-2.047-.728-2.338-.639-3.649,1.122-1.048,1.406-1.554,1.527-3.2.762-2.016-.935-2.048-.93-3.552.608-1.419,1.451-1.724,1.489-3.414.422-1.865-1.178-1.876-1.177-3.573.191-1.607,1.3-1.918,1.293-3.532-.031-1.564-1.283-1.763-1.294-3.5-.191-1.751,1.115-2.008,1.083-3.5-.433-1.444-1.465-1.56-1.485-3.464-.594-1.773.83-2.162.729-3.339-.863s-1.591-1.7-3.487-1.022c-1.79.643-2.174.5-3.115-1.181-1.064-1.9-1.179-1.949-3.364-1.508-1.824.368-2.248.139-2.952-1.6-.753-1.857-.959-1.988-2.982-1.883-2.2.114-2.307.041-2.96-2.1-.539-1.77-.87-2.022-2.755-2.1-2.056-.08-2.331-.329-2.608-2.347-.248-1.81-.6-2.16-2.438-2.407-1.934-.26-2.167-.514-2.317-2.521-.161-2.165-.242-2.265-2.359-2.9-1.784-.536-2.02-.894-1.845-2.8.184-2.009,0-2.314-1.9-3.083C6.666,86.828,6.429,86.38,6.8,84.553c.44-2.159.391-2.266-1.538-3.346-1.617-.905-1.778-1.346-1.141-3.138.672-1.892.557-2.269-1.061-3.472-1.575-1.172-1.677-1.582-.833-3.353.895-1.878.873-2-.615-3.453s-1.53-1.8-.4-3.5c1.08-1.629,1.068-1.921-.148-3.4-1.42-1.727-1.42-1.97,0-3.708,1.232-1.509,1.242-1.661.22-3.295-1.216-1.944-1.195-2.14.4-3.691,1.381-1.341,1.42-1.549.6-3.259-.918-1.921-.834-2.266.858-3.535,1.519-1.14,1.622-1.476,1.007-3.285-.674-1.982-.531-2.346,1.326-3.371,1.622-.9,1.774-1.225,1.383-3.012C6.4,31.613,6.57,31.294,8.6,30.46c1.573-.645,1.788-1,1.683-2.776-.142-2.393-.127-2.414,2.172-3.116,1.693-.517,1.941-.847,2.017-2.689.089-2.154.242-2.321,2.43-2.649,1.733-.26,2.083-.619,2.33-2.391.288-2.062.515-2.268,2.6-2.356,1.9-.08,2.217-.318,2.753-2.093.643-2.13.779-2.228,2.957-2.111m86.146,48.637a54.669,54.669,0,1,0-54.829,54.794,54.571,54.571,0,0,0,54.829-54.794" transform="translate(0 0)" fill="#fff"/>
        <path id="Path_49156" data-name="Path 49156" d="M105.482,157.525a52.091,52.091,0,1,1,36.834-15.257,51.75,51.75,0,0,1-36.834,15.257m0-103.586a51.495,51.495,0,1,0,36.412,15.082A51.158,51.158,0,0,0,105.482,53.94" transform="translate(-46.448 -46.407)" fill="#fff"/>
        <path id="Path_49157" data-name="Path 49157" d="M330.315,123.742c-.557-1.821-.845-3.17-.554-3.268a.071.071,0,0,1,.049,0c.075.037.344-.015.5.243a10.766,10.766,0,0,0,2.251,2.863,13.909,13.909,0,0,0,.325-1.454l.026-.108a14.426,14.426,0,0,0,.291-2.34.34.34,0,0,1,.258-.31.648.648,0,0,1,.437.041c.752,2.516,1.631,5,2.4,7.511l.168.542a.425.425,0,0,1-.269.389.443.443,0,0,1-.31-.071l-.209-.665c-.632-2.045-1.4-4.045-2-6.1-.108.572-.217,1.144-.284,1.727-.045.2-.2,1.275-.224,1.533-.019.168-.205.617-.5.292a24.292,24.292,0,0,0-2.015-2.157,59.356,59.356,0,0,0,1.761,6.255.274.274,0,0,1-.164.291.553.553,0,0,1-.366-.052Z" transform="translate(-286.776 -103.822)" fill="#fff"/>
        <path id="Path_49158" data-name="Path 49158" d="M380.672,114.982l1.954,6.962a5.857,5.857,0,0,1,.183.6c.026.188-.145.295-.342.335-.255.052-.346-.158-.426-.372l-1.329-5.026c-.228-.822-.526-1.63-.674-2.469-.048-.292.553-.306.633-.033" transform="translate(-330.613 -99.858)" fill="#fff"/>
        <path id="Path_49159" data-name="Path 49159" d="M406.173,116.687l-.261-2.327c-.188-1.68-.474-2.743-.662-4.423l-.067-.6c1.863-.363,2.089-.258,2.118,0a.4.4,0,0,1-.108.31l-1.281.143c-.082.009-.076.068-.072.1.14,1.245.36,2.149.574,3.422a13.27,13.27,0,0,0,1.364-.141c.4-.033.747.618.207.679l-1.492.167.331,2.747c.29.039,1.749-.422,1.807.1a.285.285,0,0,1-.189.33l-.059.007c-.431.084-2.085.4-2.135.061Z" transform="translate(-352.489 -94.915)" fill="#fff"/>
        <path id="Path_49160" data-name="Path 49160" d="M441.475,104.07c.189,0,.347.231.4.408.138,2.67.17,5.377.45,8.056a6.2,6.2,0,0,1,1.414-.271c.213,0,.4.053.407.289a.31.31,0,0,1-.231.347c-.4.148-.932.133-1.344.258a2.131,2.131,0,0,1-.506.162.443.443,0,0,1-.372-.313c-.165-1.416-.13-2.942-.224-4.336l-.2-2.917-.024-1.5c.057-.131.127-.179.234-.181" transform="translate(-383.858 -90.536)" fill="#fff"/>
        <path id="Path_49161" data-name="Path 49161" d="M514.7,117.217c.328-.352.56.1.631.294.151,2.149.076,4.273.353,6.542l.549-1.566c.516-1.4.866-2.644,1.246-4.085a.438.438,0,0,1,.511-.167.35.35,0,0,1,.279.235c-.876,2.409-1.681,5.008-2.474,7.611l-.052.145a.463.463,0,0,1-.333.143.546.546,0,0,1-.261-.3c-.127-2.326-.358-4.631-.459-6.963l-1.848,6.482c-.424.522-.74.105-.658-.24Z" transform="translate(-445.561 -101.861)" fill="#fff"/>
        <path id="Path_49162" data-name="Path 49162" d="M551.99,128.925c.483-.977,1.029-.443.906.377-.181,1.205-.386,2.285-1.6,8.566-.1.24-.5.29-.556-.141l.423-2.128L549.6,135.2c-.3.477-.781,1.417-.993,1.866-.131.253-.573-.008-.481-.2Zm-1.906,5.174c-.043.072-.231.493-.267.581l1.446.371.948-5.3c-.32.648-1.814,3.689-2.128,4.352" transform="translate(-476.832 -111.7)" fill="#fff"/>
        <path id="Path_49163" data-name="Path 49163" d="M588.393,145.813c.433-.8,1.514-2.823,1.509-2.839l-.815-.481c-.282-.274-.232-.663.345-.513.8.46,1.6.866,2.41,1.385.446.295.133.8-.168.634l-1.122-.634c-.016,0-1.841,3.279-2.588,4.609-.23.426-.705,1.2-.975,1.7l-.073.135c-.252.267-.628-.057-.543-.388.41-.733,1.616-2.863,2.021-3.611" transform="translate(-510.105 -123.486)" fill="#fff"/>
        <path id="Path_49164" data-name="Path 49164" d="M613.257,161.945a.468.468,0,0,1,.323.056c.347.247.067.6-.121.843l-.041.058c-.7.95-1.492,1.812-2.2,2.761-.485.641-2.671,3.062-1.64,3.795.472.336,1.448-.363,1.728-.613a31.066,31.066,0,0,0,4.244-4.743l.151-.212c.1-.145.33-.056.455.033a.375.375,0,0,1,.093.5l-.112.137a47.361,47.361,0,0,1-3.549,3.99l-.108.111a1.168,1.168,0,0,1-.1.076c-.609.611-2.019,2-3.089,1.242-1.224-.871-.388-2.249.208-3.087l.123-.173c.041-.058.935-1.294,1.273-1.75.769-1.02,1.509-2.06,2.355-3.025" transform="translate(-529.511 -140.878)" fill="#fff"/>
        <path id="Path_49165" data-name="Path 49165" d="M640.405,192.56c.251-.267,1.68-1.877,2.043-2.3.081-.086.741-.894.822-1l.032-.035c.186-.2.459-.04.631.122,1.19,1.116.811,2.367-.119,3.358a2.568,2.568,0,0,1-2.423.872c.579,1.37-.5,3-1.4,3.968-.146.155-.3.127-.453-.019-.1-.1-.146-.138-.06-.316.564-.687,2.115-2.669,1.115-3.607-.009-.008-.077-.056-.094-.072-1.009.885-1.854,1.941-2.837,2.867a.381.381,0,0,1-.457-.429c.494-.509,2.728-2.889,3.2-3.414m.668.238a1.842,1.842,0,0,0,2.2-.446c.429-.457,1.129-1.583.508-2.166-.034-.032-.3-.283-.367-.214Z" transform="translate(-554.328 -164.541)" fill="#fff"/>
        <path id="Path_49166" data-name="Path 49166" d="M665.118,226.377l1.779-1.521c1.285-1.1,2-1.931,3.289-3.029l.458-.392c1.346,1.338,1.385,1.584,1.188,1.753a.394.394,0,0,1-.317.084l-.838-.98c-.053-.063-.1-.024-.125,0-.953.814-1.577,1.5-2.51,2.394a13.191,13.191,0,0,0,.882,1.05c.252.313-.092.965-.446.552l-.975-1.141-2.087,1.815c.13.262,1.33,1.211.935,1.549a.286.286,0,0,1-.38.029l-.038-.045c-.311-.31-1.5-1.5-1.248-1.733Z" transform="translate(-578.213 -192.638)" fill="#fff"/>
        <path id="Path_49167" data-name="Path 49167" d="M688.521,249.03c.107.156,0,.417-.122.555-2.155,1.583-4.4,3.1-6.485,4.805a6.206,6.206,0,0,1,1,1.033c.12.176.178.365-.018.5a.31.31,0,0,1-.416,0c-.344-.252-.624-.705-.954-.981-.116-.107-.307-.177-.413-.334a.443.443,0,0,1,.057-.483c1.093-.916,2.387-1.726,3.5-2.571L687,249.78l1.241-.846a.243.243,0,0,1,.28.1" transform="translate(-592.496 -216.554)" fill="#fff"/>
        <path id="Path_49168" data-name="Path 49168" d="M274.7,565.472v5.651l-4.894,2.826-4.894-2.826v-5.651l4.894-2.826Z" transform="translate(-230.457 -489.474)" fill="#fff"/>
        <path id="Path_49169" data-name="Path 49169" d="M231.7,639.367v5.651l-4.894,2.825-4.894-2.825v-5.651l4.894-2.826Z" transform="translate(-193.05 -553.76)" fill="#fff"/>
        <path id="Path_49170" data-name="Path 49170" d="M231.7,492.536v5.651l-4.894,2.825-4.894-2.825v-5.651l4.894-2.826Z" transform="translate(-193.05 -426.024)" fill="#fff"/>
        <path id="Path_49171" data-name="Path 49171" d="M189.371,565.472v5.651l-4.894,2.826-4.894-2.826v-5.651l4.894-2.826Z" transform="translate(-156.228 -489.474)" fill="#fff"/>
        <path id="Path_49172" data-name="Path 49172" d="M317.022,639.367v5.651l-4.894,2.825-4.894-2.825v-5.651l4.894-2.826Z" transform="translate(-267.279 -553.76)" fill="#fff"/>
        <path id="Path_49173" data-name="Path 49173" d="M442.619,712.407v5.651l-4.894,2.825-4.894-2.825v-5.651l4.894-2.826Z" transform="translate(-376.542 -617.301)" fill="#fff"/>
        <path id="Path_49174" data-name="Path 49174" d="M358.557,712.407v5.651l-4.894,2.825-4.894-2.825v-5.651l4.894-2.826Z" transform="translate(-303.412 -617.301)" fill="#fff"/>
        <path id="Path_49175" data-name="Path 49175" d="M484.152,639.367v5.651l-4.894,2.825-4.894-2.825v-5.651l4.894-2.826Z" transform="translate(-412.674 -553.76)" fill="#fff"/>
        <path id="Path_49176" data-name="Path 49176" d="M160.086,267.893a12.788,12.788,0,0,1-3.99.14,6.9,6.9,0,0,1-2.969-1.007,3.7,3.7,0,0,1-1.261-1.41,3.888,3.888,0,0,1-.4-1.742,6,6,0,0,1,.99-3.143,9.783,9.783,0,0,1,2.78-2.869q.076-.914.176-1.921.138-1.306.246-2.676t.107-2.663q0-5.032-2.395-6.388a4.84,4.84,0,0,0-3.378-.406,9.76,9.76,0,0,0-1.3.349,9.135,9.135,0,0,0-4.475,3.257,8.084,8.084,0,0,0-1.651,4.859,7.441,7.441,0,0,0,.466,2.574,5.225,5.225,0,0,0,2.256,2.747,5.521,5.521,0,0,0,3.9.6q2.483-.46,3.088-1.965a7.486,7.486,0,0,0,.277-.912,3.111,3.111,0,0,1,.454-1.174,1.509,1.509,0,0,1,.832-.573.691.691,0,0,1,.592.143.858.858,0,0,1,.252.7,3.892,3.892,0,0,1-1.2,2.351,7.253,7.253,0,0,1-2.105,1.485,9.414,9.414,0,0,1-2.319.79,6.215,6.215,0,0,1-4.273-.636,6.055,6.055,0,0,1-2.635-3.08,8.307,8.307,0,0,1-.555-2.973,9.267,9.267,0,0,1,1.834-5.447,10.671,10.671,0,0,1,5.1-3.818,9.193,9.193,0,0,1,1.4-.381,8.964,8.964,0,0,1,2.792-.085,7,7,0,0,1,2.71.926,6.564,6.564,0,0,1,2.2,2.2,9.821,9.821,0,0,1,1.286,3.715,11.893,11.893,0,0,1,.744-2.374,15.162,15.162,0,0,1,1.355-2.524,10.283,10.283,0,0,1,1.853-2.126,4.8,4.8,0,0,1,2.25-1.13,3.764,3.764,0,0,1,1.387,0,2.883,2.883,0,0,1,1.948,1.308,4.575,4.575,0,0,1,.662,2.5,7.8,7.8,0,0,1-.7,3.088,9.277,9.277,0,0,1-2.124,3,5.411,5.411,0,0,1,3.435,1.961,5.7,5.7,0,0,1,1.128,3.518,9.2,9.2,0,0,1-.857,3.715,12.58,12.58,0,0,1-2.641,3.816,13,13,0,0,1-3.492,2.443,15.141,15.141,0,0,1-3.775,1.238m-1.866-1.273a12.578,12.578,0,0,0,5.231-2.389,10.907,10.907,0,0,0,3.567-4.612,6.841,6.841,0,0,0,.5-2.36,3.122,3.122,0,0,0-.807-2.263,4.138,4.138,0,0,0-2.092-1.137,7.658,7.658,0,0,0-2.786-.1,4.155,4.155,0,0,1-1.336.478q-1.3.242-1.3-.608a1.012,1.012,0,0,1,.277-.674,4.767,4.767,0,0,1,1.374-.969,8.457,8.457,0,0,1,1.563-.585,12.559,12.559,0,0,0,1.973-2.113,8.864,8.864,0,0,0,1.141-2.054,4.992,4.992,0,0,0,.366-1.7,1.871,1.871,0,0,0-.214-.952,1.046,1.046,0,0,0-1.21-.418,4.46,4.46,0,0,0-2.111,1.317,11.2,11.2,0,0,0-2.162,3.229,15.617,15.617,0,0,0-1.052,2.934,21.556,21.556,0,0,0-.4,2.365q-.114,1.036-.366,2.352a8.056,8.056,0,0,1,1.185-.309,11.328,11.328,0,0,1,2.628-.165,6.712,6.712,0,0,1,2.4.52,2.176,2.176,0,0,1,1.3,1.381,1.5,1.5,0,0,1,.038.324,1.008,1.008,0,0,1-.246.688,1.024,1.024,0,0,1-.6.346,1.112,1.112,0,0,1-.681-.1,2.027,2.027,0,0,1-.706-.849,6.1,6.1,0,0,0-.517-.743,2.412,2.412,0,0,0-1.5-.669,6.738,6.738,0,0,0-3.5.543q-.328,1.393-.618,2.436-.416,1.51-.655,2.86a.929.929,0,0,1-.271.519.941.941,0,0,1-.5.269.608.608,0,0,1-.706-.39,8.142,8.142,0,0,1-.328-2.589q0-.735.038-1.414a8.3,8.3,0,0,0-1.916,2.241,4.77,4.77,0,0,0-.706,2.371,2.675,2.675,0,0,0,1.336,2.39,4.817,4.817,0,0,0,2.017.691,7.908,7.908,0,0,0,2.345-.09" transform="translate(-123.18 -209.871)" fill="#fff"/>
        <path id="Path_49177" data-name="Path 49177" d="M381.206,290.274a2.2,2.2,0,0,1-1.632-.327,3.511,3.511,0,0,1-1.254-1.557,9.128,9.128,0,0,1-.706-3.787,14.277,14.277,0,0,1,1.109-5.553,2.5,2.5,0,0,1,.649-.907,1.713,1.713,0,0,1,.775-.395,1.256,1.256,0,0,1,1.021.23,1.18,1.18,0,0,1,.454,1.013,1.767,1.767,0,0,1-.038.352l-.151.948q-.164.938-.366,2.291t-.359,2.685a18.871,18.871,0,0,0-.158,2.1q.025,1.681.819,1.536a2.035,2.035,0,0,0,1.159-.814,13.785,13.785,0,0,0,1.979-3.933,28.668,28.668,0,0,0,1.109-3.955.356.356,0,0,1,.3-.313.3.3,0,0,1,.227.041.238.238,0,0,1,.1.218,19.133,19.133,0,0,1-.731,4.02,15.863,15.863,0,0,1-1.614,3.886,5.885,5.885,0,0,1-1.317,1.546,3.188,3.188,0,0,1-1.38.674m.378-14.354a1.245,1.245,0,0,1-1.034-.227,1.307,1.307,0,0,1-.5-1.067,1.965,1.965,0,0,1,.4-1.187,2.048,2.048,0,0,1,1.2-.789,1.285,1.285,0,0,1,1.059.227,1.34,1.34,0,0,1,.479,1.092,1.9,1.9,0,0,1-.4,1.163,2.043,2.043,0,0,1-1.2.788" transform="translate(-328.505 -237.167)" fill="#fff"/>
        <path id="Path_49178" data-name="Path 49178" d="M437.582,307.423a4.155,4.155,0,0,1-2.155-.135,3.171,3.171,0,0,1-1.626-1.307,5.223,5.223,0,0,1-.731-2.564l-.013-.394a9.439,9.439,0,0,1,.737-3.586,7.71,7.71,0,0,1,2.074-2.969,4,4,0,0,1,1.79-.876,2.85,2.85,0,0,1,1.292.038,1.843,1.843,0,0,1,.99.647,2.028,2.028,0,0,1,.378,1.289,4.142,4.142,0,0,1-.126.96,6.179,6.179,0,0,1-1.437,2.584,4.688,4.688,0,0,1-2.5,1.483l-.013.476a4.064,4.064,0,0,0,.246,1.485,1.7,1.7,0,0,0,.775.914,2.041,2.041,0,0,0,1.361.133l.164-.03a4.671,4.671,0,0,0,1.96-1.081,8.435,8.435,0,0,0,1.859-2.431,13.746,13.746,0,0,0,1.3-3.884.408.408,0,0,1,.29-.285.3.3,0,0,1,.227.041.227.227,0,0,1,.1.206v.038a12.383,12.383,0,0,1-1.078,4.126,10.279,10.279,0,0,1-2.086,3,7.32,7.32,0,0,1-3.782,2.121m-1.248-5.522a4.121,4.121,0,0,0,1.847-1.376,4.64,4.64,0,0,0,.914-2.049,3.151,3.151,0,0,0,.063-.576.9.9,0,0,0-.151-.6.386.386,0,0,0-.378-.121q-.517.1-1.084,1a9.938,9.938,0,0,0-.794,1.968,14.1,14.1,0,0,0-.416,1.756" transform="translate(-376.738 -257.103)" fill="#fff"/>
        <path id="Path_49179" data-name="Path 49179" d="M521.384,291.673a1.9,1.9,0,0,1-1.613-.4,3.258,3.258,0,0,1-.945-2.085,8.809,8.809,0,0,1-.063-1.07,13.587,13.587,0,0,1,.34-2.947q.3-1.37.769-2.951l.1-.393a4.989,4.989,0,0,0,.214-1.2q0-.309-.177-.315-.265.05-1.046,1.112a14.711,14.711,0,0,0-1.777,3.782,23.22,23.22,0,0,0-.933,4.007,12.41,12.41,0,0,0-.139,1.556,2.567,2.567,0,0,0,.05.557l.013.113q0,.321-.378.417a1.032,1.032,0,0,1-.555-.078,3.317,3.317,0,0,1-1.513-2.085,11.392,11.392,0,0,1-.517-3.539,13.973,13.973,0,0,1,.271-2.736,9.1,9.1,0,0,1,.826-2.429,1.984,1.984,0,0,1,.554-.657,1.712,1.712,0,0,1,.719-.329,1.282,1.282,0,0,1,.75.077,1.134,1.134,0,0,1,.548.462,1.318,1.318,0,0,1,.189.7q-.013.2-.277,2.008a7.72,7.72,0,0,1,2.37-3.651,3.283,3.283,0,0,1,1.3-.593,1.711,1.711,0,0,1,1.424.323,3.2,3.2,0,0,1,.807,2.568,14.333,14.333,0,0,1-.221,2.446q-.221,1.273-.473,2.428a15.722,15.722,0,0,0-.429,2.632q0,.8.429.72a1.616,1.616,0,0,0,.788-.539,6.915,6.915,0,0,0,.737-.917,18.222,18.222,0,0,0,1.708-3.588,26.251,26.251,0,0,0,1.053-3.625.357.357,0,0,1,.3-.315.285.285,0,0,1,.214.044.255.255,0,0,1,.1.233,18.19,18.19,0,0,1-.744,3.864,16.746,16.746,0,0,1-1.664,3.93,6.64,6.64,0,0,1-1.475,1.665,3.79,3.79,0,0,1-1.639.805" transform="translate(-446.473 -242.684)" fill="#fff"/>
        <path id="Path_49180" data-name="Path 49180" d="M417.042,434.524a1.721,1.721,0,0,1-1.457-.249,3.35,3.35,0,0,1-1.166-1.8,18.826,18.826,0,0,1-.646-5.419,42.934,42.934,0,0,1,.646-7.113,35.545,35.545,0,0,1,1.983-7.207,15.679,15.679,0,0,1,3.39-5.422,5.518,5.518,0,0,1,2.1-1.337,2.112,2.112,0,0,1,2.18.422,3.212,3.212,0,0,1,.875,2.469,10.776,10.776,0,0,1-.989,4.065,15.192,15.192,0,0,1-2.566,3.992,9.84,9.84,0,0,1-3.77,2.691q-.494,2.556-.76,4.638l.291-.109a2.081,2.081,0,0,1,1.305.025,1.645,1.645,0,0,1,.938.856q2.687-1.764,3.764-6.036a.507.507,0,0,1,.3-.318.279.279,0,0,1,.215.02.2.2,0,0,1,.1.194v.064a12.223,12.223,0,0,1-1.2,3.877,8.448,8.448,0,0,1-2.687,3.126,6.821,6.821,0,0,1,.342,2.2,9.879,9.879,0,0,1-.824,3.947,5.452,5.452,0,0,1-1.045,1.579,3,3,0,0,1-1.324.843m.3-1.394q.418-.118.976-1.292a9.515,9.515,0,0,0,.824-3.869,5.94,5.94,0,0,0-.177-1.487,5.238,5.238,0,0,1-.938.37,2.06,2.06,0,0,1-1.457,0,29.322,29.322,0,0,0-.152,3,15.591,15.591,0,0,0,.076,1.59q.215,1.868.849,1.689m.786-7.489a1.682,1.682,0,0,0,.482-.227.836.836,0,0,0-.456-.428.979.979,0,0,0-.621-.012q-.406.142-.406.383,0,.165.254.3a1.049,1.049,0,0,0,.748-.011m-.342-6.825a8.957,8.957,0,0,0,3.092-2.5,13.519,13.519,0,0,0,2.059-3.512,10.127,10.127,0,0,0,.779-3.453,2.748,2.748,0,0,0-.317-1.486.7.7,0,0,0-.849-.322,3.043,3.043,0,0,0-1.318,1.154,13.545,13.545,0,0,0-1.521,3.095q-.672,1.863-1.16,3.766t-.767,3.253" transform="translate(-359.961 -353.069)" fill="#fff"/>
        <path id="Path_49181" data-name="Path 49181" d="M491.413,474.758a2.238,2.238,0,0,1-1.381-.008,2.21,2.21,0,0,1-1.039-.745,5.379,5.379,0,0,1-.881-1.837,8.962,8.962,0,0,1-.323-2.214,7.407,7.407,0,0,1-.919,1.8,5.086,5.086,0,0,1-1.109,1.149,3.669,3.669,0,0,1-1.128.579,1.955,1.955,0,0,1-2.478-1.124,4.511,4.511,0,0,1-.361-1.87,8.276,8.276,0,0,1,.691-3.168,7.128,7.128,0,0,1,2.021-2.781,4.165,4.165,0,0,1,1.394-.752,2.7,2.7,0,0,1,1.628-.022,1.647,1.647,0,0,1,1.02.833l.025-.084a8.812,8.812,0,0,1,.469-1.045,2.367,2.367,0,0,1,.564-.721,2,2,0,0,1,.741-.415,1.287,1.287,0,0,1,.716-.011,1.017,1.017,0,0,1,.557.375,1.177,1.177,0,0,1,.209.726,1.826,1.826,0,0,1-.038.357q-.013.068-.139.822t-.279,1.752q-.152,1-.253,1.783a37.878,37.878,0,0,0-.38,3.86,3.767,3.767,0,0,0,.051.7q.152.981.722.817a1.908,1.908,0,0,0,.855-.643,8.4,8.4,0,0,0,.767-1.04A19.52,19.52,0,0,0,494.829,468a28.854,28.854,0,0,0,1.008-3.79.442.442,0,0,1,.317-.362.278.278,0,0,1,.216.021.214.214,0,0,1,.1.208,19.269,19.269,0,0,1-.729,4.115,18.211,18.211,0,0,1-1.628,4.075,5,5,0,0,1-2.7,2.491m-5.766-3.395a1.508,1.508,0,0,0,.659-.624,8.343,8.343,0,0,0,.824-1.694,27.922,27.922,0,0,0,.925-3.041.91.91,0,0,0-.425-.675.893.893,0,0,0-.716-.079,1.351,1.351,0,0,0-.735.61,7.572,7.572,0,0,0-.811,2.086,10.573,10.573,0,0,0-.355,2.361,1.781,1.781,0,0,0,.165.833.373.373,0,0,0,.469.222" transform="translate(-419.137 -402.154)" fill="#fff"/>
        <path id="Path_49182" data-name="Path 49182" d="M589.191,422.344a2.12,2.12,0,0,1-1.641-.159,3.044,3.044,0,0,1-1.261-1.435,8.674,8.674,0,0,1-.71-3.735,15.245,15.245,0,0,1,1.115-5.7,2.906,2.906,0,0,1,.653-.981,1.965,1.965,0,0,1,.78-.48,1.2,1.2,0,0,1,1.026.123,1.063,1.063,0,0,1,.456.972,1.845,1.845,0,0,1-.038.359l-.152.971q-.165.961-.368,2.345t-.361,2.741a19.49,19.49,0,0,0-.158,2.128q.025,1.69.824,1.46a2.36,2.36,0,0,0,1.166-.94,15.71,15.71,0,0,0,1.99-4.168,31.328,31.328,0,0,0,1.115-4.1.411.411,0,0,1,.3-.347.294.294,0,0,1,.228.017.215.215,0,0,1,.1.209,20.377,20.377,0,0,1-.735,4.127,17.829,17.829,0,0,1-1.622,4.083,6.891,6.891,0,0,1-1.324,1.694,3.638,3.638,0,0,1-1.388.823m.38-14.488a1.189,1.189,0,0,1-1.039-.118,1.17,1.17,0,0,1-.507-1.02,2.169,2.169,0,0,1,.406-1.238,2.381,2.381,0,0,1,1.2-.923,1.229,1.229,0,0,1,1.064.115,1.206,1.206,0,0,1,.482,1.048,2.1,2.1,0,0,1-.405,1.214,2.373,2.373,0,0,1-1.2.922" transform="translate(-509.425 -351.885)" fill="#fff"/>
        <path id="Path_49183" data-name="Path 49183" d="M606.681,386.673a2.236,2.236,0,0,1-.405.078,1.937,1.937,0,0,1-1.711-.61,4.365,4.365,0,0,1-.938-2.037,14.267,14.267,0,0,1-.291-3.041,31.263,31.263,0,0,1,.406-4.811,50.1,50.1,0,0,1,1.065-5.086q-1.28-.045-2.408.006a8.735,8.735,0,0,0-2.091.338,4.965,4.965,0,0,0-2.6,1.786.451.451,0,0,1-.228.17.261.261,0,0,1-.215-.026.283.283,0,0,1-.089-.2.382.382,0,0,1,.051-.208,5.962,5.962,0,0,1,3.549-2.673,10.654,10.654,0,0,1,2.155-.4q1.115-.093,2.243-.094.266-.866.545-1.685a2.345,2.345,0,0,1,.577-.921,1.994,1.994,0,0,1,.8-.486,1.445,1.445,0,0,1,.545-.06,1.038,1.038,0,0,1,.691.362,1.149,1.149,0,0,1,.247.753q-.038.412-.33,2.063,1.128.014,2.193-.07a9.832,9.832,0,0,0,2.04-.374,6.928,6.928,0,0,0,3.561-2.462.539.539,0,0,1,.241-.189.231.231,0,0,1,.222.038.248.248,0,0,1,.095.205.409.409,0,0,1-.063.2,7.512,7.512,0,0,1-4.474,3.472,14.906,14.906,0,0,1-4.068.522l-.52,2.621q-.608,2.918-1.1,5.664a26.118,26.118,0,0,0-.494,4.384q0,1.677.672,1.613l.177-.038a4.331,4.331,0,0,0,1.971-1.746,18.557,18.557,0,0,0,1.945-3.45,14.739,14.739,0,0,0,1.128-3.747.488.488,0,0,1,.114-.26.44.44,0,0,1,.2-.131.276.276,0,0,1,.216.021.23.23,0,0,1,.1.223,9.153,9.153,0,0,1-.31,2.176,17.858,17.858,0,0,1-.856,2.548,17.511,17.511,0,0,1-1.267,2.471,10.926,10.926,0,0,1-1.565,2,4.11,4.11,0,0,1-1.73,1.093" transform="translate(-519.514 -319.013)" fill="#fff"/>
      </g>
    </g>
  </g>
</svg>
