<svg id="Group_4284" data-name="Group 4284" xmlns="http://www.w3.org/2000/svg" xmlns:xlink="http://www.w3.org/1999/xlink" width="99.473" height="86.278" viewBox="0 0 99.473 86.278">
  <defs>
    <clipPath id="clip-path">
      <rect id="Rectangle_1495" data-name="Rectangle 1495" width="99.473" height="86.278" fill="none"/>
    </clipPath>
  </defs>
  <g id="Group_4275" data-name="Group 4275" clip-path="url(#clip-path)">
    <path id="Path_49233" data-name="Path 49233" d="M56.613,49.263v.45a.576.576,0,0,0,.576.576h1.059a.576.576,0,0,0,.576-.576v-.45a.577.577,0,0,1,.576-.577h3.909a.577.577,0,0,1,.576.577v.45a.576.576,0,0,0,.576.576h1.059a.576.576,0,0,0,.576-.576v-.45a.577.577,0,0,1,.576-.577h3.966a.577.577,0,0,1,.577.577v.45a.576.576,0,0,0,.576.576h1.059a.576.576,0,0,0,.576-.576v-.45A.577.577,0,0,1,74,48.687h.157a.576.576,0,0,0,.576-.576V37.49a.576.576,0,0,0-.576-.576H72.329a.375.375,0,0,0-.375.375v.523a.375.375,0,0,1-.375.375H69.308a.375.375,0,0,1-.375-.375v-.523a.375.375,0,0,0-.375-.375H66.367a.375.375,0,0,0-.375.375v.523a.375.375,0,0,1-.375.375H63.33a.375.375,0,0,1-.375-.375v-.523a.375.375,0,0,0-.375-.375H60.389a.375.375,0,0,0-.375.375v.523a.375.375,0,0,1-.375.375H57.352a.375.375,0,0,1-.375-.375v-.523a.375.375,0,0,0-.375-.375H54.612a.576.576,0,0,0-.576.576V48.111a.576.576,0,0,0,.576.576h1.425a.577.577,0,0,1,.576.577M60.7,42.039v2.847a1.621,1.621,0,0,1-1.691,1.54h-.156a1.621,1.621,0,0,1-1.69-1.54V42.039a1.543,1.543,0,0,1,1.658-1.392h.22A1.543,1.543,0,0,1,60.7,42.039m11.061,0v2.847a1.621,1.621,0,0,1-1.691,1.54h-.156a1.621,1.621,0,0,1-1.69-1.54V42.039a1.543,1.543,0,0,1,1.658-1.392h.22a1.543,1.543,0,0,1,1.658,1.392" transform="translate(-22.147 -15.129)" fill="#fff"/>
    <path id="Path_49234" data-name="Path 49234" d="M73.519,15.958l-5.065-9a2.9,2.9,0,0,1-.385-1.431V.29a.387.387,0,0,0-.749,0v5.2a2.922,2.922,0,0,1-.43,1.508l-5.362,8.939a2.272,2.272,0,0,0-.335,1.173v4.3a.375.375,0,0,0,.749,0V20.7a.288.288,0,0,1,.288-.288H66.5a.289.289,0,0,1,.289.288v.712a.375.375,0,0,0,.375.375h.482a.375.375,0,0,0,.375-.375V20.7a.288.288,0,0,1,.288-.288h4.477a.288.288,0,0,1,.288.288v.712a.375.375,0,1,0,.749,0V17.074a2.261,2.261,0,0,0-.3-1.116m-9.24,2.679h0a.593.593,0,0,1-.616-.568v-.7a.617.617,0,0,1,1.231,0v.7a.593.593,0,0,1-.616.568m6.157,0h0a.593.593,0,0,1-.616-.568v-.7a.617.617,0,0,1,1.231,0v.7a.593.593,0,0,1-.616.568" transform="translate(-25.08)" fill="#fff"/>
    <path id="Path_49235" data-name="Path 49235" d="M79.375,4.384a5.255,5.255,0,0,1-1.009-1.092.1.1,0,0,1,0-.111,14.6,14.6,0,0,0,1-1.834c.047-.105-.008-.153-.1-.1-1.768,1.117-3.553-1.176-5.321-.2a.4.4,0,0,1,.012.1l.013,3a.171.171,0,0,0,.24.143c1.687-.649,3.386,1.382,5.072.318.09-.057.144-.191.1-.225" transform="translate(-30.306 -0.329)" fill="#fff"/>
    <path id="Path_49236" data-name="Path 49236" d="M41.486,66.816,44.16,88.209a39.139,39.139,0,0,1,6.7-8.149l-.214-3.69a8.158,8.158,0,0,1-.012-.936,7.656,7.656,0,0,1,15.309,0,8.3,8.3,0,0,1-.012.937l-.326,7.153-.248,5.436a3.966,3.966,0,0,1,1.385.428l.084.046a3.524,3.524,0,0,1,.565.4,12.994,12.994,0,0,1,1.78-1.912,4.905,4.905,0,0,1,4.054-1.286L75.84,67.093a1.89,1.89,0,0,1,.681-1.186l1.813-1.522a1.11,1.11,0,0,0,.417-.844l.007-3.166a.884.884,0,0,0-.95-.8h-2.7v1.186a.576.576,0,0,1-.577.576H72.016a.576.576,0,0,1-.576-.576v-.61a.576.576,0,0,0-.576-.576h-2.5a.577.577,0,0,0-.577.576v.61a.576.576,0,0,1-.576.576H64.767a.576.576,0,0,1-.576-.576v-.61a.576.576,0,0,0-.576-.576h-2.5a.576.576,0,0,0-.576.576v.61a.576.576,0,0,1-.577.576h-2.5a.576.576,0,0,1-.576-.576v-.61a.576.576,0,0,0-.576-.576h-2.5a.577.577,0,0,0-.577.576v.61a.576.576,0,0,1-.576.576H50.108a.576.576,0,0,1-.576-.576v-.61a.576.576,0,0,0-.576-.576h-2.5a.576.576,0,0,0-.576.576v.61a.576.576,0,0,1-.576.576H42.837a.576.576,0,0,1-.576-.576v-.61a.576.576,0,0,0-.577-.576H39.64a1.027,1.027,0,0,0-1.027,1.027V63.54a1.109,1.109,0,0,0,.418.846L41.077,66.1a1.133,1.133,0,0,1,.408.711" transform="translate(-15.826 -24.418)" fill="#fff"/>
    <path id="Path_49237" data-name="Path 49237" d="M3.5,124.45c.714-.215,1.552-.5,2.484-.83C2.6,120.608,7.448,110.039,9.434,104.31c-2.949,3.387-7.172,7.19-6.551,11.549.217.821-.279.771-.652.648-3.1-1-2.483-4.1-1.056-6.432,2.142-3.4,5.9-6.575,7.979-8.67a1.688,1.688,0,0,1,1.739-.506,12.572,12.572,0,0,1,1.149.61,1.063,1.063,0,0,1,.807,1.236c-2.2,6.6-5.371,16.763-5.185,20.33a57.909,57.909,0,0,1,7.327-2.084c3.073-.51,5.03,1.455,4.284,4.807-.063.381-.28.869-.839.256-1.117-3.069-8.289-2.252-14.343,1.3-1.428.832-1.3-.7-1.087-1.776.093-.63-.124-.922.5-1.13" transform="translate(0 -41.315)" fill="#fff"/>
    <path id="Path_49238" data-name="Path 49238" d="M27.089,121.932l.558.359c-.341.5-.652.934-.962,1.367-1.553,2.2-3.2,4.529-5.868,3.6a2.8,2.8,0,0,1-1.894-3.21,11.114,11.114,0,0,1,2.888-6.687,1.694,1.694,0,0,1,2.359-.461c.528.235,1.087.435,1.645.636a.853.853,0,0,1,.559,1.016c-.063,1.039-.652,4.879-4.316,5.2-.248.865-.466,2.415-.031,2.753,1.087.1,2.794-1.677,3.974-3.094.559-.737,1.025-1.341,1.087-1.472m-4.626.621c1.521-1.039,2.67-3.518,2.546-4.29a9.243,9.243,0,0,0-2.546,4.29" transform="translate(-7.75 -47.792)" fill="#fff"/>
    <path id="Path_49239" data-name="Path 49239" d="M56.9,99.019c-2.67,2.174-12.791,17.087-8.29,19.787.839.5,2.143.639,4.067-.878a33.841,33.841,0,0,0,6.271-6.287c.466-.484,1.056-.282.745.568-2.329,3.49-4.813,6.322-8.352,8.133a3.49,3.49,0,0,1-3.011.156,5.061,5.061,0,0,1-2.919-2.555c-2.67-6.179,5.9-17.743,10.308-21.089.9-.685,1.21-.588,1.987.067.714.724,1.707,1.263,1.862,2.294a8.53,8.53,0,0,1-1.118,5.2c-.713,1.361-2.266,3.965-4,3.266-.342-.159-.745-.281-1.274-.549A34.63,34.63,0,0,0,56.9,99.019" transform="translate(-18.405 -39.503)" fill="#fff"/>
    <path id="Path_49240" data-name="Path 49240" d="M74.72,116.946c-.932-.555-.5-1.829-.28-2.7a28.156,28.156,0,0,1,1.894-4.735c-1.676,1.036-4,4.6-4.75,7.357-.248.749,0,.95-.776,1.016a3.376,3.376,0,0,1-1.273-.145c-2.173-.765-1.4-3.963-.9-6.031.931-4.069,2.7-7.965,3.664-11.919.28-1.167.683-1.109,1.615-.721,1.024.476,1.3.735,1.056,2-.839,4.233-2.36,8.775-3.478,12.644a25.137,25.137,0,0,1,4.813-5.5,1.393,1.393,0,0,1,1.521-.04.883.883,0,0,1,.434,1.137c-.652,2.377-1.614,4.493-1.832,6.925.839-1.151,3.229-4.186,3.353-4.419l.559.365c-1.024,1.583-2.484,3.488-3.508,5.164-.528.679-1.148.351-2.111-.393" transform="translate(-27.904 -40.499)" fill="#fff"/>
    <path id="Path_49241" data-name="Path 49241" d="M98.687,116c-1.118,1.758-2.2,2.905-3.353,4.918-.28.6-.4.513-.931.558-2.422-.019-1.987-1.872-1.739-3.742a19.085,19.085,0,0,1-1.739,2.411,1.665,1.665,0,0,1-1.988.424,1.7,1.7,0,0,1-1.583-1.805,8.829,8.829,0,0,1,3.229-7.633c1.552-1.382,3.2-.636,4.626.034a.957.957,0,0,1,1.242-.27c.9.431,1.056.577.683,1.568a34.2,34.2,0,0,0-1.956,7.161c.528-.843,2.826-3.724,2.95-3.99Zm-9.221,3.473c.683.133,2.95-4.778,4.719-6.91.466-.52.279-.535-.218-.491-1.739.218-4.161,4.7-4.5,7.4" transform="translate(-35.789 -45.226)" fill="#fff"/>
    <path id="Path_49242" data-name="Path 49242" d="M108.343,99.589l1.024-2.942c.342-.768.9-.628,1.335-.444a2.816,2.816,0,0,1,1.211.785,2.315,2.315,0,0,1,.062,1.757l-.155.559c1.49-.071,3.229-.3,4.346.438a2.563,2.563,0,0,1,.776.8c.311.454.342.8-.155.592a23.917,23.917,0,0,0-5.465.109c-.062.005-.093.04-.155.046A88.62,88.62,0,0,0,108,112.833c.807-1.157,2.484-3.287,2.608-3.522l.559.368c-.838,1.321-2.111,3-3.1,4.492-.217.4-.59,1.009-1.055.952a4.516,4.516,0,0,1-1.025-.233c-1.428-.39-1.273-2.544-.931-4.362a55.79,55.79,0,0,1,2.391-8.427l-.124.011c-.963.311-1.3-.01-1.615-1.036-.031-.125-.125-.5.186-.624,1.8-.42,2.235-.652,2.453-.863" transform="translate(-42.961 -39.37)" fill="#fff"/>
    <path id="Path_49243" data-name="Path 49243" d="M122.049,113.576l.558.369c-.341.512-.652.957-.962,1.4-1.553,2.253-3.2,4.64-5.868,3.678a2.891,2.891,0,0,1-1.894-3.3,11.523,11.523,0,0,1,2.888-6.855c.869-.879,1.366-.956,2.359-.467.528.241,1.087.449,1.645.656a.881.881,0,0,1,.559,1.043c-.063,1.066-.652,5-4.316,5.321-.248.887-.466,2.477-.031,2.825,1.087.1,2.794-1.715,3.974-3.166.559-.755,1.025-1.374,1.087-1.508m-4.626.627c1.521-1.063,2.67-3.6,2.546-4.4a9.514,9.514,0,0,0-2.546,4.4" transform="translate(-46.67 -44.308)" fill="#fff"/>
    <path id="Path_49244" data-name="Path 49244" d="M138.513,112.5c-1.118,1.776-2.2,2.934-3.353,4.968-.28.6-.4.518-.932.562-2.422-.021-1.987-1.894-1.739-3.783a19.255,19.255,0,0,1-1.739,2.435,1.651,1.651,0,0,1-1.987.427,1.715,1.715,0,0,1-1.583-1.826,8.961,8.961,0,0,1,3.229-7.712c1.553-1.395,3.2-.64,4.626.038a.95.95,0,0,1,1.242-.271c.9.436,1.056.584.683,1.585A34.828,34.828,0,0,0,135,116.154c.528-.851,2.826-3.76,2.95-4.029Zm-9.221,3.5c.683.135,2.95-4.826,4.719-6.98.466-.525.279-.541-.217-.5-1.739.219-4.161,4.745-4.5,7.477" transform="translate(-52.112 -43.765)" fill="#fff"/>
    <path id="Path_49245" data-name="Path 49245" d="M151.473,116.547c-.839-.221-1.521-.13-1.615-1.125a26.423,26.423,0,0,1,.932-3.965c-.373.518-1.925,3.3-2.267,3.787-.869,1.27-1.707,1.5-2.887.731-2.174-1.461-.125-7.451,1.024-9.362.621-.993,1.428-.644,2.112-.35.559.241.621.527.342,1.1-1.428,3.069-2.515,6.848-1.925,7.314.466.316,3.664-5.364,4.564-7.451.341-.873.652-.933,1.335-.7a5.407,5.407,0,0,1,1.118.419c.434.189.279.591.186.957-.248.929-1.832,5.475-1.521,6.1v.032c.869-1.176,2.173-2.911,2.3-3.116l.559.374c-.994,1.545-1.956,2.666-2.919,4.238-.528.952-.714,1.163-1.335,1.02" transform="translate(-59.298 -43.426)" fill="#fff"/>
    <path id="Path_49246" data-name="Path 49246" d="M72.516,140.215c0,.883-.67,1.392-1.973,1.392H68.083v-5.154H70.4c1.186,0,1.848.5,1.848,1.333a1.222,1.222,0,0,1-.692,1.149,1.246,1.246,0,0,1,.964,1.281m-3.7-3.167v1.65h1.509c.751,0,1.179-.28,1.179-.825s-.427-.825-1.179-.825Zm2.952,3.108c0-.6-.441-.862-1.259-.862H68.819v1.716h1.694c.817,0,1.259-.258,1.259-.855" transform="translate(-27.904 -55.926)" fill="#fff"/>
    <path id="Path_49247" data-name="Path 49247" d="M81.89,140.317H79.15l-.567,1.289h-.758l2.335-5.155h.729l2.342,5.155h-.774Zm-.258-.589L80.52,137.2l-1.112,2.526Z" transform="translate(-31.897 -55.925)" fill="#fff"/>
    <path id="Path_49248" data-name="Path 49248" d="M89.066,138.988a2.607,2.607,0,0,1,2.732-2.636,2.547,2.547,0,0,1,1.959.8l-.479.464a1.91,1.91,0,0,0-1.451-.611,1.981,1.981,0,1,0,0,3.962,1.916,1.916,0,0,0,1.451-.618l.479.464a2.555,2.555,0,0,1-1.966.81,2.606,2.606,0,0,1-2.725-2.636" transform="translate(-36.504 -55.885)" fill="#fff"/>
    <path id="Path_49249" data-name="Path 49249" d="M99.52,138.988a2.607,2.607,0,0,1,2.731-2.636,2.546,2.546,0,0,1,1.959.8l-.478.464a1.91,1.91,0,0,0-1.451-.611,1.981,1.981,0,1,0,0,3.962,1.917,1.917,0,0,0,1.451-.618l.478.464a2.554,2.554,0,0,1-1.966.81,2.605,2.605,0,0,1-2.724-2.636" transform="translate(-40.789 -55.885)" fill="#fff"/>
    <path id="Path_49250" data-name="Path 49250" d="M115.3,136.451v5.154h-.737v-2.3h-2.96v2.3h-.737v-5.154h.737v2.217h2.96v-2.217Z" transform="translate(-45.442 -55.926)" fill="#fff"/>
    <path id="Path_49251" data-name="Path 49251" d="M122.549,139.383v-2.931h.736v2.9c0,1.141.523,1.657,1.451,1.657s1.458-.516,1.458-1.657v-2.9h.715v2.931a2.182,2.182,0,1,1-4.359,0" transform="translate(-50.228 -55.926)" fill="#fff"/>
    <path id="Path_49252" data-name="Path 49252" d="M133.314,140.975l.273-.574a2.654,2.654,0,0,0,1.7.6c.891,0,1.274-.346,1.274-.8,0-1.259-3.122-.464-3.122-2.378,0-.8.618-1.473,1.973-1.473a3.035,3.035,0,0,1,1.657.457l-.243.589a2.66,2.66,0,0,0-1.414-.42c-.876,0-1.252.368-1.252.817,0,1.259,3.122.471,3.122,2.364,0,.788-.633,1.465-2,1.465a3.059,3.059,0,0,1-1.973-.648" transform="translate(-54.64 -55.884)" fill="#fff"/>
    <path id="Path_49253" data-name="Path 49253" d="M52.962,125.261c.049-.981.5-2.944,2.216-6.23a1.01,1.01,0,0,1,1.266-.466l.071.028c.112.044.214.083.31.127.035.017.071.032.107.047a3.686,3.686,0,0,0,2.821.018.413.413,0,0,1,.555.476l0,.009,0,.009,0,.005a2.538,2.538,0,0,1-.5,1.006,33.782,33.782,0,0,1-5.19,4.99,5.34,5.34,0,0,1-.794.527.587.587,0,0,1-.859-.547" transform="translate(-21.707 -48.566)" fill="#fff"/>
    <path id="Path_49254" data-name="Path 49254" d="M41.812,16.052l1.4-2.526A41.528,41.528,0,0,0,12.41,63.2a4.433,4.433,0,0,1,1.91-1.012A39.44,39.44,0,0,1,41.812,16.052" transform="translate(-4.655 -5.544)" fill="#fff"/>
    <path id="Path_49255" data-name="Path 49255" d="M112.919,31.076a5.121,5.121,0,0,1,.623.277,3.323,3.323,0,0,1,.868-1.789A41.67,41.67,0,0,0,96.39,14.879a41.238,41.238,0,0,0-16.152-3.262q-1.035,0-2.061.051L79.2,13.714q.517-.013,1.037-.014a39.372,39.372,0,0,1,32.68,17.376" transform="translate(-32.041 -4.761)" fill="#fff"/>
    <path id="Path_49256" data-name="Path 49256" d="M146.926,77.964c.045.774.071,1.554.071,2.34a39.356,39.356,0,0,1-2.1,12.7l.1.058c.074-.107.152-.208.233-.3l.021-.027c.078-.091.159-.177.244-.258l.032-.031a3.272,3.272,0,0,1,.259-.222l.035-.027a3.248,3.248,0,0,1,.28-.19l.031-.018a3.335,3.335,0,0,1,.305-.159l.018-.008a3.2,3.2,0,0,1,1.071-.267A41.4,41.4,0,0,0,149.08,80.3q0-.541-.014-1.079a7.966,7.966,0,0,1-2.14-1.261" transform="translate(-59.389 -31.954)" fill="#fff"/>
    <path id="Path_49257" data-name="Path 49257" d="M130.469,69.66a2.4,2.4,0,0,0,1.707-1.293c-.036-.022-.073-.043-.109-.067a3.579,3.579,0,0,1-1.546-3.383,2.42,2.42,0,1,0-.053,4.744" transform="translate(-52.295 -26.583)" fill="#fff"/>
    <path id="Path_49258" data-name="Path 49258" d="M128.557,60.595a3.549,3.549,0,0,1,2.384-.256,3.5,3.5,0,0,1,1.494-1.593,3.565,3.565,0,0,1-.745-1.6c-.017-.087-.027-.174-.037-.26a2.42,2.42,0,0,0-3.1,3.7" transform="translate(-52.386 -23.128)" fill="#fff"/>
    <path id="Path_49259" data-name="Path 49259" d="M129.9,52.153a3.572,3.572,0,0,1,2.172.27,3.56,3.56,0,0,1,1.307-1.977,2.421,2.421,0,1,0-4.346,1.993,3.557,3.557,0,0,1,.866-.287" transform="translate(-52.717 -19.95)" fill="#fff"/>
    <path id="Path_49260" data-name="Path 49260" d="M146.075,45.108a7.881,7.881,0,0,1,.123,1.023,1.528,1.528,0,0,1,1.364.011,2.555,2.555,0,0,0,2.663-.207,2.157,2.157,0,0,0,.487-3.008,1.829,1.829,0,0,0-2.55-.413.514.514,0,0,0,.6.834.8.8,0,0,1,1.114.18,1.127,1.127,0,0,1-.254,1.572,1.53,1.53,0,0,1-1.6.123,2.558,2.558,0,0,0-1.96-.149c0,.011.005.022.008.033" transform="translate(-59.867 -17.284)" fill="#fff"/>
    <path id="Path_49261" data-name="Path 49261" d="M131.718,78.388a2.413,2.413,0,0,0,1.82-1.543,3.555,3.555,0,0,1-1.422-2.228c-.012-.063-.018-.126-.027-.19a3.56,3.56,0,0,1-1.341.354,3.544,3.544,0,0,1-1.433-.2,2.419,2.419,0,0,0,2.4,3.812" transform="translate(-52.807 -30.504)" fill="#fff"/>
    <path id="Path_49262" data-name="Path 49262" d="M147.044,54.462a2.409,2.409,0,0,0-1.056.489c0,.01.006.02.008.031a3.574,3.574,0,0,1-.464,2.539A3.583,3.583,0,0,1,148.4,59.09a2.422,2.422,0,0,0-1.353-4.627" transform="translate(-59.647 -22.304)" fill="#fff"/>
    <path id="Path_49263" data-name="Path 49263" d="M155.835,60.33a.514.514,0,0,0-.6-.409l-1.467.28a3.589,3.589,0,0,1-.408.856,3.549,3.549,0,0,1-.847.893l.294,1.543a.514.514,0,0,0,1.01-.192l-.243-1.274,3.39,2.3a.514.514,0,0,0,.578-.85l-3.39-2.3,1.274-.243a.514.514,0,0,0,.409-.6" transform="translate(-62.508 -24.555)" fill="#fff"/>
    <path id="Path_49264" data-name="Path 49264" d="M138.269,61.98a2.407,2.407,0,0,0-1.51-.415,2.556,2.556,0,0,0-.3.038,2.425,2.425,0,0,0-1.857,1.655.6.6,0,0,1-.03.111,2.4,2.4,0,0,0-.04,1.067,2.428,2.428,0,0,0,2.833,1.926,2.421,2.421,0,0,0,.908-4.382" transform="translate(-55.12 -25.231)" fill="#fff"/>
    <path id="Path_49265" data-name="Path 49265" d="M159.522,68.913a.514.514,0,0,0-.523.506c0,.164-.01.333-.021.506-4.448,2.088-5.968-.518-6.129-.828a.515.515,0,0,0-.918.465,3.979,3.979,0,0,1-.154,3.249,3.666,3.666,0,0,1-2.609-3.38,3.556,3.556,0,0,1-.951.742,4.343,4.343,0,0,0,.223.8,5.149,5.149,0,0,0,3.437,2.97.514.514,0,0,0,.618-.25,6,6,0,0,0,.73-2.716,4.318,4.318,0,0,0,.637.361,4.932,4.932,0,0,0,2.4.408,9.164,9.164,0,0,0,3.435-1.028.513.513,0,0,0,.283-.415c.025-.3.04-.587.045-.867a.514.514,0,0,0-.505-.523" transform="translate(-60.748 -28.206)" fill="#fff"/>
    <path id="Path_49266" data-name="Path 49266" d="M161.251,54.438a5.15,5.15,0,0,0-4.026-2.1,4.477,4.477,0,0,0-.94.108,7.219,7.219,0,0,0,.006-1.161.515.515,0,0,0-.466-.478c-2.211-.2-3.816.2-4.8,1.189a3.582,3.582,0,0,1,.74.383c.068.046.132.1.2.148a4.924,4.924,0,0,1,3.324-.728,2.625,2.625,0,0,1-.157,1.152.514.514,0,0,0,.671.748c.093-.052,2.2-1.194,4.364,1.065A3.978,3.978,0,0,1,157.2,56.1a.514.514,0,0,0-.094,1.024,3.181,3.181,0,0,1,1.811.925.514.514,0,1,0,.731-.723,4.274,4.274,0,0,0-.656-.544,5.993,5.993,0,0,0,2.257-1.679.514.514,0,0,0,.005-.666" transform="translate(-61.898 -20.802)" fill="#fff"/>
    <path id="Path_49267" data-name="Path 49267" d="M146.6,65.425a2.417,2.417,0,0,0-3.1-3.516,3.564,3.564,0,0,1,.218,3.876,3.6,3.6,0,0,1,.733.689,2.365,2.365,0,0,0,2.152-1.049" transform="translate(-58.814 -25.264)" fill="#fff"/>
    <path id="Path_49268" data-name="Path 49268" d="M141.046,54.375a2.423,2.423,0,1,0-3.933,2.312,3.551,3.551,0,0,1,2.3.442,2.419,2.419,0,0,0,1.628-2.754" transform="translate(-55.84 -21.479)" fill="#fff"/>
    <path id="Path_49269" data-name="Path 49269" d="M139.13,74.591a2.419,2.419,0,0,0,.885-4.394,3.555,3.555,0,0,1-3.216.811,3.6,3.6,0,0,1-.507.789,2.4,2.4,0,0,0,0,.868,2.426,2.426,0,0,0,2.833,1.926" transform="translate(-55.845 -28.771)" fill="#fff"/>
    <path id="Path_49270" data-name="Path 49270" d="M143.035,46.105a6.708,6.708,0,0,0-.583-1.733.534.534,0,0,0-.976.432,6.8,6.8,0,0,1,.406,3.19,3.616,3.616,0,0,1,.928.453c.077.053.15.11.222.168a6.7,6.7,0,0,0,0-2.51" transform="translate(-57.97 -18.062)" fill="#fff"/>
    <path id="Path_49271" data-name="Path 49271" d="M166.527,66.222a.491.491,0,0,1-.05.007.357.357,0,0,1-.05,0,.479.479,0,0,1-.1-.011.5.5,0,0,1-.1-.03l-.045-.022c-.015-.008-.03-.017-.043-.027s-.028-.02-.041-.031l-.037-.034A.507.507,0,0,1,166,66a.552.552,0,0,1-.047-.089c-.007-.016-.012-.032-.017-.048a.431.431,0,0,1-.012-.05.351.351,0,0,1-.007-.05.471.471,0,0,1,0-.05.479.479,0,0,1,.011-.1.5.5,0,0,1,.03-.1c.007-.015.014-.031.022-.045s.017-.03.027-.044.02-.027.031-.04.022-.025.034-.037a.478.478,0,0,1,.078-.063.457.457,0,0,1,.089-.047.452.452,0,0,1,.047-.017.517.517,0,0,1,.1-.019.494.494,0,0,1,.051,0,.483.483,0,0,1,.1.011.542.542,0,0,1,.1.03c.015.007.031.014.045.022s.03.017.044.026l.04.031c.013.011.025.022.037.034a.521.521,0,0,1,.11.167c.007.016.012.032.017.048s.008.033.012.05.005.034.007.05a.363.363,0,0,1,0,.051.52.52,0,0,1-.011.1.544.544,0,0,1-.03.1.292.292,0,0,1-.022.045c-.008.015-.017.03-.026.044s-.02.027-.031.041-.022.025-.034.037a.57.57,0,0,1-.078.063.474.474,0,0,1-.089.047l-.048.017a.458.458,0,0,1-.049.012" transform="translate(-68.002 -26.724)" fill="#fff"/>
  </g>
</svg>
