<svg xmlns="http://www.w3.org/2000/svg" xmlns:xlink="http://www.w3.org/1999/xlink" width="157.187" height="49.221" viewBox="0 0 157.187 49.221">
  <defs>
    <clipPath id="clip-path">
      <rect id="Rectangle_1488" data-name="Rectangle 1488" width="157.187" height="49.221" fill="none"/>
    </clipPath>
  </defs>
  <g id="Group_4280" data-name="Group 4280" transform="translate(0 0)">
    <g id="Group_4259" data-name="Group 4259" transform="translate(0 0.001)" clip-path="url(#clip-path)">
      <path id="Path_49108" data-name="Path 49108" d="M16.684.374C7.731,4.76,1.614,14.063,1.722,24.028c-.069,9.968,6.1,19.23,15.053,23.6a24.326,24.326,0,0,1-12.1-9.012C-5,25.241,1,5.654,16.684.374" transform="translate(0 0.318)" fill="#fff"/>
      <path id="Path_49109" data-name="Path 49109" d="M16.872.932A3.188,3.188,0,0,1,16.5,5.4a3.187,3.187,0,0,1-4.466.36A3.187,3.187,0,0,1,12.4,1.293a3.191,3.191,0,0,1,4.47-.361" transform="translate(9.623 0.149)" fill="#fff"/>
      <path id="Path_49110" data-name="Path 49110" d="M23.609,2.987a.556.556,0,0,1-.413.658A.557.557,0,0,1,22.46,3.4a.558.558,0,0,1,.413-.658.555.555,0,0,1,.736.246" transform="translate(19.143 2.299)" fill="#fff"/>
      <path id="Path_49111" data-name="Path 49111" d="M22.84,3.545a.656.656,0,0,1-.487.776.657.657,0,0,1-.867-.291.655.655,0,0,1,.486-.776.657.657,0,0,1,.869.291" transform="translate(18.307 2.73)" fill="#fff"/>
      <path id="Path_49112" data-name="Path 49112" d="M21.866,4.25c.152.363-.133.827-.637,1.038a.885.885,0,0,1-1.186-.272c-.152-.363.133-.827.636-1.038a.885.885,0,0,1,1.188.272" transform="translate(17.065 3.304)" fill="#fff"/>
      <path id="Path_49113" data-name="Path 49113" d="M20.325,5.283A1.179,1.179,0,0,1,19.8,6.821a1.18,1.18,0,0,1-1.623-.007A1.178,1.178,0,0,1,18.7,5.275a1.18,1.18,0,0,1,1.625.007" transform="translate(15.393 4.231)" fill="#fff"/>
      <path id="Path_49114" data-name="Path 49114" d="M18.5,6.821a1.179,1.179,0,0,1-.265,1.6,1.177,1.177,0,0,1-1.6.259,1.18,1.18,0,0,1,.263-1.6,1.18,1.18,0,0,1,1.6-.259" transform="translate(14.005 5.633)" fill="#fff"/>
      <path id="Path_49115" data-name="Path 49115" d="M18.005,9.171a1.849,1.849,0,0,1-.413,2.515,1.848,1.848,0,0,1-2.515.4,1.849,1.849,0,0,1,.411-2.513,1.852,1.852,0,0,1,2.517-.406" transform="translate(12.574 7.532)" fill="#fff"/>
      <path id="Path_49116" data-name="Path 49116" d="M18.764,11.342a1.611,1.611,0,0,1-.36,2.189,1.61,1.61,0,0,1-2.189.352,1.608,1.608,0,0,1,.36-2.187,1.609,1.609,0,0,1,2.189-.354" transform="translate(13.583 9.422)" fill="#fff"/>
      <path id="Path_49117" data-name="Path 49117" d="M19.843,13.106a1.331,1.331,0,0,1-.3,1.811,1.329,1.329,0,0,1-1.809.291,1.33,1.33,0,0,1,.3-1.809,1.33,1.33,0,0,1,1.811-.293" transform="translate(14.923 10.971)" fill="#fff"/>
      <path id="Path_49118" data-name="Path 49118" d="M21.238,14.707a1.333,1.333,0,0,1-.252,1.818,1.333,1.333,0,0,1-1.8.335,1.332,1.332,0,0,1,.252-1.816,1.332,1.332,0,0,1,1.8-.337" transform="translate(16.144 12.35)" fill="#fff"/>
      <path id="Path_49119" data-name="Path 49119" d="M22.067,16.37a1.05,1.05,0,0,1-.2,1.431,1.048,1.048,0,0,1-1.42.265,1.05,1.05,0,0,1,.2-1.431,1.048,1.048,0,0,1,1.42-.265" transform="translate(17.272 13.81)" fill="#fff"/>
      <path id="Path_49120" data-name="Path 49120" d="M22.912,17.87A1.041,1.041,0,0,1,21.548,19.3a1.041,1.041,0,0,1,1.364-1.429" transform="translate(18.236 15.115)" fill="#fff"/>
      <path id="Path_49121" data-name="Path 49121" d="M23.719,19.451A.932.932,0,0,1,22.5,20.73a.932.932,0,0,1,1.221-1.279" transform="translate(19.063 16.477)" fill="#fff"/>
      <path id="Path_49122" data-name="Path 49122" d="M24.106,20.994a.826.826,0,0,1-1.08,1.132.826.826,0,0,1,1.08-1.132" transform="translate(19.528 17.807)" fill="#fff"/>
      <path id="Path_49123" data-name="Path 49123" d="M23.966,22.736a.671.671,0,0,1-.88.921.672.672,0,0,1,.88-.921" transform="translate(19.601 19.311)" fill="#fff"/>
      <path id="Path_49124" data-name="Path 49124" d="M36.28,43.879c-1.032-3.456-4.625-6.421-8.43-9.56A57.256,57.256,0,0,1,21.666,28.7l-.476.295c-.741.46-1.5.912-2.261,1.353,3.792,2.387,9.377,5.962,8.526,10.524l-.391,2.1-1.416-1.6c-3.547-4-7.676-5.378-10.689-6.388-2.187-.732-3.914-1.31-4.792-2.606a3.835,3.835,0,0,1,.686-4.857,78.844,78.844,0,0,1,6.5-5.687l.569-.452a14.3,14.3,0,0,1,1.525-9.344A16.993,16.993,0,0,1,23.2,7.6a4.411,4.411,0,0,1-.928.1,3.648,3.648,0,0,1-2.617-1.041A3.686,3.686,0,0,1,18.634,3.7,4.915,4.915,0,0,1,20.093.662,5.272,5.272,0,0,1,20.912,0,24.912,24.912,0,1,0,36.934,46.862a17.992,17.992,0,0,0-.654-2.984" transform="translate(1.226 -0.001)" fill="#fff"/>
      <path id="Path_49125" data-name="Path 49125" d="M17.756,22.646A9.892,9.892,0,0,1,16.283,16.8c.208-2.941,2.248-6.065,4.425-7.989,4.118-3.508,9.1-5.291,14.089-7.6-7.922-.024-18.205,3.008-22.423,10.316a13.508,13.508,0,0,0-1.221,9.609c1.885,8.482,15.815,13.58,18.152,21.413a17.97,17.97,0,0,1,.758,3.821,9.4,9.4,0,0,0,.773-4.082c-.567-9.71-9.129-13.122-13.079-19.64m-4.6-1.6a.922.922,0,0,1,.076-1.842.749.749,0,0,1,.145.035L17.4,9.1a.9.9,0,0,1-.384-.763.922.922,0,1,1,.884.958.9.9,0,0,1-.185-.044L13.7,19.377a.91.91,0,0,1,.417.789.925.925,0,0,1-.96.884M27.548,35.072a1.157,1.157,0,1,1-1.156,1.156,1.128,1.128,0,0,1,.252-.688L16.44,24.785a1.115,1.115,0,0,1-.569.172A1.157,1.157,0,1,1,17.028,23.8a1.131,1.131,0,0,1-.309.771L26.894,35.3a1.126,1.126,0,0,1,.654-.228" transform="translate(9.202 1.03)" fill="#fff"/>
      <path id="Path_49126" data-name="Path 49126" d="M12.947,20.043c-.1-.063-.208-.107-.311-.161Q14.6,18.8,16.41,17.677q-.423-.589-.806-1.218l.032.056a.738.738,0,0,1-.252.465.7.7,0,0,1-.986-.015c-.011-.013-.013-.028-.022-.039l-4.121,3.245.013.013a.729.729,0,0,1,.132.55.761.761,0,0,1-.057.158l7.87,4.318a.8.8,0,0,1,.137-.148.74.74,0,0,1,.435-.141.613.613,0,0,1,.115.009.74.74,0,0,1-.23,1.462.745.745,0,0,1-.484-.3.729.729,0,0,1-.132-.55.622.622,0,0,1,.056-.152l-7.872-4.32a.731.731,0,0,1-.684.276.739.739,0,0,1-.321-1.329.707.707,0,0,1,.865.007l4.173-3.287a.641.641,0,0,1-.028-.267A.774.774,0,0,1,15,15.788a.69.69,0,0,1,.237.044l.322.556a15.909,15.909,0,0,1-1.794-4.168,77.949,77.949,0,0,0-6.41,5.611,2.8,2.8,0,0,0-.556,3.53c1.74,2.57,9.273,1.988,15.4,8.886.808-4.336-5.874-8.024-9.253-10.205" transform="translate(5.457 10.425)" fill="#fff"/>
      <path id="Path_49127" data-name="Path 49127" d="M26.865,22.036l1.471-10.457H32l-1.5,10.613c-.361,2.5,1.032,4.183,3.46,4.183a3.865,3.865,0,0,0,3.9-3.667L39.44,11.579h3.667L41.48,23.068a7.777,7.777,0,0,1-7.772,6.844,6.7,6.7,0,0,1-6.844-7.876" transform="translate(22.85 9.878)" fill="#fff"/>
      <path id="Path_49128" data-name="Path 49128" d="M40.107,29.654,42.2,14.882H37.139l.437-3.3H51.365l-.463,3.3H45.839L43.775,29.654Z" transform="translate(31.685 9.877)" fill="#fff"/>
      <path id="Path_49129" data-name="Path 49129" d="M45.331,29.654l2.531-18.076H59.792l-.463,3.434H51.039l-.517,3.873h7.54l-.465,3.2h-7.54l-.593,4.133h8.289l-.491,3.434Z" transform="translate(38.674 9.877)" fill="#fff"/>
      <path id="Path_49130" data-name="Path 49130" d="M64.158,30.371l-3.28-9.555L57.262,29.88H53.441l7.437-18.567,4.081,12.37,7.824-12.37L75,29.88H71.389l-1.06-9.168Z" transform="translate(45.593 9.651)" fill="#fff"/>
      <path id="Path_49131" data-name="Path 49131" d="M67.195,29.654l2.531-18.076H81.655l-.463,3.434H72.9l-.517,3.873h7.54l-.465,3.2H71.92l-.593,4.133h8.289l-.491,3.434Z" transform="translate(57.327 9.877)" fill="#fff"/>
      <path id="Path_49132" data-name="Path 49132" d="M75.806,29.655l2.531-18.077h5.5c5.139,0,8.676,3.176,8.676,8.135a9.6,9.6,0,0,1-9.735,9.942Zm4.107-3.306h3.073c3.693,0,5.887-2.969,5.887-6.482,0-3.124-2.116-4.983-5.113-4.983H81.54Z" transform="translate(64.673 9.877)" fill="#fff"/>
      <path id="Path_49133" data-name="Path 49133" d="M30.943,23.611,28.51,27.9l-.854-4.288h-.873l1.134,5.417h.808l3.128-5.417Z" transform="translate(22.849 20.143)" fill="#fff"/>
      <path id="Path_49134" data-name="Path 49134" d="M35.068,24.662a2.006,2.006,0,0,0-.826-.8,2.592,2.592,0,0,0-1.221-.28,3.249,3.249,0,0,0-1.664.437,3.212,3.212,0,0,0-1.179,1.19,3.279,3.279,0,0,0-.43,1.649,2.336,2.336,0,0,0,.293,1.169,2.029,2.029,0,0,0,.83.8,2.576,2.576,0,0,0,1.221.282,3.254,3.254,0,0,0,1.664-.437,3.2,3.2,0,0,0,1.175-1.188,3.269,3.269,0,0,0,.426-1.644,2.354,2.354,0,0,0-.289-1.175m-2.9,3.7a1.576,1.576,0,0,1-1.153-.411,1.471,1.471,0,0,1-.426-1.127,2.613,2.613,0,0,1,.3-1.236,2.377,2.377,0,0,1,.838-.912,2.23,2.23,0,0,1,1.206-.335,1.6,1.6,0,0,1,1.162.408,1.464,1.464,0,0,1,.424,1.121,2.626,2.626,0,0,1-.3,1.243,2.341,2.341,0,0,1-.841.91,2.219,2.219,0,0,1-1.21.339" transform="translate(25.379 20.116)" fill="#fff"/>
      <path id="Path_49135" data-name="Path 49135" d="M33.667,23.611l-.13.7h1.479l-.862,4.72h.825l.862-4.72h1.484l.13-.7Z" transform="translate(28.612 20.143)" fill="#fff"/>
      <path id="Path_49136" data-name="Path 49136" d="M40.22,25.264a2.3,2.3,0,0,0,.032-.321,1.206,1.206,0,0,0-.445-.977v0a1.965,1.965,0,0,0-1.268-.354H36.814l-.99,5.417h.823l.389-2.144h.776l.921,2.144h.954l-.984-2.22a2.058,2.058,0,0,0,.971-.511,1.865,1.865,0,0,0,.545-1.032m-1.764-.956a1.179,1.179,0,0,1,.732.182.582.582,0,0,1,.213.489,1.623,1.623,0,0,1-.02.239,1.118,1.118,0,0,1-.4.706,1.426,1.426,0,0,1-.91.263h-.9l.345-1.879Z" transform="translate(30.563 20.143)" fill="#fff"/>
      <path id="Path_49137" data-name="Path 49137" d="M42.576,24.3l.143-.7H39.637l-.99,5.424h3.071l.13-.7H39.6l.306-1.681h2.027l.117-.7H40.033l.3-1.651Z" transform="translate(32.971 20.139)" fill="#fff"/>
      <path id="Path_49138" data-name="Path 49138" d="M46.728,23.958a1.984,1.984,0,0,0-1.264-.347H43.739l-.99,5.415h.825l.4-2.187h.954a2.417,2.417,0,0,0,1.51-.434,1.82,1.82,0,0,0,.7-1.147,1.615,1.615,0,0,0,.035-.339,1.183,1.183,0,0,0-.443-.962m-1.72,2.17h-.9l.328-1.82h.954c.849,0,.947.371.947.649a2.179,2.179,0,0,1-.028.248c-.115.621-.539.923-1.3.923" transform="translate(36.471 20.143)" fill="#fff"/>
      <path id="Path_49139" data-name="Path 49139" d="M49.077,23.647h-.8L45.241,29h.891l.688-1.219h2.227L49.283,29h.856Zm-.169,3.434h-1.7l1.266-2.244Z" transform="translate(38.597 20.173)" fill="#fff"/>
      <path id="Path_49140" data-name="Path 49140" d="M52.965,25.264A2.3,2.3,0,0,0,53,24.943a1.206,1.206,0,0,0-.445-.977v0a1.965,1.965,0,0,0-1.268-.354H49.559l-.99,5.417h.823l.389-2.144h.776l.921,2.144h.954l-.984-2.22a2.058,2.058,0,0,0,.971-.511,1.865,1.865,0,0,0,.545-1.032M51.2,24.308a1.179,1.179,0,0,1,.732.182.582.582,0,0,1,.213.489,1.622,1.622,0,0,1-.02.239,1.118,1.118,0,0,1-.4.706,1.426,1.426,0,0,1-.91.263h-.9l.345-1.879Z" transform="translate(41.436 20.143)" fill="#fff"/>
      <path id="Path_49141" data-name="Path 49141" d="M51.785,23.611l-.13.7h1.479l-.862,4.72H53.1l.862-4.72h1.484l.13-.7Z" transform="translate(44.069 20.143)" fill="#fff"/>
      <path id="Path_49142" data-name="Path 49142" d="M57.869,24.3l.143-.7H54.93l-.99,5.424h3.071l.13-.7H54.893l.306-1.681h2.027l.117-.7H55.327l.3-1.651Z" transform="translate(46.019 20.139)" fill="#fff"/>
      <path id="Path_49143" data-name="Path 49143" d="M60.888,23.611l-.728,4-2.011-4h-.741l-.99,5.417h.825l.736-4.012,2,4.012h.741l.99-5.417Z" transform="translate(48.133 20.143)" fill="#fff"/>
      <path id="Path_49144" data-name="Path 49144" d="M63.248,23.647h-.8L59.412,29h.893l.686-1.219h2.227L63.454,29h.856Zm-.169,3.434h-1.7l1.266-2.244Z" transform="translate(50.687 20.173)" fill="#fff"/>
      <path id="Path_49145" data-name="Path 49145" d="M63.73,23.611l-.99,5.417h.823l.99-5.417Z" transform="translate(53.526 20.143)" fill="#fff"/>
      <path id="Path_49146" data-name="Path 49146" d="M68.489,25.264a2.3,2.3,0,0,0,.032-.321,1.206,1.206,0,0,0-.445-.977v0a1.965,1.965,0,0,0-1.268-.354H65.083l-.99,5.417h.823l.389-2.144h.776L67,29.028h.954l-.984-2.22a2.058,2.058,0,0,0,.971-.511,1.865,1.865,0,0,0,.545-1.032m-1.764-.956a1.179,1.179,0,0,1,.732.182.582.582,0,0,1,.213.489,1.623,1.623,0,0,1-.02.239,1.118,1.118,0,0,1-.4.706,1.426,1.426,0,0,1-.91.263h-.9l.345-1.879Z" transform="translate(54.681 20.143)" fill="#fff"/>
      <path id="Path_49147" data-name="Path 49147" d="M70.845,24.3l.143-.7H67.906l-.99,5.424h3.071l.13-.7H67.869l.306-1.681H70.2l.117-.7H68.3l.3-1.651Z" transform="translate(57.089 20.139)" fill="#fff"/>
      <path id="Path_49148" data-name="Path 49148" d="M75.081,25.113l.009-.133a1.183,1.183,0,0,0-.178-.717,1.36,1.36,0,0,0-.6-.506,2.227,2.227,0,0,0-.923-.178,2.466,2.466,0,0,0-.967.183,1.684,1.684,0,0,0-.688.523,1.335,1.335,0,0,0-.278.776,1.188,1.188,0,0,0,.172.767,1.459,1.459,0,0,0,.5.46,5.9,5.9,0,0,0,.754.334,6.514,6.514,0,0,1,.612.269,1.153,1.153,0,0,1,.341.274.562.562,0,0,1,.122.374.754.754,0,0,1-.282.623,1.255,1.255,0,0,1-.81.239,1.2,1.2,0,0,1-.587-.124.691.691,0,0,1-.3-.3.757.757,0,0,1-.072-.38l.009-.154h-.8l-.019.122a1.323,1.323,0,0,0-.007.169,1.21,1.21,0,0,0,.224.721,1.423,1.423,0,0,0,.621.482,2.291,2.291,0,0,0,.9.165,2.455,2.455,0,0,0,.99-.187,1.672,1.672,0,0,0,.686-.53,1.421,1.421,0,0,0,.285-.749.921.921,0,0,0,.011-.167,1.186,1.186,0,0,0-.224-.732,1.673,1.673,0,0,0-.517-.45,6.445,6.445,0,0,0-.743-.337,6.277,6.277,0,0,1-.595-.265,1.142,1.142,0,0,1-.334-.261.5.5,0,0,1-.117-.339.668.668,0,0,1,.285-.571,1.31,1.31,0,0,1,.8-.226,1.161,1.161,0,0,1,.526.107.672.672,0,0,1,.291.254.53.53,0,0,1,.078.308l-.013.154Z" transform="translate(60.647 20.115)" fill="#fff"/>
      <path id="Path_49149" data-name="Path 49149" d="M76.552,23.647,73.518,29h.893l.686-1.219h2.227L77.56,29h.856l-1.062-5.35Zm-1.066,3.434,1.266-2.244.434,2.244Z" transform="translate(62.721 20.173)" fill="#fff"/>
      <path id="Path_49150" data-name="Path 49150" d="M80.586,27.616l-2.011-4h-.739l-.99,5.417h.823l.736-4.012,2.005,4.012h.739l.99-5.417h-.825Z" transform="translate(65.561 20.143)" fill="#fff"/>
      <path id="Path_49151" data-name="Path 49151" d="M80.339,24.308h1.479l-.862,4.72h.825l.862-4.72h1.484l.128-.7H80.469Z" transform="translate(68.541 20.143)" fill="#fff"/>
      <path id="Path_49152" data-name="Path 49152" d="M86.553,25.085l.143-.7H84.339l1.716-.871.148-.825-2.059,1.114-.1.582h-.43l-.99,5.424H85.7l.13-.7H83.577l.306-1.681H85.91l.117-.7H84.011l.3-1.651Z" transform="translate(70.491 19.359)" fill="#fff"/>
    </g>
  </g>
</svg>
