<svg id="Group_4283" data-name="Group 4283" xmlns="http://www.w3.org/2000/svg" xmlns:xlink="http://www.w3.org/1999/xlink" width="221.603" height="44.738" viewBox="0 0 221.603 44.738">
  <defs>
    <clipPath id="clip-path">
      <rect id="Rectangle_1494" data-name="Rectangle 1494" width="221.603" height="44.737" fill="none"/>
    </clipPath>
  </defs>
  <g id="Group_4273" data-name="Group 4273" clip-path="url(#clip-path)">
    <path id="Path_49200" data-name="Path 49200" d="M102.865,149.924a5.818,5.818,0,0,1,.417-2.229,5.293,5.293,0,0,1,1.159-1.757,5.351,5.351,0,0,1,1.754-1.162,5.649,5.649,0,0,1,2.188-.42,5.556,5.556,0,0,1,2.2.456,4.4,4.4,0,0,1,.9.523,2.862,2.862,0,0,1,.669.7l-.892.658a2.789,2.789,0,0,0-.445-.512,2.993,2.993,0,0,0-.651-.449,4.089,4.089,0,0,0-.815-.314,3.607,3.607,0,0,0-.954-.121,4.351,4.351,0,0,0-1.846.376,4.209,4.209,0,0,0-1.385,1.012,4.414,4.414,0,0,0-.87,1.473,5.2,5.2,0,0,0-.3,1.765,5.082,5.082,0,0,0,.307,1.765,4.5,4.5,0,0,0,.877,1.473,4.192,4.192,0,0,0,1.384,1.012,4.316,4.316,0,0,0,1.831.376,4.145,4.145,0,0,0,1.739-.376,3.273,3.273,0,0,0,1.374-1.195l.84.541a4.494,4.494,0,0,1-.65.76,4.161,4.161,0,0,1-.881.629,4.892,4.892,0,0,1-1.107.427,5.283,5.283,0,0,1-1.33.158,5.756,5.756,0,0,1-2.211-.42,5.175,5.175,0,0,1-2.9-2.92,5.914,5.914,0,0,1-.409-2.229" transform="translate(-81.292 -114.081)" fill="#fff"/>
    <path id="Path_49201" data-name="Path 49201" d="M153.391,165.6a3.856,3.856,0,0,1,.274-1.468,3.47,3.47,0,0,1,.771-1.166,3.554,3.554,0,0,1,1.184-.771,3.966,3.966,0,0,1,1.5-.277,4.012,4.012,0,0,1,1.509.277,3.5,3.5,0,0,1,1.184.771,3.541,3.541,0,0,1,.771,1.166,4.011,4.011,0,0,1,0,2.934,3.523,3.523,0,0,1-.771,1.169,3.487,3.487,0,0,1-1.184.771,4,4,0,0,1-1.509.278,3.954,3.954,0,0,1-1.5-.278,3.539,3.539,0,0,1-1.184-.771,3.453,3.453,0,0,1-.771-1.169,3.865,3.865,0,0,1-.274-1.466m6.387,0a3.2,3.2,0,0,0-.186-1.1,2.715,2.715,0,0,0-.53-.9,2.476,2.476,0,0,0-.837-.606,2.655,2.655,0,0,0-1.107-.223,2.6,2.6,0,0,0-1.1.223,2.532,2.532,0,0,0-.833.606,2.688,2.688,0,0,0-.534.9,3.341,3.341,0,0,0,0,2.2,2.655,2.655,0,0,0,.534.9,2.522,2.522,0,0,0,.833.6,2.651,2.651,0,0,0,1.1.219,2.7,2.7,0,0,0,1.107-.219,2.467,2.467,0,0,0,.837-.6,2.682,2.682,0,0,0,.53-.9,3.208,3.208,0,0,0,.186-1.1" transform="translate(-121.221 -127.96)" fill="#fff"/>
    <path id="Path_49202" data-name="Path 49202" d="M199.169,163.635q0-.277-.015-.727t-.044-.807h.972q.029.277.044.624c.01.232.014.42.014.567h.037a2.245,2.245,0,0,1,.968-.994,2.86,2.86,0,0,1,1.421-.38,2.469,2.469,0,0,1,2,.793,3.14,3.14,0,0,1,.669,2.094v4.3h-1.023v-3.873a5.286,5.286,0,0,0-.088-1,2.093,2.093,0,0,0-.3-.771,1.461,1.461,0,0,0-.585-.5,2.121,2.121,0,0,0-.924-.178,1.957,1.957,0,0,0-.782.164,1.937,1.937,0,0,0-.679.5,2.484,2.484,0,0,0-.479.852,3.717,3.717,0,0,0-.179,1.217v3.6h-1.023Z" transform="translate(-157.352 -127.96)" fill="#fff"/>
    <path id="Path_49203" data-name="Path 49203" d="M237.161,167.918l.8-.6a2.29,2.29,0,0,0,1.952,1.1,3.076,3.076,0,0,0,.628-.062,1.456,1.456,0,0,0,.523-.212,1.161,1.161,0,0,0,.358-.38,1.115,1.115,0,0,0,.135-.574.893.893,0,0,0-.53-.833,6.721,6.721,0,0,0-1.538-.511q-.314-.081-.665-.19a2.22,2.22,0,0,1-.651-.329,1.811,1.811,0,0,1-.493-.548,1.609,1.609,0,0,1-.194-.826,1.9,1.9,0,0,1,.208-.917,1.81,1.81,0,0,1,.559-.629,2.549,2.549,0,0,1,.8-.365,3.576,3.576,0,0,1,.932-.12,3.267,3.267,0,0,1,1.421.329,2.282,2.282,0,0,1,1.034.928l-.782.585a1.721,1.721,0,0,0-.676-.713,1.986,1.986,0,0,0-1.041-.274,2.551,2.551,0,0,0-.541.058,1.423,1.423,0,0,0-.479.194,1.076,1.076,0,0,0-.336.343.926.926,0,0,0-.128.493.842.842,0,0,0,.406.756,3.979,3.979,0,0,0,1.268.442,4.269,4.269,0,0,1,1.834.742,1.609,1.609,0,0,1,.592,1.311,1.925,1.925,0,0,1-.836,1.681,2.461,2.461,0,0,1-.848.376,4.016,4.016,0,0,1-.946.113,3.78,3.78,0,0,1-1.546-.332,2.856,2.856,0,0,1-1.224-1.034" transform="translate(-187.422 -127.96)" fill="#fff"/>
    <path id="Path_49204" data-name="Path 49204" d="M270.124,165.6a3.943,3.943,0,0,1,.267-1.468,3.533,3.533,0,0,1,.745-1.166,3.458,3.458,0,0,1,1.126-.771,3.493,3.493,0,0,1,1.392-.277,3.573,3.573,0,0,1,1.454.277,2.972,2.972,0,0,1,1.045.749,3.268,3.268,0,0,1,.636,1.1,4.059,4.059,0,0,1,.219,1.345c0,.229,0,.39-.015.483h-5.809a2.708,2.708,0,0,0,.208.983,2.461,2.461,0,0,0,.54.808,2.686,2.686,0,0,0,.811.548,2.45,2.45,0,0,0,1,.2,2.492,2.492,0,0,0,1.374-.369,2.78,2.78,0,0,0,.877-.844l.76.6a3.654,3.654,0,0,1-3.011,1.484,3.686,3.686,0,0,1-1.439-.278,3.429,3.429,0,0,1-1.147-.771,3.566,3.566,0,0,1-.756-1.169,3.865,3.865,0,0,1-.274-1.466m5.846-.54a2.524,2.524,0,0,0-.632-1.637,2.154,2.154,0,0,0-1.684-.65,2.349,2.349,0,0,0-.943.186,2.531,2.531,0,0,0-.764.508,2.476,2.476,0,0,0-.526.735,2.369,2.369,0,0,0-.223.859Z" transform="translate(-213.472 -127.96)" fill="#fff"/>
    <path id="Path_49205" data-name="Path 49205" d="M312.43,147.231a.662.662,0,0,1,.223-.515.706.706,0,0,1,.986,0,.707.707,0,0,1,0,1.031.706.706,0,0,1-.986,0,.662.662,0,0,1-.223-.516m.2,2.7h1.023v7h-1.023Z" transform="translate(-246.906 -115.787)" fill="#fff"/>
    <rect id="Rectangle_1493" data-name="Rectangle 1493" width="1.023" height="11.313" transform="translate(69.485 29.829)" fill="#fff"/>
    <path id="Path_49206" data-name="Path 49206" d="M372.194,145.644h3.157a5.891,5.891,0,0,1,1.209.128,3.35,3.35,0,0,1,1.1.435,2.386,2.386,0,0,1,.8.829,2.572,2.572,0,0,1,.307,1.32,2.218,2.218,0,0,1-.511,1.454,2.415,2.415,0,0,1-1.359.819v.029a2.774,2.774,0,0,1,1.71.8,2.513,2.513,0,0,1,.679,1.852,2.6,2.6,0,0,1-.278,1.2,2.669,2.669,0,0,1-.786.928,3.725,3.725,0,0,1-1.238.592,5.991,5.991,0,0,1-1.644.208h-3.143Zm3.245,4.641a3.51,3.51,0,0,0,.786-.091,2.24,2.24,0,0,0,.728-.307,1.624,1.624,0,0,0,.53-.574,1.789,1.789,0,0,0,.2-.884,1.717,1.717,0,0,0-.2-.863,1.669,1.669,0,0,0-.544-.574,2.389,2.389,0,0,0-.808-.322,4.777,4.777,0,0,0-.99-.1h-1.871v3.713Zm-.168,5.028a5.389,5.389,0,0,0,1.118-.113,2.867,2.867,0,0,0,.928-.358,1.9,1.9,0,0,0,.635-.643,2.043,2.043,0,0,0-.471-2.514,3.4,3.4,0,0,0-2.013-.515h-2.2v4.144Z" transform="translate(-294.136 -115.099)" fill="#fff"/>
    <path id="Path_49207" data-name="Path 49207" d="M414.81,167.158a1.891,1.891,0,0,1,.409-1.283,2.444,2.444,0,0,1,1.1-.7,6.623,6.623,0,0,1,1.579-.3q.888-.07,1.845-.069v-.219a1.784,1.784,0,0,0-.479-1.363,1.959,1.959,0,0,0-1.392-.449,3,3,0,0,0-1.166.223,2.755,2.755,0,0,0-.91.6l-.57-.672a3.36,3.36,0,0,1,1.144-.716,4.3,4.3,0,0,1,1.611-.285,3.471,3.471,0,0,1,1.063.157,2.511,2.511,0,0,1,.866.471,2.166,2.166,0,0,1,.585.793,2.756,2.756,0,0,1,.212,1.122v3.069q0,.4.029.837a5.934,5.934,0,0,0,.088.734h-.914q-.044-.256-.073-.555t-.029-.585h-.029a2.958,2.958,0,0,1-1.089,1.015,3.419,3.419,0,0,1-2.291.194,2.311,2.311,0,0,1-.779-.369,2.079,2.079,0,0,1-.581-.658,1.957,1.957,0,0,1-.23-.986m4.933-1.038V165.6h-.292q-.629,0-1.268.051a5.494,5.494,0,0,0-1.155.208,2.177,2.177,0,0,0-.844.457,1.026,1.026,0,0,0-.329.8,1.255,1.255,0,0,0,.142.625,1.18,1.18,0,0,0,.38.409,1.625,1.625,0,0,0,.53.227,2.527,2.527,0,0,0,.592.069,2.351,2.351,0,0,0,.961-.186,2.029,2.029,0,0,0,.705-.508,2.186,2.186,0,0,0,.431-.742,2.683,2.683,0,0,0,.146-.888" transform="translate(-327.814 -127.96)" fill="#fff"/>
    <path id="Path_49208" data-name="Path 49208" d="M455.187,163.635q0-.277-.015-.727t-.044-.807h.972q.029.277.044.624c.01.232.014.42.014.567h.037a2.245,2.245,0,0,1,.968-.994,2.86,2.86,0,0,1,1.421-.38,2.469,2.469,0,0,1,2,.793,3.14,3.14,0,0,1,.669,2.094v4.3H460.23v-3.873a5.285,5.285,0,0,0-.088-1,2.093,2.093,0,0,0-.3-.771,1.461,1.461,0,0,0-.585-.5,2.121,2.121,0,0,0-.924-.178,1.957,1.957,0,0,0-.782.164,1.937,1.937,0,0,0-.679.5,2.484,2.484,0,0,0-.479.852,3.716,3.716,0,0,0-.179,1.217v3.6h-1.023Z" transform="translate(-359.677 -127.96)" fill="#fff"/>
    <path id="Path_49209" data-name="Path 49209" d="M500.769,167.918h-.044a2.908,2.908,0,0,1-1.162,1.012,3.318,3.318,0,0,1-1.476.354A3.751,3.751,0,0,1,496.6,169a3.4,3.4,0,0,1-1.14-.779,3.463,3.463,0,0,1-.731-1.169,4.2,4.2,0,0,1,0-2.9,3.481,3.481,0,0,1,.731-1.166,3.406,3.406,0,0,1,1.14-.778,3.752,3.752,0,0,1,1.487-.285,3.344,3.344,0,0,1,1.476.351,2.8,2.8,0,0,1,1.162,1.038h.044V162.1h1.016v10.6h-1.016Zm.117-2.317a3.033,3.033,0,0,0-.2-1.114,2.775,2.775,0,0,0-.559-.9,2.543,2.543,0,0,0-.851-.6,2.665,2.665,0,0,0-1.078-.215,2.72,2.72,0,0,0-1.126.223,2.394,2.394,0,0,0-.833.606,2.686,2.686,0,0,0-.515.9,3.467,3.467,0,0,0,0,2.2,2.653,2.653,0,0,0,.515.9,2.385,2.385,0,0,0,.833.6,2.771,2.771,0,0,0,1.126.219,2.632,2.632,0,0,0,1.078-.219,2.621,2.621,0,0,0,1.41-1.48,3.036,3.036,0,0,0,.2-1.115" transform="translate(-390.767 -127.96)" fill="#fff"/>
    <path id="Path_49210" data-name="Path 49210" d="M541.9,167.079v-4.29h1.016v3.873a5.039,5.039,0,0,0,.092,1.005,2.134,2.134,0,0,0,.306.771,1.45,1.45,0,0,0,.585.5,2.089,2.089,0,0,0,.917.179,1.978,1.978,0,0,0,.789-.164,1.942,1.942,0,0,0,.679-.5,2.488,2.488,0,0,0,.479-.855,3.759,3.759,0,0,0,.179-1.22v-3.588h1.023v5.459c0,.19.005.435.014.735s.025.568.044.807h-.973q-.029-.284-.047-.629t-.018-.57h-.03a2.317,2.317,0,0,1-.972,1,2.819,2.819,0,0,1-1.418.384,2.46,2.46,0,0,1-2-.8,3.162,3.162,0,0,1-.665-2.1" transform="translate(-428.247 -128.648)" fill="#fff"/>
    <path id="Path_49211" data-name="Path 49211" d="M581.234,165.6a3.945,3.945,0,0,1,.267-1.468,3.519,3.519,0,0,1,.746-1.166,3.454,3.454,0,0,1,1.125-.771,3.492,3.492,0,0,1,1.393-.277,3.574,3.574,0,0,1,1.454.277,2.988,2.988,0,0,1,1.045.749,3.283,3.283,0,0,1,.636,1.1,4.058,4.058,0,0,1,.218,1.345q0,.344-.014.483h-5.81a2.713,2.713,0,0,0,.208.983,2.471,2.471,0,0,0,.54.808,2.68,2.68,0,0,0,.811.548,2.45,2.45,0,0,0,1,.2,2.494,2.494,0,0,0,1.374-.369,2.779,2.779,0,0,0,.877-.844l.76.6a3.652,3.652,0,0,1-3.01,1.484,3.691,3.691,0,0,1-1.44-.278,3.431,3.431,0,0,1-1.146-.771,3.563,3.563,0,0,1-.757-1.169,3.863,3.863,0,0,1-.274-1.466m5.846-.54a2.524,2.524,0,0,0-.632-1.637,2.154,2.154,0,0,0-1.684-.65,2.348,2.348,0,0,0-.943.186,2.539,2.539,0,0,0-.763.508,2.493,2.493,0,0,0-.526.735,2.368,2.368,0,0,0-.223.859Z" transform="translate(-459.335 -127.96)" fill="#fff"/>
    <path id="Path_49212" data-name="Path 49212" d="M639.358,152.467a2.9,2.9,0,0,1,.19-1.078,2.984,2.984,0,0,1,.519-.859,3.823,3.823,0,0,1,.778-.679,6.3,6.3,0,0,1,.968-.526,6.736,6.736,0,0,1-.471-.526,4.9,4.9,0,0,1-.409-.588,3.237,3.237,0,0,1-.292-.651,2.245,2.245,0,0,1-.113-.7,2.584,2.584,0,0,1,.208-1.064,2.3,2.3,0,0,1,.57-.786,2.449,2.449,0,0,1,.84-.486,3.133,3.133,0,0,1,1.02-.164,3.054,3.054,0,0,1,.983.157,2.386,2.386,0,0,1,.815.464,2.229,2.229,0,0,1,.556.749,2.393,2.393,0,0,1,.2,1.012,2.124,2.124,0,0,1-.2.939,2.8,2.8,0,0,1-.541.756,4.22,4.22,0,0,1-.76.6q-.424.263-.877.489l2.471,2.544,1.468-2.573h1.214l-1.951,3.274,2.383,2.455h-1.5l-1.5-1.571a4.571,4.571,0,0,1-1.421,1.327,3.712,3.712,0,0,1-1.838.427,4.1,4.1,0,0,1-1.279-.2,3.229,3.229,0,0,1-1.056-.563,2.608,2.608,0,0,1-.712-.913,2.883,2.883,0,0,1-.263-1.264m5.854.482-2.8-2.938a4.06,4.06,0,0,0-1.45,1.027,2.169,2.169,0,0,0-.494,1.443,1.946,1.946,0,0,0,.172.826,1.841,1.841,0,0,0,.479.635,2.3,2.3,0,0,0,.713.413,2.422,2.422,0,0,0,.851.15,2.505,2.505,0,0,0,1.443-.391,4.147,4.147,0,0,0,1.086-1.166m-.541-6.212a1.444,1.444,0,0,0-1.491-1.5,1.531,1.531,0,0,0-1.608,1.63,1.61,1.61,0,0,0,.121.592,3.119,3.119,0,0,0,.3.578,4.344,4.344,0,0,0,.735.84q.357-.168.705-.369a3.407,3.407,0,0,0,.621-.456,2.162,2.162,0,0,0,.446-.585,1.557,1.557,0,0,0,.172-.731" transform="translate(-505.269 -114.08)" fill="#fff"/>
    <path id="Path_49213" data-name="Path 49213" d="M710.271,145.644h6.387v.957h-5.313v3.683h4.94v.943h-4.94v5.013h-1.074Z" transform="translate(-561.309 -115.099)" fill="#fff"/>
    <path id="Path_49214" data-name="Path 49214" d="M747.867,147.231a.665.665,0,0,1,.223-.515.707.707,0,0,1,.987,0,.707.707,0,0,1,0,1.031.707.707,0,0,1-.987,0,.665.665,0,0,1-.223-.516m.2,2.7h1.023v7h-1.023Z" transform="translate(-591.021 -115.787)" fill="#fff"/>
    <path id="Path_49215" data-name="Path 49215" d="M766.4,163.635c0-.185,0-.427-.015-.727s-.024-.569-.044-.807h.972q.029.277.044.624c.01.232.014.42.014.567h.037a2.246,2.246,0,0,1,.968-.994,2.859,2.859,0,0,1,1.421-.38,2.468,2.468,0,0,1,2,.793,3.14,3.14,0,0,1,.669,2.094v4.3h-1.023v-3.873a5.275,5.275,0,0,0-.087-1,2.105,2.105,0,0,0-.3-.771,1.454,1.454,0,0,0-.585-.5,2.12,2.12,0,0,0-.924-.178,1.956,1.956,0,0,0-.782.164,1.936,1.936,0,0,0-.68.5,2.484,2.484,0,0,0-.479.852,3.7,3.7,0,0,0-.179,1.217v3.6H766.4Z" transform="translate(-605.617 -127.96)" fill="#fff"/>
    <path id="Path_49216" data-name="Path 49216" d="M805.609,167.158a1.891,1.891,0,0,1,.409-1.283,2.444,2.444,0,0,1,1.1-.7,6.619,6.619,0,0,1,1.578-.3q.888-.07,1.845-.069v-.219a1.786,1.786,0,0,0-.479-1.363,1.96,1.96,0,0,0-1.393-.449,3,3,0,0,0-1.165.223,2.767,2.767,0,0,0-.91.6l-.57-.672a3.359,3.359,0,0,1,1.143-.716,4.306,4.306,0,0,1,1.611-.285,3.475,3.475,0,0,1,1.063.157,2.511,2.511,0,0,1,.866.471,2.171,2.171,0,0,1,.585.793,2.755,2.755,0,0,1,.212,1.122v3.069q0,.4.029.837a5.952,5.952,0,0,0,.088.734h-.914q-.044-.256-.073-.555t-.029-.585h-.029a2.959,2.959,0,0,1-1.089,1.015,3.421,3.421,0,0,1-2.291.194,2.314,2.314,0,0,1-.778-.369,2.078,2.078,0,0,1-.581-.658,1.957,1.957,0,0,1-.23-.986m4.933-1.038V165.6h-.292q-.629,0-1.268.051a5.493,5.493,0,0,0-1.155.208,2.176,2.176,0,0,0-.844.457,1.024,1.024,0,0,0-.329.8,1.255,1.255,0,0,0,.142.625,1.168,1.168,0,0,0,.38.409,1.624,1.624,0,0,0,.53.227,2.518,2.518,0,0,0,.592.069,2.348,2.348,0,0,0,.961-.186,2.032,2.032,0,0,0,.706-.508,2.208,2.208,0,0,0,.431-.742,2.7,2.7,0,0,0,.146-.888" transform="translate(-636.653 -127.96)" fill="#fff"/>
    <path id="Path_49217" data-name="Path 49217" d="M845.983,163.635q0-.277-.015-.727t-.044-.807h.972q.029.277.044.624c.01.232.014.42.014.567h.037a2.247,2.247,0,0,1,.968-.994,2.86,2.86,0,0,1,1.421-.38,2.468,2.468,0,0,1,2,.793,3.14,3.14,0,0,1,.669,2.094v4.3h-1.023v-3.873a5.29,5.29,0,0,0-.087-1,2.1,2.1,0,0,0-.3-.771,1.454,1.454,0,0,0-.585-.5,2.12,2.12,0,0,0-.924-.178,1.957,1.957,0,0,0-.782.164,1.937,1.937,0,0,0-.679.5,2.484,2.484,0,0,0-.479.852,3.7,3.7,0,0,0-.179,1.217v3.6h-1.023Z" transform="translate(-668.513 -127.96)" fill="#fff"/>
    <path id="Path_49218" data-name="Path 49218" d="M885.266,165.6a3.944,3.944,0,0,1,.267-1.468,3.39,3.39,0,0,1,1.933-1.937,4.082,4.082,0,0,1,1.542-.277,3.654,3.654,0,0,1,1.429.307,2.776,2.776,0,0,1,1.173.906l-.8.57a1.855,1.855,0,0,0-.735-.669,2.208,2.208,0,0,0-1.056-.259,2.738,2.738,0,0,0-1.107.215,2.5,2.5,0,0,0-.847.6,2.619,2.619,0,0,0-.541.9,3.248,3.248,0,0,0-.186,1.114,3.187,3.187,0,0,0,.186,1.107,2.654,2.654,0,0,0,.534.888,2.5,2.5,0,0,0,.84.6,2.7,2.7,0,0,0,1.107.219,2.326,2.326,0,0,0,1.136-.256,2.361,2.361,0,0,0,.764-.658l.76.57a3.243,3.243,0,0,1-2.66,1.213,4.07,4.07,0,0,1-1.542-.278,3.384,3.384,0,0,1-1.933-1.94,3.953,3.953,0,0,1-.267-1.466" transform="translate(-699.604 -127.96)" fill="#fff"/>
    <path id="Path_49219" data-name="Path 49219" d="M920.948,165.6a3.943,3.943,0,0,1,.267-1.468,3.522,3.522,0,0,1,.745-1.166,3.471,3.471,0,0,1,2.518-1.048,3.573,3.573,0,0,1,1.454.277,2.985,2.985,0,0,1,1.045.749,3.269,3.269,0,0,1,.636,1.1,4.058,4.058,0,0,1,.219,1.345q0,.344-.015.483h-5.809a2.72,2.72,0,0,0,.208.983,2.463,2.463,0,0,0,.541.808,2.678,2.678,0,0,0,.811.548,2.449,2.449,0,0,0,1,.2,2.492,2.492,0,0,0,1.374-.369,2.789,2.789,0,0,0,.877-.844l.76.6a3.654,3.654,0,0,1-3.011,1.484,3.691,3.691,0,0,1-1.44-.278,3.427,3.427,0,0,1-1.147-.771,3.566,3.566,0,0,1-.757-1.169,3.853,3.853,0,0,1-.274-1.466m5.846-.54a2.524,2.524,0,0,0-.632-1.637,2.154,2.154,0,0,0-1.684-.65,2.347,2.347,0,0,0-.943.186,2.532,2.532,0,0,0-.764.508,2.476,2.476,0,0,0-.526.735,2.358,2.358,0,0,0-.223.859Z" transform="translate(-727.802 -127.96)" fill="#fff"/>
    <path id="Path_49220" data-name="Path 49220" d="M113.38,39.122h-1.3L96.929,20.044h1.3Z" transform="translate(-76.601 -15.84)" fill="#fff"/>
    <path id="Path_49221" data-name="Path 49221" d="M95.708,15.708l-.643.962-.845,1.282-5.791,8.816-.4.673H83.241l.442-.673,3.781-5.738,5.63-8.624.443-.673.684-1.026.845-1.282L100.815.673,101.257,0H106l-.442.673-3.74,5.706L96.15,15Z" transform="translate(-65.783 0)" fill="#fff"/>
    <path id="Path_49222" data-name="Path 49222" d="M196.7,19.938v18.61h11.268v.468h-14.2V19.938Z" transform="translate(-153.13 -15.756)" fill="#fff"/>
    <path id="Path_49223" data-name="Path 49223" d="M275.369,39.122h-2.936V20.044h14.2v.468H275.369v7.845h8.724v.468h-8.724v9.829h11.268v.468Z" transform="translate(-215.297 -15.84)" fill="#fff"/>
    <path id="Path_49224" data-name="Path 49224" d="M356.082,32.7V30.474l-3.942-6.018-2.6-3.945-.308-.468h3.3l.308.468,3.243,4.926.755,1.159.587.892.476.713.307.468.475.758.336-.4.168-.245.476-.579,4.25-5.327,1.873-2.363.363-.468h.7l-.392.468-2.544,3.232-3.942,4.926-.783,1-.168.223v9.227h-2.936V32.7Z" transform="translate(-275.989 -15.84)" fill="#fff"/>
    <path id="Path_49225" data-name="Path 49225" d="M473.508,39.122h-.28V20.044h7.717c3.02,0,5.508,1.961,5.508,4.391a4.444,4.444,0,0,1-3.187,3.967,7.544,7.544,0,0,1,3.859,1.538,4.9,4.9,0,0,1,1.957,3.811c0,2.964-3.02,5.371-6.738,5.371Zm2.656-18.61v7.845H478.6a5.589,5.589,0,0,0,3.467-1.159,3.5,3.5,0,0,0,1.454-2.764c0-2.162-2.209-3.922-4.921-3.922Zm3.831,8.313h-3.831v9.829h3.831a7.132,7.132,0,0,0,4.361-1.426,4.444,4.444,0,0,0,1.79-3.477c0-2.719-2.74-4.926-6.151-4.926" transform="translate(-373.98 -15.84)" fill="#fff"/>
    <path id="Path_49226" data-name="Path 49226" d="M648.181,19.938h2.824l10.876,14.509V19.938h.587V39.016h-.587l-13.7-18.3v18.3h-.587V19.938Z" transform="translate(-511.777 -15.756)" fill="#fff"/>
    <path id="Path_49227" data-name="Path 49227" d="M744.365,27.2l2.237-1.649,5.508-4.079,1.454-1.07.643-.468h.839l-.615.468L752.11,22.1l-5.229,3.878,5.229,8.336,2.684,4.235.252.423v.045H751.8l-.307-.468-6.85-10.921L742.128,29.5v9.517h-2.936V19.938h2.936v8.915Z" transform="translate(-584.165 -15.756)" fill="#fff"/>
    <path id="Path_49228" data-name="Path 49228" d="M830.526,39.122H827.59V20.044h14.2v.468H830.526v7.845h8.724v.468h-8.724v9.829h11.268v.468Z" transform="translate(-654.024 -15.84)" fill="#fff"/>
    <path id="Path_49229" data-name="Path 49229" d="M923.334,38.972v.045h-3.271l-.28-.468L913.6,28.719H911.06v10.3h-2.936V19.938h7.717c3.02,0,5.508,1.961,5.508,4.39a4.444,4.444,0,0,1-3.187,3.967,6.424,6.424,0,0,1-1.342.357l3.579,5.661,2.656,4.235ZM916.176,27.6a3.417,3.417,0,0,0,.783-.513,3.5,3.5,0,0,0,1.454-2.764c0-2.162-2.209-3.923-4.921-3.923H911.06v7.845h2.433a5.909,5.909,0,0,0,2.684-.646" transform="translate(-717.668 -15.757)" fill="#fff"/>
    <path id="Path_49230" data-name="Path 49230" d="M1000.967,30.733l-4-1.181c-6.822-2.006-5.257-10.1,1.985-10.252h.364a14.142,14.142,0,0,1,4.278.669v.981a8.232,8.232,0,0,0-4.278-1.181h-.279c-5.256.178-6.291,6.062-1.342,7.511l3.886,1.137c6.822,1.983,5.313,10.1-1.929,10.275a1.706,1.706,0,0,1-.336.022,13.371,13.371,0,0,1-6.794-1.872V34.878l.056-.067a8.472,8.472,0,0,0,6.738,3.432c.112,0,.224-.022.308-.022,5.256-.178,6.263-6.062,1.342-7.489" transform="translate(-784.366 -15.252)" fill="#fff"/>
    <path id="Path_49231" data-name="Path 49231" d="M12.3,33.7H2.581L.514,39.121H0L7.291,20.043h2.936l7.263,19.078H14.341Zm-.2-.5L7.441,20.938,2.777,33.2Z" transform="translate(0 -15.839)" fill="#fff"/>
    <path id="Path_49232" data-name="Path 49232" d="M564.763,33.7h-9.72l-2.068,5.419h-.514l7.291-19.078h2.936l7.263,19.078H566.8Zm-.2-.5L559.9,20.938,555.237,33.2Z" transform="translate(-436.596 -15.839)" fill="#fff"/>
  </g>
</svg>
