<svg xmlns="http://www.w3.org/2000/svg" width="22.649" height="22.215" viewBox="0 0 22.649 22.215">
  <g id="_07_Buttons_10_Social_Buttons_Instagram_On_Black_" data-name="07 Buttons / 10 Social Buttons [Instagram] (On Black)" transform="translate(0.435)">
    <g id="Icon" transform="translate(0)">
      <g id="Rectangle" transform="translate(-0.434)" fill="#fff" stroke="#9a1a61" stroke-width="1" opacity="0">
        <rect width="21" height="20" stroke="none"/>
        <rect x="0.5" y="0.5" width="20" height="19" fill="none"/>
      </g>
      <path id="Instagram" d="M9.256,22.215c-1.412-.006-1.851-.026-2.729-.065a8.321,8.321,0,0,1-2.7-.516,5.713,5.713,0,0,1-3.25-3.252,8.321,8.321,0,0,1-.516-2.7C.014,14.522,0,14.136,0,11.247v-.279C0,8.076.014,7.7.065,6.525a8.392,8.392,0,0,1,.516-2.7A5.459,5.459,0,0,1,1.866,1.864,5.4,5.4,0,0,1,3.833.586,7.986,7.986,0,0,1,6.53.069C7.71.014,8.092,0,11.107,0s3.4.014,4.58.069a7.986,7.986,0,0,1,2.7.516,5.449,5.449,0,0,1,1.965,1.279,5.459,5.459,0,0,1,1.285,1.962,8.337,8.337,0,0,1,.516,2.7c.052,1.187.065,1.567.065,4.585s-.014,3.4-.065,4.575a8.269,8.269,0,0,1-.516,2.7,5.713,5.713,0,0,1-3.252,3.252,8.321,8.321,0,0,1-2.7.516c-.882.039-1.317.058-2.729.065ZM6.619,2.064a6.3,6.3,0,0,0-2.064.381,3.7,3.7,0,0,0-2.11,2.109,6.394,6.394,0,0,0-.38,2.065C2.013,7.793,2,8.145,2,11.107s.014,3.317.065,4.484a6.394,6.394,0,0,0,.38,2.065,3.526,3.526,0,0,0,.833,1.277,3.588,3.588,0,0,0,1.277.831,6.3,6.3,0,0,0,2.064.381c1.169.052,1.523.065,4.486.065s3.321-.014,4.491-.065a6.3,6.3,0,0,0,2.064-.381,3.588,3.588,0,0,0,1.277-.831,3.428,3.428,0,0,0,.827-1.277,6.171,6.171,0,0,0,.386-2.065c.052-1.168.065-1.523.065-4.484S20.2,7.79,20.151,6.616a6.171,6.171,0,0,0-.386-2.065,3.456,3.456,0,0,0-.827-1.276,3.563,3.563,0,0,0-1.277-.833A6.3,6.3,0,0,0,15.6,2.061C14.426,2.013,14.069,2,11.107,2S7.789,2.013,6.619,2.064ZM5.4,11.107a5.7,5.7,0,1,1,5.708,5.7,5.7,5.7,0,0,1-5.708-5.7Zm2.006,0a3.7,3.7,0,1,0,3.7-3.7,3.7,3.7,0,0,0-3.7,3.7Zm8.3-5.924A1.332,1.332,0,1,1,17.031,6.51,1.332,1.332,0,0,1,15.71,5.183Z" fill="#fff"/>
    </g>
  </g>
</svg>
