<svg xmlns="http://www.w3.org/2000/svg" width="736.817" height="875.84" viewBox="0 0 736.817 875.84">
  <g id="Group_4369" data-name="Group 4369" transform="translate(-277.989 -873.316)">
    <g id="Group_4367" data-name="Group 4367" transform="matrix(0.891, 0.454, -0.454, 0.891, 284.412, 737.34)" opacity="0.9">
      <g id="Group_4289" data-name="Group 4289" transform="translate(0 0)">
        <path id="Path_49272" data-name="Path 49272" d="M365,730.009c201.583,0,365-163.422,365-365S566.587,0,365,0" transform="translate(44.55 -22.7)" fill="none" stroke="#00b7e9" stroke-width="1" opacity="0.07"/>
        <path id="Path_49273" data-name="Path 49273" d="M263.284,526.568c145.405,0,263.277-117.879,263.277-263.284S408.689,0,263.284,0" transform="translate(101.685 101.685)" fill="none" stroke="#00b7e9" stroke-width="1" opacity="0.16"/>
        <path id="Path_49274" data-name="Path 49274" d="M173.387,346.773A173.387,173.387,0,0,0,173.387,0" transform="translate(192.12 192.12)" fill="none" stroke="#00b7e9" stroke-width="1" opacity="0.32"/>
        <g id="Group_4290" data-name="Group 4290">
          <path id="Path_49272-2" data-name="Path 49272" d="M365,730.009c201.583,0,365-163.422,365-365S566.587,0,365,0" transform="translate(0 0)" fill="none" stroke="#00b7e9" stroke-width="1" opacity="0.07"/>
          <path id="Path_49273-2" data-name="Path 49273" d="M263.284,526.568c145.405,0,263.277-117.879,263.277-263.284S408.689,0,263.284,0" transform="translate(101.685 101.685)" fill="none" stroke="#00b7e9" stroke-width="1" opacity="0.16"/>
          <path id="Path_49274-2" data-name="Path 49274" d="M173.387,346.773A173.387,173.387,0,0,0,173.387,0" transform="translate(192.12 192.12)" fill="none" stroke="#00b7e9" stroke-width="1" opacity="0.32"/>
        </g>
      </g>
    </g>
  </g>
</svg>
