<svg xmlns="http://www.w3.org/2000/svg" xmlns:xlink="http://www.w3.org/1999/xlink" width="120.876" height="52.481" viewBox="0 0 120.876 52.481">
  <defs>
    <clipPath id="clip-path">
      <path id="Path_48825" data-name="Path 48825" d="M28.476,29.379A10.524,10.524,0,0,1,13.994,39.72a10.422,10.422,0,0,0-8.877.409l-.053.029a9.586,9.586,0,0,0-3.454,3.1A8.209,8.209,0,0,0,12.344,55.242l12.894-6.912c5.771-3.342,7.914-8.027,6.676-13.631a34.374,34.374,0,0,0-2.5-5.583.478.478,0,0,0-.433-.27.5.5,0,0,0-.505.533" transform="translate(0 -28.846)" fill="#fff"/>
    </clipPath>
    <clipPath id="clip-path-2">
      <path id="Path_48826" data-name="Path 48826" d="M28.661,29.375A10.524,10.524,0,0,1,14.184,39.722a10.435,10.435,0,0,0-8.881.407l-.053.029a9.586,9.586,0,0,0-3.454,3.1l-.006.007a2.6,2.6,0,0,0-.442,1.617,7.143,7.143,0,0,0,1.818,4.387,7.57,7.57,0,0,0,9.585,1.588L24.68,44.459c5.338-3.093,7.321-7.426,6.177-12.611-.012-.054-.027-.111-.044-.172a4.113,4.113,0,0,0-.279-.712c-.3-.614-.62-1.242-.935-1.849a.478.478,0,0,0-.433-.27.5.5,0,0,0-.5.53" transform="translate(-1.343 -28.845)" fill="#fff"/>
    </clipPath>
    <clipPath id="clip-path-3">
      <path id="Path_48828" data-name="Path 48828" d="M28.649,0a9.009,9.009,0,0,0-4.243,1.12L11.51,8.034c-5.77,3.343-7.8,8.014-6.566,13.618a32.083,32.083,0,0,0,2.191,5.085A.5.5,0,0,0,8.08,26.5a10.528,10.528,0,0,1,14.9-10.066,9.786,9.786,0,0,0,8.71-.228,9.6,9.6,0,0,0,3.454-3.1,8.242,8.242,0,0,0-.373-10.272A8.123,8.123,0,0,0,28.675,0Z" transform="translate(-4.596)" fill="#fff"/>
    </clipPath>
    <clipPath id="clip-path-4">
      <path id="Path_48829" data-name="Path 48829" d="M24.452,5.951,12.523,12.346C7.183,15.437,5.2,19.771,6.345,24.955A12,12,0,0,0,7.08,26.9l.254.514a.5.5,0,0,0,.944-.253,10.528,10.528,0,0,1,14.9-10.052,9.786,9.786,0,0,0,8.71-.228,9.6,9.6,0,0,0,3.454-3.1l.006-.009a3.044,3.044,0,0,0,.505-1.915,7.133,7.133,0,0,0-1.811-4.323,7.513,7.513,0,0,0-5.648-2.624,8.329,8.329,0,0,0-3.937,1.037" transform="translate(-6.033 -4.914)" fill="#fff"/>
    </clipPath>
  </defs>
  <g id="Group_5448" data-name="Group 5448" transform="translate(-1944 -1002)">
    <g id="Group_4202" data-name="Group 4202" transform="translate(1944 1002)">
      <g id="Group_4200" data-name="Group 4200" transform="translate(0 24.963)">
        <g id="Group_4189" data-name="Group 4189" transform="translate(0 0.001)">
          <g id="Group_4188" data-name="Group 4188" transform="translate(0 0)" clip-path="url(#clip-path)">
            <rect id="Rectangle_1379" data-name="Rectangle 1379" width="43.188" height="40.948" transform="matrix(0.882, -0.471, 0.471, 0.882, -12.447, 6.293)" fill="#fff"/>
          </g>
        </g>
        <g id="Group_4191" data-name="Group 4191" transform="translate(1.158 0)">
          <g id="Group_4190" data-name="Group 4190" transform="translate(0)" clip-path="url(#clip-path-2)">
            <rect id="Rectangle_1380" data-name="Rectangle 1380" width="32.863" height="26.706" transform="translate(-2.34 0.226) rotate(-5.591)" fill="#fff"/>
          </g>
        </g>
      </g>
      <path id="Path_48827" data-name="Path 48827" d="M22.607,34.27a5.7,5.7,0,1,1,2.342-7.711,5.7,5.7,0,0,1-2.342,7.711" transform="translate(-1.957 -3.196)" fill="#fff"/>
      <g id="Group_4201" data-name="Group 4201" transform="translate(3.964)">
        <g id="Group_4195" data-name="Group 4195" transform="translate(0)">
          <g id="Group_4194" data-name="Group 4194" clip-path="url(#clip-path-3)">
            <rect id="Rectangle_1382" data-name="Rectangle 1382" width="43.111" height="41.249" transform="matrix(0.836, -0.549, 0.549, 0.836, -13.377, 8.201)" fill="#fff"/>
          </g>
        </g>
        <g id="Group_4197" data-name="Group 4197" transform="translate(1.239 4.238)">
          <g id="Group_4196" data-name="Group 4196" transform="translate(0 0)" clip-path="url(#clip-path-4)">
            <rect id="Rectangle_1383" data-name="Rectangle 1383" width="36.273" height="31.308" transform="matrix(0.952, -0.307, 0.307, 0.952, -7.556, 2.173)" fill="#fff"/>
          </g>
        </g>
      </g>
    </g>
    <g id="Group_4198" data-name="Group 4198" transform="translate(1988.712 1014.673)">
      <path id="Path_48830" data-name="Path 48830" d="M52.112,17.356a1.509,1.509,0,0,1,0-2.241,1.873,1.873,0,0,1,1.307-.451,1.939,1.939,0,0,1,1.307.428,1.382,1.382,0,0,1,.5,1.1,1.509,1.509,0,0,1-.5,1.159,2.105,2.105,0,0,1-2.614.008m-.172,1.385H54.9v8.435H51.941Z" transform="translate(-51.614 -14.663)" fill="#fff"/>
      <path id="Path_48831" data-name="Path 48831" d="M65.663,20.162a3.771,3.771,0,0,1,.957,2.817V27.8H63.663V23.461q0-1.727-1.385-1.727a1.582,1.582,0,0,0-1.221.5,2.136,2.136,0,0,0-.46,1.494V27.8H57.641V19.369h2.817v.918A3.358,3.358,0,0,1,61.64,19.5a4.02,4.02,0,0,1,1.495-.273,3.465,3.465,0,0,1,2.529.934" transform="translate(-52.443 -15.291)" fill="#fff"/>
      <path id="Path_48832" data-name="Path 48832" d="M72.065,27.383a4.23,4.23,0,0,1,0-7.6,5.528,5.528,0,0,1,2.505-.552,4.785,4.785,0,0,1,2.474.614,3.4,3.4,0,0,1,1.478,1.7l-2.287,1.168a1.815,1.815,0,0,0-1.681-1.137,1.77,1.77,0,0,0-1.315.53,1.993,1.993,0,0,0-.521,1.463,2.042,2.042,0,0,0,.521,1.486,1.757,1.757,0,0,0,1.315.537,1.814,1.814,0,0,0,1.681-1.136l2.287,1.167a3.4,3.4,0,0,1-1.478,1.7,4.786,4.786,0,0,1-2.474.615,5.464,5.464,0,0,1-2.505-.561" transform="translate(-54.106 -15.291)" fill="#fff"/>
      <path id="Path_48833" data-name="Path 48833" d="M89.607,24.332H83.475a1.713,1.713,0,0,0,.724,1,2.412,2.412,0,0,0,1.345.35,2.918,2.918,0,0,0,1.05-.171,3.11,3.11,0,0,0,.9-.561l1.556,1.619a4.583,4.583,0,0,1-3.595,1.37,5.738,5.738,0,0,1-2.6-.561,4.259,4.259,0,0,1-.094-7.595,5.316,5.316,0,0,1,4.669-.039,3.974,3.974,0,0,1,1.626,1.509,4.437,4.437,0,0,1,.6,2.342q0,.031-.047.731m-5.595-2.614a1.761,1.761,0,0,0-.584,1.058h3.455a1.757,1.757,0,0,0-.584-1.058,1.876,1.876,0,0,0-2.287,0" transform="translate(-55.588 -15.291)" fill="#fff"/>
      <path id="Path_48834" data-name="Path 48834" d="M100.723,20.162a3.771,3.771,0,0,1,.957,2.817V27.8H98.723V23.461q0-1.727-1.385-1.727a1.582,1.582,0,0,0-1.221.5,2.136,2.136,0,0,0-.46,1.494V27.8H92.7V19.369h2.817v.918A3.358,3.358,0,0,1,96.7,19.5a4.02,4.02,0,0,1,1.495-.273,3.465,3.465,0,0,1,2.529.934" transform="translate(-57.266 -15.291)" fill="#fff"/>
      <path id="Path_48835" data-name="Path 48835" d="M110.939,27.183a2.989,2.989,0,0,1-.911.358,5.063,5.063,0,0,1-1.144.124,3.632,3.632,0,0,1-2.536-.809,3.1,3.1,0,0,1-.887-2.412V21.611h-1.229V19.4h1.229V17.207h2.957V19.4h1.929v2.21h-1.929v2.8a.99.99,0,0,0,.241.708.84.84,0,0,0,.645.257,1.565,1.565,0,0,0,.9-.265Z" transform="translate(-58.852 -15.013)" fill="#fff"/>
      <path id="Path_48836" data-name="Path 48836" d="M113.445,17.356a1.511,1.511,0,0,1,0-2.241,1.875,1.875,0,0,1,1.307-.451,1.94,1.94,0,0,1,1.307.428,1.384,1.384,0,0,1,.5,1.1,1.512,1.512,0,0,1-.5,1.159,2.106,2.106,0,0,1-2.615.008m-.171,1.385h2.956v8.435h-2.956Z" transform="translate(-60.051 -14.663)" fill="#fff"/>
      <path id="Path_48837" data-name="Path 48837" d="M127.681,19.391l-3.486,8.435h-3.05l-3.47-8.435h3.035l2.023,5.151,2.132-5.151Z" transform="translate(-60.701 -15.313)" fill="#fff"/>
      <path id="Path_48838" data-name="Path 48838" d="M138.381,24.332h-6.132a1.713,1.713,0,0,0,.724,1,2.412,2.412,0,0,0,1.345.35,2.919,2.919,0,0,0,1.05-.171,3.11,3.11,0,0,0,.9-.561l1.556,1.619a4.583,4.583,0,0,1-3.595,1.37,5.738,5.738,0,0,1-2.6-.561,4.259,4.259,0,0,1-.094-7.595,5.316,5.316,0,0,1,4.669-.039,3.974,3.974,0,0,1,1.626,1.509,4.436,4.436,0,0,1,.6,2.342q0,.031-.047.731m-5.595-2.614a1.761,1.761,0,0,0-.584,1.058h3.455a1.757,1.757,0,0,0-.584-1.058,1.876,1.876,0,0,0-2.287,0" transform="translate(-62.297 -15.291)" fill="#fff"/>
    </g>
    <g id="Group_4199" data-name="Group 4199" transform="translate(1988.619 1032.506)">
      <path id="Path_48839" data-name="Path 48839" d="M53,44.225a4.05,4.05,0,0,1-1.49-.819l.477-1.007a3.94,3.94,0,0,0,1.323.755,4.873,4.873,0,0,0,1.658.29,2.988,2.988,0,0,0,1.677-.38A1.173,1.173,0,0,0,57.2,42.05a1,1,0,0,0-.3-.755,2.035,2.035,0,0,0-.749-.445q-.445-.155-1.258-.348a12.975,12.975,0,0,1-1.646-.491,2.713,2.713,0,0,1-1.071-.755,2.017,2.017,0,0,1-.445-1.375,2.322,2.322,0,0,1,.381-1.3,2.608,2.608,0,0,1,1.155-.929,4.671,4.671,0,0,1,1.922-.348,6.11,6.11,0,0,1,1.575.206,4.2,4.2,0,0,1,1.329.593l-.426,1.032a4.655,4.655,0,0,0-1.213-.548,4.52,4.52,0,0,0-1.265-.187,2.784,2.784,0,0,0-1.645.4,1.225,1.225,0,0,0-.549,1.032.986.986,0,0,0,.31.755,2.155,2.155,0,0,0,.768.452,12.206,12.206,0,0,0,1.245.342,12.494,12.494,0,0,1,1.639.491,2.756,2.756,0,0,1,1.064.748,1.974,1.974,0,0,1,.445,1.356,2.306,2.306,0,0,1-.387,1.3,2.585,2.585,0,0,1-1.174.93,4.866,4.866,0,0,1-1.936.342A6.168,6.168,0,0,1,53,44.225" transform="translate(-51.506 -35.301)" fill="#fff"/>
      <path id="Path_48840" data-name="Path 48840" d="M63.251,43.941a4.436,4.436,0,0,1-1.722-1.658,4.767,4.767,0,0,1,0-4.724A4.442,4.442,0,0,1,63.251,35.9a5.343,5.343,0,0,1,4.918,0,4.418,4.418,0,0,1,1.716,1.652,4.837,4.837,0,0,1,0,4.736,4.406,4.406,0,0,1-1.716,1.652,5.336,5.336,0,0,1-4.918,0m4.253-1A3.305,3.305,0,0,0,68.756,41.7a3.661,3.661,0,0,0,0-3.549A3.311,3.311,0,0,0,67.5,36.9a3.551,3.551,0,0,0-1.787-.452,3.621,3.621,0,0,0-1.8.452,3.291,3.291,0,0,0-1.264,1.245,3.667,3.667,0,0,0,0,3.549,3.285,3.285,0,0,0,1.264,1.245,3.621,3.621,0,0,0,1.8.452A3.551,3.551,0,0,0,67.5,42.94" transform="translate(-52.799 -35.301)" fill="#fff"/>
      <path id="Path_48841" data-name="Path 48841" d="M74.325,35.42h1.291v7.911h4.891v1.122H74.325Z" transform="translate(-54.645 -35.317)" fill="#fff"/>
      <path id="Path_48842" data-name="Path 48842" d="M83.951,43.524a4.079,4.079,0,0,1-1.006-2.968V35.42h1.29V40.5q0,2.9,2.542,2.9a2.447,2.447,0,0,0,1.9-.716,3.149,3.149,0,0,0,.658-2.188V35.42h1.251v5.137a4.077,4.077,0,0,1-1.006,2.975,4.361,4.361,0,0,1-5.627-.007" transform="translate(-55.831 -35.317)" fill="#fff"/>
      <path id="Path_48843" data-name="Path 48843" d="M96.262,36.543h-3.1V35.42h7.472v1.123h-3.1v7.911H96.262Z" transform="translate(-57.237 -35.317)" fill="#fff"/>
      <rect id="Rectangle_1384" data-name="Rectangle 1384" width="1.291" height="9.033" transform="translate(44.806 0.103)" fill="#fff"/>
      <path id="Path_48844" data-name="Path 48844" d="M109.593,43.941a4.436,4.436,0,0,1-1.722-1.658,4.768,4.768,0,0,1,0-4.724,4.442,4.442,0,0,1,1.722-1.658,5.343,5.343,0,0,1,4.918,0,4.418,4.418,0,0,1,1.716,1.652,4.837,4.837,0,0,1,0,4.736,4.406,4.406,0,0,1-1.716,1.652,5.336,5.336,0,0,1-4.918,0m4.253-1A3.3,3.3,0,0,0,115.1,41.7a3.661,3.661,0,0,0,0-3.549,3.311,3.311,0,0,0-1.251-1.245,3.551,3.551,0,0,0-1.787-.452,3.621,3.621,0,0,0-1.8.452,3.291,3.291,0,0,0-1.264,1.245,3.667,3.667,0,0,0,0,3.549,3.285,3.285,0,0,0,1.264,1.245,3.621,3.621,0,0,0,1.8.452,3.551,3.551,0,0,0,1.787-.452" transform="translate(-59.174 -35.301)" fill="#fff"/>
      <path id="Path_48845" data-name="Path 48845" d="M128.437,35.42v9.033h-1.058l-5.42-6.737v6.737h-1.29V35.42h1.058l5.42,6.737V35.42Z" transform="translate(-61.02 -35.317)" fill="#fff"/>
      <path id="Path_48846" data-name="Path 48846" d="M133.351,44.225a4.05,4.05,0,0,1-1.49-.819l.477-1.007a3.941,3.941,0,0,0,1.323.755,4.869,4.869,0,0,0,1.658.29,2.988,2.988,0,0,0,1.677-.38,1.173,1.173,0,0,0,.555-1.013,1,1,0,0,0-.3-.755,2.035,2.035,0,0,0-.749-.445q-.445-.155-1.258-.348a12.973,12.973,0,0,1-1.646-.491,2.713,2.713,0,0,1-1.071-.755,2.017,2.017,0,0,1-.445-1.375,2.322,2.322,0,0,1,.381-1.3,2.607,2.607,0,0,1,1.155-.929,4.671,4.671,0,0,1,1.922-.348,6.11,6.11,0,0,1,1.575.206,4.2,4.2,0,0,1,1.329.593l-.426,1.032a4.655,4.655,0,0,0-1.213-.548,4.52,4.52,0,0,0-1.265-.187,2.784,2.784,0,0,0-1.645.4,1.225,1.225,0,0,0-.549,1.032.987.987,0,0,0,.31.755,2.155,2.155,0,0,0,.768.452,12.208,12.208,0,0,0,1.245.342,12.492,12.492,0,0,1,1.64.491,2.756,2.756,0,0,1,1.064.748,1.974,1.974,0,0,1,.445,1.356,2.306,2.306,0,0,1-.387,1.3,2.586,2.586,0,0,1-1.174.93,4.866,4.866,0,0,1-1.936.342,6.168,6.168,0,0,1-1.968-.317" transform="translate(-62.56 -35.301)" fill="#fff"/>
    </g>
  </g>
</svg>
