<svg id="Group_5447" data-name="Group 5447" xmlns="http://www.w3.org/2000/svg" xmlns:xlink="http://www.w3.org/1999/xlink" width="334.621" height="507.568" viewBox="0 0 334.621 507.568">
  <defs>
    <clipPath id="clip-path">
      <rect id="Rectangle_1920" data-name="Rectangle 1920" width="334.621" height="507.568" fill="none"/>
    </clipPath>
  </defs>
  <g id="Group_5446" data-name="Group 5446" clip-path="url(#clip-path)">
    <path id="Path_49919" data-name="Path 49919" d="M47.946,9.991l-8.192,8.192.032.033A17.953,17.953,0,0,1,50.28,28.71l.013.013,8.193-8.192Z" fill="#00ade1"/>
    <path id="Path_49920" data-name="Path 49920" d="M17.687,61.333l8.632-8.63c-.018-.038-.04-.074-.059-.113l-4.763-5.9a21.579,21.579,0,0,1-4.569-5.653l-.014-.017L7.146,50.792Z" fill="#00ade1"/>
    <path id="Path_49921" data-name="Path 49921" d="M64.009,51.846h2.166V45.523H64.009a2.067,2.067,0,0,1-1.452-3.5l1.534-1.535L59.618,36.01l-1.536,1.535a2.009,2.009,0,0,1-2.151.462l-.1-.049a2.01,2.01,0,0,1-1.245-1.864V33.925H51.367c.02.351.052.7.052,1.054a12.842,12.842,0,0,1-2.526,7.963l.087-.1a6.319,6.319,0,1,1-3.6,3.952c-2.182,2.128-4.358,4.262-5.375,7.555l-.044-.021a2.091,2.091,0,0,1-.192,3.575l3.449,3.449,1.536-1.535a2,2,0,0,1,2.15-.461l.106.046a2.016,2.016,0,0,1,1.245,1.867v2.166h6.323V61.273a2.066,2.066,0,0,1,3.5-1.452l1.535,1.535,4.474-4.473-1.534-1.535a2.041,2.041,0,0,1-.414-2.257,2.013,2.013,0,0,1,1.865-1.247" fill="#00ade1"/>
    <path id="Path_49922" data-name="Path 49922" d="M39.96,54.333a2.145,2.145,0,0,0-.624-.292Z" fill="#f3b25c"/>
    <path id="Path_49923" data-name="Path 49923" d="M66.174,10.811A8.506,8.506,0,0,0,51.651,4.8L39.465,16.981a18.747,18.747,0,0,0-4.972-.929,8.389,8.389,0,0,0-9.633-3.933A10.521,10.521,0,0,0,5.316,19.44,6.323,6.323,0,0,0,7.145,31.817h7.647a19.045,19.045,0,0,0-.268,3.162A14.476,14.476,0,0,0,15.645,40.8l-9.4,9.405L1.012,63.81A2.831,2.831,0,0,0,4.67,67.468l13.6-5.232,6.876-6.877a3.082,3.082,0,0,0,.738,2.811,3.134,3.134,0,0,0,1.538,5.154,6.421,6.421,0,0,0,12.144,0,3.135,3.135,0,0,0,1.539-5.154,3.1,3.1,0,0,0,.114-4.078A13.593,13.593,0,0,1,44.1,49.6a7.377,7.377,0,1,0,7.316-8.294c-.106,0-.2.01-.306.015a14.268,14.268,0,0,0,1.36-6.339,18.671,18.671,0,0,0-.987-5.955l12.2-12.2a8.454,8.454,0,0,0,2.492-6.017M2.929,25.493a4.215,4.215,0,1,1,8.43,0h2.108a6.328,6.328,0,0,0-6.052-6.311A8.424,8.424,0,0,1,22.924,12.95,8.443,8.443,0,0,0,18.792,19.3a4.215,4.215,0,0,0-3.214,4.084h2.108a2.107,2.107,0,1,1,4.215,0h2.108a4.209,4.209,0,0,0-3.094-4.046,6.317,6.317,0,1,1,12.528,1.628,6.471,6.471,0,0,1-.179.882,5.26,5.26,0,0,0-2.931,4.7h2.108A3.161,3.161,0,1,1,35.6,29.708H7.145A4.22,4.22,0,0,1,2.93,25.493m25.3,6.323v3.161a3.166,3.166,0,0,0,3.161,3.162H39.82a1.054,1.054,0,0,1,0,2.108H29.281a3.161,3.161,0,0,0,0,6.322h2.108a1.054,1.054,0,0,1,1.054,1.054v5.269H28.227a3.123,3.123,0,0,0-.624.063C26.4,50,24.331,47.966,22.318,46c-2.924-2.852-5.686-5.545-5.686-11.03a16.942,16.942,0,0,1,.325-3.161Zm11.6,24.244a1.054,1.054,0,0,1-1.054,1.054H28.227a1.054,1.054,0,1,1,0-2.108H38.768a1.054,1.054,0,0,1,1.054,1.054M3.913,65.5a.725.725,0,0,1-.937-.935L4.03,61.818l2.625,2.625ZM17.1,60.429,8.811,63.616,4.859,59.664l3.188-8.287,8.63-8.629a23.627,23.627,0,0,0,3.471,4.089l-8.477,8.479,1.491,1.491,8.494-8.494a19.14,19.14,0,0,1,3.388,4.171Zm16.4,5.119a4.329,4.329,0,0,1-3.715-2.107h7.43A4.331,4.331,0,0,1,33.5,65.548Zm5.269-4.215H28.227a1.054,1.054,0,0,1,0-2.108H38.768a1.054,1.054,0,0,1,0,2.108m.624-8.369a3.123,3.123,0,0,0-.624-.063H34.552V47.632a3.166,3.166,0,0,0-3.161-3.162H29.283a1.054,1.054,0,1,1,0-2.107H39.824a3.161,3.161,0,1,0,0-6.323h-8.43a1.054,1.054,0,0,1-1.054-1.054V31.824h5.269a5.269,5.269,0,0,0,0-10.538c-.03,0-.057.008-.087.008a8.22,8.22,0,0,0,.087-1.062,8.471,8.471,0,0,0-.249-2A16.955,16.955,0,0,1,50.366,34.989c0,5.485-2.761,8.178-5.685,11.03-2.014,1.964-4.082,3.994-5.286,6.955m12.025-9.55a5.319,5.319,0,1,1-5.085,3.927,31.439,31.439,0,0,0,3.3-3.6,5.2,5.2,0,0,1,1.788-.332M47.6,22.382,53.961,16l-1.49-1.491L46.11,20.877a19.112,19.112,0,0,0-4.532-3.026l8.784-8.787,9.051,9.051-8.792,8.792A19.129,19.129,0,0,0,47.6,22.37Zm13.306-5.747L51.853,7.573l1.288-1.288a6.4,6.4,0,1,1,9.051,9.051Z" fill="#fff"/>
    <path id="Path_49924" data-name="Path 49924" d="M90.3,34.981a3.85,3.85,0,1,1-3.85-3.85,3.85,3.85,0,0,1,3.85,3.85" fill="#00ade1"/>
    <path id="Path_49925" data-name="Path 49925" d="M86.45,39.421a4.444,4.444,0,1,1,4.443-4.443,4.443,4.443,0,0,1-4.443,4.443m0-7.7a3.257,3.257,0,1,0,3.256,3.256,3.256,3.256,0,0,0-3.256-3.256" fill="#00ade1"/>
    <path id="Path_49926" data-name="Path 49926" d="M90.3,34.98H275.126a58.141,58.141,0,0,1,58.14,58.142v.3a58.119,58.119,0,0,1-58.14,57.841H116.6" fill="none" stroke="#00b7e9" stroke-miterlimit="10" stroke-width="1.6"/>
    <path id="Path_49927" data-name="Path 49927" d="M27.339,174.557h0a23.239,23.239,0,0,1,23.243-23.239l19.621,0H107.43" fill="none" stroke="#00b7e9" stroke-linecap="round" stroke-miterlimit="10" stroke-width="1.6"/>
    <path id="Path_49928" data-name="Path 49928" d="M27.339,341.059v7.867a23.239,23.239,0,0,0,23.239,23.239H296.633a37.119,37.119,0,0,0-.008-74.238H269.84" fill="none" stroke="#00b7e9" stroke-linecap="round" stroke-miterlimit="10" stroke-width="1.6"/>
    <path id="Path_49929" data-name="Path 49929" d="M81.951,250.459H285.943a47.8,47.8,0,0,1,47.8,47.809v36.778" fill="none" stroke="#00b7e9" stroke-linecap="round" stroke-miterlimit="10" stroke-width="1.6"/>
    <path id="Path_49930" data-name="Path 49930" d="M145.056,472.077H299.083a31.662,31.662,0,0,0,31.662-31.662V396" fill="none" stroke="#00b7e9" stroke-linecap="round" stroke-miterlimit="10" stroke-width="1.6"/>
    <path id="Path_49931" data-name="Path 49931" d="M208.754,62.286l-2.235,5.164h-1.18l-2.228-5.164H204.4l1.571,3.688,1.593-3.688Z" fill="#fff"/>
    <path id="Path_49932" data-name="Path 49932" d="M209.241,62.743a.625.625,0,0,1,0-.915.726.726,0,0,1,.516-.184.747.747,0,0,1,.516.177.569.569,0,0,1,.2.443.624.624,0,0,1-.2.475.718.718,0,0,1-.516.189.727.727,0,0,1-.516-.185m-.059.738h1.151V67.45h-1.151Z" fill="#fff"/>
    <path id="Path_49933" data-name="Path 49933" d="M211.771,67.387a2.522,2.522,0,0,1-.753-.306l.384-.826a2.406,2.406,0,0,0,.642.276,2.662,2.662,0,0,0,.738.107c.486,0,.73-.12.73-.361a.258.258,0,0,0-.2-.244,3.011,3.011,0,0,0-.613-.125,5.9,5.9,0,0,1-.8-.17,1.246,1.246,0,0,1-.55-.339.967.967,0,0,1-.232-.693,1.087,1.087,0,0,1,.218-.668,1.4,1.4,0,0,1,.635-.454,2.705,2.705,0,0,1,.984-.162,3.9,3.9,0,0,1,.838.092,2.365,2.365,0,0,1,.689.255l-.383.819a2.293,2.293,0,0,0-1.144-.3,1.159,1.159,0,0,0-.553.1.3.3,0,0,0-.184.265.265.265,0,0,0,.2.259,3.591,3.591,0,0,0,.634.14,6.886,6.886,0,0,1,.8.173,1.19,1.19,0,0,1,.538.336.948.948,0,0,1,.229.678,1.052,1.052,0,0,1-.221.657,1.416,1.416,0,0,1-.646.446,2.868,2.868,0,0,1-1.007.159,3.858,3.858,0,0,1-.966-.122" fill="#fff"/>
    <path id="Path_49934" data-name="Path 49934" d="M215.378,62.743a.625.625,0,0,1,0-.915.73.73,0,0,1,.517-.184.75.75,0,0,1,.516.177.571.571,0,0,1,.2.443.626.626,0,0,1-.2.475.721.721,0,0,1-.516.189.731.731,0,0,1-.517-.185m-.059.738h1.151V67.45h-1.151Z" fill="#fff"/>
    <path id="Path_49935" data-name="Path 49935" d="M218.3,67.246a1.945,1.945,0,0,1-.778-.725,2.129,2.129,0,0,1,0-2.111,1.94,1.94,0,0,1,.778-.726,2.549,2.549,0,0,1,2.247,0,1.949,1.949,0,0,1,.774.726,2.123,2.123,0,0,1,0,2.111,1.953,1.953,0,0,1-.774.725,2.531,2.531,0,0,1-2.247,0m1.852-.98a1.272,1.272,0,0,0,0-1.6.962.962,0,0,0-.727-.3.973.973,0,0,0-.73.3,1.258,1.258,0,0,0,0,1.6.971.971,0,0,0,.73.3.96.96,0,0,0,.727-.3" fill="#fff"/>
    <path id="Path_49936" data-name="Path 49936" d="M225.975,63.865a1.757,1.757,0,0,1,.453,1.313V67.45h-1.15V65.355a1.036,1.036,0,0,0-.207-.705.756.756,0,0,0-.6-.232.917.917,0,0,0-.694.269,1.116,1.116,0,0,0-.258.8V67.45h-1.151V63.481h1.1v.465a1.523,1.523,0,0,1,.567-.387,1.983,1.983,0,0,1,.745-.137,1.636,1.636,0,0,1,1.192.443" fill="#fff"/>
    <path id="Path_49937" data-name="Path 49937" d="M233.063,62.515a1.769,1.769,0,0,1,.778.649,1.94,1.94,0,0,1,0,1.988,1.73,1.73,0,0,1-.778.649,2.89,2.89,0,0,1-1.191.225h-1.04V67.45h-1.2V62.286h2.236a2.857,2.857,0,0,1,1.191.229m-.439,2.305a.809.809,0,0,0,.28-.66.818.818,0,0,0-.28-.668,1.259,1.259,0,0,0-.819-.232h-.973v1.793h.973a1.253,1.253,0,0,0,.819-.233" fill="#fff"/>
    <path id="Path_49938" data-name="Path 49938" d="M236.538,63.569a2.076,2.076,0,0,1,.808-.147v1.062q-.192-.015-.258-.015a1.053,1.053,0,0,0-.775.277,1.117,1.117,0,0,0-.28.83v1.873h-1.151V63.48h1.1V64a1.282,1.282,0,0,1,.557-.435" fill="#fff"/>
    <path id="Path_49939" data-name="Path 49939" d="M238.758,67.246a1.945,1.945,0,0,1-.778-.725,2.129,2.129,0,0,1,0-2.111,1.94,1.94,0,0,1,.778-.726,2.549,2.549,0,0,1,2.247,0,1.949,1.949,0,0,1,.774.726,2.123,2.123,0,0,1,0,2.111,1.953,1.953,0,0,1-.774.725,2.531,2.531,0,0,1-2.247,0m1.852-.98a1.272,1.272,0,0,0,0-1.6.962.962,0,0,0-.727-.3.973.973,0,0,0-.73.3,1.258,1.258,0,0,0,0,1.6.971.971,0,0,0,.73.3.96.96,0,0,0,.727-.3" fill="#fff"/>
    <path id="Path_49940" data-name="Path 49940" d="M246.869,61.977v5.472h-1.1v-.457a1.515,1.515,0,0,1-1.239.517,2.078,2.078,0,0,1-1.015-.251,1.792,1.792,0,0,1-.711-.715,2.371,2.371,0,0,1,0-2.155,1.792,1.792,0,0,1,.711-.715,2.055,2.055,0,0,1,1.015-.25,1.513,1.513,0,0,1,1.188.478V61.977Zm-1.416,4.289a1.258,1.258,0,0,0,0-1.6,1.037,1.037,0,0,0-1.453,0,1.258,1.258,0,0,0,0,1.6,1.032,1.032,0,0,0,1.453,0" fill="#fff"/>
    <path id="Path_49941" data-name="Path 49941" d="M251.93,63.481V67.45h-1.092v-.473a1.5,1.5,0,0,1-.546.4,1.715,1.715,0,0,1-.686.137,1.69,1.69,0,0,1-1.239-.45,1.794,1.794,0,0,1-.458-1.336V63.481h1.151v2.073q0,.958.8.959a.865.865,0,0,0,.664-.269,1.132,1.132,0,0,0,.251-.8V63.481Z" fill="#fff"/>
    <path id="Path_49942" data-name="Path 49942" d="M253.058,62.743a.625.625,0,0,1,0-.915.73.73,0,0,1,.516-.184.749.749,0,0,1,.517.177.568.568,0,0,1,.2.443.623.623,0,0,1-.2.475.721.721,0,0,1-.517.189.73.73,0,0,1-.516-.185m-.059.738h1.151V67.45H253Z" fill="#fff"/>
    <path id="Path_49943" data-name="Path 49943" d="M257.779,67.258a1.16,1.16,0,0,1-.417.188,2.1,2.1,0,0,1-.52.063,1.544,1.544,0,0,1-1.1-.362,1.381,1.381,0,0,1-.387-1.062v-1.63h-.612V63.57h.612V62.6h1.151v.967h.989v.885h-.989V66.07a.543.543,0,0,0,.129.388.478.478,0,0,0,.365.136.742.742,0,0,0,.465-.147Z" fill="#fff"/>
    <path id="Path_49944" data-name="Path 49944" d="M195.224,15.577h75.709a6.059,6.059,0,0,1,6.059,6.059V48.324a6.059,6.059,0,0,1-6.059,6.059H195.224a6.06,6.06,0,0,1-6.06-6.059V21.636a6.06,6.06,0,0,1,6.06-6.059" fill="#171717"/>
    <path id="Path_49945" data-name="Path 49945" d="M272.441,16.17a3.959,3.959,0,0,1,3.959,3.957v29.7a3.958,3.958,0,0,1-3.958,3.958H193.715a3.958,3.958,0,0,1-3.957-3.958v-29.7a3.958,3.958,0,0,1,3.957-3.958Zm0-1.187H193.715a5.15,5.15,0,0,0-5.144,5.145v29.7a5.149,5.149,0,0,0,5.144,5.145h78.726a5.15,5.15,0,0,0,5.145-5.145v-29.7a5.151,5.151,0,0,0-5.145-5.145" fill="#fff"/>
    <path id="Path_49946" data-name="Path 49946" d="M229.348,32.44a2.7,2.7,0,0,1-.7-2V27.137h1.366v3.254q0,1.585,1.315,1.585a1.237,1.237,0,0,0,.978-.383,1.8,1.8,0,0,0,.337-1.2V27.137h1.349v3.305a2.791,2.791,0,0,1-4.641,2" fill="#fff"/>
    <path id="Path_49947" data-name="Path 49947" d="M235.923,32.95a3.182,3.182,0,0,1-1.049-.493l.463-1.029a3.129,3.129,0,0,0,.9.447,3.375,3.375,0,0,0,1.046.169,1.669,1.669,0,0,0,.859-.173.523.523,0,0,0,.279-.46.437.437,0,0,0-.165-.349,1.234,1.234,0,0,0-.421-.224c-.172-.056-.4-.118-.7-.186a9.472,9.472,0,0,1-1.1-.32,1.794,1.794,0,0,1-.738-.514,1.39,1.39,0,0,1-.308-.944,1.642,1.642,0,0,1,.279-.932,1.868,1.868,0,0,1,.839-.661,3.4,3.4,0,0,1,1.37-.245,4.534,4.534,0,0,1,1.1.135,3.29,3.29,0,0,1,.944.387l-.421,1.038a3.286,3.286,0,0,0-1.636-.464,1.537,1.537,0,0,0-.847.185.566.566,0,0,0-.274.489.478.478,0,0,0,.316.451,4.876,4.876,0,0,0,.965.291,9.614,9.614,0,0,1,1.1.321,1.817,1.817,0,0,1,.737.506,1.35,1.35,0,0,1,.308.935,1.61,1.61,0,0,1-.282.923,1.9,1.9,0,0,1-.848.662,3.449,3.449,0,0,1-1.374.245,4.813,4.813,0,0,1-1.353-.19" fill="#fff"/>
    <path id="Path_49948" data-name="Path 49948" d="M245.285,31.943v1.1h-4.569v-5.9h4.459v1.1h-3.1v1.281h2.74v1.062h-2.74v1.366Z" fill="#fff"/>
    <path id="Path_49949" data-name="Path 49949" d="M250.133,33.039,248.995,31.4h-1.256v1.644h-1.365v-5.9h2.554a3.275,3.275,0,0,1,1.361.262,2.019,2.019,0,0,1,.89.742,2.043,2.043,0,0,1,.312,1.138,1.925,1.925,0,0,1-1.214,1.863l1.324,1.9Zm-.345-4.523a1.436,1.436,0,0,0-.936-.266h-1.113v2.058h1.113a1.42,1.42,0,0,0,.936-.27,1.065,1.065,0,0,0,0-1.522" fill="#fff"/>
    <path id="Path_49950" data-name="Path 49950" d="M229.28,43.223a3.181,3.181,0,0,1-1.049-.493l.463-1.029a3.13,3.13,0,0,0,.9.447,3.375,3.375,0,0,0,1.046.169,1.669,1.669,0,0,0,.859-.173.523.523,0,0,0,.279-.46.437.437,0,0,0-.165-.349,1.234,1.234,0,0,0-.421-.224q-.258-.084-.7-.186a9.414,9.414,0,0,1-1.1-.32,1.794,1.794,0,0,1-.738-.514,1.39,1.39,0,0,1-.308-.944,1.642,1.642,0,0,1,.279-.932,1.868,1.868,0,0,1,.839-.661,3.4,3.4,0,0,1,1.37-.245,4.535,4.535,0,0,1,1.1.135,3.29,3.29,0,0,1,.944.387l-.421,1.038a3.286,3.286,0,0,0-1.636-.464,1.537,1.537,0,0,0-.847.185.566.566,0,0,0-.274.489.478.478,0,0,0,.316.451,4.875,4.875,0,0,0,.965.291,9.615,9.615,0,0,1,1.1.321,1.817,1.817,0,0,1,.737.506,1.35,1.35,0,0,1,.308.935,1.61,1.61,0,0,1-.282.923,1.9,1.9,0,0,1-.848.662,3.449,3.449,0,0,1-1.374.245,4.813,4.813,0,0,1-1.353-.19" fill="#fff"/>
    <path id="Path_49951" data-name="Path 49951" d="M235.219,38.523h-1.888V37.41h5.142v1.113h-1.888v4.789h-1.366Z" fill="#fff"/>
    <path id="Path_49952" data-name="Path 49952" d="M240.324,43.017a2.949,2.949,0,0,1-1.155-1.092,3.141,3.141,0,0,1,0-3.128,2.935,2.935,0,0,1,1.155-1.092,3.654,3.654,0,0,1,3.309,0,3.011,3.011,0,0,1,0,5.312,3.654,3.654,0,0,1-3.309,0m2.6-1.008a1.733,1.733,0,0,0,.662-.67,2.113,2.113,0,0,0,0-1.956,1.72,1.72,0,0,0-.662-.67,1.969,1.969,0,0,0-1.888,0,1.713,1.713,0,0,0-.662.67,2.113,2.113,0,0,0,0,1.956,1.726,1.726,0,0,0,.662.67,1.977,1.977,0,0,0,1.888,0" fill="#fff"/>
    <path id="Path_49953" data-name="Path 49953" d="M250,43.311l-1.138-1.644H247.6v1.644h-1.366v-5.9h2.554a3.28,3.28,0,0,1,1.362.262,2.025,2.025,0,0,1,.89.742,2.051,2.051,0,0,1,.311,1.138,1.921,1.921,0,0,1-1.214,1.863l1.324,1.9Zm-.346-4.523a1.436,1.436,0,0,0-.936-.266H247.6V40.58h1.112a1.42,1.42,0,0,0,.936-.27,1.063,1.063,0,0,0,0-1.522" fill="#fff"/>
    <rect id="Rectangle_1912" data-name="Rectangle 1912" width="1.366" height="5.902" transform="translate(252.434 37.41)" fill="#fff"/>
    <path id="Path_49954" data-name="Path 49954" d="M259.769,42.215v1.1H255.2v-5.9h4.46v1.1h-3.1v1.281h2.74v1.062h-2.74v1.366Z" fill="#fff"/>
    <path id="Path_49955" data-name="Path 49955" d="M261.442,43.223a3.191,3.191,0,0,1-1.049-.493l.463-1.029a3.13,3.13,0,0,0,.9.447,3.375,3.375,0,0,0,1.046.169,1.667,1.667,0,0,0,.859-.173.523.523,0,0,0,.279-.46.439.439,0,0,0-.164-.349,1.24,1.24,0,0,0-.422-.224c-.172-.056-.4-.118-.7-.186a9.47,9.47,0,0,1-1.1-.32,1.794,1.794,0,0,1-.738-.514,1.389,1.389,0,0,1-.307-.944,1.641,1.641,0,0,1,.278-.932,1.868,1.868,0,0,1,.839-.661,3.4,3.4,0,0,1,1.37-.245,4.535,4.535,0,0,1,1.1.135,3.29,3.29,0,0,1,.944.387l-.421,1.038a3.284,3.284,0,0,0-1.636-.464,1.537,1.537,0,0,0-.847.185.566.566,0,0,0-.274.489.479.479,0,0,0,.316.451,4.9,4.9,0,0,0,.965.291,9.613,9.613,0,0,1,1.105.321,1.817,1.817,0,0,1,.737.506,1.35,1.35,0,0,1,.308.935,1.611,1.611,0,0,1-.282.923,1.9,1.9,0,0,1-.847.662,3.458,3.458,0,0,1-1.375.245,4.813,4.813,0,0,1-1.353-.19" fill="#fff"/>
    <path id="Path_49956" data-name="Path 49956" d="M210.545,33.325a.385.385,0,0,0,.517.168,32.989,32.989,0,0,1,3.4-1.513.385.385,0,0,0-.232-.734,32.945,32.945,0,0,0-3.517,1.562.383.383,0,0,0-.168.516" fill="#00ade1"/>
    <path id="Path_49957" data-name="Path 49957" d="M210.888,28.923a.391.391,0,0,0,.174-.042,32.972,32.972,0,0,1,3.4-1.513.384.384,0,1,0-.232-.733,33.14,33.14,0,0,0-3.517,1.561.384.384,0,0,0,.175.727" fill="#00ade1"/>
    <path id="Path_49958" data-name="Path 49958" d="M220.11,28.155a.384.384,0,0,0-.384.384V43.525a1.155,1.155,0,0,1-1.153,1.153h-9.221v-.884a11.313,11.313,0,0,1,3.459-.653,19.8,19.8,0,0,1,5.64.749.385.385,0,0,0,.5-.364V26.617a.382.382,0,0,0-.3-.374s-.3-.068-.816-.162a.384.384,0,1,0-.139.756c.2.036.361.068.487.093V43.017a21.668,21.668,0,0,0-5.379-.642,12.1,12.1,0,0,0-3.828.737,9,9,0,0,0-3.473-.737,25.866,25.866,0,0,0-5.762.656V26.915a25.316,25.316,0,0,1,5.764-.682,8.318,8.318,0,0,1,3.074.633V41.988a.385.385,0,0,0,.386.383.381.381,0,0,0,.194-.054,44.032,44.032,0,0,1,7.224-3.425.383.383,0,0,0,.264-.364V22.773a.386.386,0,0,0-.52-.36,40.906,40.906,0,0,0-6.216,3.111.384.384,0,0,0,.408.651,40.909,40.909,0,0,1,5.56-2.838V38.255a43.015,43.015,0,0,0-6.534,3.066V26.62a.385.385,0,0,0-.211-.344,8.908,8.908,0,0,0-3.63-.809,24.934,24.934,0,0,0-6.254.784.383.383,0,0,0-.279.369V43.525a.384.384,0,0,0,.386.383.394.394,0,0,0,.1-.014,24.679,24.679,0,0,1,6.043-.754,8.3,8.3,0,0,1,3.074.632v.9H199.36a1.155,1.155,0,0,1-1.153-1.153V28.539a.384.384,0,0,0-.769,0V43.525a1.925,1.925,0,0,0,1.922,1.922h19.213a1.924,1.924,0,0,0,1.922-1.922V28.539a.384.384,0,0,0-.384-.384" fill="#fff"/>
    <path id="Path_49959" data-name="Path 49959" d="M210.545,31.019a.385.385,0,0,0,.517.168,32.99,32.99,0,0,1,3.4-1.513.385.385,0,0,0-.232-.734,32.944,32.944,0,0,0-3.517,1.562.383.383,0,0,0-.168.516" fill="#00ade1"/>
    <path id="Path_49960" data-name="Path 49960" d="M210.545,35.63a.385.385,0,0,0,.517.168,32.989,32.989,0,0,1,3.4-1.513.384.384,0,0,0-.232-.733,32.738,32.738,0,0,0-3.517,1.561.384.384,0,0,0-.168.517" fill="#00ade1"/>
    <path id="Path_49961" data-name="Path 49961" d="M206.748,29.521a12.2,12.2,0,0,0-5.183.183.384.384,0,0,0,.1.755.371.371,0,0,0,.1-.013,11.588,11.588,0,0,1,4.809-.177.384.384,0,0,0,.175-.748" fill="#00ade1"/>
    <path id="Path_49962" data-name="Path 49962" d="M206.748,31.827a12.2,12.2,0,0,0-5.183.183.384.384,0,0,0,.1.755.371.371,0,0,0,.1-.013,11.588,11.588,0,0,1,4.809-.177.384.384,0,0,0,.175-.748" fill="#00ade1"/>
    <path id="Path_49963" data-name="Path 49963" d="M210.545,37.936a.385.385,0,0,0,.517.168,32.989,32.989,0,0,1,3.4-1.513.385.385,0,0,0-.232-.734,32.945,32.945,0,0,0-3.517,1.562.383.383,0,0,0-.168.516" fill="#00ade1"/>
    <path id="Path_49964" data-name="Path 49964" d="M206.748,34.133a12.2,12.2,0,0,0-5.183.183.385.385,0,0,0,.1.756.372.372,0,0,0,.1-.014,11.588,11.588,0,0,1,4.809-.177.384.384,0,0,0,.175-.748" fill="#00ade1"/>
    <path id="Path_49965" data-name="Path 49965" d="M206.748,38.744a12.2,12.2,0,0,0-5.183.183.385.385,0,0,0,.1.756.372.372,0,0,0,.1-.014,11.588,11.588,0,0,1,4.809-.177.384.384,0,0,0,.175-.748" fill="#00ade1"/>
    <path id="Path_49966" data-name="Path 49966" d="M206.748,36.439a12.183,12.183,0,0,0-5.183.183.385.385,0,0,0,.1.756.372.372,0,0,0,.1-.014,11.588,11.588,0,0,1,4.809-.177.384.384,0,0,0,.175-.748" fill="#00ade1"/>
    <path id="Path_49967" data-name="Path 49967" d="M192.228,131.765h83.678a6.06,6.06,0,0,1,6.06,6.06v26.687a6.06,6.06,0,0,1-6.06,6.059H192.228a6.059,6.059,0,0,1-6.059-6.059V137.825a6.059,6.059,0,0,1,6.059-6.06" fill="#171717"/>
    <path id="Path_49968" data-name="Path 49968" d="M277.415,132.358a3.958,3.958,0,0,1,3.955,3.957v29.7a3.958,3.958,0,0,1-3.958,3.958H190.72a3.958,3.958,0,0,1-3.958-3.958v-29.7a3.958,3.958,0,0,1,3.958-3.958Zm0-1.187h-86.7a5.151,5.151,0,0,0-5.143,5.144v29.7a5.151,5.151,0,0,0,5.145,5.145h86.695a5.151,5.151,0,0,0,5.145-5.145v-29.7a5.151,5.151,0,0,0-5.145-5.145" fill="#fff"/>
    <path id="Path_49969" data-name="Path 49969" d="M230.791,143.586a1.953,1.953,0,0,1,1.2,1.881,2.047,2.047,0,0,1-.312,1.133,1.975,1.975,0,0,1-.89.742,3.315,3.315,0,0,1-1.361.258h-1.189v1.627h-1.366v-5.9h2.555a3.3,3.3,0,0,1,1.361.261m-.5,2.635a1.059,1.059,0,0,0,0-1.517,1.436,1.436,0,0,0-.936-.266h-1.113v2.049h1.113a1.436,1.436,0,0,0,.936-.266" fill="#fff"/>
    <path id="Path_49970" data-name="Path 49970" d="M236.722,149.226l-1.137-1.644h-1.257v1.644h-1.366v-5.9h2.555a3.282,3.282,0,0,1,1.361.262,2.014,2.014,0,0,1,.89.742,2.043,2.043,0,0,1,.312,1.138,1.921,1.921,0,0,1-1.214,1.863l1.323,1.9Zm-.345-4.523a1.437,1.437,0,0,0-.936-.266h-1.113v2.058h1.113a1.42,1.42,0,0,0,.936-.27,1.065,1.065,0,0,0,0-1.522" fill="#fff"/>
    <path id="Path_49971" data-name="Path 49971" d="M240.36,148.932a3.011,3.011,0,0,1,0-5.312,3.656,3.656,0,0,1,3.31,0,3.012,3.012,0,0,1,0,5.312,3.656,3.656,0,0,1-3.31,0m2.6-1.008a1.733,1.733,0,0,0,.662-.67,2.113,2.113,0,0,0,0-1.956,1.719,1.719,0,0,0-.662-.67,1.969,1.969,0,0,0-1.888,0,1.719,1.719,0,0,0-.662.67,2.113,2.113,0,0,0,0,1.956,1.733,1.733,0,0,0,.662.67,1.976,1.976,0,0,0,1.888,0" fill="#fff"/>
    <path id="Path_49972" data-name="Path 49972" d="M246.274,143.325h2.68a3.759,3.759,0,0,1,1.7.367,2.743,2.743,0,0,1,1.147,1.032,3.147,3.147,0,0,1,0,3.1,2.743,2.743,0,0,1-1.147,1.032,3.759,3.759,0,0,1-1.7.367h-2.68Zm2.613,4.78a1.986,1.986,0,0,0,1.412-.493,1.958,1.958,0,0,0,0-2.673,1.986,1.986,0,0,0-1.412-.493h-1.248V148.1Z" fill="#fff"/>
    <path id="Path_49973" data-name="Path 49973" d="M253.891,148.628a2.7,2.7,0,0,1-.7-2v-3.305h1.366v3.254q0,1.586,1.315,1.585a1.235,1.235,0,0,0,.978-.383,1.79,1.79,0,0,0,.337-1.2v-3.254h1.349v3.305a2.791,2.791,0,0,1-4.641,2" fill="#fff"/>
    <path id="Path_49974" data-name="Path 49974" d="M261.074,148.936a2.914,2.914,0,0,1-1.146-1.088,3.165,3.165,0,0,1,0-3.144,2.914,2.914,0,0,1,1.146-1.088,3.658,3.658,0,0,1,3.027-.122,2.78,2.78,0,0,1,1.041.775l-.877.81a1.884,1.884,0,0,0-1.484-.691,1.974,1.974,0,0,0-.978.24,1.706,1.706,0,0,0-.67.67,2.113,2.113,0,0,0,0,1.956,1.713,1.713,0,0,0,.67.67,1.974,1.974,0,0,0,.978.241,1.877,1.877,0,0,0,1.484-.7l.877.809a2.738,2.738,0,0,1-1.045.784,3.473,3.473,0,0,1-1.392.27,3.393,3.393,0,0,1-1.631-.392" fill="#fff"/>
    <path id="Path_49975" data-name="Path 49975" d="M267.232,144.438h-1.888v-1.113h5.143v1.113H268.6v4.789h-1.366Z" fill="#fff"/>
    <path id="Path_49976" data-name="Path 49976" d="M232,156.965a1.483,1.483,0,0,1,.286.924,1.362,1.362,0,0,1-.6,1.192,3.076,3.076,0,0,1-1.758.418h-3.052v-5.9h2.884a2.822,2.822,0,0,1,1.656.413,1.31,1.31,0,0,1,.578,1.122,1.42,1.42,0,0,1-.784,1.3,1.564,1.564,0,0,1,.793.535m-3.769-2.339v1.391h1.357a1.376,1.376,0,0,0,.768-.177.593.593,0,0,0,.261-.523.582.582,0,0,0-.261-.518,1.4,1.4,0,0,0-.768-.173Zm2.407,3.667a.608.608,0,0,0,.274-.548q0-.733-1.088-.733h-1.593v1.458h1.593a1.516,1.516,0,0,0,.814-.177" fill="#fff"/>
    <path id="Path_49977" data-name="Path 49977" d="M237.211,158.234h-2.74l-.523,1.265h-1.4l2.63-5.9h1.349l2.639,5.9h-1.434Zm-.43-1.037-.936-2.259-.935,2.259Z" fill="#fff"/>
    <path id="Path_49978" data-name="Path 49978" d="M240.9,159.208a2.92,2.92,0,0,1-1.146-1.088,3.165,3.165,0,0,1,0-3.144,2.92,2.92,0,0,1,1.146-1.088,3.658,3.658,0,0,1,3.027-.122,2.78,2.78,0,0,1,1.041.775l-.877.81a1.884,1.884,0,0,0-1.484-.691,1.968,1.968,0,0,0-.977.24,1.7,1.7,0,0,0-.671.67,2.113,2.113,0,0,0,0,1.956,1.709,1.709,0,0,0,.671.67,1.968,1.968,0,0,0,.977.241,1.877,1.877,0,0,0,1.484-.7l.877.809a2.738,2.738,0,0,1-1.045.784,3.469,3.469,0,0,1-1.391.27,3.394,3.394,0,0,1-1.632-.392" fill="#fff"/>
    <path id="Path_49979" data-name="Path 49979" d="M248.036,157.18l-.792.826V159.5h-1.358v-5.9h1.358v2.757l2.613-2.757h1.517l-2.444,2.631,2.588,3.271h-1.594Z" fill="#fff"/>
    <path id="Path_49980" data-name="Path 49980" d="M252.125,153.6h1.366v4.789h2.959V159.5h-4.325Z" fill="#fff"/>
    <path id="Path_49981" data-name="Path 49981" d="M258.325,159.2a2.942,2.942,0,0,1-1.155-1.092,3.141,3.141,0,0,1,0-3.128,2.939,2.939,0,0,1,1.155-1.091,3.648,3.648,0,0,1,3.31,0,3.011,3.011,0,0,1,0,5.311,3.656,3.656,0,0,1-3.31,0m2.6-1.007a1.735,1.735,0,0,0,.662-.671,2.113,2.113,0,0,0,0-1.956,1.724,1.724,0,0,0-.662-.669,1.969,1.969,0,0,0-1.888,0,1.723,1.723,0,0,0-.662.669,2.113,2.113,0,0,0,0,1.956,1.735,1.735,0,0,0,.662.671,1.984,1.984,0,0,0,1.888,0" fill="#fff"/>
    <path id="Path_49982" data-name="Path 49982" d="M268.227,156.455h1.248v2.394a3.567,3.567,0,0,1-1.113.557,4.333,4.333,0,0,1-1.273.194,3.448,3.448,0,0,1-1.652-.392,2.916,2.916,0,0,1-1.152-1.088,3.172,3.172,0,0,1,0-3.144,2.905,2.905,0,0,1,1.16-1.088,3.517,3.517,0,0,1,1.669-.392,3.659,3.659,0,0,1,1.408.261,2.8,2.8,0,0,1,1.062.759l-.876.81a2.027,2.027,0,0,0-1.527-.666,2.086,2.086,0,0,0-1,.235,1.7,1.7,0,0,0-.683.667,2.1,2.1,0,0,0,0,1.964,1.736,1.736,0,0,0,.679.67,2.013,2.013,0,0,0,.99.241,2.212,2.212,0,0,0,1.063-.254Z" fill="#fff"/>
    <path id="Path_49983" data-name="Path 49983" d="M208.9,154.961H195.555a1.112,1.112,0,0,0-1.112,1.112v4.447a1.114,1.114,0,0,0,1.112,1.113h9.64a.371.371,0,0,0,0-.742h-9.64a.369.369,0,0,1-.369-.368v-4.45a.37.37,0,0,1,.369-.369H208.9a.369.369,0,0,1,.369.369v4.447a.369.369,0,0,1-.369.369h-2.225a.371.371,0,0,0,0,.742H208.9a1.112,1.112,0,0,0,1.112-1.112h0v-4.445a1.112,1.112,0,0,0-1.112-1.112" fill="#fff"/>
    <path id="Path_49984" data-name="Path 49984" d="M195.555,145.321H208.9a1.112,1.112,0,0,0,1.112-1.112v-4.45a1.111,1.111,0,0,0-1.111-1.112H195.555a1.112,1.112,0,0,0-1.112,1.112v.369a.371.371,0,0,0,.742,0v-.369a.368.368,0,0,1,.368-.368H208.9a.369.369,0,0,1,.369.368v4.45a.369.369,0,0,1-.369.369H195.555a.369.369,0,0,1-.369-.369v-2.6a.371.371,0,0,0-.742,0v2.6a1.112,1.112,0,0,0,1.113,1.112" fill="#fff"/>
    <path id="Path_49985" data-name="Path 49985" d="M217.9,141.984h-5.447l.406-.4a.373.373,0,1,0-.527-.527l-1.012,1.016a.4.4,0,0,0,0,.573l1.013,1.014a.373.373,0,0,0,.527-.527l-.406-.4H217.9a1.111,1.111,0,0,1,1.111,1.112v4.82a1.111,1.111,0,0,1-1.11,1.113h-4.92v-1.852a1.113,1.113,0,0,0-1.112-1.113H198.522a1.112,1.112,0,0,0-1.112,1.112h0v4.449a1.111,1.111,0,0,0,1.111,1.112H211.87a1.112,1.112,0,0,0,1.112-1.112v-1.854H217.9a1.853,1.853,0,0,0,1.853-1.853h0v-4.819a1.854,1.854,0,0,0-1.853-1.854m-5.661,10.38a.369.369,0,0,1-.369.369H198.522a.369.369,0,0,1-.369-.369v-4.448a.369.369,0,0,1,.369-.369H211.87a.369.369,0,0,1,.368.369Z" fill="#fff"/>
    <path id="Path_49986" data-name="Path 49986" d="M200.748,141.242h2.966a.371.371,0,1,1,0,.742h-2.966a.371.371,0,1,1,0-.742" fill="#00ade1"/>
    <path id="Path_49987" data-name="Path 49987" d="M200.748,142.725h6.674a.371.371,0,1,1,0,.742h-6.674a.371.371,0,1,1,0-.742" fill="#00ade1"/>
    <path id="Path_49988" data-name="Path 49988" d="M196.667,140.748v2.472a.247.247,0,0,0,.246.247h2.473a.247.247,0,0,0,.247-.247v-2.472a.246.246,0,0,0-.247-.247h-2.471a.247.247,0,0,0-.248.247m2.225,1.977h-1.483v-1.482h1.483Z" fill="#fff"/>
    <path id="Path_49989" data-name="Path 49989" d="M200.748,157.556h2.966a.371.371,0,0,1,0,.742h-2.966a.371.371,0,0,1,0-.742" fill="#00ade1"/>
    <path id="Path_49990" data-name="Path 49990" d="M203.712,149.4h2.966a.371.371,0,0,1,0,.742h-2.966a.371.371,0,1,1,0-.742" fill="#00ade1"/>
    <path id="Path_49991" data-name="Path 49991" d="M199.633,159.533V157.06a.247.247,0,0,0-.247-.247h-2.471a.248.248,0,0,0-.248.246h0v2.472a.247.247,0,0,0,.248.247h2.471a.247.247,0,0,0,.247-.247m-2.225-1.977h1.483v1.483h-1.483Z" fill="#fff"/>
    <path id="Path_49992" data-name="Path 49992" d="M203.712,150.882h6.674a.371.371,0,1,1,0,.742h-6.674a.371.371,0,1,1,0-.742" fill="#00ade1"/>
    <path id="Path_49993" data-name="Path 49993" d="M199.881,151.624h2.472a.248.248,0,0,0,.247-.247V148.9a.247.247,0,0,0-.247-.247h-2.472a.248.248,0,0,0-.247.247v2.472a.248.248,0,0,0,.247.247m.494-2.225h1.483v1.483h-1.483Z" fill="#fff"/>
    <path id="Path_49994" data-name="Path 49994" d="M200.748,159.039h6.674a.371.371,0,1,1,0,.742h-6.674a.371.371,0,0,1,0-.742" fill="#00ade1"/>
    <path id="Path_49995" data-name="Path 49995" d="M206.678,140.13h0a.369.369,0,1,1-.369.369.369.369,0,0,1,.369-.369" fill="#00ade1"/>
    <path id="Path_49996" data-name="Path 49996" d="M208.161,140.13h0a.369.369,0,1,1-.369.369.37.37,0,0,1,.369-.369" fill="#00ade1"/>
    <path id="Path_49997" data-name="Path 49997" d="M78.669,131.86h79.484a6.06,6.06,0,0,1,6.059,6.06v26.687a6.059,6.059,0,0,1-6.059,6.059H78.669a6.06,6.06,0,0,1-6.06-6.059V137.92a6.06,6.06,0,0,1,6.06-6.06" fill="#171717"/>
    <path id="Path_49998" data-name="Path 49998" d="M159.662,132.454a3.958,3.958,0,0,1,3.958,3.958v29.7a3.958,3.958,0,0,1-3.958,3.958h-82.5a3.958,3.958,0,0,1-3.958-3.958v-29.7a3.958,3.958,0,0,1,3.958-3.958Zm0-1.187h-82.5a5.151,5.151,0,0,0-5.145,5.145v29.7a5.15,5.15,0,0,0,5.145,5.145h82.5a5.151,5.151,0,0,0,5.145-5.145v-29.7a5.151,5.151,0,0,0-5.145-5.145" fill="#fff"/>
    <path id="Path_49999" data-name="Path 49999" d="M110.179,143.681a1.953,1.953,0,0,1,1.2,1.881,2.047,2.047,0,0,1-.312,1.133,1.976,1.976,0,0,1-.89.742,3.315,3.315,0,0,1-1.361.258h-1.189v1.627h-1.366v-5.9h2.555a3.282,3.282,0,0,1,1.361.261m-.5,2.635a1.059,1.059,0,0,0,0-1.517,1.437,1.437,0,0,0-.936-.266h-1.113v2.049h1.113a1.437,1.437,0,0,0,.936-.266" fill="#fff"/>
    <path id="Path_50000" data-name="Path 50000" d="M112.35,143.42h1.366v4.789h2.959v1.113H112.35Z" fill="#fff"/>
    <path id="Path_50001" data-name="Path 50001" d="M121.38,148.057h-2.74l-.523,1.265h-1.4l2.63-5.9H120.7l2.639,5.9H121.9Zm-.43-1.037-.936-2.259-.935,2.259Z" fill="#fff"/>
    <path id="Path_50002" data-name="Path 50002" d="M129.363,143.42v5.9h-1.121l-2.943-3.583v3.583h-1.348v-5.9h1.129L128.014,147V143.42Z" fill="#fff"/>
    <path id="Path_50003" data-name="Path 50003" d="M136.175,143.42v5.9h-1.121l-2.943-3.583v3.583h-1.348v-5.9h1.129L134.826,147V143.42Z" fill="#fff"/>
    <rect id="Rectangle_1913" data-name="Rectangle 1913" width="1.366" height="5.902" transform="translate(137.575 143.42)" fill="#fff"/>
    <path id="Path_50004" data-name="Path 50004" d="M145.752,143.42v5.9h-1.121l-2.943-3.583v3.583H140.34v-5.9h1.129L144.4,147V143.42Z" fill="#fff"/>
    <path id="Path_50005" data-name="Path 50005" d="M151.14,146.278h1.248v2.394a3.567,3.567,0,0,1-1.113.557,4.332,4.332,0,0,1-1.273.194,3.448,3.448,0,0,1-1.652-.392,2.917,2.917,0,0,1-1.152-1.088,3.172,3.172,0,0,1,0-3.144,2.905,2.905,0,0,1,1.16-1.088,3.517,3.517,0,0,1,1.669-.392,3.66,3.66,0,0,1,1.408.261,2.8,2.8,0,0,1,1.062.759l-.876.81a2.027,2.027,0,0,0-1.527-.666,2.086,2.086,0,0,0-1,.235,1.7,1.7,0,0,0-.683.667,2.1,2.1,0,0,0,0,1.964,1.736,1.736,0,0,0,.679.67,2.013,2.013,0,0,0,.99.241,2.212,2.212,0,0,0,1.063-.254Z" fill="#fff"/>
    <path id="Path_50006" data-name="Path 50006" d="M111.634,159.594l-.009-3.541-1.736,2.917h-.616l-1.728-2.841v3.465h-1.281v-5.9h1.129l2.209,3.668,2.175-3.668H112.9l.017,5.9Z" fill="#fff"/>
    <path id="Path_50007" data-name="Path 50007" d="M118.884,158.5v1.1h-4.569v-5.9h4.459v1.1h-3.1v1.282h2.74v1.062h-2.74V158.5Z" fill="#fff"/>
    <path id="Path_50008" data-name="Path 50008" d="M124.541,158.5v1.1h-4.569v-5.9h4.459v1.1h-3.1v1.282h2.74v1.062h-2.74V158.5Z" fill="#fff"/>
    <path id="Path_50009" data-name="Path 50009" d="M126.851,154.806h-1.888v-1.113h5.143v1.113h-1.889V159.6h-1.366Z" fill="#fff"/>
    <rect id="Rectangle_1914" data-name="Rectangle 1914" width="1.366" height="5.902" transform="translate(130.839 153.693)" fill="#fff"/>
    <path id="Path_50010" data-name="Path 50010" d="M139.016,153.693v5.9H137.9l-2.943-3.583V159.6H133.6v-5.9h1.129l2.934,3.583v-3.583Z" fill="#fff"/>
    <path id="Path_50011" data-name="Path 50011" d="M144.4,156.551h1.248v2.394a3.567,3.567,0,0,1-1.113.557,4.333,4.333,0,0,1-1.273.194,3.448,3.448,0,0,1-1.652-.392,2.916,2.916,0,0,1-1.152-1.088,3.171,3.171,0,0,1,0-3.144,2.905,2.905,0,0,1,1.16-1.088,3.517,3.517,0,0,1,1.669-.392,3.66,3.66,0,0,1,1.408.261,2.8,2.8,0,0,1,1.062.759l-.876.81a2.027,2.027,0,0,0-1.527-.666,2.086,2.086,0,0,0-1,.235,1.7,1.7,0,0,0-.683.667,2.1,2.1,0,0,0,0,1.964,1.736,1.736,0,0,0,.679.67,2.013,2.013,0,0,0,.99.241,2.212,2.212,0,0,0,1.063-.254Z" fill="#fff"/>
    <path id="Path_50012" data-name="Path 50012" d="M97.482,142.034a2.174,2.174,0,0,0-1.548-.642H94.54v-.505a.843.843,0,0,0-.843-.843H85.612a.843.843,0,0,0-.843.843v.505h-1.4a2.192,2.192,0,0,0-2.188,2.188l-.018,16.709a2.187,2.187,0,0,0,2.184,2.193H95.913a2.193,2.193,0,0,0,2.189-2.188l.018-16.708a2.177,2.177,0,0,0-.64-1.552m-11.925-1.2h8.2v1.906h-8.2Zm11.76,19.46a1.4,1.4,0,0,1-1.4,1.4H83.352a1.4,1.4,0,0,1-1.4-1.4v0l.018-16.709a1.4,1.4,0,0,1,1.4-1.4h1.4v.505a.844.844,0,0,0,.843.843H93.7a.844.844,0,0,0,.843-.843v-.505h1.394a1.4,1.4,0,0,1,1.4,1.4v0Z" fill="#fff"/>
    <path id="Path_50013" data-name="Path 50013" d="M94.659,147.68H89.872a.4.4,0,1,0,0,.79h4.787a.4.4,0,0,0,0-.79" fill="#fff"/>
    <path id="Path_50014" data-name="Path 50014" d="M94.659,152.171H89.872a.395.395,0,1,0,0,.79h4.787a.395.395,0,0,0,0-.79" fill="#fff"/>
    <path id="Path_50015" data-name="Path 50015" d="M94.678,156.663H89.871a.4.4,0,1,0,0,.79h4.807a.4.4,0,0,0,0-.79" fill="#fff"/>
    <path id="Path_50016" data-name="Path 50016" d="M84.329,148.182l.843.843a.406.406,0,0,0,.558,0l2.03-2.03a.4.4,0,0,0,0-.558.408.408,0,0,0-.558,0l-1.751,1.752-.565-.564a.394.394,0,1,0-.556.558" fill="#00ade1"/>
    <path id="Path_50017" data-name="Path 50017" d="M87.874,151.551a.393.393,0,0,0-.115-.279.423.423,0,0,0-.558,0l-1.751,1.752-.564-.564a.394.394,0,0,0-.558.557l.843.843a.421.421,0,0,0,.558,0l2.03-2.03a.392.392,0,0,0,.116-.278" fill="#00ade1"/>
    <path id="Path_50018" data-name="Path 50018" d="M87.875,156.043a.389.389,0,0,0-.115-.279.406.406,0,0,0-.558,0l-1.751,1.752-.564-.564a.394.394,0,0,0-.558.557l.843.843a.421.421,0,0,0,.558,0l2.03-2.03a.392.392,0,0,0,.116-.278" fill="#00ade1"/>
    <path id="Path_50019" data-name="Path 50019" d="M4,301.093A3.149,3.149,0,0,1,2.95,300.6l.462-1.026a3.174,3.174,0,0,0,.9.446,3.385,3.385,0,0,0,1.043.168,1.665,1.665,0,0,0,.858-.173.521.521,0,0,0,.278-.458.441.441,0,0,0-.164-.35,1.269,1.269,0,0,0-.421-.223q-.257-.082-.694-.185a9.581,9.581,0,0,1-1.1-.319,1.794,1.794,0,0,1-.736-.513,1.387,1.387,0,0,1-.308-.943,1.642,1.642,0,0,1,.278-.93,1.872,1.872,0,0,1,.837-.66,3.411,3.411,0,0,1,1.367-.244,4.519,4.519,0,0,1,1.1.134,3.239,3.239,0,0,1,.942.388l-.421,1.034a3.289,3.289,0,0,0-1.632-.463,1.529,1.529,0,0,0-.846.186.564.564,0,0,0-.273.487.478.478,0,0,0,.316.451,4.927,4.927,0,0,0,.963.29,9.564,9.564,0,0,1,1.1.32,1.814,1.814,0,0,1,.736.505,1.352,1.352,0,0,1,.308.934,1.6,1.6,0,0,1-.282.921,1.887,1.887,0,0,1-.846.66,3.441,3.441,0,0,1-1.371.245A4.793,4.793,0,0,1,4,301.093" fill="#fff"/>
    <path id="Path_50020" data-name="Path 50020" d="M12.513,296.879a2.089,2.089,0,0,1,.812.816,2.7,2.7,0,0,1,0,2.449,2.1,2.1,0,0,1-.812.816,2.313,2.313,0,0,1-1.149.29A1.751,1.751,0,0,1,10,300.7v2.112H8.689v-6.159H9.943v.521a1.741,1.741,0,0,1,1.421-.588,2.3,2.3,0,0,1,1.149.29m-.547,2.953a1.448,1.448,0,0,0,0-1.826,1.181,1.181,0,0,0-1.658,0,1.452,1.452,0,0,0,0,1.826,1.178,1.178,0,0,0,1.658,0" fill="#fff"/>
    <path id="Path_50021" data-name="Path 50021" d="M16.383,296.756a2.357,2.357,0,0,1,.921-.168V297.8c-.145-.012-.244-.017-.294-.017a1.2,1.2,0,0,0-.883.315,1.272,1.272,0,0,0-.32.947v2.137H14.494v-4.527h1.254v.6a1.466,1.466,0,0,1,.635-.5" fill="#fff"/>
    <path id="Path_50022" data-name="Path 50022" d="M18.154,295.814a.714.714,0,0,1,0-1.044.835.835,0,0,1,.589-.21.851.851,0,0,1,.589.2.646.646,0,0,1,.227.505.709.709,0,0,1-.227.542.819.819,0,0,1-.589.215.835.835,0,0,1-.589-.21m-.067.841H19.4v4.527H18.087Z" fill="#fff"/>
    <path id="Path_50023" data-name="Path 50023" d="M24.73,297.093a2,2,0,0,1,.517,1.5v2.591H23.935v-2.389a1.182,1.182,0,0,0-.236-.8.862.862,0,0,0-.681-.265,1.043,1.043,0,0,0-.791.307,1.269,1.269,0,0,0-.3.913v2.238H20.619v-4.527h1.254v.53a1.752,1.752,0,0,1,.648-.441,2.256,2.256,0,0,1,.85-.156,1.862,1.862,0,0,1,1.359.5" fill="#fff"/>
    <path id="Path_50024" data-name="Path 50024" d="M29.354,300.963a1.347,1.347,0,0,1-.476.215,2.433,2.433,0,0,1-.593.071,1.765,1.765,0,0,1-1.25-.412,1.58,1.58,0,0,1-.441-1.212v-1.859h-.7v-1.01h.7v-1.1h1.312v1.1h1.128v1.01H27.906v1.842a.615.615,0,0,0,.148.442.544.544,0,0,0,.415.156.841.841,0,0,0,.531-.169Z" fill="#fff"/>
    <path id="Path_50025" data-name="Path 50025" d="M37.684,298.654a1.476,1.476,0,0,1,.286.921,1.36,1.36,0,0,1-.6,1.19,3.075,3.075,0,0,1-1.754.417H32.568v-5.89h2.877a2.817,2.817,0,0,1,1.653.412,1.307,1.307,0,0,1,.578,1.12,1.437,1.437,0,0,1-.207.766,1.455,1.455,0,0,1-.576.53,1.551,1.551,0,0,1,.791.534m-3.761-2.335v1.388h1.354a1.362,1.362,0,0,0,.765-.177.589.589,0,0,0,.262-.521.581.581,0,0,0-.262-.518,1.391,1.391,0,0,0-.765-.172Zm2.4,3.66a.606.606,0,0,0,.273-.547q0-.732-1.085-.732h-1.59v1.456h1.59a1.51,1.51,0,0,0,.812-.177" fill="#fff"/>
    <path id="Path_50026" data-name="Path 50026" d="M42.354,297.089a1.917,1.917,0,0,1,.563,1.51v2.583H41.688v-.564a1.459,1.459,0,0,1-1.379.631,2.161,2.161,0,0,1-.9-.176,1.365,1.365,0,0,1-.585-.489,1.272,1.272,0,0,1-.2-.706,1.179,1.179,0,0,1,.476-.993,2.414,2.414,0,0,1,1.468-.362H41.6a.838.838,0,0,0-.26-.661,1.149,1.149,0,0,0-.782-.231,2.27,2.27,0,0,0-.711.114,1.893,1.893,0,0,0-.594.307l-.472-.918a2.874,2.874,0,0,1,.889-.4,3.99,3.99,0,0,1,1.063-.143,2.356,2.356,0,0,1,1.617.5m-1.119,3.121a.845.845,0,0,0,.369-.458v-.463h-.9q-.809,0-.809.53a.475.475,0,0,0,.2.4.891.891,0,0,0,.543.147,1.143,1.143,0,0,0,.6-.156" fill="#fff"/>
    <path id="Path_50027" data-name="Path 50027" d="M45.042,300.951a2.233,2.233,0,0,1-.9-.829,2.285,2.285,0,0,1,.9-3.236,2.8,2.8,0,0,1,1.3-.3,2.534,2.534,0,0,1,1.25.3,1.78,1.78,0,0,1,.778.855l-1.018.547a1.114,1.114,0,0,0-1.018-.623,1.148,1.148,0,0,0-.85.337,1.416,1.416,0,0,0,0,1.834,1.148,1.148,0,0,0,.85.337,1.1,1.1,0,0,0,1.018-.623l1.018.555a1.811,1.811,0,0,1-.778.842,2.494,2.494,0,0,1-1.25.3,2.785,2.785,0,0,1-1.3-.3" fill="#fff"/>
    <path id="Path_50028" data-name="Path 50028" d="M51.045,299.407l-.631.623v1.152H49.1v-6.243h1.313v3.534l1.918-1.818H53.9l-1.884,1.919,2.053,2.608H52.475Z" fill="#fff"/>
    <rect id="Rectangle_1915" data-name="Rectangle 1915" width="1.313" height="6.243" transform="translate(54.655 294.939)" fill="#fff"/>
    <path id="Path_50029" data-name="Path 50029" d="M58.058,300.951a2.218,2.218,0,0,1-.888-.828,2.43,2.43,0,0,1,0-2.407,2.213,2.213,0,0,1,.888-.829,2.9,2.9,0,0,1,2.562,0,2.229,2.229,0,0,1,.884.829,2.43,2.43,0,0,1,0,2.407,2.233,2.233,0,0,1-.884.828,2.893,2.893,0,0,1-2.562,0m2.112-1.119a1.448,1.448,0,0,0,0-1.826,1.093,1.093,0,0,0-.829-.34,1.108,1.108,0,0,0-.833.34,1.435,1.435,0,0,0,0,1.826,1.109,1.109,0,0,0,.833.341,1.094,1.094,0,0,0,.829-.341" fill="#fff"/>
    <path id="Path_50030" data-name="Path 50030" d="M67.368,296.655v3.77a2.419,2.419,0,0,1-.648,1.851,2.674,2.674,0,0,1-1.893.606,4.715,4.715,0,0,1-1.245-.161,2.7,2.7,0,0,1-.976-.462l.522-.943a2.109,2.109,0,0,0,.723.375,2.861,2.861,0,0,0,.875.139,1.423,1.423,0,0,0,1.006-.307,1.229,1.229,0,0,0,.324-.93V300.4a1.842,1.842,0,0,1-1.431.563,2.394,2.394,0,0,1-1.14-.274,2.065,2.065,0,0,1-.82-.769,2.313,2.313,0,0,1,0-2.289,2.074,2.074,0,0,1,.82-.77,2.4,2.4,0,0,1,1.14-.273,1.8,1.8,0,0,1,1.5.647v-.58Zm-1.628,2.924a1.138,1.138,0,0,0,0-1.607,1.347,1.347,0,0,0-1.712,0,1.126,1.126,0,0,0,0,1.607,1.347,1.347,0,0,0,1.712,0" fill="#fff"/>
    <path id="Path_50031" data-name="Path 50031" d="M21.371,271.221a3.323,3.323,0,0,1-.841-.12,6.747,6.747,0,1,1,0-6.522v.011a3.279,3.279,0,0,1,.841-.12h4.592l1.952-4.011L21.956,254.5l-2.4,1.442-.678-2.716h-8.5l-.678,2.718-2.4-1.443-6.015,6.015,1.443,2.4L0,263.593V272.1l2.716.678-1.443,2.4L7.284,281.2l2.4-1.443.677,2.717h8.511l.678-2.718,2.4,1.443,5.955-5.956-1.92-4.015Z" fill="#00b7e9"/>
    <path id="Path_50032" data-name="Path 50032" d="M35.619,227.355l-.75,11.247,2.25,2.25,2.249-2.25-.75-11.247Z" fill="#00b7e9"/>
    <path id="Path_50033" data-name="Path 50033" d="M25.87,280.22h0a1.124,1.124,0,1,1-1.125,1.124h0a1.125,1.125,0,0,1,1.125-1.125" fill="#fff"/>
    <path id="Path_50034" data-name="Path 50034" d="M30.369,280.22h0a1.124,1.124,0,1,1-1.125,1.124h0a1.125,1.125,0,0,1,1.125-1.125" fill="#fff"/>
    <path id="Path_50035" data-name="Path 50035" d="M53.361,275.72a4.452,4.452,0,0,0,.626-2.25V256.249a7.876,7.876,0,0,0-5.965-7.642l-3.033-.758V233.87a14.35,14.35,0,0,0,8.463-6.311l5.6-9.1a3.755,3.755,0,0,0,.5-2.646,3.869,3.869,0,0,0-3.847-3.076H55.4a3.759,3.759,0,0,0-3.126,1.672l-5.547,8.319a7.839,7.839,0,0,1-3.552,2.9,7.877,7.877,0,1,0-11.427.719,16.964,16.964,0,0,0-12.554,8.073l-5.158,8.6a3.769,3.769,0,0,0-.471,2.65,3.882,3.882,0,0,0,3.858,3.056H17.7a3.765,3.765,0,0,0,3.133-1.676L27.8,236.6a3.065,3.065,0,0,1,1.436-1.159V263.35H21.367c-.1,0-.187.021-.282.028a7.871,7.871,0,1,0,0,8.942c.1.006.184.028.281.028H33.738a4.5,4.5,0,0,0,4.5-4.5V257.736l5.783.825a1.131,1.131,0,0,1,.966,1.113v13.8a4.441,4.441,0,0,0,.625,2.25H39.361a1.125,1.125,0,0,0,0,2.25h27a1.124,1.124,0,1,1,0,2.249H34.868a1.125,1.125,0,0,0,0,2.25H66.361a3.374,3.374,0,1,0,0-6.749Zm-21.87-55.113a5.624,5.624,0,1,1,5.624,5.623,5.624,5.624,0,0,1-5.624-5.623M14.622,273.47a5.624,5.624,0,1,1,4.211-9.334,4.491,4.491,0,0,0,0,7.421,5.606,5.606,0,0,1-4.211,1.913M33.743,270.1H21.371a2.249,2.249,0,1,1-.074-4.5h10.2V255.1a7.838,7.838,0,0,0,4.5,2.31v10.434a2.253,2.253,0,0,1-2.25,2.25m13.5,3.373v-13.8a3.389,3.389,0,0,0-2.9-3.34l-8.022-1.146a5.649,5.649,0,0,1-4.829-5.568V232.978H30.37a5.32,5.32,0,0,0-4.432,2.374L18.972,245.8a1.524,1.524,0,0,1-1.262.678h-.442a1.518,1.518,0,0,1-1.3-2.3l5.159-8.6a14.7,14.7,0,0,1,12.539-7.1h6.514a10.094,10.094,0,0,0,8.422-4.506l5.547-8.319a1.5,1.5,0,0,1,1.252-.671h.462a1.5,1.5,0,0,1,1.282,2.293l-5.6,9.1a12.086,12.086,0,0,1-7.893,5.5l-.9.18v17.551l4.739,1.183a5.616,5.616,0,0,1,4.259,5.456V273.47a2.25,2.25,0,0,1-4.5,0" fill="#fff"/>
    <path id="Path_50036" data-name="Path 50036" d="M34.869,275.72h0a1.124,1.124,0,1,1-1.125,1.125,1.125,1.125,0,0,1,1.125-1.125" fill="#fff"/>
    <path id="Path_50037" data-name="Path 50037" d="M30.369,275.72h0a1.124,1.124,0,1,1-1.125,1.125,1.125,1.125,0,0,1,1.125-1.125" fill="#fff"/>
    <path id="Path_50038" data-name="Path 50038" d="M13.2,235.229H11.247V223.982H23.62a1.125,1.125,0,0,0,0-2.25H11.247A2.25,2.25,0,0,0,9,223.982v13.5h2.26a.116.116,0,0,1,.118.114.122.122,0,0,1-.02.066l-3.384,5.416a.117.117,0,0,1-.161.036.123.123,0,0,1-.036-.036L4.39,237.659a.116.116,0,0,1,.033-.161.109.109,0,0,1,.066-.019H6.748V222.856a3.376,3.376,0,0,1,3.374-3.374h6.75a1.124,1.124,0,1,0,0-2.249H10.124A5.623,5.623,0,0,0,4.5,222.856v12.373H2.552a1.292,1.292,0,0,0-1.1,1.978l5.322,8.515a1.293,1.293,0,0,0,2.192,0l5.322-8.514a1.292,1.292,0,0,0-1.1-1.978" fill="#00b7e9"/>
    <path id="Path_50039" data-name="Path 50039" d="M21.372,217.233h0a1.124,1.124,0,1,1-1.125,1.125,1.125,1.125,0,0,1,1.125-1.125" fill="#fff"/>
    <path id="Path_50040" data-name="Path 50040" d="M25.87,217.233h0a1.124,1.124,0,1,1-1.125,1.125,1.125,1.125,0,0,1,1.125-1.125" fill="#fff"/>
    <path id="Path_50041" data-name="Path 50041" d="M67.48,352.37H169.342a6.059,6.059,0,0,1,6.059,6.059v26.688a6.059,6.059,0,0,1-6.059,6.059H67.48a6.06,6.06,0,0,1-6.06-6.059V358.429a6.06,6.06,0,0,1,6.06-6.059" fill="#171717"/>
    <path id="Path_50042" data-name="Path 50042" d="M170.85,352.964a3.958,3.958,0,0,1,3.958,3.957h0v29.7a3.958,3.958,0,0,1-3.958,3.956H65.972a3.957,3.957,0,0,1-3.957-3.958v-29.7a3.956,3.956,0,0,1,3.956-3.958H170.85Zm0-1.187H65.972a5.151,5.151,0,0,0-5.145,5.145v29.7a5.151,5.151,0,0,0,5.145,5.145H170.85a5.151,5.151,0,0,0,5.145-5.145v-29.7a5.151,5.151,0,0,0-5.145-5.145" fill="#00b7e9"/>
    <path id="Path_50043" data-name="Path 50043" d="M102.713,369.743a3.182,3.182,0,0,1-1.049-.493l.463-1.029a3.129,3.129,0,0,0,.9.447,3.375,3.375,0,0,0,1.046.169,1.669,1.669,0,0,0,.859-.173.523.523,0,0,0,.279-.46.437.437,0,0,0-.165-.349,1.234,1.234,0,0,0-.421-.224c-.172-.056-.4-.118-.7-.186a9.476,9.476,0,0,1-1.1-.32,1.794,1.794,0,0,1-.738-.514,1.39,1.39,0,0,1-.308-.944,1.642,1.642,0,0,1,.279-.932,1.868,1.868,0,0,1,.839-.661,3.4,3.4,0,0,1,1.37-.245,4.535,4.535,0,0,1,1.1.135,3.29,3.29,0,0,1,.944.387l-.421,1.038a3.3,3.3,0,0,0-1.636-.464,1.538,1.538,0,0,0-.847.185.566.566,0,0,0-.274.489.478.478,0,0,0,.316.451,4.875,4.875,0,0,0,.965.291,9.614,9.614,0,0,1,1.105.321,1.817,1.817,0,0,1,.737.506,1.35,1.35,0,0,1,.308.935,1.61,1.61,0,0,1-.282.923,1.9,1.9,0,0,1-.848.662,3.449,3.449,0,0,1-1.374.245,4.814,4.814,0,0,1-1.353-.19" fill="#fff"/>
    <path id="Path_50044" data-name="Path 50044" d="M111.422,364.191a1.953,1.953,0,0,1,1.2,1.881,2.047,2.047,0,0,1-.312,1.133,1.975,1.975,0,0,1-.89.742,3.312,3.312,0,0,1-1.361.258h-1.19v1.627h-1.364v-5.9h2.554a3.3,3.3,0,0,1,1.361.261m-.5,2.635a1.059,1.059,0,0,0,0-1.517,1.436,1.436,0,0,0-.936-.266h-1.114v2.049h1.114a1.436,1.436,0,0,0,.936-.266" fill="#fff"/>
    <path id="Path_50045" data-name="Path 50045" d="M117.354,369.832l-1.139-1.644h-1.257v1.644h-1.365v-5.9h2.554a3.272,3.272,0,0,1,1.361.262,2.008,2.008,0,0,1,.89.742,2.044,2.044,0,0,1,.313,1.138,1.92,1.92,0,0,1-1.215,1.863l1.325,1.9Zm-.347-4.523a1.434,1.434,0,0,0-.935-.266h-1.114V367.1h1.114a1.417,1.417,0,0,0,.935-.27,1.065,1.065,0,0,0,0-1.522" fill="#fff"/>
    <rect id="Rectangle_1916" data-name="Rectangle 1916" width="1.366" height="5.902" transform="translate(119.789 363.93)" fill="#fff"/>
    <path id="Path_50046" data-name="Path 50046" d="M127.967,363.93v5.9h-1.121l-2.943-3.583v3.583h-1.348v-5.9h1.129l2.934,3.583V363.93Z" fill="#fff"/>
    <path id="Path_50047" data-name="Path 50047" d="M130.589,365.043H128.7V363.93h5.142v1.113h-1.888v4.789h-1.366Z" fill="#fff"/>
    <path id="Path_50048" data-name="Path 50048" d="M106.166,378.992v1.113h-4.46v-.885l2.276-2.15a2.41,2.41,0,0,0,.489-.594,1.077,1.077,0,0,0,.127-.494.654.654,0,0,0-.24-.544,1.123,1.123,0,0,0-.7-.189,1.607,1.607,0,0,0-.7.148,1.337,1.337,0,0,0-.523.442l-1-.64a2.33,2.33,0,0,1,.953-.806,3.18,3.18,0,0,1,1.391-.29,2.869,2.869,0,0,1,1.151.214,1.781,1.781,0,0,1,.767.607,1.569,1.569,0,0,1,.274.923,2.058,2.058,0,0,1-.2.9,3.508,3.508,0,0,1-.784.961l-1.358,1.281Z" fill="#fff"/>
    <path id="Path_50049" data-name="Path 50049" d="M108.982,373.006h1.172l-2.782,7.941H106.2Z" fill="#fff"/>
    <path id="Path_50050" data-name="Path 50050" d="M114.984,378.866h-.961V380.1h-1.332v-1.239h-3.178v-.919l2.782-3.743h1.433l-2.58,3.549h1.585v-1.1h1.29v1.1h.961Z" fill="#fff"/>
    <path id="Path_50051" data-name="Path 50051" d="M118.731,380.016a3.2,3.2,0,0,1-1.05-.493l.465-1.029a3.117,3.117,0,0,0,.9.447,3.365,3.365,0,0,0,1.045.169,1.667,1.667,0,0,0,.859-.173.523.523,0,0,0,.279-.46.437.437,0,0,0-.165-.349,1.248,1.248,0,0,0-.42-.224c-.173-.056-.4-.118-.7-.186a9.38,9.38,0,0,1-1.1-.32,1.807,1.807,0,0,1-.738-.514,1.39,1.39,0,0,1-.308-.944,1.65,1.65,0,0,1,.279-.932,1.871,1.871,0,0,1,.838-.661,3.41,3.41,0,0,1,1.371-.245,4.543,4.543,0,0,1,1.1.135,3.3,3.3,0,0,1,.943.387l-.421,1.038a3.294,3.294,0,0,0-1.636-.464,1.54,1.54,0,0,0-.847.185.565.565,0,0,0-.273.489.477.477,0,0,0,.315.451,4.9,4.9,0,0,0,.965.291,9.554,9.554,0,0,1,1.1.321,1.82,1.82,0,0,1,.738.506,1.36,1.36,0,0,1,.308.935,1.619,1.619,0,0,1-.283.923,1.891,1.891,0,0,1-.848.662,3.449,3.449,0,0,1-1.374.245,4.807,4.807,0,0,1-1.353-.19" fill="#fff"/>
    <path id="Path_50052" data-name="Path 50052" d="M128.094,379.009v1.1h-4.569v-5.9h4.459v1.1h-3.1v1.281h2.74v1.062h-2.74v1.366Z" fill="#fff"/>
    <path id="Path_50053" data-name="Path 50053" d="M134.551,380.1l-.009-3.541-1.736,2.917h-.616l-1.728-2.841V380.1H129.18v-5.9h1.13l2.209,3.668,2.175-3.668h1.121l.017,5.9Z" fill="#fff"/>
    <path id="Path_50054" data-name="Path 50054" d="M141.119,378.84h-2.74l-.523,1.265h-1.4l2.63-5.9h1.349l2.639,5.9h-1.434Zm-.43-1.037-.936-2.259-.936,2.259Z" fill="#fff"/>
    <rect id="Rectangle_1917" data-name="Rectangle 1917" width="1.366" height="5.902" transform="translate(143.69 374.203)" fill="#fff"/>
    <path id="Path_50055" data-name="Path 50055" d="M151.867,374.2v5.9h-1.121l-2.943-3.583v3.583h-1.348v-5.9h1.129l2.934,3.583V374.2Z" fill="#fff"/>
    <path id="Path_50056" data-name="Path 50056" d="M157.836,379.009v1.1h-4.569v-5.9h4.459v1.1h-3.1v1.281h2.74v1.062h-2.74v1.366Z" fill="#fff"/>
    <path id="Path_50057" data-name="Path 50057" d="M159.51,380.016a3.187,3.187,0,0,1-1.05-.493l.464-1.029a3.129,3.129,0,0,0,.9.447,3.371,3.371,0,0,0,1.046.169,1.669,1.669,0,0,0,.859-.173.523.523,0,0,0,.279-.46.437.437,0,0,0-.165-.349,1.244,1.244,0,0,0-.421-.224q-.258-.084-.7-.186a9.357,9.357,0,0,1-1.1-.32,1.794,1.794,0,0,1-.738-.514,1.39,1.39,0,0,1-.308-.944,1.649,1.649,0,0,1,.278-.932,1.879,1.879,0,0,1,.839-.661,3.41,3.41,0,0,1,1.371-.245,4.535,4.535,0,0,1,1.1.135,3.29,3.29,0,0,1,.944.387l-.421,1.038a3.3,3.3,0,0,0-1.636-.464,1.535,1.535,0,0,0-.847.185.566.566,0,0,0-.274.489.478.478,0,0,0,.316.451,4.854,4.854,0,0,0,.965.291,9.614,9.614,0,0,1,1.105.321,1.817,1.817,0,0,1,.737.506,1.355,1.355,0,0,1,.308.935,1.618,1.618,0,0,1-.282.923,1.9,1.9,0,0,1-.848.662,3.449,3.449,0,0,1-1.374.245,4.807,4.807,0,0,1-1.353-.19" fill="#fff"/>
    <path id="Path_50058" data-name="Path 50058" d="M71.166,382.048H91.953a1.43,1.43,0,0,0,1.43-1.43V362.459a1.43,1.43,0,0,0-1.429-1.43H87.728v-.895a.513.513,0,1,0-1.026,0v.895H76.417v-.895a.513.513,0,1,0-1.025,0v.895H71.166a1.43,1.43,0,0,0-1.43,1.43v18.159a1.43,1.43,0,0,0,1.43,1.43m.2-19.992H75.39v.9a.513.513,0,0,0,1.025,0h0v-.9H86.7v.9a.513.513,0,0,0,1.026,0v-.9h4.023a.608.608,0,0,1,.606.607v1.985a.606.606,0,0,1-.606.606H71.367a.606.606,0,0,1-.607-.606v-1.985a.607.607,0,0,1,.607-.607m0,4.224H91.749a.607.607,0,0,1,.607.607v13.53a.607.607,0,0,1-.607.606H71.367a.606.606,0,0,1-.607-.606V366.886a.607.607,0,0,1,.607-.607" fill="#fff"/>
    <path id="Path_50059" data-name="Path 50059" d="M72.552,378.719h0a.513.513,0,0,0,.513.513h2.16a.513.513,0,0,0,0-1.026h-2.16a.513.513,0,0,0-.513.512" fill="#00ade1"/>
    <path id="Path_50060" data-name="Path 50060" d="M89.542,378.719h0a.513.513,0,1,0,.513-.513.513.513,0,0,0-.513.513" fill="#00ade1"/>
    <path id="Path_50061" data-name="Path 50061" d="M86.726,378.719h0a.513.513,0,1,0,.513-.513.513.513,0,0,0-.513.513" fill="#00ade1"/>
    <path id="Path_50062" data-name="Path 50062" d="M74.666,374.774H76.99a.844.844,0,0,1,.53.142.463.463,0,0,1,.183.388.51.51,0,0,1-.145.368.578.578,0,0,1-.438.152H73.842a.711.711,0,0,1-.521-.185.594.594,0,0,1-.187-.434,1.109,1.109,0,0,1,.12-.425,1.521,1.521,0,0,1,.264-.416q.593-.615,1.068-1.054a7.076,7.076,0,0,1,.682-.577,3.961,3.961,0,0,0,.608-.519,2.07,2.07,0,0,0,.369-.534,1.278,1.278,0,0,0,.127-.536.98.98,0,0,0-.136-.51.955.955,0,0,0-.369-.35,1.078,1.078,0,0,0-.51-.125,1.044,1.044,0,0,0-.918.512,2.284,2.284,0,0,0-.149.366,1.538,1.538,0,0,1-.236.459.471.471,0,0,1-.385.158.5.5,0,0,1-.369-.147.541.541,0,0,1-.147-.4,1.684,1.684,0,0,1,.138-.641,1.842,1.842,0,0,1,.412-.606,2.049,2.049,0,0,1,.694-.438,2.68,2.68,0,0,1,.987-.167,2.842,2.842,0,0,1,1.162.214,1.744,1.744,0,0,1,.547.392,1.833,1.833,0,0,1,.5,1.256,1.9,1.9,0,0,1-.274,1,3.113,3.113,0,0,1-.559.708q-.285.256-.955.8a7.121,7.121,0,0,0-.92.85,2.669,2.669,0,0,0-.218.289" fill="#00ade1"/>
    <path id="Path_50063" data-name="Path 50063" d="M82.683,370.089l-1.247,5.134c-.042.17-.078.3-.109.4a.486.486,0,0,1-.142.229.416.416,0,0,1-.278.083q-.455,0-.454-.392a3.441,3.441,0,0,1,.089-.513l1.242-5.134a2.314,2.314,0,0,1,.187-.561.369.369,0,0,1,.347-.151.492.492,0,0,1,.341.105.374.374,0,0,1,.118.294,2.4,2.4,0,0,1-.093.5" fill="#fff"/>
    <path id="Path_50064" data-name="Path 50064" d="M87.917,375.26v-.829H85.682a.918.918,0,0,1-.633-.191.665.665,0,0,1-.21-.521.526.526,0,0,1,.03-.171.879.879,0,0,1,.094-.183c.042-.064.085-.125.129-.184s.1-.133.165-.219l2.36-3.157a3.569,3.569,0,0,1,.38-.452.511.511,0,0,1,.359-.141q.678,0,.677.775v3.447h.191a1.355,1.355,0,0,1,.549.093.4.4,0,0,1,.208.41.425.425,0,0,1-.169.376.875.875,0,0,1-.507.118h-.272v.829a.743.743,0,0,1-.151.51.52.52,0,0,1-.405.166.513.513,0,0,1-.4-.171.731.731,0,0,1-.154-.505M86,373.434H87.92v-2.587Z" fill="#00ade1"/>
    <path id="Path_50065" data-name="Path 50065" d="M31.189,472.077a3.849,3.849,0,1,1-3.85-3.85,3.85,3.85,0,0,1,3.85,3.85" fill="#00b7e9"/>
    <path id="Path_50066" data-name="Path 50066" d="M59.525,472.077a3.85,3.85,0,1,1-3.85-3.85,3.85,3.85,0,0,1,3.85,3.85" fill="#00b7e9"/>
    <line id="Line_53" data-name="Line 53" x2="22.657" transform="translate(30.281 472.126)" fill="none" stroke="#00b7e9" stroke-miterlimit="10" stroke-width="1.6"/>
    <path id="Path_50067" data-name="Path 50067" d="M87.52,502.656h1.124V506.6h2.435v.915H87.52Z" fill="#fff"/>
    <path id="Path_50068" data-name="Path 50068" d="M91.689,503.086a.588.588,0,0,1,0-.86.685.685,0,0,1,.486-.173.7.7,0,0,1,.485.166.534.534,0,0,1,.188.416.59.59,0,0,1-.188.448.675.675,0,0,1-.485.177.686.686,0,0,1-.486-.174m-.055.694h1.083v3.732H91.634Z" fill="#fff"/>
    <path id="Path_50069" data-name="Path 50069" d="M97.427,503.78l-1.575,3.733H94.735l-1.568-3.733h1.117l1.034,2.539,1.068-2.539Z" fill="#fff"/>
    <path id="Path_50070" data-name="Path 50070" d="M99.428,503.863a1.955,1.955,0,0,1,.76-.138v1c-.121-.009-.2-.014-.243-.014a.988.988,0,0,0-.728.261,1.044,1.044,0,0,0-.264.78v1.762H97.87V503.78H98.9v.492a1.211,1.211,0,0,1,.524-.409" fill="#fff"/>
    <path id="Path_50071" data-name="Path 50071" d="M103.656,504.137a1.577,1.577,0,0,1,.465,1.246v2.129h-1.012v-.465a1.207,1.207,0,0,1-1.138.521,1.766,1.766,0,0,1-.746-.146,1.113,1.113,0,0,1-.482-.4,1.049,1.049,0,0,1-.167-.583.974.974,0,0,1,.392-.819,2,2,0,0,1,1.211-.3h.86a.693.693,0,0,0-.215-.545.953.953,0,0,0-.645-.19,1.877,1.877,0,0,0-.587.094,1.532,1.532,0,0,0-.488.253l-.389-.757a2.361,2.361,0,0,1,.732-.333,3.3,3.3,0,0,1,.878-.117,1.941,1.941,0,0,1,1.331.412m-.922,2.574a.7.7,0,0,0,.305-.378v-.382H102.3q-.666,0-.666.438a.388.388,0,0,0,.163.329.734.734,0,0,0,.447.121.941.941,0,0,0,.493-.128" fill="#fff"/>
    <path id="Path_50072" data-name="Path 50072" d="M105.155,503.086a.588.588,0,0,1,0-.86.683.683,0,0,1,.485-.173.7.7,0,0,1,.486.166.533.533,0,0,1,.187.416.589.589,0,0,1-.187.448.759.759,0,0,1-.971,0m-.056.694h1.082v3.732H105.1Z" fill="#fff"/>
    <path id="Path_50073" data-name="Path 50073" d="M107.534,507.453a2.362,2.362,0,0,1-.708-.288l.361-.777a2.264,2.264,0,0,0,.6.26,2.539,2.539,0,0,0,.694.1q.687,0,.687-.34a.24.24,0,0,0-.187-.229,2.838,2.838,0,0,0-.576-.118,5.525,5.525,0,0,1-.756-.159,1.183,1.183,0,0,1-.517-.319.909.909,0,0,1-.218-.653,1.022,1.022,0,0,1,.2-.627,1.316,1.316,0,0,1,.6-.427,2.537,2.537,0,0,1,.926-.153,3.621,3.621,0,0,1,.787.087,2.2,2.2,0,0,1,.649.239l-.361.77a2.152,2.152,0,0,0-1.075-.277,1.093,1.093,0,0,0-.521.1.286.286,0,0,0-.173.25.25.25,0,0,0,.187.243,3.306,3.306,0,0,0,.6.131,6.577,6.577,0,0,1,.749.163,1.125,1.125,0,0,1,.507.316.9.9,0,0,1,.215.638A.987.987,0,0,1,110,507a1.328,1.328,0,0,1-.607.419,2.692,2.692,0,0,1-.947.15,3.642,3.642,0,0,1-.909-.115" fill="#fff"/>
    <path id="Path_50074" data-name="Path 50074" d="M111.589,507.322a1.825,1.825,0,0,1-.731-.683,2,2,0,0,1,0-1.985,1.825,1.825,0,0,1,.731-.683,2.392,2.392,0,0,1,2.113,0,1.837,1.837,0,0,1,.728.683,2,2,0,0,1,0,1.985,1.837,1.837,0,0,1-.728.683,2.392,2.392,0,0,1-2.113,0m1.742-.923a1.194,1.194,0,0,0,0-1.5.975.975,0,0,0-1.37,0,1.18,1.18,0,0,0,0,1.5.975.975,0,0,0,1.37,0" fill="#fff"/>
    <path id="Path_50075" data-name="Path 50075" d="M118.8,504.141a1.651,1.651,0,0,1,.426,1.235v2.137h-1.082v-1.971a.979.979,0,0,0-.194-.663.713.713,0,0,0-.562-.218.86.86,0,0,0-.652.253,1.049,1.049,0,0,0-.243.753v1.846h-1.082V503.78h1.034v.437a1.445,1.445,0,0,1,.534-.364,1.848,1.848,0,0,1,.7-.128,1.535,1.535,0,0,1,1.121.416" fill="#fff"/>
    <path id="Path_50076" data-name="Path 50076" d="M99.074,460.183l-4.281,4.281a.9.9,0,0,0,1.278,1.278l4.281-4.281a3.859,3.859,0,0,1,2.747-1.14h8.775a3.861,3.861,0,0,1,2.748,1.14l2.908,2.908a.9.9,0,0,0,.639.264h12.453a.9.9,0,1,0,0-1.807H118.543l-2.643-2.643a5.656,5.656,0,0,0-4.025-1.667H103.1a5.652,5.652,0,0,0-4.026,1.667" fill="#fff"/>
    <path id="Path_50077" data-name="Path 50077" d="M93.332,468.481a.9.9,0,0,0-1.278-1.278l-1.227,1.227a4.35,4.35,0,1,0,6.152,6.153l3-3a6.649,6.649,0,0,0,4.052,1.364h2.192a6.649,6.649,0,0,0,4.734-1.961l.83-.831,3.71,3.71a.9.9,0,1,0,1.278-1.277l-3.71-3.711,1.126-1.125a.9.9,0,1,0-1.278-1.277l-1.764,1.763-1.469,1.469a4.857,4.857,0,0,1-3.456,1.432h-2.192a4.861,4.861,0,0,1-3.456-1.432.9.9,0,0,0-1.278,0L95.7,473.3a2.543,2.543,0,0,1-3.6-3.6Z" fill="#fff"/>
    <path id="Path_50078" data-name="Path 50078" d="M130.623,480.217H122.45c.011-.118.018-.238.018-.359a3.783,3.783,0,0,0-1.113-2.689l-1.857-1.856a.9.9,0,0,0-1.278,1.278l1.857,1.856a1.994,1.994,0,1,1-2.821,2.82l-5.091-5.091a.9.9,0,0,0-1.278,1.278l5.82,5.821a1.994,1.994,0,0,1-2.82,2.82l-7.407-7.406a.9.9,0,0,0-1.278,1.277l5.472,5.472a1.995,1.995,0,0,1-2.824,2.818l-.787-.788-4.652-4.652a.9.9,0,0,0-1.277,1.278l4.652,4.652a1.994,1.994,0,1,1-2.82,2.82l-1.452-1.451a3.8,3.8,0,0,0-3.764-4.324h0c-.1,0-.208.005-.311.014.008-.1.014-.207.014-.311a3.8,3.8,0,0,0-3.8-3.8h0c-.105,0-.209.005-.312.014a3.8,3.8,0,0,0-3.469-4.1c-.105-.009-.212-.013-.318-.013s-.207.005-.31.013c.009-.1.014-.206.014-.31a3.8,3.8,0,0,0-6.492-2.689l-2.912,2.913a3.808,3.808,0,0,0-.741,4.329H70.785a.9.9,0,0,0,0,1.807H80.933a3.782,3.782,0,0,0,1.6.354c.1,0,.207,0,.31-.014-.008.1-.013.207-.013.311a3.8,3.8,0,0,0,3.8,3.8h.005c.1,0,.207-.005.31-.013-.008.1-.014.207-.014.312a3.8,3.8,0,0,0,3.8,3.8c.1,0,.209-.005.312-.014a3.8,3.8,0,0,0,6.424,3.045.9.9,0,0,0-1.255-1.3,1.993,1.993,0,0,1-2.792-2.844l2.912-2.913A1.994,1.994,0,0,1,99.154,491l-.211.21a.9.9,0,0,0,1.278,1.278l.211-.211a3.865,3.865,0,0,0,.322-.366l.929.929a3.8,3.8,0,0,0,6.474-2.357,3.862,3.862,0,0,0,1.1.16,3.8,3.8,0,0,1,6.036-2.162,3.8,3.8,0,0,0,3.655-4.84,3.79,3.79,0,0,0,2.4-1.1,3.956,3.956,0,0,0,.436-.522h8.833a.9.9,0,0,0,0-1.807Zm-49.492,1.4a2,2,0,0,1,0-2.821l2.912-2.912a1.995,1.995,0,0,1,2.821,2.821l-2.912,2.912a2,2,0,0,1-2.821,0m4.1,4.1a2,2,0,0,1,0-2.82l2.913-2.912a1.995,1.995,0,0,1,2.821,2.82l-.971.97-1.942,1.942a2,2,0,0,1-2.821,0Zm6.919,4.1A1.994,1.994,0,0,1,89.328,487l2.912-2.911a1.994,1.994,0,0,1,2.82,2.82Z" fill="#fff"/>
    <path id="Path_50079" data-name="Path 50079" d="M70.878,465.04H82.43a.9.9,0,0,0,.587-.216l2.3-1.96a3.749,3.749,0,0,1,2.431-.9h6.914a.9.9,0,0,0,0-1.807H87.745a5.551,5.551,0,0,0-3.6,1.329L82.1,463.233H70.878a.9.9,0,1,0,0,1.807" fill="#fff"/>
    <path id="Path_50080" data-name="Path 50080" d="M106.6,439.842a1.482,1.482,0,0,0-1.347-.852h-1.877L102,436.775a1.493,1.493,0,0,0-2.535,0l-1.374,2.215H96.212a1.493,1.493,0,0,0-1.157,2.435l1.793,2.2-.815,2.54a1.2,1.2,0,0,0,1.624,1.458l2.831-1.256a.6.6,0,0,1,.485,0l2.832,1.256a1.214,1.214,0,0,0,1.283-.2,1.2,1.2,0,0,0,.34-1.254l-.814-2.541,1.793-2.2a1.48,1.48,0,0,0,.19-1.583m-3.3,2.811a1.487,1.487,0,0,0-.264,1.4l.539,1.681-1.936-.858a2.237,2.237,0,0,0-1.81,0l-1.934.858.538-1.681a1.484,1.484,0,0,0-.264-1.4l-1.651-2.027H98.17a1.481,1.481,0,0,0,1.267-.7l1.3-2.087,1.295,2.087a1.482,1.482,0,0,0,1.265.706h1.655Z" fill="#00b7e9"/>
    <path id="Path_50081" data-name="Path 50081" d="M91.659,445.054a1.478,1.478,0,0,0-1.346-.852H88.435l-1.374-2.215a1.492,1.492,0,0,0-2.535,0L83.151,444.2H81.274a1.493,1.493,0,0,0-1.156,2.435l1.792,2.2-.814,2.54a1.2,1.2,0,0,0,1.623,1.458l2.832-1.256a.6.6,0,0,1,.484,0l2.832,1.256a1.216,1.216,0,0,0,1.284-.2,1.2,1.2,0,0,0,.339-1.254l-.814-2.541,1.794-2.2a1.482,1.482,0,0,0,.19-1.583m-3.3,2.811a1.487,1.487,0,0,0-.264,1.4l.539,1.681-1.936-.858a2.237,2.237,0,0,0-1.81,0l-1.935.858.538-1.681a1.484,1.484,0,0,0-.264-1.4l-1.651-2.027h1.654a1.482,1.482,0,0,0,1.267-.705l1.3-2.087,1.295,2.087a1.486,1.486,0,0,0,1.267.705h1.655Z" fill="#00b7e9"/>
    <path id="Path_50082" data-name="Path 50082" d="M121.534,445.054a1.48,1.48,0,0,0-1.347-.852H118.31l-1.375-2.215a1.49,1.49,0,0,0-2.534,0l-1.376,2.215h-1.877a1.493,1.493,0,0,0-1.156,2.435l1.792,2.2-.814,2.54a1.2,1.2,0,0,0,1.623,1.458l2.832-1.256a.6.6,0,0,1,.484,0l2.832,1.256a1.216,1.216,0,0,0,1.284-.2,1.2,1.2,0,0,0,.339-1.254l-.814-2.541,1.793-2.2a1.48,1.48,0,0,0,.19-1.583m-3.3,2.811a1.487,1.487,0,0,0-.264,1.4l.539,1.681-1.936-.858a2.237,2.237,0,0,0-1.81,0l-1.936.858.538-1.681a1.484,1.484,0,0,0-.263-1.4l-1.651-2.027H113.1a1.484,1.484,0,0,0,1.268-.705l1.295-2.087,1.3,2.087a1.482,1.482,0,0,0,1.267.705h1.655Z" fill="#00b7e9"/>
    <path id="Path_50083" data-name="Path 50083" d="M100.731,432.951a.9.9,0,0,0,.9-.9h0v-1.253a.9.9,0,1,0-1.807-.043v1.3a.9.9,0,0,0,.9.9" fill="#fff"/>
    <path id="Path_50084" data-name="Path 50084" d="M92.956,435.692a.9.9,0,0,0,1.3-1.252l-.026-.026-.886-.886A.9.9,0,0,0,92.07,434.8Z" fill="#fff"/>
    <path id="Path_50085" data-name="Path 50085" d="M107.866,435.957a.9.9,0,0,0,.639-.265l.886-.886a.9.9,0,1,0-1.242-1.313q-.018.016-.036.036l-.886.886a.9.9,0,0,0,.64,1.542" fill="#fff"/>
    <path id="Path_50086" data-name="Path 50086" d="M175.474,452.505H289.053a6.111,6.111,0,0,1,6.112,6.112v26.919a6.112,6.112,0,0,1-6.112,6.112H175.474a6.112,6.112,0,0,1-6.112-6.112V458.617a6.111,6.111,0,0,1,6.112-6.112" fill="#171717"/>
    <path id="Path_50087" data-name="Path 50087" d="M290.576,453.1a3.993,3.993,0,0,1,3.992,3.992v29.962a3.992,3.992,0,0,1-3.992,3.992H173.952a3.992,3.992,0,0,1-3.991-3.992V457.1a3.994,3.994,0,0,1,3.991-3.992Zm0-1.2H173.952a5.2,5.2,0,0,0-5.188,5.189v29.962a5.2,5.2,0,0,0,5.188,5.19H290.576a5.194,5.194,0,0,0,5.188-5.19V457.1a5.194,5.194,0,0,0-5.188-5.189" fill="#00b7e9"/>
    <path id="Path_50088" data-name="Path 50088" d="M210.423,463.914h2.7a3.807,3.807,0,0,1,1.713.37A2.768,2.768,0,0,1,216,465.326a3.176,3.176,0,0,1,0,3.129,2.768,2.768,0,0,1-1.157,1.042,3.807,3.807,0,0,1-1.713.37h-2.7Zm2.636,4.822a2,2,0,0,0,1.424-.5,1.973,1.973,0,0,0,0-2.7,2,2,0,0,0-1.424-.5H211.8v3.691Z" fill="#fff"/>
    <path id="Path_50089" data-name="Path 50089" d="M222.056,468.761v1.106h-4.609v-5.953h4.5v1.105h-3.129v1.293h2.764v1.071h-2.764v1.378Z" fill="#fff"/>
    <path id="Path_50090" data-name="Path 50090" d="M228.57,469.867l-.009-3.571-1.752,2.942h-.62l-1.744-2.866v3.495h-1.292v-5.953h1.14l2.227,3.7,2.194-3.7h1.131l.017,5.953Z" fill="#fff"/>
    <path id="Path_50091" data-name="Path 50091" d="M232.485,469.569a2.961,2.961,0,0,1-1.164-1.1,3.166,3.166,0,0,1,0-3.155,2.954,2.954,0,0,1,1.164-1.1,3.682,3.682,0,0,1,3.338,0,3.036,3.036,0,0,1,0,5.357,3.682,3.682,0,0,1-3.338,0m2.624-1.016a1.741,1.741,0,0,0,.667-.676,2.124,2.124,0,0,0,0-1.973,1.734,1.734,0,0,0-.667-.676,2,2,0,0,0-1.9,0,1.727,1.727,0,0,0-.667.676,2.124,2.124,0,0,0,0,1.973,1.734,1.734,0,0,0,.667.676,2,2,0,0,0,1.9,0" fill="#fff"/>
    <path id="Path_50092" data-name="Path 50092" d="M246.373,467.409h-1.48v1.446h-1.1v-1.446h-1.471v-1.038H243.8v-1.445h1.1v1.445h1.48Z" fill="#00b7e9"/>
    <path id="Path_50093" data-name="Path 50093" d="M251,469.778a3.2,3.2,0,0,1-1.059-.5l.468-1.038a3.16,3.16,0,0,0,.91.451,3.421,3.421,0,0,0,1.054.17,1.69,1.69,0,0,0,.868-.174.528.528,0,0,0,.28-.464.442.442,0,0,0-.166-.353,1.247,1.247,0,0,0-.425-.225q-.26-.086-.7-.187a9.873,9.873,0,0,1-1.114-.323,1.825,1.825,0,0,1-.745-.519,1.406,1.406,0,0,1-.31-.953,1.658,1.658,0,0,1,.281-.939,1.889,1.889,0,0,1,.846-.668,3.462,3.462,0,0,1,1.382-.246,4.567,4.567,0,0,1,1.114.136,3.3,3.3,0,0,1,.952.391l-.425,1.046a3.319,3.319,0,0,0-1.65-.468,1.551,1.551,0,0,0-.854.187.572.572,0,0,0-.277.493.483.483,0,0,0,.319.455,4.99,4.99,0,0,0,.974.294,9.725,9.725,0,0,1,1.114.323,1.843,1.843,0,0,1,.744.51,1.368,1.368,0,0,1,.31.944,1.63,1.63,0,0,1-.284.931,1.908,1.908,0,0,1-.855.667,3.473,3.473,0,0,1-1.386.248,4.852,4.852,0,0,1-1.365-.192" fill="#00b7e9"/>
    <path id="Path_50094" data-name="Path 50094" d="M259.786,464.178a2.039,2.039,0,0,1,.9.748,2.248,2.248,0,0,1,0,2.292,2.006,2.006,0,0,1-.9.748,3.355,3.355,0,0,1-1.374.26h-1.2v1.641h-1.377v-5.953h2.576a3.306,3.306,0,0,1,1.374.264m-.506,2.657a.934.934,0,0,0,.323-.761.945.945,0,0,0-.323-.77,1.451,1.451,0,0,0-.944-.267h-1.123V467.1h1.123a1.445,1.445,0,0,0,.944-.268" fill="#00b7e9"/>
    <path id="Path_50095" data-name="Path 50095" d="M265.768,469.867l-1.147-1.658h-1.268v1.658h-1.377v-5.953h2.576a3.321,3.321,0,0,1,1.374.264,2.047,2.047,0,0,1-.013,3.776l1.335,1.913Zm-.348-4.562a1.445,1.445,0,0,0-.944-.268h-1.123v2.075h1.123a1.434,1.434,0,0,0,.944-.272,1.073,1.073,0,0,0,0-1.535" fill="#00b7e9"/>
    <rect id="Rectangle_1918" data-name="Rectangle 1918" width="1.378" height="5.953" transform="translate(268.226 463.914)" fill="#00b7e9"/>
    <path id="Path_50096" data-name="Path 50096" d="M276.475,463.914v5.953h-1.131l-2.968-3.614v3.614h-1.361v-5.953h1.14l2.959,3.614v-3.614Z" fill="#00b7e9"/>
    <path id="Path_50097" data-name="Path 50097" d="M279.119,465.037h-1.9v-1.123H282.4v1.123h-1.9v4.83h-1.378Z" fill="#00b7e9"/>
    <path id="Path_50098" data-name="Path 50098" d="M214.216,480.229l-1.148-1.658H211.8v1.658h-1.378v-5.952H213a3.317,3.317,0,0,1,1.373.263,1.972,1.972,0,0,1,1.212,1.9,1.94,1.94,0,0,1-1.225,1.879l1.336,1.913Zm-.349-4.562a1.444,1.444,0,0,0-.944-.268H211.8v2.075h1.122a1.432,1.432,0,0,0,.944-.272,1.073,1.073,0,0,0,0-1.535" fill="#fff"/>
    <path id="Path_50099" data-name="Path 50099" d="M221.283,479.123v1.106h-4.609v-5.953h4.5v1.106h-3.13v1.292h2.764v1.072h-2.764v1.377Zm-1.982-6.556h1.429l-1.54,1.224h-1.037Z" fill="#fff"/>
    <path id="Path_50100" data-name="Path 50100" d="M223.612,475.4h-1.9v-1.123h5.187V475.4h-1.9v4.83h-1.378Z" fill="#fff"/>
    <path id="Path_50101" data-name="Path 50101" d="M231.428,480.229l-1.148-1.658h-1.267v1.658h-1.378v-5.952h2.577a3.317,3.317,0,0,1,1.373.263,1.972,1.972,0,0,1,1.212,1.9,1.94,1.94,0,0,1-1.225,1.879l1.336,1.913Zm-.349-4.562a1.444,1.444,0,0,0-.944-.268h-1.122v2.075h1.122a1.432,1.432,0,0,0,.944-.272,1.073,1.073,0,0,0,0-1.535" fill="#fff"/>
    <path id="Path_50102" data-name="Path 50102" d="M235.1,479.932a2.961,2.961,0,0,1-1.164-1.1,3.166,3.166,0,0,1,0-3.155,2.954,2.954,0,0,1,1.164-1.1,3.682,3.682,0,0,1,3.338,0,3.036,3.036,0,0,1,0,5.357,3.682,3.682,0,0,1-3.338,0m2.624-1.016a1.74,1.74,0,0,0,.667-.676,2.124,2.124,0,0,0,0-1.973,1.734,1.734,0,0,0-.667-.676,2,2,0,0,0-1.9,0,1.727,1.727,0,0,0-.667.676,2.124,2.124,0,0,0,0,1.973,1.734,1.734,0,0,0,.667.676,2,2,0,0,0,1.9,0" fill="#fff"/>
    <path id="Path_50103" data-name="Path 50103" d="M241.653,480.14a3.207,3.207,0,0,1-1.058-.5l.467-1.038a3.16,3.16,0,0,0,.91.451,3.431,3.431,0,0,0,1.054.17,1.688,1.688,0,0,0,.868-.174.528.528,0,0,0,.28-.464.444.444,0,0,0-.165-.353,1.253,1.253,0,0,0-.426-.225c-.173-.057-.406-.119-.7-.187a9.873,9.873,0,0,1-1.114-.323,1.815,1.815,0,0,1-.744-.519,1.4,1.4,0,0,1-.31-.953,1.658,1.658,0,0,1,.28-.939,1.889,1.889,0,0,1,.846-.668,3.462,3.462,0,0,1,1.382-.246,4.561,4.561,0,0,1,1.114.136,3.3,3.3,0,0,1,.952.391l-.425,1.046a3.315,3.315,0,0,0-1.649-.468,1.553,1.553,0,0,0-.855.187.571.571,0,0,0-.276.493.482.482,0,0,0,.318.455,5.014,5.014,0,0,0,.974.294,9.66,9.66,0,0,1,1.114.323,1.843,1.843,0,0,1,.744.51,1.369,1.369,0,0,1,.311.944,1.623,1.623,0,0,1-.285.931,1.908,1.908,0,0,1-.855.667,3.47,3.47,0,0,1-1.386.248,4.857,4.857,0,0,1-1.365-.192" fill="#fff"/>
    <path id="Path_50104" data-name="Path 50104" d="M250.437,474.541a2.039,2.039,0,0,1,.9.748,2.248,2.248,0,0,1,0,2.292,2.006,2.006,0,0,1-.9.748,3.355,3.355,0,0,1-1.374.259h-1.2v1.642h-1.377v-5.953h2.576a3.305,3.305,0,0,1,1.374.264m-.506,2.657a.934.934,0,0,0,.323-.761.945.945,0,0,0-.323-.77,1.451,1.451,0,0,0-.944-.267h-1.123v2.066h1.123a1.445,1.445,0,0,0,.944-.268" fill="#fff"/>
    <path id="Path_50105" data-name="Path 50105" d="M257.236,479.124v1.106h-4.609v-5.953h4.5v1.105H254v1.293h2.764v1.071H254v1.378Z" fill="#fff"/>
    <path id="Path_50106" data-name="Path 50106" d="M259.527,479.936a2.956,2.956,0,0,1-1.156-1.1,3.2,3.2,0,0,1,0-3.172,2.942,2.942,0,0,1,1.156-1.1,3.693,3.693,0,0,1,3.053-.123,2.792,2.792,0,0,1,1.05.782l-.884.816a1.9,1.9,0,0,0-1.5-.7,1.982,1.982,0,0,0-.986.243,1.714,1.714,0,0,0-.676.675,2.124,2.124,0,0,0,0,1.973,1.726,1.726,0,0,0,.676.677,1.992,1.992,0,0,0,.986.242,1.9,1.9,0,0,0,1.5-.706l.884.817a2.758,2.758,0,0,1-1.054.79,3.49,3.49,0,0,1-1.4.272,3.414,3.414,0,0,1-1.646-.395" fill="#fff"/>
    <path id="Path_50107" data-name="Path 50107" d="M265.74,475.4h-1.9v-1.123h5.187V475.4h-1.9v4.83H265.74Z" fill="#fff"/>
    <rect id="Rectangle_1919" data-name="Rectangle 1919" width="1.378" height="5.953" transform="translate(269.762 474.277)" fill="#fff"/>
    <path id="Path_50108" data-name="Path 50108" d="M278.249,474.277l-2.577,5.953h-1.36l-2.569-5.953h1.489l1.811,4.252,1.837-4.252Z" fill="#fff"/>
    <path id="Path_50109" data-name="Path 50109" d="M283.359,479.124v1.106H278.75v-5.953h4.5v1.105h-3.129v1.293h2.764v1.071h-2.764v1.378Z" fill="#fff"/>
    <path id="Path_50110" data-name="Path 50110" d="M201.679,478.924h-1.745V462.63h1.745a.5.5,0,1,0,0-1H178.419a.5.5,0,0,0,0,1h1.748v16.294h-1.744a.5.5,0,1,0,0,1h23.264a.5.5,0,1,0,0-1h0m-2.748,0H181.166V462.63h17.766Z" fill="#fff"/>
    <path id="Path_50111" data-name="Path 50111" d="M192.032,483.386h-1.557v-1.644a.5.5,0,1,0-1,0v1.648H187.79a.5.5,0,0,0,0,1h4.245a.5.5,0,1,0,0-1h0" fill="#fff"/>
    <path id="Path_50112" data-name="Path 50112" d="M189.383,473.144a.508.508,0,0,0,.744.247l5.522-3.567a.5.5,0,1,0-.548-.846l-5,3.226-.988-2.635a.5.5,0,0,0-.65-.3.531.531,0,0,0-.1.05l-4.947,3.221a.5.5,0,0,0-.148.7h0a.517.517,0,0,0,.7.148l4.419-2.878Z" fill="#00ade1"/>
    <path id="Path_50113" data-name="Path 50113" d="M204.821,317.682a2.264,2.264,0,0,1-.748-.351l.331-.733a2.232,2.232,0,0,0,.643.318,2.412,2.412,0,0,0,.745.12,1.2,1.2,0,0,0,.613-.123.372.372,0,0,0,.2-.328.313.313,0,0,0-.117-.249.892.892,0,0,0-.3-.159q-.183-.06-.495-.132a6.815,6.815,0,0,1-.788-.229,1.287,1.287,0,0,1-.526-.366.993.993,0,0,1-.219-.673,1.17,1.17,0,0,1,.2-.664,1.335,1.335,0,0,1,.6-.472,2.446,2.446,0,0,1,.977-.174,3.237,3.237,0,0,1,.787.1,2.329,2.329,0,0,1,.673.276l-.3.739a2.352,2.352,0,0,0-1.166-.33,1.093,1.093,0,0,0-.6.132.4.4,0,0,0-.2.348.342.342,0,0,0,.226.322,3.523,3.523,0,0,0,.688.207,7,7,0,0,1,.787.229,1.305,1.305,0,0,1,.526.36.97.97,0,0,1,.219.667,1.148,1.148,0,0,1-.2.658,1.348,1.348,0,0,1-.6.472,2.463,2.463,0,0,1-.979.174,3.414,3.414,0,0,1-.965-.135" fill="#fff"/>
    <path id="Path_50114" data-name="Path 50114" d="M210.257,317.589a.959.959,0,0,1-.34.153,1.714,1.714,0,0,1-.423.052,1.262,1.262,0,0,1-.893-.3,1.127,1.127,0,0,1-.315-.865v-1.328h-.5v-.722h.5V313.8h.937v.787h.806v.722h-.806v1.316a.437.437,0,0,0,.106.315.389.389,0,0,0,.3.111.6.6,0,0,0,.378-.12Z" fill="#fff"/>
    <path id="Path_50115" data-name="Path 50115" d="M213.243,314.822a1.366,1.366,0,0,1,.4,1.078v1.845h-.878v-.4a1.042,1.042,0,0,1-.985.451,1.532,1.532,0,0,1-.646-.126.96.96,0,0,1-.418-.349.906.906,0,0,1-.144-.5.843.843,0,0,1,.34-.71,1.729,1.729,0,0,1,1.048-.258h.745a.6.6,0,0,0-.186-.472.82.82,0,0,0-.559-.165,1.64,1.64,0,0,0-.508.081,1.342,1.342,0,0,0-.423.22l-.337-.655a2.012,2.012,0,0,1,.634-.289,2.848,2.848,0,0,1,.76-.1,1.679,1.679,0,0,1,1.154.358m-.8,2.229a.607.607,0,0,0,.264-.327v-.331h-.643c-.384,0-.577.126-.577.379a.335.335,0,0,0,.142.285.635.635,0,0,0,.387.1.819.819,0,0,0,.427-.111" fill="#fff"/>
    <path id="Path_50116" data-name="Path 50116" d="M217.429,314.825a1.431,1.431,0,0,1,.37,1.07v1.85h-.938v-1.706a.843.843,0,0,0-.168-.574.615.615,0,0,0-.487-.189.747.747,0,0,0-.565.219.908.908,0,0,0-.21.652v1.6h-.938v-3.233h.9v.379a1.241,1.241,0,0,1,.462-.315,1.6,1.6,0,0,1,.607-.112,1.328,1.328,0,0,1,.971.361" fill="#fff"/>
    <path id="Path_50117" data-name="Path 50117" d="M221.975,313.287v4.459h-.9v-.373a1.237,1.237,0,0,1-1.009.421,1.684,1.684,0,0,1-.827-.205,1.469,1.469,0,0,1-.58-.582,1.938,1.938,0,0,1,0-1.755,1.465,1.465,0,0,1,.58-.583,1.684,1.684,0,0,1,.827-.2,1.23,1.23,0,0,1,.967.39v-1.568Zm-1.154,3.494a1.025,1.025,0,0,0,0-1.3.843.843,0,0,0-1.184,0,1.025,1.025,0,0,0,0,1.3.84.84,0,0,0,1.184,0" fill="#fff"/>
    <path id="Path_50118" data-name="Path 50118" d="M225.072,317.319a1.917,1.917,0,0,1-.5-1.424v-2.356h.974v2.32q0,1.129.937,1.13a.879.879,0,0,0,.7-.274,1.274,1.274,0,0,0,.241-.856v-2.32h.961v2.356a1.989,1.989,0,0,1-3.308,1.424" fill="#fff"/>
    <path id="Path_50119" data-name="Path 50119" d="M232.008,314.672a1.5,1.5,0,0,1,.58.583,1.926,1.926,0,0,1,0,1.749,1.5,1.5,0,0,1-.58.582,1.643,1.643,0,0,1-.821.208,1.25,1.25,0,0,1-.973-.391v1.508h-.938v-4.4h.9v.373a1.244,1.244,0,0,1,1.015-.42,1.642,1.642,0,0,1,.821.207m-.391,2.109a1.036,1.036,0,0,0,0-1.3.843.843,0,0,0-1.184,0,1.036,1.036,0,0,0,0,1.3.84.84,0,0,0,1.184,0" fill="#fff"/>
    <path id="Path_50120" data-name="Path 50120" d="M239.738,318.2a1.36,1.36,0,0,1-.5.385,1.53,1.53,0,0,1-.64.132,1.775,1.775,0,0,1-.847-.2,3.687,3.687,0,0,1-.866-.713,2.366,2.366,0,0,1-1.018-.366,2.077,2.077,0,0,1-.7-.76,2.153,2.153,0,0,1-.249-1.031,2.09,2.09,0,0,1,1.122-1.893,2.606,2.606,0,0,1,2.358,0,2.1,2.1,0,0,1,1.123,1.893,2.1,2.1,0,0,1-.41,1.286,2.129,2.129,0,0,1-1.092.769,1.085,1.085,0,0,0,.291.226.685.685,0,0,0,.3.069.918.918,0,0,0,.685-.313Zm-3.657-1.857a1.219,1.219,0,0,0,.472.478,1.41,1.41,0,0,0,1.346,0,1.219,1.219,0,0,0,.472-.478,1.506,1.506,0,0,0,0-1.394,1.225,1.225,0,0,0-.472-.478,1.41,1.41,0,0,0-1.346,0,1.225,1.225,0,0,0-.472.478,1.506,1.506,0,0,0,0,1.394" fill="#fff"/>
    <path id="Path_50121" data-name="Path 50121" d="M243.452,314.512v3.233h-.889v-.385a1.244,1.244,0,0,1-.445.322,1.4,1.4,0,0,1-.559.111,1.38,1.38,0,0,1-1.01-.366,1.464,1.464,0,0,1-.372-1.088v-1.827h.937V316.2q0,.78.655.781a.7.7,0,0,0,.541-.219.929.929,0,0,0,.205-.652v-1.6Z" fill="#fff"/>
    <path id="Path_50122" data-name="Path 50122" d="M244.946,317.58a1.575,1.575,0,0,1-.634-.592,1.726,1.726,0,0,1,0-1.718,1.575,1.575,0,0,1,.634-.592,2.072,2.072,0,0,1,1.83,0,1.584,1.584,0,0,1,.63.592,1.726,1.726,0,0,1,0,1.718,1.584,1.584,0,0,1-.63.592,2.063,2.063,0,0,1-1.83,0m1.508-.8a1.036,1.036,0,0,0,0-1.3.782.782,0,0,0-.592-.243.792.792,0,0,0-.6.243,1.025,1.025,0,0,0,0,1.3.792.792,0,0,0,.6.244.783.783,0,0,0,.592-.244" fill="#fff"/>
    <path id="Path_50123" data-name="Path 50123" d="M250.345,317.589a.959.959,0,0,1-.34.153,1.714,1.714,0,0,1-.423.052,1.262,1.262,0,0,1-.893-.3,1.127,1.127,0,0,1-.315-.865v-1.328h-.5v-.722h.5V313.8h.937v.787h.806v.722h-.806v1.316a.437.437,0,0,0,.106.315.389.389,0,0,0,.3.111.6.6,0,0,0,.378-.12Z" fill="#fff"/>
    <path id="Path_50124" data-name="Path 50124" d="M250.921,313.912a.51.51,0,0,1,0-.746.6.6,0,0,1,.421-.15.609.609,0,0,1,.421.145.462.462,0,0,1,.162.36.508.508,0,0,1-.162.387.587.587,0,0,1-.421.154.6.6,0,0,1-.421-.15m-.048.6h.937v3.233h-.937Z" fill="#fff"/>
    <path id="Path_50125" data-name="Path 50125" d="M255.975,313.287v4.459h-.9v-.373a1.237,1.237,0,0,1-1.009.421,1.684,1.684,0,0,1-.827-.205,1.469,1.469,0,0,1-.58-.582,1.938,1.938,0,0,1,0-1.755,1.465,1.465,0,0,1,.58-.583,1.684,1.684,0,0,1,.827-.2,1.23,1.23,0,0,1,.967.39v-1.568Zm-1.154,3.494a1.025,1.025,0,0,0,0-1.3.843.843,0,0,0-1.184,0,1.025,1.025,0,0,0,0,1.3.84.84,0,0,0,1.184,0" fill="#fff"/>
    <path id="Path_50126" data-name="Path 50126" d="M256.889,313.912a.508.508,0,0,1,0-.746.594.594,0,0,1,.42-.15.607.607,0,0,1,.421.145.462.462,0,0,1,.162.36.508.508,0,0,1-.162.387.586.586,0,0,1-.421.154.594.594,0,0,1-.42-.15m-.049.6h.937v3.233h-.937Z" fill="#fff"/>
    <path id="Path_50127" data-name="Path 50127" d="M261.8,316.394h-2.446a.761.761,0,0,0,.312.474,1.03,1.03,0,0,0,.613.175,1.223,1.223,0,0,0,.448-.076,1.068,1.068,0,0,0,.363-.237l.5.541a1.674,1.674,0,0,1-1.334.523,2.109,2.109,0,0,1-.967-.213,1.56,1.56,0,0,1-.649-.592,1.627,1.627,0,0,1-.229-.86,1.647,1.647,0,0,1,.226-.856,1.575,1.575,0,0,1,.619-.6,1.917,1.917,0,0,1,1.739-.009,1.488,1.488,0,0,1,.6.586,1.751,1.751,0,0,1,.22.886c0,.012-.006.1-.018.253m-2.194-1.04a.769.769,0,0,0-.264.493h1.592a.774.774,0,0,0-.264-.49.794.794,0,0,0-.529-.183.809.809,0,0,0-.535.18" fill="#fff"/>
    <path id="Path_50128" data-name="Path 50128" d="M265.377,314.825a1.431,1.431,0,0,1,.37,1.07v1.85h-.938v-1.706a.843.843,0,0,0-.168-.574.615.615,0,0,0-.487-.189.747.747,0,0,0-.565.219.908.908,0,0,0-.21.652v1.6h-.938v-3.233h.9v.379a1.241,1.241,0,0,1,.462-.315,1.6,1.6,0,0,1,.607-.112,1.328,1.328,0,0,1,.971.361" fill="#fff"/>
    <path id="Path_50129" data-name="Path 50129" d="M219.055,292.6l1.268.191,1.03-.476a5.8,5.8,0,0,0,.718-.505c.024-.071.359-1.2.359-1.2s-.168-.429,0-.429,1.8.5,1.8.5l.541-1.22-.36-1.141-.789-.393h-3.613l-.766.674a13.435,13.435,0,0,0-.191,1.482c.048.072,0,2.512,0,2.512" fill="#00ade1"/>
    <path id="Path_50130" data-name="Path 50130" d="M238.7,290.363l.191-2.43h-4.833l-1.148.674v1.714Z" fill="#00ade1"/>
    <path id="Path_50131" data-name="Path 50131" d="M253.056,292.793h-1.962l-.928-.789-.555-1.58-1.557.335s-.908-.1-.884-.214.1-1.937.1-1.937,1.1-.671,1.172-.671,3.32-.006,3.422,0c1.3.066,1.316,1.84,1.339,1.877s-.143,2.98-.143,2.98" fill="#00ade1"/>
    <path id="Path_50132" data-name="Path 50132" d="M253.887,300.617a.537.537,0,0,0,.537-.536h0v-3.629a2.528,2.528,0,0,0-.6-1.636,2.594,2.594,0,0,0-.752-.606,3.439,3.439,0,0,0,.612-1.955v-3.112a2.167,2.167,0,0,0-2.165-2.164h-2.557a2.166,2.166,0,0,0-2.165,2.164v3.112a3.415,3.415,0,0,0,.558,1.876,2.068,2.068,0,0,0-.736.606l-2.728,3.613h-2.153v-2.183a2.278,2.278,0,0,0-.911-1.7,5.877,5.877,0,0,0-1.664-.954,3.433,3.433,0,0,0,.238-1.255v-4.74a.54.54,0,0,0-.539-.538h-4.182a2.166,2.166,0,0,0-2.165,2.164v3.112a3.414,3.414,0,0,0,.264,1.323,5.642,5.642,0,0,0-1.55.938,2.243,2.243,0,0,0-.859,1.651v2.183h-2.153l-2.728-3.613a2.077,2.077,0,0,0-.734-.608,3.425,3.425,0,0,0,.558-1.874v-3.112a2.167,2.167,0,0,0-2.165-2.164H220.59a2.166,2.166,0,0,0-2.162,2.164v3.112a3.414,3.414,0,0,0,.612,1.955,2.6,2.6,0,0,0-.738.588,2.53,2.53,0,0,0-.618,1.654v3.628a.538.538,0,0,0,1.076,0V296.45a1.457,1.457,0,0,1,1.086-1.41,3.431,3.431,0,0,0,4.1-.046,1,1,0,0,1,.683.389l2.891,3.829a.535.535,0,0,0,.429.214h3.706a.992.992,0,0,1,0,1.984H227.2a.948.948,0,0,1-.45-.1.987.987,0,0,1-.35-.291l-.512-.681-1.872-2.478a.538.538,0,0,0-.859.647l1.823,2.412v4.692h-3.131a3.089,3.089,0,0,1-3.09-3.09.538.538,0,0,0-1.076,0v.09a4.078,4.078,0,0,0,4.078,4.078h28.518a4.149,4.149,0,0,0,4.148-4.149v-.017a.537.537,0,1,0-1.075,0,3.091,3.091,0,0,1-3.091,3.09h-3.128v-4.693l1.82-2.412a.537.537,0,1,0-.856-.647l-1.915,2.532a3.172,3.172,0,0,1-.82.918.969.969,0,0,1-.481.1h-4.426a.992.992,0,0,1,0-1.984h3.7a.544.544,0,0,0,.433-.214l2.89-3.829a.981.981,0,0,1,.367-.3,1.027,1.027,0,0,1,.317-.09,3.425,3.425,0,0,0,4.1.043,1.483,1.483,0,0,1,.745.472,1.457,1.457,0,0,1,.346.942v3.628a.539.539,0,0,0,.539.537m-29.654-8.363a2.367,2.367,0,0,1-4.587.812,3.955,3.955,0,0,0,.448.047,2.623,2.623,0,0,0,1.853-.537,2.831,2.831,0,0,0,.9-1.41,4.467,4.467,0,0,0,.11-.435,2.714,2.714,0,0,0,1.277.208Zm0-2.394a1.755,1.755,0,0,1-1.341-.4.525.525,0,0,0-.345-.147.537.537,0,0,0-.561.511,4.218,4.218,0,0,1-.165,1.028,1.8,1.8,0,0,1-.548.889,1.612,1.612,0,0,1-1.129.3,3.892,3.892,0,0,1-.644-.093v-2.8a1.1,1.1,0,0,1,1.086-1.089h2.558a1.094,1.094,0,0,1,1.088,1.089Zm9.358-.718a1.1,1.1,0,0,1,1.088-1.089h3.644v1.487h-4.735Zm0,1.474h4.732v1.638a2.366,2.366,0,0,1-4.732,0Zm12.464,14.991h-20v-3.121h20Zm-5.4-7.257h-.207a2.071,2.071,0,0,0-1.817,3.061h-5.167a2.068,2.068,0,0,0-1.814-3.061h-.21v-2.183a1.232,1.232,0,0,1,.5-.853,4.665,4.665,0,0,1,1.412-.811c.055.062.112.124.172.183a3.429,3.429,0,0,0,4.85.012l.013-.012c.076-.076.149-.157.218-.24a5.017,5.017,0,0,1,1.522.836,1.267,1.267,0,0,1,.533.885Zm11.25-4.425a2.367,2.367,0,0,1-4.038-1.67v-1.316a2.713,2.713,0,0,0,1.28-.208,4.142,4.142,0,0,0,.108.436,2.821,2.821,0,0,0,.9,1.409,2.62,2.62,0,0,0,1.852.537,3.938,3.938,0,0,0,.447-.047,2.38,2.38,0,0,1-.549.858m.7-1.977a4,4,0,0,1-.644.094,1.616,1.616,0,0,1-1.129-.3,1.775,1.775,0,0,1-.544-.888,4.222,4.222,0,0,1-.167-1.028.537.537,0,0,0-.559-.511h0a.547.547,0,0,0-.35.151,1.752,1.752,0,0,1-1.337.4v-.718a1.1,1.1,0,0,1,1.088-1.088h2.558a1.1,1.1,0,0,1,1.088,1.088Z" fill="#fff"/>
    <path id="Path_50133" data-name="Path 50133" d="M247.292,274.776a2.585,2.585,0,0,0-1.831-.761h-10.6l-3.3,8.295a2.611,2.611,0,0,0,.7,1.307,2.566,2.566,0,0,0,1.832.764h3.164a.538.538,0,0,0,0-1.075H234.1a1.507,1.507,0,0,1-1.073-.446,1.481,1.481,0,0,1-.348-.549l2.49-7.219h10.291a1.521,1.521,0,0,1,1.515,1.515v5.183a1.521,1.521,0,0,1-1.515,1.516.539.539,0,0,0-.54.538h0v1.3l-1.674-1.674a.524.524,0,0,0-.382-.161H239.7a.538.538,0,0,0,0,1.076h2.944l2.439,2.439a.537.537,0,0,0,.917-.38v-2.116a2.6,2.6,0,0,0,2.055-2.535v-5.183a2.585,2.585,0,0,0-.761-1.831" fill="#00b7e9"/>
    <path id="Path_50134" data-name="Path 50134" d="M221.24,284.908a.539.539,0,0,1-.539-.537v-2.1a3.278,3.278,0,0,1-2.724-3.219v-6.031a3.271,3.271,0,0,1,3.263-3.262h11.816a3.271,3.271,0,0,1,3.262,3.263v6.029a3.271,3.271,0,0,1-3.262,3.263h-9l-2.438,2.437a.537.537,0,0,1-.382.16m.414-6.51a.5.5,0,0,0,0,1.006h4.653a.5.5,0,1,0,0-1.006Zm0-2.642a.5.5,0,0,0,0,1h9.306a.5.5,0,0,0,0-1Zm0-2.645a.5.5,0,0,0,0,1.005h9.306a.5.5,0,0,0,0-1.005Z" fill="#00b7e9"/>
    <path id="Path_50135" data-name="Path 50135" d="M233.054,270.4a2.626,2.626,0,0,1,2.618,2.618v6.03a2.626,2.626,0,0,1-2.618,2.618h-9.263l-.188.189-2.259,2.258V281.72l-.538-.09a2.631,2.631,0,0,1-2.186-2.582v-6.03a2.627,2.627,0,0,1,2.619-2.618Zm0-.644H221.241a3.271,3.271,0,0,0-3.262,3.262v6.03a3.275,3.275,0,0,0,2.724,3.219v2.1a.539.539,0,0,0,.921.378l2.437-2.436h8.993a3.271,3.271,0,0,0,3.262-3.263v-6.031a3.271,3.271,0,0,0-3.262-3.262" fill="#00b7e9"/>
    <path id="Path_50136" data-name="Path 50136" d="M278.855,372.14a34.129,34.129,0,1,1-34.129-34.129,34.129,34.129,0,0,1,34.129,34.129" fill="#171717"/>
    <circle id="Ellipse_231" data-name="Ellipse 231" cx="34.129" cy="34.129" r="34.129" transform="translate(210.597 338.011)" fill="none" stroke="#00b7e9" stroke-miterlimit="10" stroke-width="1.6"/>
    <path id="Path_50137" data-name="Path 50137" d="M224.831,390.065a2.187,2.187,0,0,1-.722-.339l.319-.707a2.2,2.2,0,0,0,.62.307,2.339,2.339,0,0,0,.719.116,1.147,1.147,0,0,0,.591-.119.358.358,0,0,0,.191-.316.3.3,0,0,0-.113-.24.856.856,0,0,0-.29-.154c-.117-.039-.277-.081-.478-.128a6.421,6.421,0,0,1-.759-.22,1.231,1.231,0,0,1-.507-.353.957.957,0,0,1-.212-.649,1.126,1.126,0,0,1,.192-.641,1.283,1.283,0,0,1,.576-.455A2.355,2.355,0,0,1,225.9,386a3.105,3.105,0,0,1,.759.093,2.221,2.221,0,0,1,.65.266l-.29.713a2.27,2.27,0,0,0-1.125-.319,1.053,1.053,0,0,0-.582.128.388.388,0,0,0-.188.336.328.328,0,0,0,.217.31,3.413,3.413,0,0,0,.663.2,6.361,6.361,0,0,1,.76.221,1.255,1.255,0,0,1,.507.347.935.935,0,0,1,.212.644,1.1,1.1,0,0,1-.2.634,1.3,1.3,0,0,1-.582.455,2.377,2.377,0,0,1-.945.168,3.311,3.311,0,0,1-.93-.13" fill="#fff"/>
    <path id="Path_50138" data-name="Path 50138" d="M228.674,389.966a1.528,1.528,0,0,1-.62-.571,1.652,1.652,0,0,1,0-1.658,1.533,1.533,0,0,1,.62-.57,1.9,1.9,0,0,1,.9-.206,1.725,1.725,0,0,1,.861.206,1.22,1.22,0,0,1,.536.588l-.7.377a.766.766,0,0,0-.7-.429.794.794,0,0,0-.586.232.975.975,0,0,0,0,1.263.794.794,0,0,0,.586.232.758.758,0,0,0,.7-.429l.7.383a1.246,1.246,0,0,1-.536.579,1.716,1.716,0,0,1-.861.209,1.916,1.916,0,0,1-.9-.206" fill="#fff"/>
    <path id="Path_50139" data-name="Path 50139" d="M232.789,387.076a1.626,1.626,0,0,1,.634-.116v.835c-.1-.008-.168-.012-.2-.012a.83.83,0,0,0-.609.218.876.876,0,0,0-.22.652v1.472h-.9v-3.118h.863v.411a1,1,0,0,1,.438-.342" fill="#fff"/>
    <path id="Path_50140" data-name="Path 50140" d="M237.127,387.007v3.118h-.858v-.371a1.193,1.193,0,0,1-.429.311,1.354,1.354,0,0,1-.539.107,1.325,1.325,0,0,1-.973-.354,1.409,1.409,0,0,1-.36-1.049v-1.762h.9v1.629q0,.753.632.753a.678.678,0,0,0,.522-.212.892.892,0,0,0,.2-.628v-1.542Z" fill="#fff"/>
    <path id="Path_50141" data-name="Path 50141" d="M242.891,387.3a1.406,1.406,0,0,1,.345,1.035v1.785h-.9v-1.646a.85.85,0,0,0-.154-.554.543.543,0,0,0-.438-.183.646.646,0,0,0-.5.206.887.887,0,0,0-.185.612v1.565h-.9v-1.646q0-.736-.592-.737a.638.638,0,0,0-.5.206.887.887,0,0,0-.186.612v1.565h-.9v-3.118h.864v.359a1.14,1.14,0,0,1,.426-.3,1.422,1.422,0,0,1,.553-.105,1.338,1.338,0,0,1,.6.13,1.057,1.057,0,0,1,.429.38,1.287,1.287,0,0,1,.484-.376,1.512,1.512,0,0,1,.641-.134,1.257,1.257,0,0,1,.93.345" fill="#fff"/>
    <path id="Path_50142" data-name="Path 50142" d="M249.443,390.125l-.006-2.434-1.194,2.005h-.423l-1.188-1.953v2.382h-.881v-4.057h.777l1.518,2.521,1.5-2.521h.77l.012,4.057Z" fill="#fff"/>
    <path id="Path_50143" data-name="Path 50143" d="M253.593,387.306a1.318,1.318,0,0,1,.388,1.04v1.779h-.846v-.388a1.008,1.008,0,0,1-.951.435,1.479,1.479,0,0,1-.623-.122.928.928,0,0,1-.4-.336.88.88,0,0,1-.139-.487.813.813,0,0,1,.328-.684,1.668,1.668,0,0,1,1.011-.249h.719a.575.575,0,0,0-.18-.455.792.792,0,0,0-.539-.159,1.544,1.544,0,0,0-.489.078,1.284,1.284,0,0,0-.409.211l-.325-.631a1.96,1.96,0,0,1,.612-.279,2.763,2.763,0,0,1,.733-.1,1.623,1.623,0,0,1,1.113.345m-.771,2.15a.587.587,0,0,0,.255-.316v-.318h-.62q-.557,0-.557.364a.326.326,0,0,0,.137.276.608.608,0,0,0,.373.1.784.784,0,0,0,.412-.107" fill="#fff"/>
    <path id="Path_50144" data-name="Path 50144" d="M255.089,390.076a2.029,2.029,0,0,1-.592-.24l.3-.65a1.9,1.9,0,0,0,.5.218,2.119,2.119,0,0,0,.58.084q.574,0,.574-.284a.2.2,0,0,0-.156-.192,2.407,2.407,0,0,0-.483-.1,4.582,4.582,0,0,1-.63-.133.99.99,0,0,1-.432-.267.752.752,0,0,1-.184-.545.857.857,0,0,1,.171-.524,1.094,1.094,0,0,1,.5-.357,2.143,2.143,0,0,1,.773-.127,3.033,3.033,0,0,1,.657.072,1.86,1.86,0,0,1,.543.2l-.3.644a1.794,1.794,0,0,0-.9-.232.916.916,0,0,0-.435.081.236.236,0,0,0-.144.208.205.205,0,0,0,.155.2,2.7,2.7,0,0,0,.5.11,5.217,5.217,0,0,1,.626.137.939.939,0,0,1,.424.264.75.75,0,0,1,.179.533.819.819,0,0,1-.173.515,1.112,1.112,0,0,1-.508.351,2.256,2.256,0,0,1-.791.125,3.007,3.007,0,0,1-.759-.1" fill="#fff"/>
    <path id="Path_50145" data-name="Path 50145" d="M259.888,389.974a.926.926,0,0,1-.328.148,1.641,1.641,0,0,1-.408.049,1.216,1.216,0,0,1-.861-.284,1.085,1.085,0,0,1-.3-.835v-1.28h-.481v-.7h.481v-.759h.9v.759h.777v.7h-.777v1.269a.423.423,0,0,0,.1.3.373.373,0,0,0,.287.107.579.579,0,0,0,.365-.116Z" fill="#fff"/>
    <path id="Path_50146" data-name="Path 50146" d="M263.337,388.821h-2.359a.726.726,0,0,0,.3.457,1,1,0,0,0,.591.169,1.207,1.207,0,0,0,.432-.073,1.058,1.058,0,0,0,.351-.228l.481.521a1.618,1.618,0,0,1-1.287.5,2.009,2.009,0,0,1-.933-.206,1.51,1.51,0,0,1-.626-.569,1.678,1.678,0,0,1,0-1.656,1.519,1.519,0,0,1,.6-.574,1.848,1.848,0,0,1,1.678-.009,1.445,1.445,0,0,1,.582.565,1.689,1.689,0,0,1,.212.855c0,.013-.006.093-.017.244m-2.116-1a.74.74,0,0,0-.255.475H262.5a.748.748,0,0,0-.255-.472.761.761,0,0,0-.51-.177.778.778,0,0,0-.516.174" fill="#fff"/>
    <path id="Path_50147" data-name="Path 50147" d="M265.258,387.076a1.626,1.626,0,0,1,.634-.116v.835c-.1-.008-.168-.012-.2-.012a.83.83,0,0,0-.609.218.876.876,0,0,0-.22.652v1.472h-.9v-3.118h.863v.411a1,1,0,0,1,.438-.342" fill="#fff"/>
    <path id="Path_50148" data-name="Path 50148" d="M239.2,372.863a.524.524,0,0,1-.23-.053.537.537,0,0,1-.26-.715l0,0a2.083,2.083,0,0,0,.2-.782.712.712,0,0,0-.038-.263c-.007-.028-.014-.053-.023-.081a.541.541,0,0,1,1.048-.273c.007.023.011.045.018.066a1.745,1.745,0,0,1,.077.579,3.148,3.148,0,0,1-.3,1.212.551.551,0,0,1-.491.311" fill="#1d1d1b"/>
    <path id="Path_50149" data-name="Path 50149" d="M242.445,372.866a.544.544,0,0,1-.482-.295,3,3,0,0,1-.349-1.29,1.765,1.765,0,0,1,.05-.475.54.54,0,0,1,1.067.119.654.654,0,0,1-.016.133.6.6,0,0,0-.02.194,2.006,2.006,0,0,0,.232.825.541.541,0,0,1-.234.727.527.527,0,0,1-.248.062" fill="#1d1d1b"/>
    <path id="Path_50150" data-name="Path 50150" d="M243.063,380.437h-15.1a.54.54,0,0,1-.54-.54v-3.379a.541.541,0,0,1,.54-.541h14.028a7.24,7.24,0,0,0,7.236-7.1v-.1a7.856,7.856,0,0,0-15.693-.54h1.386a.54.54,0,0,1,.439.853l-3.478,4.868a.537.537,0,0,1-.749.129.527.527,0,0,1-.129-.129l-3.48-4.868a.539.539,0,0,1,.439-.853h1.417a12.005,12.005,0,1,1,20.849,8.646c-.115.126-.239.256-.369.385-.11.111-.227.223-.344.331a11.9,11.9,0,0,1-3,2.028c-.158.074-.313.144-.471.211l-.018.007a7.638,7.638,0,0,1-2.965.59m-14.557-1.081h14.557a6.553,6.553,0,0,0,2.548-.507l.013-.007c.144-.061.289-.126.428-.191a10.909,10.909,0,0,0,2.729-1.844c.108-.1.21-.2.313-.3.117-.117.229-.234.335-.349a10.926,10.926,0,1,0-18.981-7.377.541.541,0,0,1-.541.541h-.9l2.429,3.4,2.428-3.4h-.895a.541.541,0,0,1-.541-.541,8.936,8.936,0,0,1,17.873,0v.116a8.179,8.179,0,0,1-2.482,5.783,8.324,8.324,0,0,1-5.835,2.379H228.5Z" fill="#fff"/>
    <path id="Path_50151" data-name="Path 50151" d="M261.8,377.768l-4.868-3.478a.54.54,0,0,0-.753.127.534.534,0,0,0-.1.313v1.248h-3.142a12.341,12.341,0,0,1-.732,1.081h4.415a.54.54,0,0,0,.54-.54v-.738l3.4,2.429-3.4,2.428V379.9a.54.54,0,0,0-.54-.54h-6.675a12.426,12.426,0,0,1-1.625,1.081h7.757v1.248a.541.541,0,0,0,.856.44l4.869-3.478a.538.538,0,0,0,0-.878" fill="#00ade1"/>
    <path id="Path_50152" data-name="Path 50152" d="M257.8,363.251a.535.535,0,0,1-.439-.225l-2.967-4.152a.541.541,0,0,1,.439-.854h1.026a5.241,5.241,0,0,0-5.2-4.478,5.3,5.3,0,0,0-5.19,4.421.541.541,0,1,1-1.069-.161v-.01a6.34,6.34,0,0,1,12.593.746.534.534,0,0,1-.151.4.542.542,0,0,1-.39.166h-.568l1.917,2.683,1.917-2.683h-.577a.542.542,0,0,1-.541-.527,7.944,7.944,0,0,0-15.769-1.131.541.541,0,1,1-1.07-.157l.005-.025a9.027,9.027,0,0,1,17.887.758h1.117a.542.542,0,0,1,.54.542.551.551,0,0,1-.1.312l-2.972,4.152a.542.542,0,0,1-.439.225" fill="#fff"/>
    <path id="Path_50153" data-name="Path 50153" d="M169.516,34.93A34.13,34.13,0,1,1,135.387.8,34.129,34.129,0,0,1,169.516,34.93" fill="#171717"/>
    <circle id="Ellipse_232" data-name="Ellipse 232" cx="34.129" cy="34.129" r="34.129" transform="translate(101.257 0.8)" fill="none" stroke="#00b7e9" stroke-miterlimit="10" stroke-width="1.6"/>
    <path id="Path_50154" data-name="Path 50154" d="M125.725,49.233a1.344,1.344,0,0,1,.826,1.292,1.409,1.409,0,0,1-.215.78,1.359,1.359,0,0,1-.611.51,2.285,2.285,0,0,1-.936.177h-.818V53.11h-.938V49.053h1.756a2.252,2.252,0,0,1,.936.18m-.345,1.811a.728.728,0,0,0,0-1.043.984.984,0,0,0-.643-.183h-.766v1.409h.766a.984.984,0,0,0,.643-.183" fill="#fff"/>
    <path id="Path_50155" data-name="Path 50155" d="M128.455,50.061a1.626,1.626,0,0,1,.634-.116v.835c-.1-.008-.168-.012-.2-.012a.83.83,0,0,0-.609.218.876.876,0,0,0-.22.652V53.11h-.9V49.992h.863V50.4a1,1,0,0,1,.438-.342" fill="#fff"/>
    <path id="Path_50156" data-name="Path 50156" d="M130.2,52.951a1.523,1.523,0,0,1-.611-.571,1.672,1.672,0,0,1,0-1.658,1.521,1.521,0,0,1,.611-.57,1.862,1.862,0,0,1,.884-.206,1.842,1.842,0,0,1,.881.206,1.529,1.529,0,0,1,.609.57,1.672,1.672,0,0,1,0,1.658,1.531,1.531,0,0,1-.609.571,1.854,1.854,0,0,1-.881.206,1.874,1.874,0,0,1-.884-.206m1.455-.771a1,1,0,0,0,0-1.258.816.816,0,0,0-1.144,0,.985.985,0,0,0,0,1.258.814.814,0,0,0,1.144,0" fill="#fff"/>
    <path id="Path_50157" data-name="Path 50157" d="M136.572,48.81v4.3h-.863v-.359a1.2,1.2,0,0,1-.975.406,1.626,1.626,0,0,1-.8-.2,1.419,1.419,0,0,1-.559-.562,1.866,1.866,0,0,1,0-1.693,1.406,1.406,0,0,1,.559-.562,1.626,1.626,0,0,1,.8-.2,1.186,1.186,0,0,1,.934.376V48.81Zm-1.113,3.37a.988.988,0,0,0,0-1.258.814.814,0,0,0-1.142,0,.988.988,0,0,0,0,1.258.811.811,0,0,0,1.142,0" fill="#fff"/>
    <path id="Path_50158" data-name="Path 50158" d="M140.548,49.992V53.11h-.858v-.371a1.2,1.2,0,0,1-.429.311,1.358,1.358,0,0,1-.539.107,1.329,1.329,0,0,1-.974-.354,1.413,1.413,0,0,1-.359-1.049V49.992h.9v1.629q0,.753.632.753a.678.678,0,0,0,.522-.212.892.892,0,0,0,.2-.628V49.992Z" fill="#fff"/>
    <path id="Path_50159" data-name="Path 50159" d="M142,52.951a1.529,1.529,0,0,1-.62-.571,1.652,1.652,0,0,1,0-1.658,1.533,1.533,0,0,1,.62-.57,1.9,1.9,0,0,1,.9-.206,1.725,1.725,0,0,1,.861.206,1.22,1.22,0,0,1,.536.588l-.7.377a.766.766,0,0,0-.7-.429.794.794,0,0,0-.586.232.975.975,0,0,0,0,1.263.794.794,0,0,0,.586.232.758.758,0,0,0,.7-.429l.7.383a1.246,1.246,0,0,1-.536.579,1.716,1.716,0,0,1-.861.209,1.916,1.916,0,0,1-.9-.206" fill="#fff"/>
    <path id="Path_50160" data-name="Path 50160" d="M146.871,52.959a.926.926,0,0,1-.328.148,1.641,1.641,0,0,1-.408.049,1.216,1.216,0,0,1-.861-.284,1.085,1.085,0,0,1-.3-.835v-1.28h-.481v-.7h.481V49.3h.9v.759h.777v.7h-.777v1.269a.423.423,0,0,0,.1.3.373.373,0,0,0,.287.107.579.579,0,0,0,.365-.116Z" fill="#fff"/>
    <path id="Path_50161" data-name="Path 50161" d="M126.074,59.02a2.023,2.023,0,0,1-.794-.751,2.157,2.157,0,0,1,0-2.15,2.016,2.016,0,0,1,.794-.751,2.515,2.515,0,0,1,2.275,0,2.07,2.07,0,0,1,0,3.652,2.515,2.515,0,0,1-2.275,0m1.788-.693a1.186,1.186,0,0,0,.455-.461,1.453,1.453,0,0,0,0-1.345,1.193,1.193,0,0,0-.455-.461,1.359,1.359,0,0,0-1.3,0,1.193,1.193,0,0,0-.455.461,1.445,1.445,0,0,0,0,1.345,1.186,1.186,0,0,0,.455.461,1.359,1.359,0,0,0,1.3,0" fill="#fff"/>
    <path id="Path_50162" data-name="Path 50162" d="M135.084,56.1l-1.13,3.118h-.87l-.7-1.936-.724,1.936h-.87L129.665,56.1h.852l.736,2.11.765-2.11h.765l.742,2.11.759-2.11Z" fill="#fff"/>
    <path id="Path_50163" data-name="Path 50163" d="M138.338,56.4a1.378,1.378,0,0,1,.356,1.032v1.785h-.9V57.576a.816.816,0,0,0-.162-.554.6.6,0,0,0-.47-.183.718.718,0,0,0-.544.212.873.873,0,0,0-.2.629v1.542h-.9V56.1h.863v.366a1.206,1.206,0,0,1,.446-.305,1.571,1.571,0,0,1,.586-.107,1.284,1.284,0,0,1,.936.348" fill="#fff"/>
    <path id="Path_50164" data-name="Path 50164" d="M142.578,57.918h-2.359a.726.726,0,0,0,.3.457.99.99,0,0,0,.591.169,1.207,1.207,0,0,0,.432-.073,1.06,1.06,0,0,0,.352-.229l.48.522a1.618,1.618,0,0,1-1.286.5,2.023,2.023,0,0,1-.934-.206,1.506,1.506,0,0,1-.626-.57,1.574,1.574,0,0,1-.22-.829,1.6,1.6,0,0,1,.217-.826,1.519,1.519,0,0,1,.6-.574,1.848,1.848,0,0,1,1.678-.009,1.445,1.445,0,0,1,.582.565,1.689,1.689,0,0,1,.212.855c0,.012-.006.093-.017.244m-2.116-1a.74.74,0,0,0-.255.475h1.536a.748.748,0,0,0-.255-.472.76.76,0,0,0-.509-.177.781.781,0,0,0-.517.174" fill="#fff"/>
    <path id="Path_50165" data-name="Path 50165" d="M144.5,56.173a1.63,1.63,0,0,1,.634-.116v.835c-.1-.008-.168-.012-.2-.012a.832.832,0,0,0-.61.218.876.876,0,0,0-.22.652v1.472h-.9V56.1h.862v.411a1,1,0,0,1,.438-.342" fill="#fff"/>
    <path id="Path_50166" data-name="Path 50166" d="M149.119,27.688h-10.77a2.154,2.154,0,0,0-2.154,2.153V30.7l-.538-.574V28.062a3.391,3.391,0,0,0,.48-.667,9.211,9.211,0,0,0,.7-2.454,1.543,1.543,0,0,0,1.275-1.63,3.321,3.321,0,0,1,.351-1.176,2.931,2.931,0,0,0,.295-2.3,1.55,1.55,0,0,0-.57-.721c.316-1.949.3-4.495-1.234-6.358-1.265-1.529-3.329-2.3-6.143-2.3s-4.88.774-6.143,2.3c-1.54,1.865-1.549,4.417-1.234,6.367a1.52,1.52,0,0,0-.568.711,2.92,2.92,0,0,0,.294,2.3,3.289,3.289,0,0,1,.35,1.162,1.547,1.547,0,0,0,1.3,1.642,8.256,8.256,0,0,0,.673,2.455,3.42,3.42,0,0,0,.481.666v2.1l-1.533,1.587-2.457.26a3.416,3.416,0,0,0-3.01,3.425v6.38a.948.948,0,0,0,.943.953H149.12a2.153,2.153,0,0,0,2.154-2.153V29.841a2.153,2.153,0,0,0-2.154-2.153Zm-3.77,5.384h-3.231V28.764h3.231Zm-14.54-2.153a8.113,8.113,0,0,0,3.77-1.861v1.02L130.809,33l-3.769-2.882V29.06a8.115,8.115,0,0,0,3.769,1.861m1.932,3.926-1.119-1.118,3.439-2.66,1.073,1.144ZM126.555,31.1l3.439,2.629-1.116,1.119-3.392-2.638Zm4.254,3.338.808.808-.586,1.054h-.445L130,35.249Zm-.138,2.942h.276l1.292,4.308h-2.861Zm1.258-.474.553-.992a1.015,1.015,0,0,0,.871-.181l2.841-2.206v7.081a2.129,2.129,0,0,0,.3,1.077h-3.13ZM125.5,13.444c1.048-1.269,2.835-1.912,5.312-1.912s4.265.643,5.313,1.912a6.582,6.582,0,0,1,1.071,5.006c-.275-1.332-.872-3.278-2.1-4.057a1.019,1.019,0,0,0-1.394.269,4.121,4.121,0,0,1-5.788-.01,1.015,1.015,0,0,0-1.383-.264c-1.212.771-1.813,2.676-2.112,4a6.543,6.543,0,0,1,1.079-4.942M125,23.887c-.139-.029-.43-.09-.418-.575a4.1,4.1,0,0,0-.436-1.6,2.068,2.068,0,0,1-.285-1.475.45.45,0,0,1,.44-.291h.013a1.085,1.085,0,0,0,1.087-.884c.323-1.855.946-3.244,1.665-3.736a5.185,5.185,0,0,0,7.482,0c.718.489,1.339,1.879,1.666,3.737a1.086,1.086,0,0,0,1.084.878h.009a.468.468,0,0,1,.445.292,2.061,2.061,0,0,1-.286,1.475,4.124,4.124,0,0,0-.436,1.613c.012.471-.278.532-.418.561a1.093,1.093,0,0,0-.872.912,7.2,7.2,0,0,1-.567,2.107c-.516,1.016-3.372,2.936-4.366,2.936s-3.85-1.921-4.366-2.937a7.206,7.206,0,0,1-.567-2.108,1.094,1.094,0,0,0-.872-.912m-4.965,11.546a2.34,2.34,0,0,1,2.05-2.35l2.435-.257,3.741,2.91a1,1,0,0,0,.62.211,1.1,1.1,0,0,0,.249-.035l.556.994-1.435,4.783h-8.216ZM150.2,40.608a1.077,1.077,0,0,1-1.077,1.077H138.349a1.077,1.077,0,0,1-1.077-1.077V29.841a1.077,1.077,0,0,1,1.077-1.077h2.692v4.308a1.078,1.078,0,0,0,1.077,1.077h3.232a1.077,1.077,0,0,0,1.077-1.077V28.765h2.692a1.075,1.075,0,0,1,1.077,1.076h0Z" fill="#fff"/>
    <path id="Path_50167" data-name="Path 50167" d="M141.04,39.534h-2.155a.539.539,0,0,0,0,1.077h2.155a.539.539,0,0,0,0-1.077Z" fill="#fff"/>
    <path id="Path_50168" data-name="Path 50168" d="M140.344,35.384a.538.538,0,0,0-.761,0l-1.075,1.077a.539.539,0,0,0,.762.761l.157-.158v.857a.539.539,0,0,0,1.078,0v-.856l.157.158a.539.539,0,0,0,.762-.761Z" fill="#fff"/>
    <path id="Path_50169" data-name="Path 50169" d="M146.426,39a.539.539,0,0,0-.539.539v.537a.539.539,0,1,0,1.077,0v-.537a.538.538,0,0,0-.538-.539" fill="#fff"/>
    <path id="Path_50170" data-name="Path 50170" d="M148.58,39a.538.538,0,0,0-.538.539v.537a.538.538,0,1,0,1.077,0v-.537A.539.539,0,0,0,148.58,39" fill="#fff"/>
    <path id="Path_50171" data-name="Path 50171" d="M31.189,174.557a3.849,3.849,0,1,1-3.85-3.85,3.85,3.85,0,0,1,3.85,3.85" fill="#00b7e9"/>
    <path id="Path_50172" data-name="Path 50172" d="M31.189,341.06a3.849,3.849,0,1,1-3.85-3.85,3.85,3.85,0,0,1,3.85,3.85" fill="#00b7e9"/>
    <path id="Path_50173" data-name="Path 50173" d="M148.933,472.05a3.85,3.85,0,1,1-3.85-3.85,3.85,3.85,0,0,1,3.85,3.85" fill="#00b7e9"/>
    <path id="Path_50174" data-name="Path 50174" d="M334.621,396a3.85,3.85,0,1,1-3.85-3.85,3.85,3.85,0,0,1,3.85,3.85" fill="#00b7e9"/>
    <path id="Path_50175" data-name="Path 50175" d="M85.8,250.46a3.85,3.85,0,1,1-3.85-3.85,3.85,3.85,0,0,1,3.85,3.85" fill="#00b7e9"/>
    <path id="Path_50176" data-name="Path 50176" d="M273.278,297.928a3.85,3.85,0,1,1-3.85-3.85,3.85,3.85,0,0,1,3.85,3.85" fill="#00b7e9"/>
  </g>
</svg>
