<svg xmlns="http://www.w3.org/2000/svg" xmlns:xlink="http://www.w3.org/1999/xlink" width="246.844" height="178.796" viewBox="0 0 246.844 178.796">
  <defs>
    <clipPath id="clip-path">
      <rect id="Rectangle_1530" data-name="Rectangle 1530" width="246.844" height="178.796" fill="none"/>
    </clipPath>
  </defs>
  <g id="Group_4374" data-name="Group 4374" transform="translate(0 0)" style="mix-blend-mode: overlay;isolation: isolate">
    <g id="Group_4371" data-name="Group 4371" transform="translate(0 0)" clip-path="url(#clip-path)">
      <path id="Path_49338" data-name="Path 49338" d="M2.07.68a2.07,2.07,0,1,0,2.07,2.07A2.068,2.068,0,0,0,2.07.68" transform="translate(0 2.02)" fill="#00B7E9"/>
      <path id="Path_49339" data-name="Path 49339" d="M7.011.612a2.34,2.34,0,1,0,2.34,2.34A2.341,2.341,0,0,0,7.011.612" transform="translate(13.884 1.818)" fill="#00B7E9"/>
      <path id="Path_49340" data-name="Path 49340" d="M11.951.544a2.61,2.61,0,1,0,2.61,2.61,2.609,2.609,0,0,0-2.61-2.61" transform="translate(27.766 1.616)" fill="#00B7E9"/>
      <path id="Path_49341" data-name="Path 49341" d="M16.892.476a2.88,2.88,0,1,0,2.88,2.88,2.882,2.882,0,0,0-2.88-2.88" transform="translate(41.65 1.414)" fill="#00B7E9"/>
      <path id="Path_49342" data-name="Path 49342" d="M21.833.408a3.15,3.15,0,1,0,3.15,3.15,3.15,3.15,0,0,0-3.15-3.15" transform="translate(55.534 1.212)" fill="#00B7E9"/>
      <path id="Path_49343" data-name="Path 49343" d="M26.773.34a3.42,3.42,0,1,0,3.42,3.42A3.42,3.42,0,0,0,26.773.34" transform="translate(69.416 1.01)" fill="#00B7E9"/>
      <path id="Path_49344" data-name="Path 49344" d="M31.714.272a3.69,3.69,0,1,0,3.69,3.69,3.691,3.691,0,0,0-3.69-3.69" transform="translate(83.3 0.808)" fill="#00B7E9"/>
      <path id="Path_49345" data-name="Path 49345" d="M36.656.2a3.961,3.961,0,1,0,3.961,3.961A3.959,3.959,0,0,0,36.656.2" transform="translate(97.184 0.606)" fill="#00B7E9"/>
      <path id="Path_49346" data-name="Path 49346" d="M41.6.136a4.229,4.229,0,1,0,4.231,4.231A4.232,4.232,0,0,0,41.6.136" transform="translate(111.066 0.403)" fill="#00B7E9"/>
      <path id="Path_49347" data-name="Path 49347" d="M46.987.068a4.5,4.5,0,1,0,4.5,4.5,4.5,4.5,0,0,0-4.5-4.5" transform="translate(126.288 0.201)" fill="#00B7E9"/>
      <path id="Path_49348" data-name="Path 49348" d="M52.377,0a4.769,4.769,0,1,0,4.771,4.771A4.772,4.772,0,0,0,52.377,0" transform="translate(141.507 -0.001)" fill="#00B7E9"/>
      <path id="Path_49349" data-name="Path 49349" d="M4.588,4.879a2.07,2.07,0,1,0,2.07,2.07,2.068,2.068,0,0,0-2.07-2.07" transform="translate(7.485 14.502)" fill="#00B7E9"/>
      <path id="Path_49350" data-name="Path 49350" d="M9.529,4.811a2.34,2.34,0,1,0,2.34,2.34,2.341,2.341,0,0,0-2.34-2.34" transform="translate(21.369 14.3)" fill="#00B7E9"/>
      <path id="Path_49351" data-name="Path 49351" d="M14.47,4.743a2.61,2.61,0,1,0,2.61,2.61,2.609,2.609,0,0,0-2.61-2.61" transform="translate(35.253 14.098)" fill="#00B7E9"/>
      <path id="Path_49352" data-name="Path 49352" d="M19.41,4.675a2.88,2.88,0,1,0,2.88,2.88,2.882,2.882,0,0,0-2.88-2.88" transform="translate(49.135 13.895)" fill="#00B7E9"/>
      <path id="Path_49353" data-name="Path 49353" d="M24.351,4.607a3.15,3.15,0,1,0,3.15,3.15,3.15,3.15,0,0,0-3.15-3.15" transform="translate(63.019 13.693)" fill="#00B7E9"/>
      <path id="Path_49354" data-name="Path 49354" d="M29.292,4.539a3.42,3.42,0,1,0,3.42,3.42,3.418,3.418,0,0,0-3.42-3.42" transform="translate(76.903 13.491)" fill="#00B7E9"/>
      <path id="Path_49355" data-name="Path 49355" d="M34.232,4.471a3.69,3.69,0,1,0,3.69,3.69,3.691,3.691,0,0,0-3.69-3.69" transform="translate(90.785 13.289)" fill="#00B7E9"/>
      <path id="Path_49356" data-name="Path 49356" d="M39.174,4.4a3.959,3.959,0,1,0,3.961,3.965A3.959,3.959,0,0,0,39.174,4.4" transform="translate(104.669 13.087)" fill="#00B7E9"/>
      <path id="Path_49357" data-name="Path 49357" d="M44.114,4.336a4.231,4.231,0,1,0,4.231,4.231,4.232,4.232,0,0,0-4.231-4.231" transform="translate(118.55 12.888)" fill="#00B7E9"/>
      <path id="Path_49358" data-name="Path 49358" d="M49.5,4.268a4.5,4.5,0,1,0,4.5,4.5,4.5,4.5,0,0,0-4.5-4.5" transform="translate(133.772 12.686)" fill="#00B7E9"/>
      <path id="Path_49359" data-name="Path 49359" d="M54.895,4.2a4.769,4.769,0,1,0,4.771,4.771A4.772,4.772,0,0,0,54.895,4.2" transform="translate(148.991 12.484)" fill="#00B7E9"/>
      <path id="Path_49360" data-name="Path 49360" d="M7.011,9.156a2.34,2.34,0,1,0,2.34,2.34,2.341,2.341,0,0,0-2.34-2.34" transform="translate(13.884 27.215)" fill="#00B7E9"/>
      <path id="Path_49361" data-name="Path 49361" d="M11.951,9.088a2.61,2.61,0,1,0,2.61,2.61,2.609,2.609,0,0,0-2.61-2.61" transform="translate(27.766 27.013)" fill="#00B7E9"/>
      <path id="Path_49362" data-name="Path 49362" d="M16.892,9.02a2.88,2.88,0,1,0,2.88,2.88,2.882,2.882,0,0,0-2.88-2.88" transform="translate(41.65 26.811)" fill="#00B7E9"/>
      <path id="Path_49363" data-name="Path 49363" d="M21.833,8.952a3.15,3.15,0,1,0,3.15,3.15,3.15,3.15,0,0,0-3.15-3.15" transform="translate(55.534 26.609)" fill="#00B7E9"/>
      <path id="Path_49364" data-name="Path 49364" d="M26.773,8.884a3.42,3.42,0,1,0,3.42,3.42,3.42,3.42,0,0,0-3.42-3.42" transform="translate(69.416 26.406)" fill="#00B7E9"/>
      <path id="Path_49365" data-name="Path 49365" d="M31.714,8.816a3.69,3.69,0,1,0,3.69,3.69,3.691,3.691,0,0,0-3.69-3.69" transform="translate(83.3 26.204)" fill="#00B7E9"/>
      <path id="Path_49366" data-name="Path 49366" d="M36.656,8.748a3.961,3.961,0,1,0,3.961,3.961,3.959,3.959,0,0,0-3.961-3.961" transform="translate(97.184 26.002)" fill="#00B7E9"/>
      <path id="Path_49367" data-name="Path 49367" d="M41.6,8.68a4.229,4.229,0,1,0,4.231,4.231A4.232,4.232,0,0,0,41.6,8.68" transform="translate(111.066 25.8)" fill="#00B7E9"/>
      <path id="Path_49368" data-name="Path 49368" d="M46.537,8.612a4.5,4.5,0,1,0,4.5,4.5,4.5,4.5,0,0,0-4.5-4.5" transform="translate(124.95 25.598)" fill="#00B7E9"/>
      <path id="Path_49369" data-name="Path 49369" d="M51.927,8.544A4.769,4.769,0,1,0,56.7,13.315a4.77,4.77,0,0,0-4.771-4.771" transform="translate(140.169 25.396)" fill="#00B7E9"/>
      <path id="Path_49370" data-name="Path 49370" d="M57.318,8.476a5.039,5.039,0,1,0,5.037,5.041,5.04,5.04,0,0,0-5.037-5.041" transform="translate(155.391 25.194)" fill="#00B7E9"/>
      <path id="Path_49371" data-name="Path 49371" d="M9.529,13.355a2.34,2.34,0,1,0,2.34,2.34,2.341,2.341,0,0,0-2.34-2.34" transform="translate(21.369 39.696)" fill="#00B7E9"/>
      <path id="Path_49372" data-name="Path 49372" d="M14.47,13.288a2.608,2.608,0,1,0,2.61,2.606,2.608,2.608,0,0,0-2.61-2.606" transform="translate(35.253 39.497)" fill="#00B7E9"/>
      <path id="Path_49373" data-name="Path 49373" d="M19.41,13.22a2.88,2.88,0,1,0,2.88,2.88,2.882,2.882,0,0,0-2.88-2.88" transform="translate(49.135 39.295)" fill="#00B7E9"/>
      <path id="Path_49374" data-name="Path 49374" d="M24.351,13.152A3.15,3.15,0,1,0,27.5,16.3a3.149,3.149,0,0,0-3.15-3.146" transform="translate(63.019 39.093)" fill="#00B7E9"/>
      <path id="Path_49375" data-name="Path 49375" d="M29.292,13.084a3.42,3.42,0,1,0,3.42,3.42,3.418,3.418,0,0,0-3.42-3.42" transform="translate(76.903 38.891)" fill="#00B7E9"/>
      <path id="Path_49376" data-name="Path 49376" d="M34.232,13.016a3.69,3.69,0,1,0,3.69,3.69,3.691,3.691,0,0,0-3.69-3.69" transform="translate(90.785 38.689)" fill="#00B7E9"/>
      <path id="Path_49377" data-name="Path 49377" d="M39.174,12.948a3.959,3.959,0,1,0,3.961,3.961,3.959,3.959,0,0,0-3.961-3.961" transform="translate(104.669 38.487)" fill="#00B7E9"/>
      <path id="Path_49378" data-name="Path 49378" d="M44.114,12.88a4.231,4.231,0,1,0,4.231,4.231,4.232,4.232,0,0,0-4.231-4.231" transform="translate(118.55 38.284)" fill="#00B7E9"/>
      <path id="Path_49379" data-name="Path 49379" d="M49.055,12.812a4.5,4.5,0,1,0,4.5,4.5,4.5,4.5,0,0,0-4.5-4.5" transform="translate(132.435 38.082)" fill="#00B7E9"/>
      <path id="Path_49380" data-name="Path 49380" d="M54.445,12.744a4.769,4.769,0,1,0,4.771,4.771,4.77,4.77,0,0,0-4.771-4.771" transform="translate(147.654 37.88)" fill="#00B7E9"/>
      <path id="Path_49381" data-name="Path 49381" d="M59.836,12.676a5.039,5.039,0,1,0,5.037,5.037,5.039,5.039,0,0,0-5.037-5.037" transform="translate(162.876 37.678)" fill="#00B7E9"/>
      <path id="Path_49382" data-name="Path 49382" d="M11.951,17.576a2.608,2.608,0,1,0,2.61,2.61,2.609,2.609,0,0,0-2.61-2.61" transform="translate(27.766 52.243)" fill="#00B7E9"/>
      <path id="Path_49383" data-name="Path 49383" d="M16.892,17.508a2.88,2.88,0,1,0,2.88,2.88,2.882,2.882,0,0,0-2.88-2.88" transform="translate(41.65 52.041)" fill="#00B7E9"/>
      <path id="Path_49384" data-name="Path 49384" d="M21.833,17.44a3.15,3.15,0,1,0,3.15,3.15,3.15,3.15,0,0,0-3.15-3.15" transform="translate(55.534 51.839)" fill="#00B7E9"/>
      <path id="Path_49385" data-name="Path 49385" d="M26.773,17.372a3.42,3.42,0,1,0,3.42,3.42,3.42,3.42,0,0,0-3.42-3.42" transform="translate(69.416 51.637)" fill="#00B7E9"/>
      <path id="Path_49386" data-name="Path 49386" d="M31.714,17.3a3.69,3.69,0,1,0,3.69,3.69,3.691,3.691,0,0,0-3.69-3.69" transform="translate(83.3 51.435)" fill="#00B7E9"/>
      <path id="Path_49387" data-name="Path 49387" d="M36.656,17.236A3.959,3.959,0,1,0,40.616,21.2a3.959,3.959,0,0,0-3.961-3.961" transform="translate(97.184 51.232)" fill="#00B7E9"/>
      <path id="Path_49388" data-name="Path 49388" d="M41.6,17.168A4.229,4.229,0,1,0,45.826,21.4,4.232,4.232,0,0,0,41.6,17.168" transform="translate(111.066 51.03)" fill="#00B7E9"/>
      <path id="Path_49389" data-name="Path 49389" d="M46.537,17.1a4.5,4.5,0,1,0,4.5,4.5,4.5,4.5,0,0,0-4.5-4.5" transform="translate(124.95 50.828)" fill="#00B7E9"/>
      <path id="Path_49390" data-name="Path 49390" d="M51.478,17.032A4.769,4.769,0,1,0,56.249,21.8a4.772,4.772,0,0,0-4.771-4.771" transform="translate(138.834 50.626)" fill="#00B7E9"/>
      <path id="Path_49391" data-name="Path 49391" d="M56.868,16.964a5.039,5.039,0,1,0,5.037,5.041,5.04,5.04,0,0,0-5.037-5.041" transform="translate(154.053 50.424)" fill="#00B7E9"/>
      <path id="Path_49392" data-name="Path 49392" d="M62.258,16.9a5.309,5.309,0,1,0,5.307,5.311A5.311,5.311,0,0,0,62.258,16.9" transform="translate(169.272 50.222)" fill="#00B7E9"/>
      <path id="Path_49393" data-name="Path 49393" d="M14.47,21.775a2.61,2.61,0,1,0,2.61,2.61,2.609,2.609,0,0,0-2.61-2.61" transform="translate(35.253 64.724)" fill="#00B7E9"/>
      <path id="Path_49394" data-name="Path 49394" d="M19.41,21.707a2.88,2.88,0,1,0,2.88,2.88,2.88,2.88,0,0,0-2.88-2.88" transform="translate(49.135 64.522)" fill="#00B7E9"/>
      <path id="Path_49395" data-name="Path 49395" d="M24.351,21.639a3.15,3.15,0,1,0,3.15,3.15,3.15,3.15,0,0,0-3.15-3.15" transform="translate(63.019 64.32)" fill="#00B7E9"/>
      <path id="Path_49396" data-name="Path 49396" d="M29.292,21.571a3.42,3.42,0,1,0,3.42,3.42,3.418,3.418,0,0,0-3.42-3.42" transform="translate(76.903 64.118)" fill="#00B7E9"/>
      <path id="Path_49397" data-name="Path 49397" d="M34.232,21.5a3.69,3.69,0,1,0,3.69,3.69,3.691,3.691,0,0,0-3.69-3.69" transform="translate(90.785 63.916)" fill="#00B7E9"/>
      <path id="Path_49398" data-name="Path 49398" d="M39.174,21.435A3.959,3.959,0,1,0,43.134,25.4a3.959,3.959,0,0,0-3.961-3.961" transform="translate(104.669 63.714)" fill="#00B7E9"/>
      <path id="Path_49399" data-name="Path 49399" d="M44.114,21.367A4.229,4.229,0,1,0,48.344,25.6a4.232,4.232,0,0,0-4.231-4.231" transform="translate(118.55 63.512)" fill="#00B7E9"/>
      <path id="Path_49400" data-name="Path 49400" d="M49.055,21.3a4.5,4.5,0,1,0,4.5,4.5,4.5,4.5,0,0,0-4.5-4.5" transform="translate(132.435 63.309)" fill="#00B7E9"/>
      <path id="Path_49401" data-name="Path 49401" d="M54,21.232A4.767,4.767,0,1,0,58.767,26,4.77,4.77,0,0,0,54,21.232" transform="translate(146.319 63.11)" fill="#00B7E9"/>
      <path id="Path_49402" data-name="Path 49402" d="M59.386,21.164a5.039,5.039,0,1,0,5.037,5.041,5.04,5.04,0,0,0-5.037-5.041" transform="translate(161.538 62.908)" fill="#00B7E9"/>
      <path id="Path_49403" data-name="Path 49403" d="M64.78,21.1a5.309,5.309,0,1,0,5.307,5.311A5.314,5.314,0,0,0,64.78,21.1" transform="translate(176.757 62.706)" fill="#00B7E9"/>
      <path id="Path_49404" data-name="Path 49404" d="M11.951,26.12a2.61,2.61,0,1,0,2.61,2.61,2.609,2.609,0,0,0-2.61-2.61" transform="translate(27.766 77.64)" fill="#00B7E9"/>
      <path id="Path_49405" data-name="Path 49405" d="M16.892,26.052a2.88,2.88,0,1,0,2.88,2.88,2.882,2.882,0,0,0-2.88-2.88" transform="translate(41.65 77.438)" fill="#00B7E9"/>
      <path id="Path_49406" data-name="Path 49406" d="M21.833,25.984a3.15,3.15,0,1,0,3.15,3.15,3.15,3.15,0,0,0-3.15-3.15" transform="translate(55.534 77.235)" fill="#00B7E9"/>
      <path id="Path_49407" data-name="Path 49407" d="M26.773,25.916a3.42,3.42,0,1,0,3.42,3.42,3.42,3.42,0,0,0-3.42-3.42" transform="translate(69.416 77.033)" fill="#00B7E9"/>
      <path id="Path_49408" data-name="Path 49408" d="M31.714,25.848a3.69,3.69,0,1,0,3.69,3.69,3.691,3.691,0,0,0-3.69-3.69" transform="translate(83.3 76.831)" fill="#00B7E9"/>
      <path id="Path_49409" data-name="Path 49409" d="M36.656,25.78a3.959,3.959,0,1,0,3.961,3.961,3.959,3.959,0,0,0-3.961-3.961" transform="translate(97.184 76.629)" fill="#00B7E9"/>
      <path id="Path_49410" data-name="Path 49410" d="M41.6,25.712a4.229,4.229,0,1,0,4.231,4.231A4.232,4.232,0,0,0,41.6,25.712" transform="translate(111.066 76.427)" fill="#00B7E9"/>
      <path id="Path_49411" data-name="Path 49411" d="M46.537,25.644a4.5,4.5,0,1,0,4.5,4.5,4.5,4.5,0,0,0-4.5-4.5" transform="translate(124.95 76.225)" fill="#00B7E9"/>
      <path id="Path_49412" data-name="Path 49412" d="M51.478,25.576a4.769,4.769,0,1,0,4.771,4.771,4.772,4.772,0,0,0-4.771-4.771" transform="translate(138.834 76.023)" fill="#00B7E9"/>
      <path id="Path_49413" data-name="Path 49413" d="M56.868,25.508a5.039,5.039,0,1,0,5.037,5.037,5.039,5.039,0,0,0-5.037-5.037" transform="translate(154.053 75.821)" fill="#00B7E9"/>
      <path id="Path_49414" data-name="Path 49414" d="M62.258,25.44a5.309,5.309,0,1,0,5.307,5.311,5.311,5.311,0,0,0-5.307-5.311" transform="translate(169.272 75.618)" fill="#00B7E9"/>
      <path id="Path_49415" data-name="Path 49415" d="M9.529,30.387a2.34,2.34,0,1,0,2.34,2.34,2.341,2.341,0,0,0-2.34-2.34" transform="translate(21.369 90.323)" fill="#00B7E9"/>
      <path id="Path_49416" data-name="Path 49416" d="M14.47,30.319a2.61,2.61,0,1,0,2.61,2.61,2.609,2.609,0,0,0-2.61-2.61" transform="translate(35.253 90.121)" fill="#00B7E9"/>
      <path id="Path_49417" data-name="Path 49417" d="M19.41,30.251a2.88,2.88,0,1,0,2.88,2.88,2.88,2.88,0,0,0-2.88-2.88" transform="translate(49.135 89.919)" fill="#00B7E9"/>
      <path id="Path_49418" data-name="Path 49418" d="M24.351,30.183a3.15,3.15,0,1,0,3.15,3.15,3.15,3.15,0,0,0-3.15-3.15" transform="translate(63.019 89.717)" fill="#00B7E9"/>
      <path id="Path_49419" data-name="Path 49419" d="M29.292,30.116a3.42,3.42,0,1,0,3.42,3.42,3.418,3.418,0,0,0-3.42-3.42" transform="translate(76.903 89.518)" fill="#00B7E9"/>
      <path id="Path_49420" data-name="Path 49420" d="M34.232,30.048a3.69,3.69,0,1,0,3.69,3.69,3.691,3.691,0,0,0-3.69-3.69" transform="translate(90.785 89.315)" fill="#00B7E9"/>
      <path id="Path_49421" data-name="Path 49421" d="M39.174,29.98a3.959,3.959,0,1,0,3.961,3.961,3.959,3.959,0,0,0-3.961-3.961" transform="translate(104.669 89.113)" fill="#00B7E9"/>
      <path id="Path_49422" data-name="Path 49422" d="M44.114,29.912a4.229,4.229,0,1,0,4.231,4.231,4.232,4.232,0,0,0-4.231-4.231" transform="translate(118.55 88.911)" fill="#00B7E9"/>
      <path id="Path_49423" data-name="Path 49423" d="M49.055,29.844a4.5,4.5,0,1,0,4.5,4.5,4.5,4.5,0,0,0-4.5-4.5" transform="translate(132.435 88.709)" fill="#00B7E9"/>
      <path id="Path_49424" data-name="Path 49424" d="M54.445,29.776a4.769,4.769,0,1,0,4.771,4.771,4.772,4.772,0,0,0-4.771-4.771" transform="translate(147.654 88.507)" fill="#00B7E9"/>
      <path id="Path_49425" data-name="Path 49425" d="M59.836,29.708a5.039,5.039,0,1,0,5.037,5.041,5.04,5.04,0,0,0-5.037-5.041" transform="translate(162.876 88.305)" fill="#00B7E9"/>
      <path id="Path_49426" data-name="Path 49426" d="M7.011,34.675a2.34,2.34,0,1,0,2.34,2.34,2.341,2.341,0,0,0-2.34-2.34" transform="translate(13.884 103.069)" fill="#00B7E9"/>
      <path id="Path_49427" data-name="Path 49427" d="M11.951,34.607a2.61,2.61,0,1,0,2.61,2.61,2.609,2.609,0,0,0-2.61-2.61" transform="translate(27.766 102.867)" fill="#00B7E9"/>
      <path id="Path_49428" data-name="Path 49428" d="M16.892,34.539a2.88,2.88,0,1,0,2.88,2.88,2.882,2.882,0,0,0-2.88-2.88" transform="translate(41.65 102.665)" fill="#00B7E9"/>
      <path id="Path_49429" data-name="Path 49429" d="M21.833,34.472a3.15,3.15,0,1,0,3.15,3.15,3.15,3.15,0,0,0-3.15-3.15" transform="translate(55.534 102.466)" fill="#00B7E9"/>
      <path id="Path_49430" data-name="Path 49430" d="M26.773,34.4a3.42,3.42,0,1,0,3.42,3.42,3.42,3.42,0,0,0-3.42-3.42" transform="translate(69.416 102.264)" fill="#00B7E9"/>
      <path id="Path_49431" data-name="Path 49431" d="M31.714,34.336a3.69,3.69,0,1,0,3.69,3.69,3.691,3.691,0,0,0-3.69-3.69" transform="translate(83.3 102.061)" fill="#00B7E9"/>
      <path id="Path_49432" data-name="Path 49432" d="M36.656,34.268a3.959,3.959,0,1,0,3.961,3.961,3.959,3.959,0,0,0-3.961-3.961" transform="translate(97.184 101.859)" fill="#00B7E9"/>
      <path id="Path_49433" data-name="Path 49433" d="M41.6,34.2a4.231,4.231,0,1,0,4.231,4.231A4.232,4.232,0,0,0,41.6,34.2" transform="translate(111.066 101.657)" fill="#00B7E9"/>
      <path id="Path_49434" data-name="Path 49434" d="M46.537,34.132a4.5,4.5,0,1,0,4.5,4.5,4.5,4.5,0,0,0-4.5-4.5" transform="translate(124.95 101.455)" fill="#00B7E9"/>
      <path id="Path_49435" data-name="Path 49435" d="M51.927,34.064A4.769,4.769,0,1,0,56.7,38.835a4.77,4.77,0,0,0-4.771-4.771" transform="translate(140.169 101.253)" fill="#00B7E9"/>
      <path id="Path_49436" data-name="Path 49436" d="M57.318,34a5.039,5.039,0,1,0,5.037,5.037A5.039,5.039,0,0,0,57.318,34" transform="translate(155.391 101.051)" fill="#00B7E9"/>
      <path id="Path_49437" data-name="Path 49437" d="M4.588,38.943a2.07,2.07,0,1,0,2.07,2.07,2.068,2.068,0,0,0-2.07-2.07" transform="translate(7.485 115.755)" fill="#00B7E9"/>
      <path id="Path_49438" data-name="Path 49438" d="M9.529,38.875a2.34,2.34,0,1,0,2.34,2.34,2.341,2.341,0,0,0-2.34-2.34" transform="translate(21.369 115.553)" fill="#00B7E9"/>
      <path id="Path_49439" data-name="Path 49439" d="M14.47,38.807a2.61,2.61,0,1,0,2.61,2.61,2.609,2.609,0,0,0-2.61-2.61" transform="translate(35.253 115.351)" fill="#00B7E9"/>
      <path id="Path_49440" data-name="Path 49440" d="M19.41,38.739a2.88,2.88,0,1,0,2.88,2.88,2.88,2.88,0,0,0-2.88-2.88" transform="translate(49.135 115.149)" fill="#00B7E9"/>
      <path id="Path_49441" data-name="Path 49441" d="M24.351,38.671a3.15,3.15,0,1,0,3.15,3.15,3.15,3.15,0,0,0-3.15-3.15" transform="translate(63.019 114.947)" fill="#00B7E9"/>
      <path id="Path_49442" data-name="Path 49442" d="M29.292,38.6a3.42,3.42,0,1,0,3.42,3.42,3.418,3.418,0,0,0-3.42-3.42" transform="translate(76.903 114.745)" fill="#00B7E9"/>
      <path id="Path_49443" data-name="Path 49443" d="M34.232,38.535a3.69,3.69,0,1,0,3.69,3.69,3.691,3.691,0,0,0-3.69-3.69" transform="translate(90.785 114.543)" fill="#00B7E9"/>
      <path id="Path_49444" data-name="Path 49444" d="M39.174,38.467a3.961,3.961,0,1,0,3.961,3.961,3.959,3.959,0,0,0-3.961-3.961" transform="translate(104.669 114.341)" fill="#00B7E9"/>
      <path id="Path_49445" data-name="Path 49445" d="M44.114,38.4a4.229,4.229,0,1,0,4.231,4.231A4.232,4.232,0,0,0,44.114,38.4" transform="translate(118.55 114.138)" fill="#00B7E9"/>
      <path id="Path_49446" data-name="Path 49446" d="M49.5,38.331a4.5,4.5,0,1,0,4.5,4.5,4.5,4.5,0,0,0-4.5-4.5" transform="translate(133.772 113.936)" fill="#00B7E9"/>
      <path id="Path_49447" data-name="Path 49447" d="M54.895,38.263a4.769,4.769,0,1,0,4.771,4.771,4.772,4.772,0,0,0-4.771-4.771" transform="translate(148.991 113.734)" fill="#00B7E9"/>
    </g>
  </g>
</svg>
