<svg xmlns="http://www.w3.org/2000/svg" xmlns:xlink="http://www.w3.org/1999/xlink" width="13.872" height="16.597" viewBox="0 0 13.872 16.597">
  <defs>
    <clipPath id="clip-path">
      <rect id="Rectangle_1591" data-name="Rectangle 1591" width="13.872" height="16.597" fill="#fff"/>
    </clipPath>
  </defs>
  <g id="Group_4477" data-name="Group 4477" clip-path="url(#clip-path)">
    <path id="Path_49583" data-name="Path 49583" d="M304.49,59.84c-1.338,0-2.567.68-3.887.78-.379,2.072-.158,2.487.1,2.734a1.41,1.41,0,0,1,.241,1.707c-.471.951-3.636,2.761-3.955,2.847a2.362,2.362,0,0,0,1.39,1.411c1.079.316,2.09.76,2.19,1.874.963.447,2.09.44,2.9,1.314a10.369,10.369,0,0,1,1.948,3.93,2.864,2.864,0,0,0,.782-1.409,1.062,1.062,0,0,1,.219-1.543c.022-.02,2.489-1.858,4.028-1.985l.389-.067a4.872,4.872,0,0,1,.028-.938c-1.234-.593-1.422-1-1.456-1.249-.06-.076-.138-.18-.2-.256-1.913.711-4.926-.565-4.355-1.845.229-.518,1.107-.767,1.749-.949,1-.282,2.363-.671,2.323-1.667-.012-.273-.168-.667-.848-1-2.226-1.1-.844-1.96-.179-2.374a1.785,1.785,0,0,1-1.883-1.076,4.413,4.413,0,0,0-1.53-.236" transform="translate(-296.994 -59.84)" fill="#fff"/>
  </g>
</svg>
