<svg id="_07_Buttons_10_Social_Buttons_Twitter_On_Black_" data-name="07 Buttons / 10 Social Buttons [Twitter] (On Black)" xmlns="http://www.w3.org/2000/svg" width="22" height="20" viewBox="0 0 22 20">
  <g id="Icon">
    <rect id="Rectangle" width="22" height="20" fill="#fff" opacity="0"/>
    <path id="Path" d="M28.342-23.4c0-.179,0-.357-.012-.533a8.452,8.452,0,0,0,2.091-2.136,8.464,8.464,0,0,1-2.407.649A4.152,4.152,0,0,0,29.856-27.7a8.478,8.478,0,0,1-2.661,1A4.216,4.216,0,0,0,24.139-28a4.159,4.159,0,0,0-4.2,4.125,4.058,4.058,0,0,0,.109.94,11.957,11.957,0,0,1-8.639-4.31,4.062,4.062,0,0,0-.568,2.073,4.106,4.106,0,0,0,1.871,3.435,4.209,4.209,0,0,1-1.9-.516v.053a4.144,4.144,0,0,0,3.362,4.044,4.262,4.262,0,0,1-1.1.146,4.243,4.243,0,0,1-.787-.074A4.186,4.186,0,0,0,16.2-15.218,8.49,8.49,0,0,1,11-13.452a8.661,8.661,0,0,1-1-.059,12,12,0,0,0,6.418,1.851,11.743,11.743,0,0,0,8.419-3.372A11.743,11.743,0,0,0,28.342-23.4Z" transform="translate(-9.696 29.719)" fill="#fff" fill-rule="evenodd"/>
  </g>
</svg>
