<svg xmlns="http://www.w3.org/2000/svg" viewBox="22.75 22.75 125.5 129.9">
  <g id="Group_4356" data-name="Group 4356" transform="translate(-165 -1588)">
    <g id="Ellipse_77" data-name="Ellipse 77" transform="translate(189 1612)" fill="none" stroke="#00b7e9" stroke-width="2">
      <circle cx="61.5" cy="61.5" r="61.5" stroke="none"/>
      <circle cx="61.5" cy="61.5" r="60.5" fill="none"/>
    </g>
    <circle id="Ellipse_78" data-name="Ellipse 78" cx="61.5" cy="61.5" r="61.5" transform="translate(189 1612)" fill="none" stroke="#00b7e9" stroke-width="2.5"/>
    <circle id="Ellipse_79" data-name="Ellipse 79" cx="5" cy="5" r="5" transform="translate(244.853 1730.745) rotate(-8)" fill="#00b7e9"/>
    <path id="Path_49055" data-name="Path 49055" d="M5,0A5,5,0,1,1,0,5,5,5,0,0,1,5,0Z" transform="translate(244.853 1730.745) rotate(-8)" fill="#00b7e9"/>
    <circle id="Ellipse_219" data-name="Ellipse 219" cx="1.5" cy="1.5" r="1.5" transform="translate(221.4 1685)" fill="#00b7e9"/>
    <g id="Group_4335" data-name="Group 4335">
      <path id="service" d="M77.743,49.144,74.9,48.051a18.541,18.541,0,0,0-1.8-4.336l1.236-2.782a1.137,1.137,0,0,0-.235-1.265l-3.913-3.913a1.136,1.136,0,0,0-1.265-.235l-2.783,1.236a18.549,18.549,0,0,0-4.334-1.8l-1.093-2.84a1.136,1.136,0,0,0-1.061-.728H54.125a1.137,1.137,0,0,0-1.061.728l-1.093,2.84a18.543,18.543,0,0,0-4.334,1.8l-2.783-1.236a1.136,1.136,0,0,0-1.265.235l-3.913,3.913a1.137,1.137,0,0,0-.235,1.265l1.236,2.783a18.536,18.536,0,0,0-1.8,4.335l-2.84,1.093a1.137,1.137,0,0,0-.728,1.061v5.533A1.137,1.137,0,0,0,36.04,56.8l2.839,1.093a18.549,18.549,0,0,0,1.8,4.336l-1.236,2.782a1.137,1.137,0,0,0,.235,1.265l3.913,3.913a1.137,1.137,0,0,0,1.265.235l2.783-1.236a18.547,18.547,0,0,0,4.334,1.8l1.093,2.84a1.136,1.136,0,0,0,1.061.728h5.533a1.137,1.137,0,0,0,1.061-.728l1.093-2.839a18.55,18.55,0,0,0,4.336-1.8l2.782,1.236a1.136,1.136,0,0,0,1.265-.235l3.913-3.913a1.137,1.137,0,0,0,.235-1.265l-1.236-2.783a18.541,18.541,0,0,0,1.8-4.334l2.84-1.093a1.137,1.137,0,0,0,.728-1.061V50.2A1.137,1.137,0,0,0,77.743,49.144ZM76.2,54.958l-2.66,1.024a1.136,1.136,0,0,0-.7.8,16.284,16.284,0,0,1-1.98,4.776,1.137,1.137,0,0,0-.071,1.057l1.158,2.607-2.809,2.809L66.533,66.87a1.136,1.136,0,0,0-1.057.071,16.283,16.283,0,0,1-4.777,1.98,1.137,1.137,0,0,0-.8.7l-1.023,2.659H54.9l-1.024-2.659a1.137,1.137,0,0,0-.8-.7,16.285,16.285,0,0,1-4.776-1.98,1.137,1.137,0,0,0-1.057-.071l-2.607,1.158-2.809-2.809,1.157-2.605a1.137,1.137,0,0,0-.071-1.057,16.288,16.288,0,0,1-1.98-4.777,1.136,1.136,0,0,0-.7-.8l-2.659-1.023V50.985l2.659-1.024a1.136,1.136,0,0,0,.7-.8,16.281,16.281,0,0,1,1.98-4.776,1.137,1.137,0,0,0,.071-1.057l-1.158-2.606,2.809-2.809,2.607,1.158A1.137,1.137,0,0,0,48.308,39a16.289,16.289,0,0,1,4.776-1.98,1.137,1.137,0,0,0,.8-.7l1.024-2.659h3.972L59.9,36.324a1.137,1.137,0,0,0,.8.7A16.286,16.286,0,0,1,65.475,39a1.137,1.137,0,0,0,1.057.071l2.607-1.158,2.809,2.809L70.79,43.329a1.137,1.137,0,0,0,.071,1.057,16.283,16.283,0,0,1,1.98,4.777,1.136,1.136,0,0,0,.7.8L76.2,50.985ZM56.891,41.27a11.7,11.7,0,1,0,11.7,11.7A11.715,11.715,0,0,0,56.891,41.27ZM50.772,60.135a6.242,6.242,0,0,1,12.238,0,9.4,9.4,0,0,1-12.238,0Zm6.119-7.282a2.594,2.594,0,1,1,2.594-2.594A2.6,2.6,0,0,1,56.891,52.854Zm7.882,5.282a8.495,8.495,0,0,0-4.359-4.523,4.867,4.867,0,1,0-7.046,0,8.5,8.5,0,0,0-4.359,4.523,9.56,9.56,0,0,1-1.759-5.164,9.807,9.807,0,0,1,9.641-9.641,9.624,9.624,0,0,1,9.428,9.641,9.371,9.371,0,0,1-1.546,5.164Zm-.1,22.9-13.21,3.594a6.5,6.5,0,0,1-1.717.238h0a4.844,4.844,0,0,0,.716-.955,4.569,4.569,0,0,0-1.589-6.089,1.141,1.141,0,0,0-.134-.075A59.168,59.168,0,0,1,40.34,72.6c-.818-.57-1.59-1.108-2.255-1.539-2.7-1.751-5.682-1.283-8.243-.593l-9.735,2.621-.4-1.546A2.883,2.883,0,0,0,16.2,69.476l-3.692.955a2.882,2.882,0,0,0-2.066,3.508L15.4,93.119a2.876,2.876,0,0,0,3.508,2.066l3.692-.955a2.884,2.884,0,0,0,2.066-3.508l-.49-1.894,2.12-.568,13.553,7.825a9.056,9.056,0,0,0,7.284.887l24.158-7.213a4.921,4.921,0,0,0,2.966-5.924c-.336-1.178-2.021-4.863-9.589-2.8ZM22.4,91.749a.6.6,0,0,1-.368.28l-3.692.955a.61.61,0,0,1-.737-.434l-4.963-19.18a.613.613,0,0,1,.434-.738l3.692-.955a.6.6,0,0,1,.149-.019.616.616,0,0,1,.309.085.6.6,0,0,1,.28.368l4.963,19.181A.6.6,0,0,1,22.4,91.749Zm22.2-6.079,1.359.612a8.768,8.768,0,0,0,6.094.537l13.21-3.594c3.751-1.02,6.3-.559,6.807,1.234a2.671,2.671,0,0,1-1.43,3.122L46.486,94.793a6.755,6.755,0,0,1-5.5-.677L27.028,86.056a1.136,1.136,0,0,0-.862-.114l-2.556.685L20.676,75.288l9.757-2.627c2.182-.588,4.469-.957,6.415.305.633.411,1.356.914,2.192,1.5a61.4,61.4,0,0,0,8.648,5.3,2.265,2.265,0,0,1,.8,3.006,2.168,2.168,0,0,1-2.948.826c-1.587-.8-3.062-1.679-4.622-2.614-.742-.444-1.508-.9-2.3-1.362a1.137,1.137,0,0,0-1.137,1.969c.776.448,1.535.9,2.268,1.343M11.391,50.4,10.682,52a1.137,1.137,0,0,0,.235,1.265l2.508,2.508A1.137,1.137,0,0,0,14.69,56l1.6-.71a12.278,12.278,0,0,0,2.492,1.033l.627,1.63a1.137,1.137,0,0,0,1.061.728h3.547a1.137,1.137,0,0,0,1.061-.728l.627-1.629A12.282,12.282,0,0,0,28.2,55.3l1.6.709a1.137,1.137,0,0,0,1.265-.235l2.508-2.508A1.137,1.137,0,0,0,33.8,52l-.709-1.6a12.291,12.291,0,0,0,1.033-2.492l1.63-.627a1.136,1.136,0,0,0,.728-1.061V42.671a1.137,1.137,0,0,0-.728-1.061l-1.63-.627a12.286,12.286,0,0,0-1.033-2.493l.709-1.6a1.137,1.137,0,0,0-.235-1.265L31.058,33.12a1.137,1.137,0,0,0-1.265-.235l-1.6.709A12.282,12.282,0,0,0,25.7,32.561l-.627-1.63a1.137,1.137,0,0,0-1.061-.728H20.468a1.137,1.137,0,0,0-1.061.728l-.627,1.63a12.289,12.289,0,0,0-2.492,1.033l-1.6-.71a1.137,1.137,0,0,0-1.265.235l-2.508,2.508a1.137,1.137,0,0,0-.235,1.265l.709,1.6a12.286,12.286,0,0,0-1.033,2.492l-1.63.627A1.137,1.137,0,0,0,8,42.671v3.547a1.137,1.137,0,0,0,.728,1.061l1.629.627A12.3,12.3,0,0,0,11.391,50.4Zm-1.118-6.948,1.443-.556a1.137,1.137,0,0,0,.7-.8,10.027,10.027,0,0,1,1.22-2.942A1.137,1.137,0,0,0,13.7,38.1l-.628-1.415,1.4-1.4,1.415.628a1.137,1.137,0,0,0,1.057-.071,10.031,10.031,0,0,1,2.942-1.22,1.137,1.137,0,0,0,.8-.7l.556-1.443h1.986l.556,1.443a1.137,1.137,0,0,0,.8.7,10.036,10.036,0,0,1,2.942,1.22,1.137,1.137,0,0,0,1.057.071L30,35.28l1.4,1.4L30.778,38.1a1.137,1.137,0,0,0,.071,1.057,10.028,10.028,0,0,1,1.22,2.943,1.137,1.137,0,0,0,.7.8l1.443.555v1.986l-1.444.556a1.137,1.137,0,0,0-.7.8,10.027,10.027,0,0,1-1.22,2.942,1.137,1.137,0,0,0-.071,1.057l.628,1.415L30,53.61l-1.414-.628a1.136,1.136,0,0,0-1.057.071,10.026,10.026,0,0,1-2.943,1.22,1.137,1.137,0,0,0-.8.7l-.555,1.443H21.248l-.556-1.443a1.137,1.137,0,0,0-.8-.7,10.034,10.034,0,0,1-2.942-1.22,1.137,1.137,0,0,0-1.057-.071l-1.415.628-1.4-1.4.628-1.414a1.137,1.137,0,0,0-.071-1.057,10.037,10.037,0,0,1-1.22-2.943,1.136,1.136,0,0,0-.7-.8l-1.443-.555Zm11.968,8.316a7.323,7.323,0,1,0-7.323-7.323,7.331,7.331,0,0,0,7.323,7.323Zm0-12.372a5.049,5.049,0,1,1-5.049,5.05,5.055,5.055,0,0,1,5.049-5.05Z" transform="translate(207.266 1611.216)" fill="#fff"/>
      <g id="Ellipse_220" data-name="Ellipse 220" transform="translate(252 1652)" fill="none" stroke="#00b7e9" stroke-width="2.7">
        <circle cx="12" cy="12" r="12" stroke="none"/>
        <circle cx="12" cy="12" r="10.65" fill="none"/>
      </g>
      <g id="Ellipse_221" data-name="Ellipse 221" transform="translate(222 1648)" fill="none" stroke="#00b7e9" stroke-width="2.7">
        <circle cx="7.5" cy="7.5" r="7.5" stroke="none"/>
        <circle cx="7.5" cy="7.5" r="6.15" fill="none"/>
      </g>
    </g>
  </g>
</svg>