<svg xmlns="http://www.w3.org/2000/svg" xmlns:xlink="http://www.w3.org/1999/xlink" viewBox="0 0 148.25 154.24">
  <defs>
    <clipPath id="clip-path">
      <rect id="Rectangle_1510" data-name="Rectangle 1510" width="68.585" height="68.58" fill="#fff"/>
    </clipPath>
  </defs>
  <g id="Group_4357" data-name="Group 4357" transform="translate(-165 -1582.008)">
    <g id="Ellipse_77" data-name="Ellipse 77" transform="translate(189 1612)" fill="none" stroke="#00b7e9" stroke-width="2">
      <circle cx="61.5" cy="61.5" r="61.5" stroke="none"/>
      <circle cx="61.5" cy="61.5" r="60.5" fill="none"/>
    </g>
    <circle id="Ellipse_78" data-name="Ellipse 78" cx="61.5" cy="61.5" r="61.5" transform="translate(189 1612)" fill="none" stroke="#00b7e9" stroke-width="2.5"/>
    <circle id="Ellipse_79" data-name="Ellipse 79" cx="5" cy="5" r="5" transform="translate(244.137 1609.22) rotate(-21)" fill="#00b7e9"/>
    <path id="Path_49055" data-name="Path 49055" d="M5,0A5,5,0,1,1,0,5,5,5,0,0,1,5,0Z" transform="matrix(0.921, -0.391, 0.391, 0.921, 243.944, 1609.351)" fill="#00b7e9"/>
    <g id="Group_4334" data-name="Group 4334" transform="translate(216.207 1639.21)">
      <g id="Group_4333" data-name="Group 4333" clip-path="url(#clip-path)">
        <path id="Path_49321" data-name="Path 49321" d="M27.547,41.027l-.385,3.81a.929.929,0,0,1-.926.839v0H24.7c.248,2.543,1.011,5.334-2.924,5.326a13.328,13.328,0,0,1-1.517-.034c-1.178-.152-2.022-.661-1.812-2.293l.973-7.652H18.288a4.052,4.052,0,0,1-4.043-4.039V28.216a4.05,4.05,0,0,1,4.043-4.039h9.176a2.352,2.352,0,0,1,2.081,1.252l11.134-5.968a2.27,2.27,0,0,1,4.51.366v7.485a6.185,6.185,0,0,1,0,10.583v7.481a2.27,2.27,0,0,1-4.51.366L29.544,39.779a2.559,2.559,0,0,1-.416.56A2.366,2.366,0,0,1,27.547,41.027Zm-2.153,2.787.284-2.787h-.07a5.511,5.511,0,0,0-.956,2.787ZM42.92,19.424a.4.4,0,0,0-.4.4V45.372a.4.4,0,0,0,.8,0V19.825A.4.4,0,0,0,42.92,19.424ZM27.952,38.67V26.532a.489.489,0,0,0-.486-.49H18.291v0a2.19,2.19,0,0,0-2.174,2.177v8.771a2.183,2.183,0,0,0,2.174,2.174h9.176a.486.486,0,0,0,.342-.144h0A.474.474,0,0,0,27.952,38.67Zm21.01-12.4A.933.933,0,1,1,47.9,24.739l2.939-2.045A.935.935,0,0,1,51.9,24.23ZM47.9,40.463a.933.933,0,1,1,1.066-1.532l2.457,1.706a.933.933,0,1,1-1.066,1.532Zm2.683-6.929a.933.933,0,0,1,0-1.865h2.884a.933.933,0,1,1,0,1.865ZM22.932,46.711a9.861,9.861,0,0,1,.521-5.684H21.292l-1,7.885c-.019.148.074.2.2.214a12.594,12.594,0,0,0,1.283.019c1.042,0,1.282-.381,1.286-.979A13.545,13.545,0,0,0,22.932,46.711ZM45.649,30.3a4.353,4.353,0,0,0-.458-.6v5.809a4.335,4.335,0,0,0,.458-5.206m-5-8.714-10.827,5.8V37.81l10.827,5.8ZM2.486,52.6c.023.036.043.07.062.106a4.54,4.54,0,1,0-.062-.106M.9,53.577A6.468,6.468,0,0,1,3.014,44.9a33.079,33.079,0,0,1,9.5-35.458,6.471,6.471,0,0,1,11.2-6.461,33.074,33.074,0,0,1,35.45,9.5,6.47,6.47,0,0,1,6.465,11.193,33.067,33.067,0,0,1-9.5,35.45A6.47,6.47,0,0,1,44.933,65.59a33.077,33.077,0,0,1-35.454-9.5A6.473,6.473,0,0,1,.9,53.577Zm3.823-9.452A6.472,6.472,0,0,1,11,55a31.213,31.213,0,0,0,33.161,8.88,6.471,6.471,0,0,1,10.878-6.275,31.235,31.235,0,0,0,8.884-33.159,6.472,6.472,0,0,1-6.279-10.878A31.248,31.248,0,0,0,24.483,4.683a6.473,6.473,0,0,1-10.878,6.283A31.236,31.236,0,0,0,4.722,44.125m47.91,22c.035-.023.07-.043.105-.062a4.605,4.605,0,1,0-6.508-1.967l.195.365a4.609,4.609,0,0,0,6.208,1.664M66.159,15.976a1.093,1.093,0,0,1-.062-.106,4.6,4.6,0,1,0-1.966,6.511l.365-.2a4.606,4.606,0,0,0,1.663-6.206M16.012,2.45c-.035.023-.07.042-.106.062a4.544,4.544,0,1,0,.106-.062Z" transform="translate(-0.029 0)" fill="#fff"/>
        <path id="Path_49322" data-name="Path 49322" d="M421.842,89.647a4.6,4.6,0,1,1-4.6,4.6,4.6,4.6,0,0,1,4.6-4.6m0-1.875a6.475,6.475,0,1,0,6.475,6.475,6.475,6.475,0,0,0-6.475-6.475" transform="translate(-359.732 -76.016)" fill="#00b7e9"/>
        <path id="Path_49323" data-name="Path 49323" d="M94.243,1.876a4.6,4.6,0,1,1-4.6,4.6,4.609,4.609,0,0,1,4.6-4.6m0-1.875a6.478,6.478,0,1,0,6.479,6.479A6.479,6.479,0,0,0,94.243,0" transform="translate(-76.009 -0.001)" fill="#00b7e9"/>
        <path id="Path_49324" data-name="Path 49324" d="M6.479,329.379a4.6,4.6,0,1,1-4.6,4.6,4.609,4.609,0,0,1,4.6-4.6m0-1.875a6.478,6.478,0,1,0,6.479,6.479A6.479,6.479,0,0,0,6.479,327.5" transform="translate(0 -283.637)" fill="#00b7e9"/>
        <path id="Path_49325" data-name="Path 49325" d="M334.037,417.147a4.6,4.6,0,1,1-4.6,4.6,4.609,4.609,0,0,1,4.6-4.6m0-1.875a6.478,6.478,0,1,0,6.479,6.479,6.478,6.478,0,0,0-6.479-6.479" transform="translate(-283.684 -359.649)" fill="#00b7e9"/>
      </g>
    </g>
    <line id="Line_35" data-name="Line 35" x2="3" transform="translate(235.5 1668.5)" fill="none" stroke="#00b7e9" stroke-linecap="round" stroke-width="2"/>
    <line id="Line_36" data-name="Line 36" x2="3" transform="translate(235.5 1672)" fill="none" stroke="#00b7e9" stroke-linecap="round" stroke-width="2"/>
    <line id="Line_37" data-name="Line 37" x2="3" transform="translate(235.5 1675.5)" fill="none" stroke="#00b7e9" stroke-linecap="round" stroke-width="2"/>
  </g>
</svg>