<svg xmlns="http://www.w3.org/2000/svg" viewBox="22.75 22.75 128.9 125.5">
  <g id="Group_4348" data-name="Group 4348" transform="translate(-165 -1588)">
    <g id="Ellipse_77" data-name="Ellipse 77" transform="translate(189 1612)" fill="none" stroke="#00b7e9" stroke-width="2">
      <circle cx="61.5" cy="61.5" r="61.5" stroke="none"/>
      <circle cx="61.5" cy="61.5" r="60.5" fill="none"/>
    </g>
    <circle id="Ellipse_78" data-name="Ellipse 78" cx="61.5" cy="61.5" r="61.5" transform="translate(189 1612)" fill="none" stroke="#00b7e9" stroke-width="2.5"/>
    <circle id="Ellipse_79" data-name="Ellipse 79" cx="5" cy="5" r="5" transform="translate(305.353 1659.596) rotate(-8)" fill="#00b7e9"/>
    <path id="Path_49055" data-name="Path 49055" d="M5,0A5,5,0,1,1,0,5,5,5,0,0,1,5,0Z" transform="translate(305.353 1659.596) rotate(-8)" fill="#00b7e9"/>
    <g id="Group_4237" data-name="Group 4237">
      <path id="online-store" d="M33.1,54.351a2.857,2.857,0,1,1,2.858-2.857A2.859,2.859,0,0,1,33.1,54.351Zm0-3.308a.452.452,0,0,0-.452.451c0,.5.9.5.9,0A.452.452,0,0,0,33.1,51.044Zm10.743,3.308A2.857,2.857,0,1,1,46.7,51.495,2.858,2.858,0,0,1,43.839,54.351Zm0-3.308a.451.451,0,0,0-.451.451c0,.5.9.5.9,0A.451.451,0,0,0,43.839,51.044ZM73.685,59.12,70,56.01c0-.074.014-.147.014-.221V8.8a6.573,6.573,0,0,0-6.559-6.559H6.559A6.573,6.573,0,0,0,0,8.8V55.789a6.573,6.573,0,0,0,6.559,6.559H57.052v4.505a2.472,2.472,0,0,0,4.052,1.9l2.253-1.872,1.254,2.694a3.431,3.431,0,0,0,1.952,1.8,3.457,3.457,0,0,0,2.652-.113,3.463,3.463,0,0,0,1.68-4.6l-1.252-2.7,2.882-.514a2.474,2.474,0,0,0,1.158-4.325ZM2.4,8.8A4.159,4.159,0,0,1,6.559,4.653H63.451A4.159,4.159,0,0,1,67.61,8.8v2.074H2.4ZM57.048,50.407l0,9.529H6.559A4.159,4.159,0,0,1,2.4,55.789v-42.5H67.61V54l-6.5-5.48a2.47,2.47,0,0,0-4.062,1.889ZM72.1,61.077l-4.419.789a1.2,1.2,0,0,0-.879,1.691l1.912,4.116a1.048,1.048,0,0,1,.035.808,1.072,1.072,0,0,1-.547.6,1.061,1.061,0,0,1-.813.033,1.045,1.045,0,0,1-.6-.55L64.88,64.452a1.205,1.205,0,0,0-.827-.667,1.255,1.255,0,0,0-.263-.028,1.205,1.205,0,0,0-.768.277l-3.564,2.819.1-16.5,12.575,10.6Z" transform="translate(213.717 1637.561)" fill="#fff"/>
      <path id="online-store-2" data-name="online-store" d="M52.836,26.92a2.778,2.778,0,0,0-2.22-1.094H23.288l-.712-2.663a3.1,3.1,0,0,0-2.988-2.3H17.8a1.2,1.2,0,1,0,0,2.406h1.792a.69.69,0,0,1,.665.511L26,45.265a3.608,3.608,0,0,0,3.481,2.673H48.761a1.2,1.2,0,1,0,0-2.406H29.479a1.2,1.2,0,0,1-1.158-.888L27.882,43h18.1a4.828,4.828,0,0,0,4.656-3.575l2.68-10.081a2.785,2.785,0,0,0-.486-2.428Zm-1.907,1.466A.386.386,0,0,1,51,28.73L49.8,33.214H45.58l.67-4.981h4.366a.387.387,0,0,1,.312.154Zm-7.775,4.827h-4.42V28.232h5.091Zm-6.825-4.981v4.981H31.914l-.675-4.981Zm-7.518,0,.675,4.981H25.27l-1.335-4.981Zm1,7.387.675,4.98H27.249l-1.334-4.98Zm2.428,0h4.089V40.6H32.915Zm6.495,4.98v-4.98h4.1L42.16,40.6Zm7.252,0h-1.4l.67-4.98h3.909l-.848,3.19A2.415,2.415,0,0,1,45.986,40.6ZM20.37,7.765a1.126,1.126,0,0,0-1.127-1.127H6.871a1.127,1.127,0,1,0,0,2.254H19.244A1.126,1.126,0,0,0,20.37,7.765Zm33.979,0a1.2,1.2,0,1,1-1.2-1.2A1.2,1.2,0,0,1,54.349,7.765Zm3.759-1.2a1.2,1.2,0,1,0,1.2,1.2A1.2,1.2,0,0,0,58.108,6.562Zm4.962,0a1.2,1.2,0,1,0,1.2,1.2A1.2,1.2,0,0,0,63.07,6.562Z" transform="translate(213.717 1637.561)" fill="#00b7e9"/>
    </g>
  </g>
</svg>