<svg xmlns="http://www.w3.org/2000/svg" viewBox="22.75 19.2 125.5 129.05">
  <g id="Group_4235" data-name="Group 4235" transform="translate(-165 -1588)">
    <g id="solution" transform="translate(210.994 1634.005)">
      <path id="Path_49051" data-name="Path 49051" d="M63.861,17.375a20.028,20.028,0,0,0-37.2-7.356,12.2,12.2,0,0,0-5.643-.58,11.985,11.985,0,0,0-10.3,10.714,12.4,12.4,0,0,0,.083,3.032,14.664,14.664,0,0,0,3.861,28.809H26.351a22.13,22.13,0,0,1,2.922,9.6,3.963,3.963,0,0,0-1.573,6.4,3.982,3.982,0,0,0,2.96,6.666h.54a9.914,9.914,0,0,0,17.591,0h.533a3.982,3.982,0,0,0,2.96-6.666,3.963,3.963,0,0,0-1.573-6.4,22.13,22.13,0,0,1,2.922-9.6h9.023a17.331,17.331,0,0,0,1.206-34.619ZM39.992,77.323a7.263,7.263,0,0,1-5.611-2.666H45.6a7.263,7.263,0,0,1-5.611,2.666Zm9.332-5.333H30.66a1.333,1.333,0,1,1,0-2.666H49.324a1.333,1.333,0,1,1,0,2.666Zm0-5.333H30.66a1.333,1.333,0,1,1,0-2.666H49.324a1.333,1.333,0,1,1,0,2.666ZM37.08,43.995H42.9a3.866,3.866,0,0,0,.58,3.739,5.307,5.307,0,0,0-2.158,4.259v9.332H38.659V51.994A5.307,5.307,0,0,0,36.5,47.734,3.866,3.866,0,0,0,37.08,44ZM48.057,61.325H43.991V51.994a2.666,2.666,0,0,1,2.666-2.666,4,4,0,0,0,0-8H33.326a4,4,0,0,0,0,8,2.666,2.666,0,0,1,2.666,2.666v9.332H31.926a25.223,25.223,0,0,0-6.051-14.612,18.389,18.389,0,0,1-4.407-14.46,18.682,18.682,0,0,1,37.048,0,18.389,18.389,0,0,1-4.407,14.46,25.223,25.223,0,0,0-6.051,14.612Zm-2.733-16a1.333,1.333,0,1,1,1.333,1.333A1.333,1.333,0,0,1,45.324,45.328Zm-10.665,0a1.333,1.333,0,1,1-1.333-1.333A1.333,1.333,0,0,1,34.659,45.328Zm28,4h-7.22c.227-.289.443-.587.684-.861a21.026,21.026,0,0,0,5.045-16.531,21.349,21.349,0,0,0-42.343,0,21.026,21.026,0,0,0,5.045,16.531c.241.275.457.572.684.861H14.662A12,12,0,0,1,12,25.634a2.014,2.014,0,0,0,1.524-2.357,9.749,9.749,0,0,1-.151-2.878,9.3,9.3,0,0,1,7.988-8.315,9.542,9.542,0,0,1,4.878.629,2.012,2.012,0,0,0,2.485-.921,17.36,17.36,0,0,1,32.55,6.447,2,2,0,0,0,1.917,1.772,14.663,14.663,0,1,1-.54,29.32Z" transform="translate(0 0)" fill="#fff"/>
      <path id="Path_49052" data-name="Path 49052" d="M25.707,20.293a1,1,0,0,0-1.414,0l-3,3a1,1,0,0,0,0,1.414l3,3a1,1,0,1,0,1.414-1.414L23.414,24l2.293-2.293a1,1,0,0,0,0-1.414Z" transform="translate(7.63 7.689)" fill="#00b7e9"/>
      <path id="Path_49053" data-name="Path 49053" d="M35.707,20.293a1,1,0,1,0-1.414,1.414L36.586,24l-2.293,2.293a1,1,0,1,0,1.414,1.414l3-3a1,1,0,0,0,0-1.414Z" transform="translate(12.354 7.689)" fill="#00b7e9"/>
      <path id="Path_49054" data-name="Path 49054" d="M31.316,20.052a1,1,0,0,0-1.264.632l-2,6a1,1,0,0,0,1.9.632l2-6a1,1,0,0,0-.636-1.264Z" transform="translate(9.992 7.69)" fill="#00b7e9"/>
      <g id="solution-2" data-name="solution">
        <path id="Path_49051-2" data-name="Path 49051" d="M37.08,43.995H42.9a3.866,3.866,0,0,0,.58,3.739,5.307,5.307,0,0,0-2.158,4.259v9.332H38.659V51.994A5.307,5.307,0,0,0,36.5,47.734,3.866,3.866,0,0,0,37.08,44Zm6.911,17.331V51.994a2.666,2.666,0,0,1,2.666-2.666,4,4,0,0,0,0-8H33.326a4,4,0,0,0,0,8,2.666,2.666,0,0,1,2.666,2.666v9.332Zm1.333-16a1.333,1.333,0,1,1,1.333,1.333A1.333,1.333,0,0,1,45.324,45.328Zm-10.665,0a1.333,1.333,0,1,1-1.333-1.333A1.333,1.333,0,0,1,34.659,45.328Z" transform="translate(0 0)" fill="#00b7e9"/>
      </g>
    </g>
    <g id="Ellipse_77" data-name="Ellipse 77" transform="translate(189 1612)" fill="none" stroke="#00b7e9" stroke-width="2">
      <circle cx="61.5" cy="61.5" r="61.5" stroke="none"/>
      <circle cx="61.5" cy="61.5" r="60.5" fill="none"/>
    </g>
    <circle id="Ellipse_78" data-name="Ellipse 78" cx="61.5" cy="61.5" r="61.5" transform="translate(189 1612)" fill="none" stroke="#00b7e9" stroke-width="2.5"/>
    <circle id="Ellipse_79" data-name="Ellipse 79" cx="5" cy="5" r="5" transform="translate(234.482 1608.596) rotate(-8)" fill="#00b7e9"/>
    <circle id="Ellipse_80" data-name="Ellipse 80" cx="5" cy="5" r="5" transform="translate(234.482 1608.596) rotate(-8)" fill="#00b7e9"/>
  </g>
</svg>