<svg xmlns="http://www.w3.org/2000/svg" viewBox="22.75 22.75 125.5 125.5">
  <g id="Group_4352" data-name="Group 4352" transform="translate(-165 -1588)">
    <g id="Ellipse_77" data-name="Ellipse 77" transform="translate(189 1612)" fill="none" stroke="#00b7e9" stroke-width="2">
      <circle cx="61.5" cy="61.5" r="61.5" stroke="none"/>
      <circle cx="61.5" cy="61.5" r="60.5" fill="none"/>
    </g>
    <circle id="Ellipse_78" data-name="Ellipse 78" cx="61.5" cy="61.5" r="61.5" transform="translate(189 1612)" fill="none" stroke="#00b7e9" stroke-width="2.5"/>
    <circle id="Ellipse_79" data-name="Ellipse 79" cx="5" cy="5" r="5" transform="translate(296.353 1702.596) rotate(-8)" fill="#00b7e9"/>
    <path id="Path_49055" data-name="Path 49055" d="M5,0A5,5,0,1,1,0,5,5,5,0,0,1,5,0Z" transform="translate(296.353 1702.596) rotate(-8)" fill="#00b7e9"/>
    <g id="mobile-application" transform="translate(215.537 1636.536)">
      <path id="Path_49278" data-name="Path 49278" d="M60.776,13.656H57.324v-6.9A5.76,5.76,0,0,0,51.571,1H19.355A5.76,5.76,0,0,0,13.6,6.753v6.9H10.151A1.151,1.151,0,0,0,9,14.807V50.475a1.151,1.151,0,0,0,1.151,1.151H13.6V66.583a5.76,5.76,0,0,0,5.753,5.753H51.571a5.76,5.76,0,0,0,5.753-5.753V51.626h3.452a1.151,1.151,0,0,0,1.151-1.151V14.807A1.151,1.151,0,0,0,60.776,13.656ZM15.9,6.753A3.456,3.456,0,0,1,19.355,3.3H51.571a3.456,3.456,0,0,1,3.452,3.452v6.9H15.9Zm-4.6,9.2H59.626v6.9H11.3ZM55.023,66.583a3.456,3.456,0,0,1-3.452,3.452H19.355A3.456,3.456,0,0,1,15.9,66.583V60.83h39.12Zm0-8.054H15.9v-6.9h39.12Zm4.6-9.2H11.3V25.162H59.626Z" fill="#fff"/>
      <circle id="Ellipse_214" data-name="Ellipse 214" cx="1" cy="1" r="1" transform="translate(55.463 18.668)" fill="#00b7e9"/>
      <circle id="Ellipse_215" data-name="Ellipse 215" cx="1" cy="1" r="1" transform="translate(50.463 18.668)" fill="#00b7e9"/>
      <circle id="Ellipse_216" data-name="Ellipse 216" cx="1" cy="1" r="1" transform="translate(45.463 18.668)" fill="#00b7e9"/>
      <path id="Path_49279" data-name="Path 49279" d="M32.452,60.9A3.452,3.452,0,1,0,29,57.452,3.452,3.452,0,0,0,32.452,60.9Zm0-4.6A1.151,1.151,0,1,1,31.3,57.452,1.151,1.151,0,0,1,32.452,56.3Z" transform="translate(3.012 7.981)" fill="#fff"/>
      <path id="Path_49280" data-name="Path 49280" d="M40.151,58.3h4.6a1.151,1.151,0,1,0,0-2.3h-4.6a1.151,1.151,0,0,0,0,2.3Z" transform="translate(4.517 8.282)" fill="#fff"/>
      <path id="Path_49281" data-name="Path 49281" d="M20.151,58.3h4.6a1.151,1.151,0,1,0,0-2.3h-4.6a1.151,1.151,0,1,0,0,2.3Z" transform="translate(1.506 8.282)" fill="#fff"/>
      <path id="Path_49282" data-name="Path 49282" d="M37.355,5h-9.2a1.151,1.151,0,0,0,0,2.3h9.2a1.151,1.151,0,0,0,0-2.3Z" transform="translate(2.71 0.602)" fill="#fff"/>
      <circle id="Ellipse_217" data-name="Ellipse 217" cx="1" cy="1" r="1" transform="translate(43.463 5.668)" fill="#fff"/>
      <path id="Path_49283" data-name="Path 49283" d="M24.59,39.47a1.15,1.15,0,1,0,1.627-1.627L21.278,32.9l4.939-4.939a1.15,1.15,0,1,0-1.627-1.627L18.837,32.09a1.151,1.151,0,0,0,0,1.627Z" transform="translate(1.431 3.764)" fill="#00b7e9"/>
      <path id="Path_49284" data-name="Path 49284" d="M38.837,39.47a1.151,1.151,0,0,0,1.627,0l5.753-5.753a1.151,1.151,0,0,0,0-1.627l-5.753-5.753a1.15,1.15,0,1,0-1.627,1.627L43.776,32.9l-4.939,4.939A1.151,1.151,0,0,0,38.837,39.47Z" transform="translate(4.442 3.764)" fill="#00b7e9"/>
      <path id="Path_49285" data-name="Path 49285" d="M28.7,42.317a1.151,1.151,0,0,0,1.511-.6l6.9-16.108A1.151,1.151,0,0,0,35,24.7l-6.9,16.108a1.151,1.151,0,0,0,.6,1.511Z" transform="translate(2.861 3.463)" fill="#00b7e9"/>
    </g>
  </g>
</svg>