<svg xmlns="http://www.w3.org/2000/svg" width="171.532" height="171" viewBox="0 0 171.532 171">
  <g id="Group_4354" data-name="Group 4354" transform="translate(-164.468 -1588)">
    <g id="Ellipse_77" data-name="Ellipse 77" transform="translate(189 1612)" fill="none" stroke="#00b7e9" stroke-width="2">
      <circle cx="61.5" cy="61.5" r="61.5" stroke="none"/>
      <circle cx="61.5" cy="61.5" r="60.5" fill="none"/>
    </g>
    <circle id="Ellipse_78" data-name="Ellipse 78" cx="61.5" cy="61.5" r="61.5" transform="translate(189 1612)" fill="none" stroke="#00b7e9" stroke-width="2.5"/>
    <circle id="Ellipse_79" data-name="Ellipse 79" cx="5" cy="5" r="5" transform="translate(188.096 1695.975) rotate(-21)" fill="#00b7e9"/>
    <path id="Path_49055" data-name="Path 49055" d="M5,0A5,5,0,1,1,0,5,5,5,0,0,1,5,0Z" transform="matrix(0.921, -0.391, 0.391, 0.921, 188.091, 1696.202)" fill="#00b7e9"/>
    <g id="ux-design" transform="translate(215.892 1638.529)">
      <path id="Path_49057" data-name="Path 49057" d="M58.08,10.05a2.37,2.37,0,1,0-2.37-2.37A2.369,2.369,0,0,0,58.08,10.05Zm0-3.05a.69.69,0,0,1,0,1.38.69.69,0,0,1,0-1.38Z" transform="translate(2.356)" fill="#00b7e9"/>
      <path id="Path_49058" data-name="Path 49058" d="M62.939,1.48H12.371A3.5,3.5,0,0,0,8.884,4.967v5.325H5.417A3.5,3.5,0,0,0,1.93,13.779V57.507a3.5,3.5,0,0,0,3.487,3.487H28.594v5.044a.877.877,0,0,0,.872.872H45.844a.877.877,0,0,0,.872-.872V60.994h9.269a3.5,3.5,0,0,0,3.487-3.487V52.182h3.467a3.5,3.5,0,0,0,3.487-3.487V4.967A3.5,3.5,0,0,0,62.939,1.48ZM10.628,4.967a1.747,1.747,0,0,1,1.744-1.744H62.939a1.747,1.747,0,0,1,1.744,1.744v7.649H31.594L27.7,8.579a1.6,1.6,0,0,0-1.142-.488H17.987A1.6,1.6,0,0,0,16.4,9.68v2.937H10.628ZM5.417,59.261a1.747,1.747,0,0,1-1.744-1.744V13.779a1.747,1.747,0,0,1,1.744-1.744H8.884v36.67a3.5,3.5,0,0,0,3.487,3.487H31.3a4.025,4.025,0,0,1,.436,2.18H30.39a1.8,1.8,0,0,0-1.8,1.8v3.093ZM36.794,41a.987.987,0,0,1,.861-.509.975.975,0,0,1,.976.976.985.985,0,0,1-.488.851,1.09,1.09,0,0,1-1.131-.052.288.288,0,0,1-.125-.125A1.1,1.1,0,0,1,36.794,41Zm-.01-2.086a2.7,2.7,0,0,0-1.5,1.245,2.842,2.842,0,0,0,.145,2.917,2.18,2.18,0,0,0,.737.706,3.076,3.076,0,0,0,1.5.415,2.712,2.712,0,0,0,.861-5.283V34.434l7.712,13.918a.112.112,0,0,1-.052.042,5.866,5.866,0,0,0-4.37,5.978H33.5a5.986,5.986,0,0,0-4.422-6.061l7.7-13.877Zm8.189,26.249H30.338l.052-9.061H44.92a.049.049,0,0,1,.052.052Zm12.756-7.66a1.747,1.747,0,0,1-1.744,1.744H46.716V56.157a1.8,1.8,0,0,0-1.8-1.8H43.571a4.122,4.122,0,0,1,.436-2.18H57.728Zm5.21-7.058H45.7a3.751,3.751,0,0,1,.913-.374,1.849,1.849,0,0,0,1.225-1.048,1.773,1.773,0,0,0-.083-1.567L38.828,31.382a1.321,1.321,0,0,0-1.162-.7,1.365,1.365,0,0,0-1.183.685L27.546,47.46a1.808,1.808,0,0,0,1.142,2.616,3.928,3.928,0,0,1,.913.374H12.371a1.747,1.747,0,0,1-1.744-1.744V14.361h5.916a1.6,1.6,0,0,0,1.588-1.588V9.835h8.355l3.892,4.037a1.6,1.6,0,0,0,1.142.488H64.682V48.695a1.75,1.75,0,0,1-1.744,1.754Z" transform="translate(0 0)" fill="#fff"/>
      <path id="Path_49059" data-name="Path 49059" d="M52.36,10.05a2.37,2.37,0,1,0-2.37-2.37A2.369,2.369,0,0,0,52.36,10.05Zm0-3.05a.69.69,0,0,1,0,1.38.69.69,0,0,1,0-1.38Z" transform="translate(1.973)" fill="#00b7e9"/>
      <path id="Path_49060" data-name="Path 49060" d="M46.63,10.05a2.37,2.37,0,1,0-2.37-2.37A2.369,2.369,0,0,0,46.63,10.05Zm0-3.05a.69.69,0,0,1,0,1.38.69.69,0,0,1,0-1.38Z" transform="translate(1.737)" fill="#00b7e9"/>
      <path id="Path_49061" data-name="Path 49061" d="M54.378,21.267a3.5,3.5,0,0,0-.964,1.856H41.1V21.739a1.709,1.709,0,0,0-1.709-1.709H35.414a1.709,1.709,0,0,0-1.709,1.709v1.384H21.4a3.5,3.5,0,0,0-.964-1.866,3.563,3.563,0,0,0-4.906.01,3.467,3.467,0,0,0,0,4.906A3.385,3.385,0,0,0,17.98,27.2a3.78,3.78,0,0,0,1.719-.419,3.092,3.092,0,0,0,1.384-1.426,4.424,4.424,0,0,0,.189-.472h8.544a17.5,17.5,0,0,0-9.362,11.658H19.091a1.709,1.709,0,0,0-1.709,1.709v3.973a1.709,1.709,0,0,0,1.709,1.709h3.973a1.709,1.709,0,0,0,1.709-1.709V38.25a1.709,1.709,0,0,0-1.709-1.709h-.8A15.729,15.729,0,0,1,33.737,25.324V25.7a1.709,1.709,0,0,0,1.709,1.709h3.973A1.709,1.709,0,0,0,41.127,25.7v-.377A15.763,15.763,0,0,1,52.6,36.541h-.723a1.709,1.709,0,0,0-1.709,1.709v3.973a1.709,1.709,0,0,0,1.709,1.709h3.973a1.709,1.709,0,0,0,1.709-1.709V38.25a1.709,1.709,0,0,0-1.709-1.709H54.41a17.537,17.537,0,0,0-9.362-11.658h8.565a3.467,3.467,0,0,0,3.26,2.317,3.78,3.78,0,0,0,1.719-.419,3.092,3.092,0,0,0,1.384-1.426,3.537,3.537,0,0,0-.639-4.1,3.64,3.64,0,0,0-4.959.01Zm-34.9,3.344a1.348,1.348,0,0,1-.587.6,1.749,1.749,0,0,1-2.128-.283,1.663,1.663,0,0,1-.5-1.206,1.741,1.741,0,0,1,.5-1.216,1.721,1.721,0,0,1,2.422-.01A1.827,1.827,0,0,1,19.479,24.611Zm3.564,17.56-3.921.052L19.07,38.3h3.921Zm32.771,0-3.921.052L51.841,38.3h3.921ZM35.477,25.712l-.021-1.321a.91.91,0,0,0,.01-.294v-.01c0-.031.021-.052.021-.084a.52.52,0,0,0-.031-.136L35.424,21.8h3.921l.031,2.065a.735.735,0,0,0-.031.147.247.247,0,0,0,.021.084v.01a.9.9,0,0,0,.021.377l.021,1.185Zm22.864-1.1a1.348,1.348,0,0,1-.587.6,1.749,1.749,0,0,1-2.128-.283,1.663,1.663,0,0,1-.5-1.206,1.741,1.741,0,0,1,.5-1.216,1.721,1.721,0,0,1,2.422-.01A1.827,1.827,0,0,1,58.341,24.611Z" transform="translate(0.242 0)" fill="#00b7e9"/>
    </g>
  </g>
</svg>
