<svg xmlns="http://www.w3.org/2000/svg" xmlns:xlink="http://www.w3.org/1999/xlink" width="171" height="171" viewBox="0 0 171 171">
  <defs>
    <clipPath id="clip-path">
      <rect id="Rectangle_1507" data-name="Rectangle 1507" width="70.472" height="69.343" fill="#fff"/>
    </clipPath>
  </defs>
  <g id="Group_4349" data-name="Group 4349" transform="translate(-165 -1588)">
    <g id="Ellipse_77" data-name="Ellipse 77" transform="translate(189 1612)" fill="none" stroke="#00b7e9" stroke-width="2">
      <circle cx="61.5" cy="61.5" r="61.5" stroke="none"/>
      <circle cx="61.5" cy="61.5" r="60.5" fill="none"/>
    </g>
    <circle id="Ellipse_78" data-name="Ellipse 78" cx="61.5" cy="61.5" r="61.5" transform="translate(189 1612)" fill="none" stroke="#00b7e9" stroke-width="2.5"/>
    <circle id="Ellipse_79" data-name="Ellipse 79" cx="5" cy="5" r="5" transform="translate(244.853 1730.745) rotate(-8)" fill="#00b7e9"/>
    <path id="Path_49055" data-name="Path 49055" d="M5,0A5,5,0,1,1,0,5,5,5,0,0,1,5,0Z" transform="translate(244.853 1730.745) rotate(-8)" fill="#00b7e9"/>
    <g id="Group_4309" data-name="Group 4309" transform="translate(215.264 1638.828)">
      <g id="Group_4308" data-name="Group 4308" clip-path="url(#clip-path)">
        <path id="Path_49286" data-name="Path 49286" d="M128.278,46.414h-53.1a1.032,1.032,0,0,1,0-2.065h53.1a1.032,1.032,0,1,1,0,2.065" transform="translate(-66.493 -39.771)" fill="#fff"/>
        <path id="Path_49287" data-name="Path 49287" d="M1.032,66.5A1.032,1.032,0,0,1,0,65.468v-2.18a3.238,3.238,0,0,1,3.235-3.235H8.686a1.032,1.032,0,1,1,0,2.065H3.235a1.171,1.171,0,0,0-1.17,1.17v2.18A1.032,1.032,0,0,1,1.032,66.5" transform="translate(0 -53.854)" fill="#fff"/>
        <path id="Path_49288" data-name="Path 49288" d="M67.237,110.16h-64A3.238,3.238,0,0,1,0,106.925V70.285a1.032,1.032,0,0,1,2.065,0v36.64a1.171,1.171,0,0,0,1.17,1.17h64a1.171,1.171,0,0,0,1.17-1.17V63.288a1.171,1.171,0,0,0-1.17-1.17H61.786a1.032,1.032,0,0,1,0-2.065h5.452a3.238,3.238,0,0,1,3.235,3.235v43.638a3.238,3.238,0,0,1-3.235,3.235" transform="translate(0 -53.854)" fill="#fff"/>
        <path id="Path_49289" data-name="Path 49289" d="M69.44,443.339H1.032a1.032,1.032,0,1,1,0-2.065H69.44a1.032,1.032,0,1,1,0,2.065" transform="translate(0 -395.721)" fill="#fff"/>
        <path id="Path_49290" data-name="Path 49290" d="M227.575,599.035h-2.3a1.032,1.032,0,0,1,0-2.065h2.3a.345.345,0,0,0,.344-.344v-3.551a.344.344,0,0,0-.344-.344H203.422a.344.344,0,0,0-.344.344v3.551a.345.345,0,0,0,.344.344H220.46a1.032,1.032,0,1,1,0,2.065H203.422a2.411,2.411,0,0,1-2.409-2.409v-3.551a2.411,2.411,0,0,1,2.409-2.409h24.153a2.411,2.411,0,0,1,2.409,2.409v3.551a2.411,2.411,0,0,1-2.409,2.409" transform="translate(-180.262 -529.691)" fill="#fff"/>
        <path id="Path_49291" data-name="Path 49291" d="M287.726,447.387h-10.37a1.585,1.585,0,0,1-1.583-1.583v-3.5a1.032,1.032,0,0,1,2.065,0v3.016h9.406v-3.016a1.032,1.032,0,0,1,2.065,0v3.5a1.585,1.585,0,0,1-1.583,1.583" transform="translate(-247.305 -395.721)" fill="#fff"/>
        <path id="Path_49292" data-name="Path 49292" d="M128.278,47.618a1.032,1.032,0,0,1-1.032-1.032V2.684a.62.62,0,0,0-.619-.619h-49.8a.62.62,0,0,0-.619.619v43.9a1.032,1.032,0,0,1-2.065,0V2.684A2.687,2.687,0,0,1,76.831,0h49.8a2.687,2.687,0,0,1,2.684,2.684v43.9a1.032,1.032,0,0,1-1.032,1.032" transform="translate(-66.493)" fill="#fff"/>
        <path id="Path_49293" data-name="Path 49293" d="M399.912,534.238a1.032,1.032,0,0,1-1.032-1.032v-6.734a1.032,1.032,0,1,1,2.065,0v6.734a1.032,1.032,0,0,1-1.032,1.032" transform="translate(-357.703 -471.199)" fill="#fff"/>
        <path id="Path_49294" data-name="Path 49294" d="M264.819,534.238a1.032,1.032,0,0,1-1.032-1.032v-6.734a1.032,1.032,0,1,1,2.065,0v6.734a1.032,1.032,0,0,1-1.032,1.032" transform="translate(-236.556 -471.199)" fill="#fff"/>
        <path id="Path_49295" data-name="Path 49295" d="M149.633,113.635A1.032,1.032,0,0,1,148.6,112.6c0-4.05-2.1-5.894-4.056-5.894s-4.056,1.845-4.056,5.894a1.032,1.032,0,0,1-2.065,0,9.055,9.055,0,0,1,1.827-5.852,5.43,5.43,0,0,1,8.588,0,9.055,9.055,0,0,1,1.827,5.852,1.032,1.032,0,0,1-1.032,1.032" transform="translate(-124.135 -93.842)" fill="#fff"/>
        <path id="Path_49296" data-name="Path 49296" d="M248.212,122.089a1.032,1.032,0,0,1-1.032-1.032c0-2.37-1.269-4.921-4.056-4.921s-4.056,2.551-4.056,4.921a1.032,1.032,0,1,1-2.065,0,7.287,7.287,0,0,1,1.878-5.18,5.888,5.888,0,0,1,8.485,0,7.287,7.287,0,0,1,1.878,5.18,1.032,1.032,0,0,1-1.032,1.032" transform="translate(-212.537 -102.295)" fill="#fff"/>
        <path id="Path_49297" data-name="Path 49297" d="M346.789,134.272a1.032,1.032,0,0,1-1.032-1.032,3.162,3.162,0,0,0-1.2-2.605,4.65,4.65,0,0,0-2.856-.913c-2.8,0-4.056,1.767-4.056,3.519a1.032,1.032,0,1,1-2.065,0c0-3.665,3.079-5.583,6.12-5.583s6.12,1.918,6.12,5.583a1.032,1.032,0,0,1-1.032,1.032" transform="translate(-300.939 -114.479)" fill="#fff"/>
        <path id="Path_49298" data-name="Path 49298" d="M435.192,136.679a1.032,1.032,0,0,1-1.032-1.032c0-2.772,2.733-4.567,5.073-5.262a1.032,1.032,0,1,1,.588,1.979c-2.484.738-3.6,2.181-3.6,3.283a1.032,1.032,0,0,1-1.032,1.032" transform="translate(-389.342 -116.887)" fill="#fff"/>
        <path id="Path_49299" data-name="Path 49299" d="M477.229,102.152a3.568,3.568,0,1,1,3.568-3.568,3.572,3.572,0,0,1-3.568,3.568m0-5.071a1.5,1.5,0,1,0,1.5,1.5,1.5,1.5,0,0,0-1.5-1.5" transform="translate(-424.765 -85.207)" fill="#00b7e9"/>
        <path id="Path_49300" data-name="Path 49300" d="M435.192,320.509a1.032,1.032,0,0,1-1.032-1.032v-4.3a1.032,1.032,0,1,1,2.065,0v4.3a1.032,1.032,0,0,1-1.032,1.032" transform="translate(-389.342 -281.717)" fill="#fff"/>
        <path id="Path_49302" data-name="Path 49302" d="M238.034,229.132A1.032,1.032,0,0,1,237,228.1v-.664a1.032,1.032,0,1,1,2.065,0v.664a1.032,1.032,0,0,1-1.032,1.032" transform="translate(-212.536 -203.031)" fill="#fff"/>
        <path id="Path_49303" data-name="Path 49303" d="M238.034,280.9A1.032,1.032,0,0,1,237,279.868V279.2a1.032,1.032,0,1,1,2.065,0v.664a1.032,1.032,0,0,1-1.032,1.032" transform="translate(-212.536 -249.455)" fill="#fff"/>
        <path id="Path_49304" data-name="Path 49304" d="M336.282,229.132a1.032,1.032,0,0,1-1.032-1.032v-.664a1.032,1.032,0,1,1,2.065,0v.664a1.032,1.032,0,0,1-1.032,1.032" transform="translate(-300.642 -203.031)" fill="#fff"/>
        <path id="Path_49305" data-name="Path 49305" d="M336.282,280.9a1.032,1.032,0,0,1-1.032-1.032V279.2a1.032,1.032,0,1,1,2.065,0v.664a1.032,1.032,0,0,1-1.032,1.032" transform="translate(-300.642 -249.455)" fill="#fff"/>
        <path id="Path_49308" data-name="Path 49308" d="M268.246,358.678h-4.919a1.032,1.032,0,0,1,0-2.065h4.919a1.032,1.032,0,0,1,0,2.065" transform="translate(-235.217 -319.8)" fill="#00b7e9"/>
        <path id="Path_49309" data-name="Path 49309" d="M379.186,358.678H361.592a1.032,1.032,0,1,1,0-2.065h17.593a1.032,1.032,0,0,1,0,2.065" transform="translate(-323.339 -319.8)" fill="#00b7e9"/>
        <path id="Path_49310" data-name="Path 49310" d="M140.973,358.678h-8.261a1.032,1.032,0,0,1,0-2.065h8.261a1.032,1.032,0,1,1,0,2.065" transform="translate(-118.087 -319.8)" fill="#00b7e9"/>
        <path id="Path_49307" data-name="Path 49307" d="M313.593,338.606a1.3,1.3,0,0,1-.924-.382h0l-2.337-2.337a1.307,1.307,0,0,1,0-1.849l2.336-2.337a1.31,1.31,0,0,1,1.849,0l2.337,2.337a1.307,1.307,0,0,1,0,1.849l-2.336,2.337a1.3,1.3,0,0,1-.925.382m.535-1.842h0Zm-1.8-1.8,1.266,1.266,1.266-1.266-1.266-1.266Z" transform="translate(-277.953 -297.117)" fill="#00b7e9"/>
        <path id="Path_49306" data-name="Path 49306" d="M215.345,338.6a1.3,1.3,0,0,1-.924-.382h0l-2.337-2.337a1.307,1.307,0,0,1,0-1.849l2.337-2.337a1.309,1.309,0,0,1,1.849,0l2.337,2.337a1.308,1.308,0,0,1,0,1.849l-2.336,2.337a1.3,1.3,0,0,1-.925.382m-1.266-3.643,1.266,1.266,1.266-1.266-1.266-1.266Z" transform="translate(-189.847 -297.116)" fill="#00b7e9"/>
        <path id="Path_49301" data-name="Path 49301" d="M417.684,274.384h-3.933a1.309,1.309,0,0,1-1.307-1.307v-4.265a1.309,1.309,0,0,1,1.307-1.308h3.933a1.309,1.309,0,0,1,1.307,1.308v4.265a1.309,1.309,0,0,1-1.307,1.307m-3.176-2.065h2.419v-2.751h-2.419Z" transform="translate(-369.867 -239.889)" fill="#00b7e9"/>
      </g>
    </g>
  </g>
</svg>
